<svg width="325" height="49" viewBox="0 0 325 49" fill="none" xmlns="http://www.w3.org/2000/svg">
<path d="M68.32 33.9761V26.9761H79.576V23.2241H68.32V18.9961H79.996V15.2161H64.12V33.9761H68.32ZM87.5801 34.2561C91.2761 34.2561 92.9841 32.0441 93.3481 29.6921H93.5721V33.9761H97.4921V19.9481H93.2921V27.0601C93.2921 29.4401 92.3121 30.5041 89.5681 30.5041C86.9081 30.5041 85.9561 29.5521 85.9561 27.2841V19.9481H81.7561V28.6841C81.7561 31.8201 83.6321 34.2561 87.5801 34.2561ZM103.84 33.9761V15.2161H99.6395V33.9761H103.84ZM110.238 33.9761V15.2161H106.038V33.9761H110.238ZM115.124 38.7361C118.652 38.7361 120.528 37.9241 121.872 34.9841L128.816 19.9481H124.14L121.48 26.3321L120.36 29.6641H120.08L118.904 26.3601L115.936 19.9481H111.176L118.036 34.0321C117.756 34.6481 117.308 34.9281 116.272 34.9281H112.828V38.7361H115.124ZM143.751 34.2561C149.603 34.2561 153.327 31.3441 153.327 26.5841V26.1641H148.651V26.5841C148.651 29.0481 147.251 30.2241 143.835 30.2241C139.719 30.2241 138.179 28.7681 138.179 24.5961C138.179 20.4241 139.719 18.9681 143.835 18.9681C147.251 18.9681 148.651 20.1441 148.651 22.6081V23.0281H153.327V22.6081C153.327 17.8481 149.575 14.9361 143.751 14.9361C137.563 14.9361 133.727 18.7441 133.727 24.5961C133.727 30.4481 137.563 34.2561 143.751 34.2561ZM160.943 34.2561C164.639 34.2561 166.347 32.0441 166.711 29.6921H166.935V33.9761H170.855V19.9481H166.655V27.0601C166.655 29.4401 165.675 30.5041 162.931 30.5041C160.271 30.5041 159.319 29.5521 159.319 27.2841V19.9481H155.119V28.6841C155.119 31.8201 156.995 34.2561 160.943 34.2561ZM180.087 34.2561C184.427 34.2561 187.031 32.5201 187.031 29.8881C187.031 27.5641 185.631 26.3041 181.879 25.8841L178.883 25.5201C177.035 25.2961 176.643 24.9881 176.643 24.2601C176.643 23.3641 177.175 23.0001 179.275 23.0001C181.851 23.0001 182.411 23.5881 182.411 24.7361V24.9041H186.611V24.8201C186.611 21.4041 184.007 19.6681 179.415 19.6681C174.599 19.6681 172.499 21.6281 172.499 24.0921C172.499 26.4441 174.067 27.7041 176.867 28.0121L180.815 28.4881C182.467 28.7121 182.887 28.9361 182.887 29.7201C182.887 30.5601 182.355 30.9241 180.115 30.9241C177.735 30.9241 176.951 30.5881 176.951 29.3281V29.0761H172.751V29.1601C172.751 32.4081 175.355 34.2561 180.087 34.2561ZM198.609 33.9761V30.1961H196.089C194.605 30.1961 194.073 29.8321 194.073 28.4321V23.4201H198.609V19.9481H194.073V17.2321H189.873V19.9481H187.661V23.4201H189.873V28.9081C189.873 32.4361 191.861 33.9761 195.137 33.9761H198.609ZM207.659 34.2561C212.447 34.2561 215.667 31.4001 215.667 26.9761C215.667 22.4961 212.447 19.6681 207.659 19.6681C202.871 19.6681 199.651 22.4961 199.651 26.9761C199.651 31.4001 202.871 34.2561 207.659 34.2561ZM207.659 30.5321C204.803 30.5321 203.823 29.4401 203.823 26.9761C203.823 24.5121 204.803 23.3641 207.659 23.3641C210.487 23.3641 211.495 24.5121 211.495 26.9761C211.495 29.4401 210.487 30.5321 207.659 30.5321ZM221.582 33.9761V26.8921C221.582 24.4561 222.31 23.4481 224.858 23.4481C227.266 23.4481 228.078 24.3161 228.078 26.6401V33.9761H232.278V26.8921C232.278 24.4561 233.006 23.4481 235.554 23.4481C237.962 23.4481 238.774 24.3161 238.774 26.6401V33.9761H242.974V25.2401C242.974 22.0481 241.21 19.6681 237.598 19.6681C233.986 19.6681 232.558 21.8801 232.222 24.2601H231.97C231.662 21.6561 230.01 19.6681 226.762 19.6681C223.234 19.6681 221.834 21.8521 221.498 24.2041H221.274V19.9481H217.382V33.9761H221.582ZM249.308 18.5201V15.2161H245.108V18.5201H249.308ZM249.308 33.9761V19.9481H245.108V33.9761H249.308ZM265.815 33.9761V30.3081H258.899L256.239 30.5041V30.2241L258.899 28.5721L265.395 23.5601V19.9481H251.339V23.6441H256.939L259.879 23.4761V23.7561L256.939 25.6041L250.919 30.3921V33.9761H265.815ZM271.787 34.2561C274.895 34.2561 276.855 32.9401 277.499 30.7561H277.723V33.9761H281.643V25.7441C281.643 22.0761 279.431 19.6681 274.755 19.6681C270.135 19.6681 267.223 22.0761 267.223 25.5481V25.6321H271.451V25.5201C271.451 23.9241 272.319 23.3641 274.447 23.3641C276.687 23.3641 277.499 23.8681 277.499 25.6881V26.2201L271.479 26.8361C268.483 27.1441 266.943 28.4321 266.943 30.5041C266.943 32.8561 268.763 34.2561 271.787 34.2561ZM271.171 30.2241C271.171 29.5521 271.619 29.2721 272.627 29.1881L277.499 28.6281C277.387 30.6161 275.847 31.2881 272.991 31.2881C271.759 31.2881 271.171 30.9801 271.171 30.2241ZM287.664 33.9761V30.0841H287.916C288.42 32.8561 290.268 34.2561 293.516 34.2561C297.884 34.2561 300.264 31.4001 300.264 26.9761C300.264 22.4961 297.912 19.6681 293.712 19.6681C290.38 19.6681 288.672 21.3201 288.196 23.6721H287.972V15.2161H283.772V33.9761H287.664ZM287.972 27.0601V26.8361C287.972 24.4001 289.372 23.5041 292.088 23.5041C294.776 23.5041 296.008 24.4001 296.008 26.9761C296.008 29.5241 294.776 30.4201 292.06 30.4201C289.4 30.4201 287.972 29.4961 287.972 27.0601ZM306.211 33.9761V15.2161H302.011V33.9761H306.211ZM315.857 34.2561C320.309 34.2561 323.277 32.1281 323.277 29.0761V28.7681H319.077V29.0481C319.077 30.2521 318.209 30.8961 315.717 30.8961C313.001 30.8961 311.993 29.9721 311.881 27.8161H323.305C323.361 27.3401 323.417 26.9761 323.417 26.4721C323.417 22.0761 320.365 19.6681 315.773 19.6681C311.153 19.6681 307.989 22.4961 307.989 26.9761C307.989 31.9601 311.181 34.2561 315.857 34.2561ZM315.689 22.9441C318.153 22.9441 319.273 23.7561 319.385 25.6041H311.937C312.133 23.7841 313.197 22.9441 315.689 22.9441Z" fill="black"/>
<circle cx="24" cy="24.9761" r="24" fill="#FF5555"/>
<path d="M24 14.9761L22.6985 20.1821C22.4445 21.1979 22.3176 21.7059 22.0531 22.1192C21.8192 22.4848 21.5087 22.7952 21.1431 23.0292C20.7298 23.2936 20.2218 23.4206 19.206 23.6746L14 24.9761L19.206 26.2776C20.2218 26.5315 20.7298 26.6585 21.1431 26.923C21.5087 27.1569 21.8192 27.4674 22.0531 27.833C22.3176 28.2463 22.4445 28.7542 22.6985 29.7701L24 34.9761L25.3015 29.7701C25.5555 28.7542 25.6824 28.2463 25.9469 27.833C26.1808 27.4674 26.4913 27.1569 26.8569 26.923C27.2702 26.6585 27.7782 26.5315 28.794 26.2776L34 24.9761L28.794 23.6746C27.7782 23.4206 27.2702 23.2936 26.8569 23.0292C26.4913 22.7952 26.1808 22.4848 25.9469 22.1192C25.6824 21.7059 25.5555 21.1979 25.3015 20.1821L24 14.9761Z" stroke="white" stroke-width="2" stroke-linecap="round" stroke-linejoin="round"/>
</svg>
