<svg width="546" height="129" viewBox="0 0 546 129" fill="none" xmlns="http://www.w3.org/2000/svg">
<path opacity="0.5" d="M2.16 12.9761L3.546 9.84407H9.918L11.304 12.9761H13.5L8.118 0.916074H5.382L0 12.9761H2.16ZM5.958 4.42607L6.66 2.71607H6.804L7.506 4.42607L9.144 8.09807H4.32L5.958 4.42607ZM16.344 12.9761V7.95407C16.344 6.35207 16.974 5.50607 18.504 5.50607C19.836 5.50607 20.376 6.10007 20.376 7.37807V8.17007H22.302V7.00007C22.302 5.30807 21.42 3.85007 19.386 3.85007C17.55 3.85007 16.578 5.00207 16.308 6.44207H16.182V4.03007H14.4V12.9761H16.344ZM28.041 13.1561C30.723 13.1561 32.685 11.6441 32.685 9.41207V9.21407H30.759V9.34007C30.759 10.7261 29.751 11.4101 28.005 11.4101C25.989 11.4101 25.089 10.4381 25.089 8.51207C25.089 6.55007 25.989 5.59607 28.005 5.59607C29.751 5.59607 30.759 6.28007 30.759 7.66607V7.77407H32.685V7.59407C32.685 5.36207 30.723 3.85007 28.041 3.85007C25.089 3.85007 23.163 5.72207 23.163 8.51207C23.163 11.2661 25.089 13.1561 28.041 13.1561ZM37.8487 13.1561C40.1527 13.1561 41.3407 11.7161 41.6287 10.2041H41.7367V12.9761H43.5187V4.03007H41.5927V8.45807C41.5927 10.4021 40.6747 11.4101 38.6947 11.4101C36.8047 11.4101 36.0307 10.5641 36.0307 8.89007V4.03007H34.1047V9.41207C34.1047 11.4821 35.3287 13.1561 37.8487 13.1561ZM49.6209 12.9761L51.0069 9.84407H57.3789L58.7649 12.9761H60.9609L55.5789 0.916074H52.8429L47.4609 12.9761H49.6209ZM53.4189 4.42607L54.1209 2.71607H54.2649L54.9669 4.42607L56.6049 8.09807H51.7809L53.4189 4.42607ZM67.7289 12.9761V11.2301H66.1089C64.9929 11.2301 64.4889 10.9421 64.4889 9.84407V5.65007H67.7289V4.03007H64.4889V2.06807H62.5629V4.03007H61.0509V5.65007H62.5629V9.95207C62.5629 12.1301 63.7509 12.9761 65.6769 12.9761H67.7289ZM77.6191 12.9761C81.3631 12.9761 83.7211 10.6721 83.7211 6.94607C83.7211 3.22007 81.3631 0.916074 77.6191 0.916074H72.1291V12.9761H77.6191ZM77.6191 2.66207C80.4091 2.66207 81.6691 3.85007 81.6691 6.94607C81.6691 10.0421 80.4091 11.2301 77.6191 11.2301H74.0551V2.66207H77.6191ZM87.1135 2.98607V0.916074H85.1695V2.98607H87.1135ZM87.1135 12.9761V4.03007H85.1695V12.9761H87.1135ZM93.4317 13.1561C96.1137 13.1561 98.0757 11.6441 98.0757 9.41207V9.21407H96.1497V9.34007C96.1497 10.7261 95.1417 11.4101 93.3957 11.4101C91.3797 11.4101 90.4797 10.4381 90.4797 8.51207C90.4797 6.55007 91.3797 5.59607 93.3957 5.59607C95.1417 5.59607 96.1497 6.28007 96.1497 7.66607V7.77407H98.0757V7.59407C98.0757 5.36207 96.1137 3.85007 93.4317 3.85007C90.4797 3.85007 88.5537 5.72207 88.5537 8.51207C88.5537 11.2661 90.4797 13.1561 93.4317 13.1561ZM105.381 12.9761V11.2301H103.761C102.645 11.2301 102.141 10.9421 102.141 9.84407V5.65007H105.381V4.03007H102.141V2.06807H100.215V4.03007H98.7033V5.65007H100.215V9.95207C100.215 12.1301 101.403 12.9761 103.329 12.9761H105.381ZM110.323 13.1561C112.627 13.1561 113.815 11.7161 114.103 10.2041H114.211V12.9761H115.993V4.03007H114.067V8.45807C114.067 10.4021 113.149 11.4101 111.169 11.4101C109.279 11.4101 108.505 10.5641 108.505 8.89007V4.03007H106.579V9.41207C106.579 11.4821 107.803 13.1561 110.323 13.1561ZM119.703 12.9761V8.54807C119.703 6.56807 120.369 5.59607 122.295 5.59607C124.023 5.59607 124.707 6.35207 124.707 8.11607V12.9761H126.633V8.54807C126.633 6.56807 127.317 5.59607 129.225 5.59607C130.953 5.59607 131.655 6.35207 131.655 8.11607V12.9761H133.581V7.59407C133.581 5.43407 132.411 3.85007 130.089 3.85007C127.821 3.85007 126.813 5.27207 126.579 6.80207H126.471C126.219 5.09207 125.121 3.85007 123.087 3.85007C120.855 3.85007 119.883 5.23607 119.649 6.73007H119.541V4.03007H117.759V12.9761H119.703ZM143.454 13.1561C147.018 13.1561 148.512 11.4641 148.512 9.62807C148.512 7.86407 147.324 6.76607 144.912 6.33407L141.978 5.83007C140.556 5.52407 139.944 5.18207 139.944 4.13807C139.944 3.05807 140.808 2.51807 143.004 2.51807C145.506 2.51807 146.388 3.25607 146.388 4.73207V4.96607H148.314V4.85807C148.314 2.50007 146.712 0.736074 143.184 0.736074C139.44 0.736074 138 2.50007 138 4.24607C138 6.22607 139.44 7.16207 141.474 7.52207L144.426 8.00807C145.956 8.29607 146.568 8.69207 146.568 9.73607C146.568 10.8701 145.758 11.3741 143.454 11.3741C140.808 11.3741 139.962 10.6541 139.962 9.21407V8.92607H138.018V9.03407C138.018 11.5721 139.854 13.1561 143.454 13.1561ZM152.52 13.1561C154.554 13.1561 155.976 12.2561 156.444 10.7441H156.57V12.9761H158.352V7.54007C158.352 5.39807 157.074 3.85007 154.23 3.85007C151.386 3.85007 149.694 5.38007 149.694 7.41407V7.48607H151.62V7.41407C151.62 6.10007 152.43 5.56007 154.086 5.56007C155.796 5.56007 156.444 6.08207 156.444 7.55807V8.08007L152.376 8.51207C150.612 8.71007 149.496 9.43007 149.496 10.8161C149.496 12.2921 150.666 13.1561 152.52 13.1561ZM151.44 10.6901C151.44 9.98807 151.926 9.75407 152.934 9.62807L156.444 9.23207C156.444 10.9961 155.076 11.7521 153.042 11.7521C151.926 11.7521 151.44 11.4101 151.44 10.6901ZM162.032 16.0361V10.4561H162.104C162.464 12.0941 163.76 13.1561 165.776 13.1561C168.566 13.1561 170.096 11.2841 170.096 8.51207C170.096 5.74007 168.53 3.85007 165.758 3.85007C163.652 3.85007 162.392 4.85807 162.032 6.51407H161.87V4.03007H160.088V16.0361H162.032ZM162.032 8.65607V8.49407C162.032 6.56807 163.148 5.63207 165.146 5.63207C167.018 5.63207 168.152 6.35207 168.152 8.51207C168.152 10.6541 167.036 11.3921 165.11 11.3921C163.202 11.3921 162.032 10.4921 162.032 8.65607ZM173.387 2.98607V0.916074H171.443V2.98607H173.387ZM173.387 12.9761V4.03007H171.443V12.9761H173.387ZM179.687 13.1561C182.351 13.1561 184.223 11.8421 184.223 9.93407V9.77207H182.279V9.91607C182.279 10.9781 181.505 11.5901 179.633 11.5901C177.563 11.5901 176.717 10.6721 176.645 8.94407H184.241C184.295 8.67407 184.313 8.42207 184.313 8.09807C184.313 5.38007 182.423 3.85007 179.651 3.85007C176.735 3.85007 174.827 5.72207 174.827 8.51207C174.827 11.5001 176.753 13.1561 179.687 13.1561ZM179.615 5.38007C181.523 5.38007 182.477 6.17207 182.477 7.82807V7.86407H176.663C176.771 6.26207 177.635 5.38007 179.615 5.38007ZM187.713 12.9761V8.54807C187.713 6.60407 188.595 5.59607 190.557 5.59607C192.411 5.59607 193.167 6.44207 193.167 8.11607V12.9761H195.111V7.59407C195.111 5.52407 193.887 3.85007 191.403 3.85007C189.135 3.85007 187.947 5.29007 187.677 6.80207H187.551V4.03007H185.769V12.9761H187.713ZM197.167 14.9921C198.283 14.9921 198.931 14.4521 198.931 13.3361V10.1861H196.483V12.9761H197.563V13.3541C197.563 13.7321 197.419 13.8041 197.113 13.8041H196.519V14.9921H197.167ZM205.397 12.9761V5.57807L205.325 3.83207H205.469L206.207 5.57807L209.537 12.2561H211.877L215.207 5.57807L215.945 3.83207H216.089L216.017 5.57807V12.9761H217.961V0.916074H215.315L211.877 7.90007L210.815 10.4021H210.671L209.573 7.90007L206.099 0.916074H203.453V12.9761H205.397ZM224.337 13.1561C227.325 13.1561 229.323 11.2661 229.323 8.51207C229.323 5.72207 227.325 3.85007 224.337 3.85007C221.367 3.85007 219.369 5.72207 219.369 8.51207C219.369 11.2661 221.367 13.1561 224.337 13.1561ZM224.337 11.4281C222.177 11.4281 221.277 10.4021 221.277 8.51207C221.277 6.60407 222.177 5.56007 224.337 5.56007C226.515 5.56007 227.415 6.60407 227.415 8.51207C227.415 10.4021 226.515 11.4281 224.337 11.4281ZM232.678 12.9761V0.916074H230.734V12.9761H232.678ZM236.422 12.9761V0.916074H234.478V12.9761H236.422ZM240.166 2.98607V0.916074H238.222V2.98607H240.166ZM240.166 12.9761V4.03007H238.222V12.9761H240.166ZM246.196 13.1561C248.716 13.1561 250.372 12.1661 250.372 10.4921C250.372 9.01607 249.4 8.29607 247.276 8.02607L245.206 7.73807C243.856 7.55807 243.496 7.30607 243.496 6.60407C243.496 5.75807 244.072 5.39807 245.71 5.39807C247.69 5.39807 248.23 5.95607 248.23 7.01807V7.12607H250.156V7.07207C250.156 4.94807 248.5 3.85007 245.764 3.85007C243.01 3.85007 241.588 4.96607 241.588 6.53207C241.588 8.02607 242.614 8.74607 244.306 8.96207L246.754 9.28607C248.032 9.46607 248.464 9.70007 248.464 10.4381C248.464 11.2301 247.942 11.5901 246.196 11.5901C244.324 11.5901 243.622 11.2121 243.622 10.0421V9.89807H241.678V9.95207C241.678 12.0221 243.316 13.1561 246.196 13.1561ZM253.863 12.9761V10.1861H251.415V12.9761H253.863ZM265.296 12.9761L270.444 0.916074H268.158L264.018 11.0141H263.874L259.698 0.916074H257.394L262.542 12.9761H265.296ZM274.995 13.1561C277.299 13.1561 278.487 11.7161 278.775 10.2041H278.883V12.9761H280.665V4.03007H278.739V8.45807C278.739 10.4021 277.821 11.4101 275.841 11.4101C273.951 11.4101 273.177 10.5641 273.177 8.89007V4.03007H271.251V9.41207C271.251 11.4821 272.475 13.1561 274.995 13.1561ZM284.375 12.9761V0.916074H282.431V12.9761H284.375ZM288.119 16.0361V10.4561H288.191C288.551 12.0941 289.847 13.1561 291.863 13.1561C294.653 13.1561 296.183 11.2841 296.183 8.51207C296.183 5.74007 294.617 3.85007 291.845 3.85007C289.739 3.85007 288.479 4.85807 288.119 6.51407H287.957V4.03007H286.175V16.0361H288.119ZM288.119 8.65607V8.49407C288.119 6.56807 289.235 5.63207 291.233 5.63207C293.105 5.63207 294.239 6.35207 294.239 8.51207C294.239 10.6541 293.123 11.3921 291.197 11.3921C289.289 11.3921 288.119 10.4921 288.119 8.65607ZM301.257 13.1561C303.561 13.1561 304.749 11.7161 305.037 10.2041H305.145V12.9761H306.927V4.03007H305.001V8.45807C305.001 10.4021 304.083 11.4101 302.103 11.4101C300.213 11.4101 299.439 10.5641 299.439 8.89007V4.03007H297.513V9.41207C297.513 11.4821 298.737 13.1561 301.257 13.1561ZM314.561 12.9761V11.2301H312.941C311.825 11.2301 311.321 10.9421 311.321 9.84407V5.65007H314.561V4.03007H311.321V2.06807H309.395V4.03007H307.883V5.65007H309.395V9.95207C309.395 12.1301 310.583 12.9761 312.509 12.9761H314.561ZM318.405 13.1561C320.439 13.1561 321.861 12.2561 322.329 10.7441H322.455V12.9761H324.237V7.54007C324.237 5.39807 322.959 3.85007 320.115 3.85007C317.271 3.85007 315.579 5.38007 315.579 7.41407V7.48607H317.505V7.41407C317.505 6.10007 318.315 5.56007 319.971 5.56007C321.681 5.56007 322.329 6.08207 322.329 7.55807V8.08007L318.261 8.51207C316.497 8.71007 315.381 9.43007 315.381 10.8161C315.381 12.2921 316.551 13.1561 318.405 13.1561ZM317.325 10.6901C317.325 9.98807 317.811 9.75407 318.819 9.62807L322.329 9.23207C322.329 10.9961 320.961 11.7521 318.927 11.7521C317.811 11.7521 317.325 11.4101 317.325 10.6901ZM331.84 12.9761V11.2301H330.22C329.104 11.2301 328.6 10.9421 328.6 9.84407V5.65007H331.84V4.03007H328.6V2.06807H326.674V4.03007H325.162V5.65007H326.674V9.95207C326.674 12.1301 327.862 12.9761 329.788 12.9761H331.84ZM337.556 13.1561C340.22 13.1561 342.092 11.8421 342.092 9.93407V9.77207H340.148V9.91607C340.148 10.9781 339.374 11.5901 337.502 11.5901C335.432 11.5901 334.586 10.6721 334.514 8.94407H342.11C342.164 8.67407 342.182 8.42207 342.182 8.09807C342.182 5.38007 340.292 3.85007 337.52 3.85007C334.604 3.85007 332.696 5.72207 332.696 8.51207C332.696 11.5001 334.622 13.1561 337.556 13.1561ZM337.484 5.38007C339.392 5.38007 340.346 6.17207 340.346 7.82807V7.86407H334.532C334.64 6.26207 335.504 5.38007 337.484 5.38007ZM351.772 13.1561C355.336 13.1561 356.83 11.4641 356.83 9.62807C356.83 7.86407 355.642 6.76607 353.23 6.33407L350.296 5.83007C348.874 5.52407 348.262 5.18207 348.262 4.13807C348.262 3.05807 349.126 2.51807 351.322 2.51807C353.824 2.51807 354.706 3.25607 354.706 4.73207V4.96607H356.632V4.85807C356.632 2.50007 355.03 0.736074 351.502 0.736074C347.758 0.736074 346.318 2.50007 346.318 4.24607C346.318 6.22607 347.758 7.16207 349.792 7.52207L352.744 8.00807C354.274 8.29607 354.886 8.69207 354.886 9.73607C354.886 10.8701 354.076 11.3741 351.772 11.3741C349.126 11.3741 348.28 10.6541 348.28 9.21407V8.92607H346.336V9.03407C346.336 11.5721 348.172 13.1561 351.772 13.1561ZM360.155 2.98607V0.916074H358.211V2.98607H360.155ZM360.155 12.9761V4.03007H358.211V12.9761H360.155ZM367.823 12.9761V11.2301H366.203C365.087 11.2301 364.583 10.9421 364.583 9.84407V5.65007H367.823V4.03007H364.583V2.06807H362.657V4.03007H361.145V5.65007H362.657V9.95207C362.657 12.1301 363.845 12.9761 365.771 12.9761H367.823ZM374.059 12.9761V0.916074H372.115V12.9761H374.059ZM379.801 13.1561C381.817 13.1561 383.131 12.1841 383.509 10.4021H383.635V12.9761H385.417V0.916074H383.473V6.46007H383.365C383.005 4.94807 381.799 3.85007 379.675 3.85007C376.957 3.85007 375.409 5.72207 375.409 8.51207C375.409 11.2661 376.975 13.1561 379.801 13.1561ZM377.371 8.51207C377.371 6.35207 378.487 5.61407 380.359 5.61407C382.357 5.61407 383.473 6.55007 383.473 8.45807V8.60207C383.473 10.4741 382.303 11.3741 380.395 11.3741C378.469 11.3741 377.371 10.6541 377.371 8.51207ZM391.551 12.9761L392.937 9.84407H399.309L400.695 12.9761H402.891L397.509 0.916074H394.773L389.391 12.9761H391.551ZM395.349 4.42607L396.051 2.71607H396.195L396.897 4.42607L398.535 8.09807H393.711L395.349 4.42607ZM408.309 13.1561C410.991 13.1561 412.953 11.6441 412.953 9.41207V9.21407H411.027V9.34007C411.027 10.7261 410.019 11.4101 408.273 11.4101C406.257 11.4101 405.357 10.4381 405.357 8.51207C405.357 6.55007 406.257 5.59607 408.273 5.59607C410.019 5.59607 411.027 6.28007 411.027 7.66607V7.77407H412.953V7.59407C412.953 5.36207 410.991 3.85007 408.309 3.85007C405.357 3.85007 403.431 5.72207 403.431 8.51207C403.431 11.2661 405.357 13.1561 408.309 13.1561ZM418.908 13.1561C421.59 13.1561 423.552 11.6441 423.552 9.41207V9.21407H421.626V9.34007C421.626 10.7261 420.618 11.4101 418.872 11.4101C416.856 11.4101 415.956 10.4381 415.956 8.51207C415.956 6.55007 416.856 5.59607 418.872 5.59607C420.618 5.59607 421.626 6.28007 421.626 7.66607V7.77407H423.552V7.59407C423.552 5.36207 421.59 3.85007 418.908 3.85007C415.956 3.85007 414.03 5.72207 414.03 8.51207C414.03 11.2661 415.956 13.1561 418.908 13.1561ZM428.716 13.1561C431.02 13.1561 432.208 11.7161 432.496 10.2041H432.604V12.9761H434.386V4.03007H432.46V8.45807C432.46 10.4021 431.542 11.4101 429.562 11.4101C427.672 11.4101 426.898 10.5641 426.898 8.89007V4.03007H424.972V9.41207C424.972 11.4821 426.196 13.1561 428.716 13.1561ZM438.096 12.9761V8.54807C438.096 6.56807 438.762 5.59607 440.688 5.59607C442.416 5.59607 443.1 6.35207 443.1 8.11607V12.9761H445.026V8.54807C445.026 6.56807 445.71 5.59607 447.618 5.59607C449.346 5.59607 450.048 6.35207 450.048 8.11607V12.9761H451.974V7.59407C451.974 5.43407 450.804 3.85007 448.482 3.85007C446.214 3.85007 445.206 5.27207 444.972 6.80207H444.864C444.612 5.09207 443.514 3.85007 441.48 3.85007C439.248 3.85007 438.276 5.23607 438.042 6.73007H437.934V4.03007H436.152V12.9761H438.096ZM457.943 13.1561C460.463 13.1561 462.119 12.1661 462.119 10.4921C462.119 9.01607 461.147 8.29607 459.023 8.02607L456.953 7.73807C455.603 7.55807 455.243 7.30607 455.243 6.60407C455.243 5.75807 455.819 5.39807 457.457 5.39807C459.437 5.39807 459.977 5.95607 459.977 7.01807V7.12607H461.902V7.07207C461.902 4.94807 460.247 3.85007 457.511 3.85007C454.757 3.85007 453.335 4.96607 453.335 6.53207C453.335 8.02607 454.361 8.74607 456.053 8.96207L458.501 9.28607C459.779 9.46607 460.211 9.70007 460.211 10.4381C460.211 11.2301 459.689 11.5901 457.943 11.5901C456.071 11.5901 455.369 11.2121 455.369 10.0421V9.89807H453.425V9.95207C453.425 12.0221 455.062 13.1561 457.943 13.1561ZM466.149 13.1561C468.183 13.1561 469.605 12.2561 470.073 10.7441H470.199V12.9761H471.981V7.54007C471.981 5.39807 470.703 3.85007 467.859 3.85007C465.015 3.85007 463.323 5.38007 463.323 7.41407V7.48607H465.249V7.41407C465.249 6.10007 466.059 5.56007 467.715 5.56007C469.425 5.56007 470.073 6.08207 470.073 7.55807V8.08007L466.005 8.51207C464.241 8.71007 463.125 9.43007 463.125 10.8161C463.125 12.2921 464.295 13.1561 466.149 13.1561ZM465.069 10.6901C465.069 9.98807 465.555 9.75407 466.563 9.62807L470.073 9.23207C470.073 10.9961 468.705 11.7521 466.671 11.7521C465.555 11.7521 465.069 11.4101 465.069 10.6901ZM475.66 12.9761V8.54807C475.66 6.60407 476.542 5.59607 478.504 5.59607C480.358 5.59607 481.114 6.44207 481.114 8.11607V12.9761H483.058V7.59407C483.058 5.52407 481.834 3.85007 479.35 3.85007C477.082 3.85007 475.894 5.29007 475.624 6.80207H475.498V4.03007H473.716V12.9761H475.66ZM485.115 14.9921C486.231 14.9921 486.879 14.4521 486.879 13.3361V10.1861H484.431V12.9761H485.511V13.3541C485.511 13.7321 485.367 13.8041 485.061 13.8041H484.467V14.9921H485.115ZM6.48 41.1561C10.098 41.1561 12.15 39.2481 12.15 35.9721V28.9161H10.206V35.8461C10.206 38.2761 9.126 39.2841 6.48 39.2841C3.834 39.2841 2.754 38.2761 2.754 35.8461V28.9161H0.828V35.9721C0.828 39.2481 2.88 41.1561 6.48 41.1561ZM15.8167 40.9761V28.9161H13.8727V40.9761H15.8167ZM23.4848 40.9761V39.2301H21.8648C20.7488 39.2301 20.2448 38.9421 20.2448 37.8441V33.6501H23.4848V32.0301H20.2448V30.0681H18.3188V32.0301H16.8068V33.6501H18.3188V37.9521C18.3188 40.1301 19.5068 40.9761 21.4328 40.9761H23.4848ZM26.6448 40.9761V35.9541C26.6448 34.3521 27.2748 33.5061 28.8048 33.5061C30.1368 33.5061 30.6768 34.1001 30.6768 35.3781V36.1701H32.6028V35.0001C32.6028 33.3081 31.7208 31.8501 29.6868 31.8501C27.8508 31.8501 26.8788 33.0021 26.6088 34.4421H26.4828V32.0301H24.7008V40.9761H26.6448ZM35.7678 30.9861V28.9161H33.8238V30.9861H35.7678ZM35.7678 40.9761V32.0301H33.8238V40.9761H35.7678ZM42.086 41.1561C44.768 41.1561 46.73 39.6441 46.73 37.4121V37.2141H44.804V37.3401C44.804 38.7261 43.796 39.4101 42.05 39.4101C40.034 39.4101 39.134 38.4381 39.134 36.5121C39.134 34.5501 40.034 33.5961 42.05 33.5961C43.796 33.5961 44.804 34.2801 44.804 35.6661V35.7741H46.73V35.5941C46.73 33.3621 44.768 31.8501 42.086 31.8501C39.134 31.8501 37.208 33.7221 37.208 36.5121C37.208 39.2661 39.134 41.1561 42.086 41.1561ZM50.1116 30.9861V28.9161H48.1676V30.9861H50.1116ZM50.1116 40.9761V32.0301H48.1676V40.9761H50.1116ZM56.4117 41.1561C59.0757 41.1561 60.9477 39.8421 60.9477 37.9341V37.7721H59.0037V37.9161C59.0037 38.9781 58.2297 39.5901 56.3577 39.5901C54.2877 39.5901 53.4417 38.6721 53.3697 36.9441H60.9657C61.0197 36.6741 61.0377 36.4221 61.0377 36.0981C61.0377 33.3801 59.1477 31.8501 56.3757 31.8501C53.4597 31.8501 51.5517 33.7221 51.5517 36.5121C51.5517 39.5001 53.4777 41.1561 56.4117 41.1561ZM56.3397 33.3801C58.2477 33.3801 59.2017 34.1721 59.2017 35.8281V35.8641H53.3877C53.4957 34.2621 54.3597 33.3801 56.3397 33.3801ZM66.7238 41.1561C69.2438 41.1561 70.8998 40.1661 70.8998 38.4921C70.8998 37.0161 69.9278 36.2961 67.8038 36.0261L65.7338 35.7381C64.3838 35.5581 64.0238 35.3061 64.0238 34.6041C64.0238 33.7581 64.5998 33.3981 66.2378 33.3981C68.2178 33.3981 68.7578 33.9561 68.7578 35.0181V35.1261H70.6837V35.0721C70.6837 32.9481 69.0278 31.8501 66.2918 31.8501C63.5378 31.8501 62.1158 32.9661 62.1158 34.5321C62.1158 36.0261 63.1418 36.7461 64.8338 36.9621L67.2818 37.2861C68.5598 37.4661 68.9918 37.7001 68.9918 38.4381C68.9918 39.2301 68.4698 39.5901 66.7238 39.5901C64.8518 39.5901 64.1498 39.2121 64.1498 38.0421V37.8981H62.2058V37.9521C62.2058 40.0221 63.8438 41.1561 66.7238 41.1561ZM74.3903 40.9761V38.1861H71.9423V40.9761H74.3903ZM80.8557 40.9761V28.9161H78.9117V40.9761H80.8557ZM84.5999 40.9761V36.5481C84.5999 34.6041 85.4819 33.5961 87.4439 33.5961C89.2979 33.5961 90.0539 34.4421 90.0539 36.1161V40.9761H91.9979V35.5941C91.9979 33.5241 90.7739 31.8501 88.2899 31.8501C86.0219 31.8501 84.8339 33.2901 84.5639 34.8021H84.4379V32.0301H82.6559V40.9761H84.5999ZM102.386 41.1561C106.004 41.1561 108.056 39.2481 108.056 35.9721V28.9161H106.112V35.8461C106.112 38.2761 105.032 39.2841 102.386 39.2841C99.7403 39.2841 98.6603 38.2761 98.6603 35.8461V28.9161H96.7343V35.9721C96.7343 39.2481 98.7863 41.1561 102.386 41.1561ZM111.723 40.9761V28.9161H109.779V40.9761H111.723ZM119.391 40.9761V39.2301H117.771C116.655 39.2301 116.151 38.9421 116.151 37.8441V33.6501H119.391V32.0301H116.151V30.0681H114.225V32.0301H112.713V33.6501H114.225V37.9521C114.225 40.1301 115.413 40.9761 117.339 40.9761H119.391ZM122.551 40.9761V35.9541C122.551 34.3521 123.181 33.5061 124.711 33.5061C126.043 33.5061 126.583 34.1001 126.583 35.3781V36.1701H128.509V35.0001C128.509 33.3081 127.627 31.8501 125.593 31.8501C123.757 31.8501 122.785 33.0021 122.515 34.4421H122.389V32.0301H120.607V40.9761H122.551ZM131.674 30.9861V28.9161H129.73V30.9861H131.674ZM131.674 40.9761V32.0301H129.73V40.9761H131.674ZM137.992 41.1561C140.674 41.1561 142.636 39.6441 142.636 37.4121V37.2141H140.71V37.3401C140.71 38.7261 139.702 39.4101 137.956 39.4101C135.94 39.4101 135.04 38.4381 135.04 36.5121C135.04 34.5501 135.94 33.5961 137.956 33.5961C139.702 33.5961 140.71 34.2801 140.71 35.6661V35.7741H142.636V35.5941C142.636 33.3621 140.674 31.8501 137.992 31.8501C135.04 31.8501 133.114 33.7221 133.114 36.5121C133.114 39.2661 135.04 41.1561 137.992 41.1561ZM148.574 41.1561C151.238 41.1561 153.11 39.8421 153.11 37.9341V37.7721H151.166V37.9161C151.166 38.9781 150.392 39.5901 148.52 39.5901C146.45 39.5901 145.604 38.6721 145.532 36.9441H153.128C153.182 36.6741 153.2 36.4221 153.2 36.0981C153.2 33.3801 151.31 31.8501 148.538 31.8501C145.622 31.8501 143.714 33.7221 143.714 36.5121C143.714 39.5001 145.64 41.1561 148.574 41.1561ZM148.502 33.3801C150.41 33.3801 151.364 34.1721 151.364 35.8281V35.8641H145.55C145.658 34.2621 146.522 33.3801 148.502 33.3801ZM158.886 41.1561C161.406 41.1561 163.062 40.1661 163.062 38.4921C163.062 37.0161 162.09 36.2961 159.966 36.0261L157.896 35.7381C156.546 35.5581 156.186 35.3061 156.186 34.6041C156.186 33.7581 156.762 33.3981 158.4 33.3981C160.38 33.3981 160.92 33.9561 160.92 35.0181V35.1261H162.846V35.0721C162.846 32.9481 161.19 31.8501 158.454 31.8501C155.7 31.8501 154.278 32.9661 154.278 34.5321C154.278 36.0261 155.304 36.7461 156.996 36.9621L159.444 37.2861C160.722 37.4661 161.154 37.7001 161.154 38.4381C161.154 39.2301 160.632 39.5901 158.886 39.5901C157.014 39.5901 156.312 39.2121 156.312 38.0421V37.8981H154.368V37.9521C154.368 40.0221 156.006 41.1561 158.886 41.1561ZM169.485 40.9761V33.5781L169.413 31.8321H169.557L170.295 33.5781L173.625 40.2561H175.965L179.295 33.5781L180.033 31.8321H180.177L180.105 33.5781V40.9761H182.049V28.9161H179.403L175.965 35.9001L174.903 38.4021H174.759L173.661 35.9001L170.187 28.9161H167.541V40.9761H169.485ZM186.481 41.1561C188.515 41.1561 189.937 40.2561 190.405 38.7441H190.531V40.9761H192.313V35.5401C192.313 33.3981 191.035 31.8501 188.191 31.8501C185.347 31.8501 183.655 33.3801 183.655 35.4141V35.4861H185.581V35.4141C185.581 34.1001 186.391 33.5601 188.047 33.5601C189.757 33.5601 190.405 34.0821 190.405 35.5581V36.0801L186.337 36.5121C184.573 36.7101 183.457 37.4301 183.457 38.8161C183.457 40.2921 184.627 41.1561 186.481 41.1561ZM185.401 38.6901C185.401 37.9881 185.887 37.7541 186.895 37.6281L190.405 37.2321C190.405 38.9961 189.037 39.7521 187.003 39.7521C185.887 39.7521 185.401 39.4101 185.401 38.6901ZM195.992 40.9761V28.9161H194.048V40.9761H195.992ZM202.293 41.1561C204.957 41.1561 206.829 39.8421 206.829 37.9341V37.7721H204.885V37.9161C204.885 38.9781 204.111 39.5901 202.239 39.5901C200.169 39.5901 199.323 38.6721 199.251 36.9441H206.847C206.901 36.6741 206.919 36.4221 206.919 36.0981C206.919 33.3801 205.029 31.8501 202.257 31.8501C199.341 31.8501 197.433 33.7221 197.433 36.5121C197.433 39.5001 199.359 41.1561 202.293 41.1561ZM202.221 33.3801C204.129 33.3801 205.083 34.1721 205.083 35.8281V35.8641H199.269C199.377 34.2621 200.241 33.3801 202.221 33.3801ZM212.605 41.1561C215.125 41.1561 216.781 40.1661 216.781 38.4921C216.781 37.0161 215.809 36.2961 213.685 36.0261L211.615 35.7381C210.265 35.5581 209.905 35.3061 209.905 34.6041C209.905 33.7581 210.481 33.3981 212.119 33.3981C214.099 33.3981 214.639 33.9561 214.639 35.0181V35.1261H216.565V35.0721C216.565 32.9481 214.909 31.8501 212.173 31.8501C209.419 31.8501 207.997 32.9661 207.997 34.5321C207.997 36.0261 209.023 36.7461 210.715 36.9621L213.163 37.2861C214.441 37.4661 214.873 37.7001 214.873 38.4381C214.873 39.2301 214.351 39.5901 212.605 39.5901C210.733 39.5901 210.031 39.2121 210.031 38.0421V37.8981H208.087V37.9521C208.087 40.0221 209.725 41.1561 212.605 41.1561ZM221.909 41.1561C224.213 41.1561 225.401 39.7161 225.689 38.2041H225.797V40.9761H227.579V32.0301H225.653V36.4581C225.653 38.4021 224.735 39.4101 222.755 39.4101C220.865 39.4101 220.091 38.5641 220.091 36.8901V32.0301H218.165V37.4121C218.165 39.4821 219.389 41.1561 221.909 41.1561ZM231.973 41.1561C234.007 41.1561 235.429 40.2561 235.897 38.7441H236.023V40.9761H237.805V35.5401C237.805 33.3981 236.527 31.8501 233.683 31.8501C230.839 31.8501 229.147 33.3801 229.147 35.4141V35.4861H231.073V35.4141C231.073 34.1001 231.883 33.5601 233.539 33.5601C235.249 33.5601 235.897 34.0821 235.897 35.5581V36.0801L231.829 36.5121C230.065 36.7101 228.949 37.4301 228.949 38.8161C228.949 40.2921 230.119 41.1561 231.973 41.1561ZM230.893 38.6901C230.893 37.9881 231.379 37.7541 232.387 37.6281L235.897 37.2321C235.897 38.9961 234.529 39.7521 232.495 39.7521C231.379 39.7521 230.893 39.4101 230.893 38.6901ZM243.483 41.1561C245.499 41.1561 246.813 40.1841 247.191 38.4021H247.317V40.9761H249.099V28.9161H247.155V34.4601H247.047C246.687 32.9481 245.481 31.8501 243.357 31.8501C240.639 31.8501 239.091 33.7221 239.091 36.5121C239.091 39.2661 240.657 41.1561 243.483 41.1561ZM241.053 36.5121C241.053 34.3521 242.169 33.6141 244.041 33.6141C246.039 33.6141 247.155 34.5501 247.155 36.4581V36.6021C247.155 38.4741 245.985 39.3741 244.077 39.3741C242.151 39.3741 241.053 38.6541 241.053 36.5121ZM253.524 41.1561C255.558 41.1561 256.98 40.2561 257.448 38.7441H257.574V40.9761H259.356V35.5401C259.356 33.3981 258.078 31.8501 255.234 31.8501C252.39 31.8501 250.698 33.3801 250.698 35.4141V35.4861H252.624V35.4141C252.624 34.1001 253.434 33.5601 255.09 33.5601C256.8 33.5601 257.448 34.0821 257.448 35.5581V36.0801L253.38 36.5121C251.616 36.7101 250.5 37.4301 250.5 38.8161C250.5 40.2921 251.67 41.1561 253.524 41.1561ZM252.444 38.6901C252.444 37.9881 252.93 37.7541 253.938 37.6281L257.448 37.2321C257.448 38.9961 256.08 39.7521 254.046 39.7521C252.93 39.7521 252.444 39.4101 252.444 38.6901ZM273.816 40.9761V39.2301H266.112V35.7741H273.546V34.0461H266.112V30.6621H273.816V28.9161H264.168V40.9761H273.816ZM277.274 40.9761V28.9161H275.33V40.9761H277.274ZM281.018 30.9861V28.9161H279.074V30.9861H281.018ZM281.018 40.9761V32.0301H279.074V40.9761H281.018ZM288.686 40.9761V39.2301H287.066C285.95 39.2301 285.446 38.9421 285.446 37.8441V33.6501H288.686V32.0301H285.446V30.0681H283.52V32.0301H282.008V33.6501H283.52V37.9521C283.52 40.1301 284.708 40.9761 286.634 40.9761H288.686ZM294.922 40.9761V33.5781L294.85 31.8321H294.994L295.732 33.5781L299.062 40.2561H301.402L304.732 33.5781L305.47 31.8321H305.614L305.542 33.5781V40.9761H307.486V28.9161H304.84L301.402 35.9001L300.34 38.4021H300.196L299.098 35.9001L295.624 28.9161H292.978V40.9761H294.922ZM311.919 41.1561C313.953 41.1561 315.375 40.2561 315.843 38.7441H315.969V40.9761H317.751V35.5401C317.751 33.3981 316.473 31.8501 313.629 31.8501C310.785 31.8501 309.093 33.3801 309.093 35.4141V35.4861H311.019V35.4141C311.019 34.1001 311.829 33.5601 313.485 33.5601C315.195 33.5601 315.843 34.0821 315.843 35.5581V36.0801L311.775 36.5121C310.011 36.7101 308.895 37.4301 308.895 38.8161C308.895 40.2921 310.065 41.1561 311.919 41.1561ZM310.839 38.6901C310.839 37.9881 311.325 37.7541 312.333 37.6281L315.843 37.2321C315.843 38.9961 314.475 39.7521 312.441 39.7521C311.325 39.7521 310.839 39.4101 310.839 38.6901ZM323.212 41.1561C325.516 41.1561 326.704 39.7161 326.992 38.2041H327.1V40.9761H328.882V32.0301H326.956V36.4581C326.956 38.4021 326.038 39.4101 324.058 39.4101C322.168 39.4101 321.394 38.5641 321.394 36.8901V32.0301H319.468V37.4121C319.468 39.4821 320.692 41.1561 323.212 41.1561ZM332.592 40.9761V35.9541C332.592 34.3521 333.222 33.5061 334.752 33.5061C336.084 33.5061 336.624 34.1001 336.624 35.3781V36.1701H338.55V35.0001C338.55 33.3081 337.668 31.8501 335.634 31.8501C333.798 31.8501 332.826 33.0021 332.556 34.4421H332.43V32.0301H330.648V40.9761H332.592ZM341.715 30.9861V28.9161H339.771V30.9861H341.715ZM341.715 40.9761V32.0301H339.771V40.9761H341.715ZM347.745 41.1561C350.265 41.1561 351.921 40.1661 351.921 38.4921C351.921 37.0161 350.949 36.2961 348.825 36.0261L346.755 35.7381C345.405 35.5581 345.045 35.3061 345.045 34.6041C345.045 33.7581 345.621 33.3981 347.259 33.3981C349.239 33.3981 349.779 33.9561 349.779 35.0181V35.1261H351.705V35.0721C351.705 32.9481 350.049 31.8501 347.313 31.8501C344.559 31.8501 343.137 32.9661 343.137 34.5321C343.137 36.0261 344.163 36.7461 345.855 36.9621L348.303 37.2861C349.581 37.4661 350.013 37.7001 350.013 38.4381C350.013 39.2301 349.491 39.5901 347.745 39.5901C345.873 39.5901 345.171 39.2121 345.171 38.0421V37.8981H343.227V37.9521C343.227 40.0221 344.865 41.1561 347.745 41.1561ZM366.048 40.9761V39.2301H358.344V35.7741H365.778V34.0461H358.344V30.6621H366.048V28.9161H356.4V40.9761H366.048ZM373.43 40.9761V39.2301H371.81C370.694 39.2301 370.19 38.9421 370.19 37.8441V33.6501H373.43V32.0301H370.19V30.0681H368.264V32.0301H366.752V33.6501H368.264V37.9521C368.264 40.1301 369.452 40.9761 371.378 40.9761H373.43ZM376.59 30.9861V28.9161H374.646V30.9861H376.59ZM376.59 40.9761V32.0301H374.646V40.9761H376.59ZM381.018 41.1561C383.052 41.1561 384.474 40.2561 384.942 38.7441H385.068V40.9761H386.85V35.5401C386.85 33.3981 385.572 31.8501 382.728 31.8501C379.884 31.8501 378.192 33.3801 378.192 35.4141V35.4861H380.118V35.4141C380.118 34.1001 380.928 33.5601 382.584 33.5601C384.294 33.5601 384.942 34.0821 384.942 35.5581V36.0801L380.874 36.5121C379.11 36.7101 377.994 37.4301 377.994 38.8161C377.994 40.2921 379.164 41.1561 381.018 41.1561ZM379.938 38.6901C379.938 37.9881 380.424 37.7541 381.432 37.6281L384.942 37.2321C384.942 38.9961 383.574 39.7521 381.54 39.7521C380.424 39.7521 379.938 39.4101 379.938 38.6901ZM390.53 40.9761V36.5481C390.53 34.5681 391.196 33.5961 393.122 33.5961C394.85 33.5961 395.534 34.3521 395.534 36.1161V40.9761H397.46V36.5481C397.46 34.5681 398.144 33.5961 400.052 33.5961C401.78 33.5961 402.482 34.3521 402.482 36.1161V40.9761H404.408V35.5941C404.408 33.4341 403.238 31.8501 400.916 31.8501C398.648 31.8501 397.64 33.2721 397.406 34.8021H397.298C397.046 33.0921 395.948 31.8501 393.914 31.8501C391.682 31.8501 390.71 33.2361 390.476 34.7301H390.368V32.0301H388.586V40.9761H390.53ZM415.144 41.1561C418.96 41.1561 421.444 38.7081 421.444 34.9461C421.444 31.1841 418.96 28.7361 415.144 28.7361C411.364 28.7361 408.862 31.1841 408.862 34.9461C408.862 38.7081 411.364 41.1561 415.144 41.1561ZM415.144 39.2841C412.282 39.2841 410.914 37.9521 410.914 34.9461C410.914 31.9401 412.282 30.5901 415.144 30.5901C418.006 30.5901 419.392 31.9401 419.392 34.9461C419.392 37.9521 418.006 39.2841 415.144 39.2841ZM426.822 41.1561C428.838 41.1561 430.152 40.1841 430.53 38.4021H430.656V40.9761H432.438V28.9161H430.494V34.4601H430.386C430.026 32.9481 428.82 31.8501 426.696 31.8501C423.978 31.8501 422.43 33.7221 422.43 36.5121C422.43 39.2661 423.996 41.1561 426.822 41.1561ZM424.392 36.5121C424.392 34.3521 425.508 33.6141 427.38 33.6141C429.378 33.6141 430.494 34.5501 430.494 36.4581V36.6021C430.494 38.4741 429.324 39.3741 427.416 39.3741C425.49 39.3741 424.392 38.6541 424.392 36.5121ZM436.18 30.9861V28.9161H434.236V30.9861H436.18ZM436.18 40.9761V32.0301H434.236V40.9761H436.18ZM442.552 41.1561C445.54 41.1561 447.538 39.2661 447.538 36.5121C447.538 33.7221 445.54 31.8501 442.552 31.8501C439.582 31.8501 437.584 33.7221 437.584 36.5121C437.584 39.2661 439.582 41.1561 442.552 41.1561ZM442.552 39.4281C440.392 39.4281 439.492 38.4021 439.492 36.5121C439.492 34.6041 440.392 33.5601 442.552 33.5601C444.73 33.5601 445.63 34.6041 445.63 36.5121C445.63 38.4021 444.73 39.4281 442.552 39.4281ZM451.037 40.9761V38.1861H448.589V40.9761H451.037ZM461.156 40.9761C464.9 40.9761 467.258 38.6721 467.258 34.9461C467.258 31.2201 464.9 28.9161 461.156 28.9161H455.666V40.9761H461.156ZM461.156 30.6621C463.946 30.6621 465.206 31.8501 465.206 34.9461C465.206 38.0421 463.946 39.2301 461.156 39.2301H457.592V30.6621H461.156ZM472.433 41.1561C474.737 41.1561 475.925 39.7161 476.213 38.2041H476.321V40.9761H478.103V32.0301H476.177V36.4581C476.177 38.4021 475.259 39.4101 473.279 39.4101C471.389 39.4101 470.615 38.5641 470.615 36.8901V32.0301H468.689V37.4121C468.689 39.4821 469.913 41.1561 472.433 41.1561ZM481.813 30.9861V28.9161H479.869V30.9861H481.813ZM481.813 40.9761V32.0301H479.869V40.9761H481.813ZM487.843 41.1561C490.363 41.1561 492.019 40.1661 492.019 38.4921C492.019 37.0161 491.047 36.2961 488.923 36.0261L486.853 35.7381C485.503 35.5581 485.143 35.3061 485.143 34.6041C485.143 33.7581 485.719 33.3981 487.357 33.3981C489.337 33.3981 489.877 33.9561 489.877 35.0181V35.1261H491.803V35.0721C491.803 32.9481 490.147 31.8501 487.411 31.8501C484.657 31.8501 483.235 32.9661 483.235 34.5321C483.235 36.0261 484.261 36.7461 485.953 36.9621L488.401 37.2861C489.679 37.4661 490.111 37.7001 490.111 38.4381C490.111 39.2301 489.589 39.5901 487.843 39.5901C485.971 39.5901 485.269 39.2121 485.269 38.0421V37.8981H483.325V37.9521C483.325 40.0221 484.963 41.1561 487.843 41.1561ZM6.894 68.9761V58.6621H11.628V56.9161H0.216V58.6621H4.968V68.9761H6.894ZM14.7092 68.9761V63.9541C14.7092 62.3521 15.3392 61.5061 16.8692 61.5061C18.2012 61.5061 18.7412 62.1001 18.7412 63.3781V64.1701H20.6672V63.0001C20.6672 61.3081 19.7852 59.8501 17.7512 59.8501C15.9152 59.8501 14.9432 61.0021 14.6732 62.4421H14.5472V60.0301H12.7652V68.9761H14.7092ZM23.8323 58.9861V56.9161H21.8883V58.9861H23.8323ZM23.8323 68.9761V60.0301H21.8883V68.9761H23.8323ZM29.8624 69.1561C32.3824 69.1561 34.0384 68.1661 34.0384 66.4921C34.0384 65.0161 33.0664 64.2961 30.9424 64.0261L28.8724 63.7381C27.5224 63.5581 27.1624 63.3061 27.1624 62.6041C27.1624 61.7581 27.7384 61.3981 29.3764 61.3981C31.3564 61.3981 31.8964 61.9561 31.8964 63.0181V63.1261H33.8224V63.0721C33.8224 60.9481 32.1664 59.8501 29.4304 59.8501C26.6764 59.8501 25.2544 60.9661 25.2544 62.5321C25.2544 64.0261 26.2804 64.7461 27.9724 64.9621L30.4204 65.2861C31.6984 65.4661 32.1304 65.7001 32.1304 66.4381C32.1304 67.2301 31.6084 67.5901 29.8624 67.5901C27.9904 67.5901 27.2884 67.2121 27.2884 66.0421V65.8981H25.3444V65.9521C25.3444 68.0221 26.9824 69.1561 29.8624 69.1561ZM41.309 68.9761V67.2301H39.689C38.573 67.2301 38.069 66.9421 38.069 65.8441V61.6501H41.309V60.0301H38.069V58.0681H36.143V60.0301H34.631V61.6501H36.143V65.9521C36.143 68.1301 37.331 68.9761 39.257 68.9761H41.309ZM44.469 58.9861V56.9161H42.525V58.9861H44.469ZM44.469 68.9761V60.0301H42.525V68.9761H44.469ZM50.1391 69.1561C52.1551 69.1561 53.4511 68.0941 53.8291 66.4561H53.8831V72.0361H55.8271V60.0301H54.0451V62.5141H53.8831C53.5231 60.8581 52.2631 59.8501 50.1571 59.8501C47.3851 59.8501 45.8191 61.7401 45.8191 64.5121C45.8191 67.2841 47.3671 69.1561 50.1391 69.1561ZM47.7811 64.5121C47.7811 62.3521 48.8971 61.6321 50.7691 61.6321C52.7671 61.6321 53.8831 62.5681 53.8831 64.4941V64.6561C53.8831 66.4921 52.7131 67.3921 50.8051 67.3921C48.8791 67.3921 47.7811 66.6541 47.7811 64.5121ZM61.3506 69.1561C63.6546 69.1561 64.8426 67.7161 65.1306 66.2041H65.2386V68.9761H67.0206V60.0301H65.0946V64.4581C65.0946 66.4021 64.1766 67.4101 62.1966 67.4101C60.3066 67.4101 59.5326 66.5641 59.5326 64.8901V60.0301H57.6066V65.4121C57.6066 67.4821 58.8306 69.1561 61.3506 69.1561ZM73.2867 69.1561C75.9507 69.1561 77.8227 67.8421 77.8227 65.9341V65.7721H75.8787V65.9161C75.8787 66.9781 75.1047 67.5901 73.2327 67.5901C71.1627 67.5901 70.3167 66.6721 70.2447 64.9441H77.8407C77.8947 64.6741 77.9127 64.4221 77.9127 64.0981C77.9127 61.3801 76.0227 59.8501 73.2507 59.8501C70.3347 59.8501 68.4267 61.7221 68.4267 64.5121C68.4267 67.5001 70.3527 69.1561 73.2867 69.1561ZM73.2147 61.3801C75.1227 61.3801 76.0767 62.1721 76.0767 63.8281V63.8641H70.2627C70.3707 62.2621 71.2347 61.3801 73.2147 61.3801ZM91.8229 68.9761V67.2301H84.3889V56.9161H82.4449V68.9761H91.8229ZM95.7077 69.1561C97.7417 69.1561 99.1637 68.2561 99.6317 66.7441H99.7577V68.9761H101.54V63.5401C101.54 61.3981 100.262 59.8501 97.4177 59.8501C94.5737 59.8501 92.8817 61.3801 92.8817 63.4141V63.4861H94.8077V63.4141C94.8077 62.1001 95.6177 61.5601 97.2737 61.5601C98.9837 61.5601 99.6317 62.0821 99.6317 63.5581V64.0801L95.5637 64.5121C93.7997 64.7101 92.6837 65.4301 92.6837 66.8161C92.6837 68.2921 93.8537 69.1561 95.7077 69.1561ZM94.6277 66.6901C94.6277 65.9881 95.1137 65.7541 96.1217 65.6281L99.6317 65.2321C99.6317 66.9961 98.2637 67.7521 96.2297 67.7521C95.1137 67.7521 94.6277 67.4101 94.6277 66.6901ZM107.793 69.1561C110.475 69.1561 112.437 67.6441 112.437 65.4121V65.2141H110.511V65.3401C110.511 66.7261 109.503 67.4101 107.757 67.4101C105.741 67.4101 104.841 66.4381 104.841 64.5121C104.841 62.5501 105.741 61.5961 107.757 61.5961C109.503 61.5961 110.511 62.2801 110.511 63.6661V63.7741H112.437V63.5941C112.437 61.3621 110.475 59.8501 107.793 59.8501C104.841 59.8501 102.915 61.7221 102.915 64.5121C102.915 67.2661 104.841 69.1561 107.793 69.1561ZM117.601 69.1561C119.905 69.1561 121.093 67.7161 121.381 66.2041H121.489V68.9761H123.271V60.0301H121.345V64.4581C121.345 66.4021 120.427 67.4101 118.447 67.4101C116.557 67.4101 115.783 66.5641 115.783 64.8901V60.0301H113.857V65.4121C113.857 67.4821 115.081 69.1561 117.601 69.1561ZM129.267 69.1561C131.787 69.1561 133.443 68.1661 133.443 66.4921C133.443 65.0161 132.471 64.2961 130.347 64.0261L128.277 63.7381C126.927 63.5581 126.567 63.3061 126.567 62.6041C126.567 61.7581 127.143 61.3981 128.781 61.3981C130.761 61.3981 131.301 61.9561 131.301 63.0181V63.1261H133.227V63.0721C133.227 60.9481 131.571 59.8501 128.835 59.8501C126.081 59.8501 124.659 60.9661 124.659 62.5321C124.659 64.0261 125.685 64.7461 127.377 64.9621L129.825 65.2861C131.103 65.4661 131.535 65.7001 131.535 66.4381C131.535 67.2301 131.013 67.5901 129.267 67.5901C127.395 67.5901 126.693 67.2121 126.693 66.0421V65.8981H124.749V65.9521C124.749 68.0221 126.387 69.1561 129.267 69.1561ZM135.169 70.9921C136.285 70.9921 136.933 70.4521 136.933 69.3361V66.1861H134.485V68.9761H135.565V69.3541C135.565 69.7321 135.421 69.8041 135.115 69.8041H134.521V70.9921H135.169ZM151.103 68.9761V67.2301H143.399V63.7741H150.833V62.0461H143.399V58.6621H151.103V56.9161H141.455V68.9761H151.103ZM158.485 68.9761V67.2301H156.865C155.749 67.2301 155.245 66.9421 155.245 65.8441V61.6501H158.485V60.0301H155.245V58.0681H153.319V60.0301H151.807V61.6501H153.319V65.9521C153.319 68.1301 154.507 68.9761 156.433 68.9761H158.485ZM169.689 68.9761C172.173 68.9761 173.559 67.7161 173.559 65.6461C173.559 64.0621 172.551 62.9461 170.499 62.7121V62.5861C172.335 62.3701 173.127 61.3081 173.127 59.8861C173.127 57.9781 171.741 56.9161 169.437 56.9161H162.687V68.9761H169.689ZM164.613 58.6621H169.221C170.571 58.6621 171.201 59.1841 171.201 60.3181C171.201 61.4521 170.517 61.9741 169.167 61.9741H164.613V58.6621ZM164.613 63.5761H169.473C170.895 63.5761 171.615 64.1161 171.615 65.3761C171.615 66.6901 170.913 67.2301 169.473 67.2301H164.613V63.5761ZM176.762 68.9761V56.9161H174.818V68.9761H176.762ZM181.19 69.1561C183.224 69.1561 184.646 68.2561 185.114 66.7441H185.24V68.9761H187.022V63.5401C187.022 61.3981 185.744 59.8501 182.9 59.8501C180.056 59.8501 178.364 61.3801 178.364 63.4141V63.4861H180.29V63.4141C180.29 62.1001 181.1 61.5601 182.756 61.5601C184.466 61.5601 185.114 62.0821 185.114 63.5581V64.0801L181.046 64.5121C179.282 64.7101 178.166 65.4301 178.166 66.8161C178.166 68.2921 179.336 69.1561 181.19 69.1561ZM180.11 66.6901C180.11 65.9881 180.596 65.7541 181.604 65.6281L185.114 65.2321C185.114 66.9961 183.746 67.7521 181.712 67.7521C180.596 67.7521 180.11 67.4101 180.11 66.6901ZM190.701 68.9761V64.5481C190.701 62.6041 191.583 61.5961 193.545 61.5961C195.399 61.5961 196.155 62.4421 196.155 64.1161V68.9761H198.099V63.5941C198.099 61.5241 196.875 59.8501 194.391 59.8501C192.123 59.8501 190.935 61.2901 190.665 62.8021H190.539V60.0301H188.757V68.9761H190.701ZM203.774 69.1561C205.79 69.1561 207.104 68.1841 207.482 66.4021H207.608V68.9761H209.39V56.9161H207.446V62.4601H207.338C206.978 60.9481 205.772 59.8501 203.648 59.8501C200.93 59.8501 199.382 61.7221 199.382 64.5121C199.382 67.2661 200.948 69.1561 203.774 69.1561ZM201.344 64.5121C201.344 62.3521 202.46 61.6141 204.332 61.6141C206.33 61.6141 207.446 62.5501 207.446 64.4581V64.6021C207.446 66.4741 206.276 67.3741 204.368 67.3741C202.442 67.3741 201.344 66.6541 201.344 64.5121ZM213.131 58.9861V56.9161H211.187V58.9861H213.131ZM213.131 68.9761V60.0301H211.187V68.9761H213.131ZM220.799 68.9761V67.2301H219.179C218.063 67.2301 217.559 66.9421 217.559 65.8441V61.6501H220.799V60.0301H217.559V58.0681H215.633V60.0301H214.121V61.6501H215.633V65.9521C215.633 68.1301 216.821 68.9761 218.747 68.9761H220.799ZM232.003 68.9761L237.151 56.9161H234.865L230.725 67.0141H230.581L226.405 56.9161H224.101L229.249 68.9761H232.003ZM239.92 58.9861V56.9161H237.976V58.9861H239.92ZM239.92 68.9761V60.0301H237.976V68.9761H239.92ZM247.462 68.9761L251.674 60.0301H249.568L246.382 67.0861H246.238L243.052 60.0301H240.91L245.086 68.9761H247.462ZM257.171 69.1561C259.835 69.1561 261.707 67.8421 261.707 65.9341V65.7721H259.763V65.9161C259.763 66.9781 258.989 67.5901 257.117 67.5901C255.047 67.5901 254.201 66.6721 254.129 64.9441H261.725C261.779 64.6741 261.797 64.4221 261.797 64.0981C261.797 61.3801 259.907 59.8501 257.135 59.8501C254.219 59.8501 252.311 61.7221 252.311 64.5121C252.311 67.5001 254.237 69.1561 257.171 69.1561ZM257.099 61.3801C259.007 61.3801 259.961 62.1721 259.961 63.8281V63.8641H254.147C254.255 62.2621 255.119 61.3801 257.099 61.3801ZM265.198 68.9761V63.9541C265.198 62.3521 265.828 61.5061 267.358 61.5061C268.69 61.5061 269.23 62.1001 269.23 63.3781V64.1701H271.156V63.0001C271.156 61.3081 270.274 59.8501 268.24 59.8501C266.404 59.8501 265.432 61.0021 265.162 62.4421H265.036V60.0301H263.254V68.9761H265.198ZM274.321 68.9761V63.9541C274.321 62.3521 274.951 61.5061 276.481 61.5061C277.813 61.5061 278.353 62.1001 278.353 63.3781V64.1701H280.279V63.0001C280.279 61.3081 279.397 59.8501 277.363 59.8501C275.527 59.8501 274.555 61.0021 274.285 62.4421H274.159V60.0301H272.377V68.9761H274.321ZM284.128 69.1561C286.162 69.1561 287.584 68.2561 288.052 66.7441H288.178V68.9761H289.96V63.5401C289.96 61.3981 288.682 59.8501 285.838 59.8501C282.994 59.8501 281.302 61.3801 281.302 63.4141V63.4861H283.228V63.4141C283.228 62.1001 284.038 61.5601 285.694 61.5601C287.404 61.5601 288.052 62.0821 288.052 63.5581V64.0801L283.984 64.5121C282.22 64.7101 281.104 65.4301 281.104 66.8161C281.104 68.2921 282.274 69.1561 284.128 69.1561ZM283.048 66.6901C283.048 65.9881 283.534 65.7541 284.542 65.6281L288.052 65.2321C288.052 66.9961 286.684 67.7521 284.65 67.7521C283.534 67.7521 283.048 67.4101 283.048 66.6901ZM296.715 68.9761V61.9021L296.643 59.8141H296.787L298.299 61.9381L303.735 68.9761H305.823V56.9161H303.879V64.0441L303.969 66.2221H303.825L302.259 63.9721L296.859 56.9161H294.771V68.9761H296.715ZM309.565 58.9861V56.9161H307.621V58.9861H309.565ZM309.565 68.9761V60.0301H307.621V68.9761H309.565ZM315.595 69.1561C318.115 69.1561 319.771 68.1661 319.771 66.4921C319.771 65.0161 318.799 64.2961 316.675 64.0261L314.605 63.7381C313.255 63.5581 312.895 63.3061 312.895 62.6041C312.895 61.7581 313.471 61.3981 315.109 61.3981C317.089 61.3981 317.629 61.9561 317.629 63.0181V63.1261H319.555V63.0721C319.555 60.9481 317.899 59.8501 315.163 59.8501C312.409 59.8501 310.987 60.9661 310.987 62.5321C310.987 64.0261 312.013 64.7461 313.705 64.9621L316.153 65.2861C317.431 65.4661 317.863 65.7001 317.863 66.4381C317.863 67.2301 317.341 67.5901 315.595 67.5901C313.723 67.5901 313.021 67.2121 313.021 66.0421V65.8981H311.077V65.9521C311.077 68.0221 312.715 69.1561 315.595 69.1561ZM323.117 68.9761V56.9161H321.173V68.9761H323.117ZM334.906 68.9761L340.054 56.9161H337.768L333.628 67.0141H333.484L329.308 56.9161H327.004L332.152 68.9761H334.906ZM345.379 69.1561C348.043 69.1561 349.915 67.8421 349.915 65.9341V65.7721H347.971V65.9161C347.971 66.9781 347.197 67.5901 345.325 67.5901C343.255 67.5901 342.409 66.6721 342.337 64.9441H349.933C349.987 64.6741 350.005 64.4221 350.005 64.0981C350.005 61.3801 348.115 59.8501 345.343 59.8501C342.427 59.8501 340.519 61.7221 340.519 64.5121C340.519 67.5001 342.445 69.1561 345.379 69.1561ZM345.307 61.3801C347.215 61.3801 348.169 62.1721 348.169 63.8281V63.8641H342.355C342.463 62.2621 343.327 61.3801 345.307 61.3801ZM353.405 68.9761V56.9161H351.461V68.9761H353.405ZM357.149 58.9861V56.9161H355.205V58.9861H357.149ZM357.149 68.9761V60.0301H355.205V68.9761H357.149ZM364.817 68.9761V67.2301H363.197C362.081 67.2301 361.577 66.9421 361.577 65.8441V61.6501H364.817V60.0301H361.577V58.0681H359.651V60.0301H358.139V61.6501H359.651V65.9521C359.651 68.1301 360.839 68.9761 362.765 68.9761H364.817ZM368.121 68.9761V66.1861H365.673V68.9761H368.121ZM377.7 69.1561C381.264 69.1561 382.758 67.4641 382.758 65.6281C382.758 63.8641 381.57 62.7661 379.158 62.3341L376.224 61.8301C374.802 61.5241 374.19 61.1821 374.19 60.1381C374.19 59.0581 375.054 58.5181 377.25 58.5181C379.752 58.5181 380.634 59.2561 380.634 60.7321V60.9661H382.56V60.8581C382.56 58.5001 380.958 56.7361 377.43 56.7361C373.686 56.7361 372.246 58.5001 372.246 60.2461C372.246 62.2261 373.686 63.1621 375.72 63.5221L378.672 64.0081C380.202 64.2961 380.814 64.6921 380.814 65.7361C380.814 66.8701 380.004 67.3741 377.7 67.3741C375.054 67.3741 374.208 66.6541 374.208 65.2141V64.9261H372.264V65.0341C372.264 67.5721 374.1 69.1561 377.7 69.1561ZM388.638 69.1561C391.302 69.1561 393.174 67.8421 393.174 65.9341V65.7721H391.23V65.9161C391.23 66.9781 390.456 67.5901 388.584 67.5901C386.514 67.5901 385.668 66.6721 385.596 64.9441H393.192C393.246 64.6741 393.264 64.4221 393.264 64.0981C393.264 61.3801 391.374 59.8501 388.602 59.8501C385.686 59.8501 383.778 61.7221 383.778 64.5121C383.778 67.5001 385.704 69.1561 388.638 69.1561ZM388.566 61.3801C390.474 61.3801 391.428 62.1721 391.428 63.8281V63.8641H385.614C385.722 62.2621 386.586 61.3801 388.566 61.3801ZM398.662 69.1561C400.678 69.1561 401.992 68.1841 402.37 66.4021H402.496V68.9761H404.278V56.9161H402.334V62.4601H402.226C401.866 60.9481 400.66 59.8501 398.536 59.8501C395.818 59.8501 394.27 61.7221 394.27 64.5121C394.27 67.2661 395.836 69.1561 398.662 69.1561ZM396.232 64.5121C396.232 62.3521 397.348 61.6141 399.22 61.6141C401.218 61.6141 402.334 62.5501 402.334 64.4581V64.6021C402.334 66.4741 401.164 67.3741 399.256 67.3741C397.33 67.3741 396.232 66.6541 396.232 64.5121ZM411.096 68.9761V61.5781L411.024 59.8321H411.168L411.906 61.5781L415.236 68.2561H417.576L420.906 61.5781L421.644 59.8321H421.788L421.716 61.5781V68.9761H423.66V56.9161H421.014L417.576 63.9001L416.514 66.4021H416.37L415.272 63.9001L411.798 56.9161H409.152V68.9761H411.096ZM428.092 69.1561C430.126 69.1561 431.548 68.2561 432.016 66.7441H432.142V68.9761H433.924V63.5401C433.924 61.3981 432.646 59.8501 429.802 59.8501C426.958 59.8501 425.266 61.3801 425.266 63.4141V63.4861H427.192V63.4141C427.192 62.1001 428.002 61.5601 429.658 61.5601C431.368 61.5601 432.016 62.0821 432.016 63.5581V64.0801L427.948 64.5121C426.184 64.7101 425.068 65.4301 425.068 66.8161C425.068 68.2921 426.238 69.1561 428.092 69.1561ZM427.012 66.6901C427.012 65.9881 427.498 65.7541 428.506 65.6281L432.016 65.2321C432.016 66.9961 430.648 67.7521 428.614 67.7521C427.498 67.7521 427.012 67.4101 427.012 66.6901ZM441.528 68.9761V67.2301H439.908C438.792 67.2301 438.288 66.9421 438.288 65.8441V61.6501H441.528V60.0301H438.288V58.0681H436.362V60.0301H434.85V61.6501H436.362V65.9521C436.362 68.1301 437.55 68.9761 439.476 68.9761H441.528ZM448.612 68.9761V67.2301H446.992C445.876 67.2301 445.372 66.9421 445.372 65.8441V61.6501H448.612V60.0301H445.372V58.0681H443.446V60.0301H441.934V61.6501H443.446V65.9521C443.446 68.1301 444.634 68.9761 446.56 68.9761H448.612ZM451.772 58.9861V56.9161H449.828V58.9861H451.772ZM451.772 68.9761V60.0301H449.828V68.9761H451.772ZM457.802 69.1561C460.322 69.1561 461.978 68.1661 461.978 66.4921C461.978 65.0161 461.006 64.2961 458.882 64.0261L456.812 63.7381C455.462 63.5581 455.102 63.3061 455.102 62.6041C455.102 61.7581 455.678 61.3981 457.316 61.3981C459.296 61.3981 459.836 61.9561 459.836 63.0181V63.1261H461.762V63.0721C461.762 60.9481 460.106 59.8501 457.37 59.8501C454.616 59.8501 453.194 60.9661 453.194 62.5321C453.194 64.0261 454.22 64.7461 455.912 64.9621L458.36 65.2861C459.638 65.4661 460.07 65.7001 460.07 66.4381C460.07 67.2301 459.548 67.5901 457.802 67.5901C455.93 67.5901 455.228 67.2121 455.228 66.0421V65.8981H453.284V65.9521C453.284 68.0221 454.922 69.1561 457.802 69.1561ZM468.401 68.9761V64.2961H470.615C472.127 64.2961 472.685 64.6921 473.225 65.6461L475.151 68.9761H477.383L475.367 65.4841C474.935 64.7281 474.503 64.1881 473.567 63.9361V63.8101C475.835 63.6841 477.149 62.4601 477.149 60.4621C477.149 58.2121 475.457 56.9161 472.721 56.9161H466.457V68.9761H468.401ZM468.401 58.6621H472.703C474.323 58.6621 475.133 59.2561 475.133 60.7321C475.133 62.2441 474.323 62.8021 472.703 62.8021H468.401V58.6621ZM480.494 68.9761V64.6381C480.494 62.7481 481.25 61.5961 483.374 61.5961C485.228 61.5961 486.038 62.3161 486.038 64.1161V68.9761H487.964V63.6481C487.964 61.4701 486.758 59.8501 484.292 59.8501C482.006 59.8501 480.908 61.2541 480.602 62.7661H480.494V56.9161H478.55V68.9761H480.494ZM494.285 69.1561C497.273 69.1561 499.271 67.2661 499.271 64.5121C499.271 61.7221 497.273 59.8501 494.285 59.8501C491.315 59.8501 489.317 61.7221 489.317 64.5121C489.317 67.2661 491.315 69.1561 494.285 69.1561ZM494.285 67.4281C492.125 67.4281 491.225 66.4021 491.225 64.5121C491.225 62.6041 492.125 61.5601 494.285 61.5601C496.463 61.5601 497.363 62.6041 497.363 64.5121C497.363 66.4021 496.463 67.4281 494.285 67.4281ZM502.625 68.9761V64.5481C502.625 62.6041 503.507 61.5961 505.469 61.5961C507.323 61.5961 508.079 62.4421 508.079 64.1161V68.9761H510.023V63.5941C510.023 61.5241 508.799 59.8501 506.315 59.8501C504.047 59.8501 502.859 61.2901 502.589 62.8021H502.463V60.0301H500.681V68.9761H502.625ZM516.273 69.1561C518.955 69.1561 520.917 67.6441 520.917 65.4121V65.2141H518.991V65.3401C518.991 66.7261 517.983 67.4101 516.237 67.4101C514.221 67.4101 513.321 66.4381 513.321 64.5121C513.321 62.5501 514.221 61.5961 516.237 61.5961C517.983 61.5961 518.991 62.2801 518.991 63.6661V63.7741H520.917V63.5941C520.917 61.3621 518.955 59.8501 516.273 59.8501C513.321 59.8501 511.395 61.7221 511.395 64.5121C511.395 67.2661 513.321 69.1561 516.273 69.1561ZM526.081 69.1561C528.385 69.1561 529.573 67.7161 529.861 66.2041H529.969V68.9761H531.751V60.0301H529.825V64.4581C529.825 66.4021 528.907 67.4101 526.927 67.4101C525.037 67.4101 524.263 66.5641 524.263 64.8901V60.0301H522.337V65.4121C522.337 67.4821 523.561 69.1561 526.081 69.1561ZM537.747 69.1561C540.267 69.1561 541.923 68.1661 541.923 66.4921C541.923 65.0161 540.951 64.2961 538.827 64.0261L536.757 63.7381C535.407 63.5581 535.047 63.3061 535.047 62.6041C535.047 61.7581 535.623 61.3981 537.261 61.3981C539.241 61.3981 539.781 61.9561 539.781 63.0181V63.1261H541.707V63.0721C541.707 60.9481 540.051 59.8501 537.315 59.8501C534.561 59.8501 533.139 60.9661 533.139 62.5321C533.139 64.0261 534.165 64.7461 535.857 64.9621L538.305 65.2861C539.583 65.4661 540.015 65.7001 540.015 66.4381C540.015 67.2301 539.493 67.5901 537.747 67.5901C535.875 67.5901 535.173 67.2121 535.173 66.0421V65.8981H533.229V65.9521C533.229 68.0221 534.867 69.1561 537.747 69.1561ZM543.65 70.9921C544.766 70.9921 545.414 70.4521 545.414 69.3361V66.1861H542.966V68.9761H544.046V69.3541C544.046 69.7321 543.902 69.8041 543.596 69.8041H543.002V70.9921H543.65ZM6.498 96.9761C10.242 96.9761 12.6 94.6721 12.6 90.9461C12.6 87.2201 10.242 84.9161 6.498 84.9161H1.008V96.9761H6.498ZM6.498 86.6621C9.288 86.6621 10.548 87.8501 10.548 90.9461C10.548 94.0421 9.288 95.2301 6.498 95.2301H2.934V86.6621H6.498ZM15.9924 86.9861V84.9161H14.0484V86.9861H15.9924ZM15.9924 96.9761V88.0301H14.0484V96.9761H15.9924ZM20.4206 97.1561C22.4546 97.1561 23.8766 96.2561 24.3446 94.7441H24.4706V96.9761H26.2526V91.5401C26.2526 89.3981 24.9746 87.8501 22.1306 87.8501C19.2866 87.8501 17.5946 89.3801 17.5946 91.4141V91.4861H19.5206V91.4141C19.5206 90.1001 20.3306 89.5601 21.9866 89.5601C23.6966 89.5601 24.3446 90.0821 24.3446 91.5581V92.0801L20.2766 92.5121C18.5126 92.7101 17.3966 93.4301 17.3966 94.8161C17.3966 96.2921 18.5666 97.1561 20.4206 97.1561ZM19.3406 94.6901C19.3406 93.9881 19.8266 93.7541 20.8346 93.6281L24.3446 93.2321C24.3446 94.9961 22.9766 95.7521 20.9426 95.7521C19.8266 95.7521 19.3406 95.4101 19.3406 94.6901ZM29.9319 96.9761V92.5481C29.9319 90.5681 30.5979 89.5961 32.5239 89.5961C34.2519 89.5961 34.9359 90.3521 34.9359 92.1161V96.9761H36.8619V92.5481C36.8619 90.5681 37.5459 89.5961 39.4539 89.5961C41.1819 89.5961 41.8839 90.3521 41.8839 92.1161V96.9761H43.8099V91.5941C43.8099 89.4341 42.6399 87.8501 40.3179 87.8501C38.0499 87.8501 37.0419 89.2721 36.8079 90.8021H36.6999C36.4479 89.0921 35.3499 87.8501 33.3159 87.8501C31.0839 87.8501 30.1119 89.2361 29.8779 90.7301H29.7699V88.0301H27.9879V96.9761H29.9319ZM53.6826 97.1561C57.2466 97.1561 58.7406 95.4641 58.7406 93.6281C58.7406 91.8641 57.5526 90.7661 55.1406 90.3341L52.2066 89.8301C50.7846 89.5241 50.1726 89.1821 50.1726 88.1381C50.1726 87.0581 51.0366 86.5181 53.2326 86.5181C55.7346 86.5181 56.6166 87.2561 56.6166 88.7321V88.9661H58.5426V88.8581C58.5426 86.5001 56.9406 84.7361 53.4126 84.7361C49.6686 84.7361 48.2286 86.5001 48.2286 88.2461C48.2286 90.2261 49.6686 91.1621 51.7026 91.5221L54.6546 92.0081C56.1846 92.2961 56.7966 92.6921 56.7966 93.7361C56.7966 94.8701 55.9866 95.3741 53.6826 95.3741C51.0366 95.3741 50.1906 94.6541 50.1906 93.2141V92.9261H48.2466V93.0341C48.2466 95.5721 50.0826 97.1561 53.6826 97.1561ZM63.8467 97.1561C66.1507 97.1561 67.3387 95.7161 67.6267 94.2041H67.7347V96.9761H69.5167V88.0301H67.5907V92.4581C67.5907 94.4021 66.6727 95.4101 64.6927 95.4101C62.8027 95.4101 62.0287 94.5641 62.0287 92.8901V88.0301H60.1027V93.4121C60.1027 95.4821 61.3267 97.1561 63.8467 97.1561ZM75.5128 97.1561C78.0328 97.1561 79.6888 96.1661 79.6888 94.4921C79.6888 93.0161 78.7168 92.2961 76.5928 92.0261L74.5228 91.7381C73.1728 91.5581 72.8128 91.3061 72.8128 90.6041C72.8128 89.7581 73.3888 89.3981 75.0268 89.3981C77.0068 89.3981 77.5468 89.9561 77.5468 91.0181V91.1261H79.4728V91.0721C79.4728 88.9481 77.8168 87.8501 75.0808 87.8501C72.3268 87.8501 70.9048 88.9661 70.9048 90.5321C70.9048 92.0261 71.9308 92.7461 73.6228 92.9621L76.0708 93.2861C77.3488 93.4661 77.7808 93.7001 77.7808 94.4381C77.7808 95.2301 77.2588 95.5901 75.5128 95.5901C73.6408 95.5901 72.9388 95.2121 72.9388 94.0421V93.8981H70.9948V93.9521C70.9948 96.0221 72.6328 97.1561 75.5128 97.1561ZM83.0354 100.036V94.4561H83.1074C83.4674 96.0941 84.7634 97.1561 86.7794 97.1561C89.5694 97.1561 91.0994 95.2841 91.0994 92.5121C91.0994 89.7401 89.5334 87.8501 86.7614 87.8501C84.6554 87.8501 83.3954 88.8581 83.0354 90.5141H82.8734V88.0301H81.0914V100.036H83.0354ZM83.0354 92.6561V92.4941C83.0354 90.5681 84.1514 89.6321 86.1494 89.6321C88.0214 89.6321 89.1554 90.3521 89.1554 92.5121C89.1554 94.6541 88.0394 95.3921 86.1134 95.3921C84.2054 95.3921 83.0354 94.4921 83.0354 92.6561ZM96.9469 97.1561C99.6109 97.1561 101.483 95.8421 101.483 93.9341V93.7721H99.5389V93.9161C99.5389 94.9781 98.7649 95.5901 96.8929 95.5901C94.8229 95.5901 93.9769 94.6721 93.9049 92.9441H101.501C101.555 92.6741 101.573 92.4221 101.573 92.0981C101.573 89.3801 99.6829 87.8501 96.9109 87.8501C93.9949 87.8501 92.0869 89.7221 92.0869 92.5121C92.0869 95.5001 94.0129 97.1561 96.9469 97.1561ZM96.8749 89.3801C98.7829 89.3801 99.7369 90.1721 99.7369 91.8281V91.8641H93.9229C94.0309 90.2621 94.8949 89.3801 96.8749 89.3801ZM104.973 96.9761V92.5481C104.973 90.6041 105.855 89.5961 107.817 89.5961C109.671 89.5961 110.427 90.4421 110.427 92.1161V96.9761H112.371V91.5941C112.371 89.5241 111.147 87.8501 108.663 87.8501C106.395 87.8501 105.207 89.2901 104.937 90.8021H104.811V88.0301H103.029V96.9761H104.973ZM118.045 97.1561C120.061 97.1561 121.375 96.1841 121.753 94.4021H121.879V96.9761H123.661V84.9161H121.717V90.4601H121.609C121.249 88.9481 120.043 87.8501 117.919 87.8501C115.201 87.8501 113.653 89.7221 113.653 92.5121C113.653 95.2661 115.219 97.1561 118.045 97.1561ZM115.615 92.5121C115.615 90.3521 116.731 89.6141 118.603 89.6141C120.601 89.6141 121.717 90.5501 121.717 92.4581V92.6021C121.717 94.4741 120.547 95.3741 118.639 95.3741C116.713 95.3741 115.615 94.6541 115.615 92.5121ZM127.403 86.9861V84.9161H125.459V86.9861H127.403ZM127.403 96.9761V88.0301H125.459V96.9761H127.403ZM133.433 97.1561C135.953 97.1561 137.609 96.1661 137.609 94.4921C137.609 93.0161 136.637 92.2961 134.513 92.0261L132.443 91.7381C131.093 91.5581 130.733 91.3061 130.733 90.6041C130.733 89.7581 131.309 89.3981 132.947 89.3981C134.927 89.3981 135.467 89.9561 135.467 91.0181V91.1261H137.393V91.0721C137.393 88.9481 135.737 87.8501 133.001 87.8501C130.247 87.8501 128.825 88.9661 128.825 90.5321C128.825 92.0261 129.851 92.7461 131.543 92.9621L133.991 93.2861C135.269 93.4661 135.701 93.7001 135.701 94.4381C135.701 95.2301 135.179 95.5901 133.433 95.5901C131.561 95.5901 130.859 95.2121 130.859 94.0421V93.8981H128.915V93.9521C128.915 96.0221 130.553 97.1561 133.433 97.1561ZM143.241 97.1561C145.761 97.1561 147.417 96.1661 147.417 94.4921C147.417 93.0161 146.445 92.2961 144.321 92.0261L142.251 91.7381C140.901 91.5581 140.541 91.3061 140.541 90.6041C140.541 89.7581 141.117 89.3981 142.755 89.3981C144.735 89.3981 145.275 89.9561 145.275 91.0181V91.1261H147.201V91.0721C147.201 88.9481 145.545 87.8501 142.809 87.8501C140.055 87.8501 138.633 88.9661 138.633 90.5321C138.633 92.0261 139.659 92.7461 141.351 92.9621L143.799 93.2861C145.077 93.4661 145.509 93.7001 145.509 94.4381C145.509 95.2301 144.987 95.5901 143.241 95.5901C141.369 95.5901 140.667 95.2121 140.667 94.0421V93.8981H138.723V93.9521C138.723 96.0221 140.361 97.1561 143.241 97.1561ZM153.32 97.1561C155.984 97.1561 157.856 95.8421 157.856 93.9341V93.7721H155.912V93.9161C155.912 94.9781 155.138 95.5901 153.266 95.5901C151.196 95.5901 150.35 94.6721 150.278 92.9441H157.874C157.928 92.6741 157.946 92.4221 157.946 92.0981C157.946 89.3801 156.056 87.8501 153.284 87.8501C150.368 87.8501 148.46 89.7221 148.46 92.5121C148.46 95.5001 150.386 97.1561 153.32 97.1561ZM153.248 89.3801C155.156 89.3801 156.11 90.1721 156.11 91.8281V91.8641H150.296C150.404 90.2621 151.268 89.3801 153.248 89.3801ZM167.536 97.1561C171.1 97.1561 172.594 95.4641 172.594 93.6281C172.594 91.8641 171.406 90.7661 168.994 90.3341L166.06 89.8301C164.638 89.5241 164.026 89.1821 164.026 88.1381C164.026 87.0581 164.89 86.5181 167.086 86.5181C169.588 86.5181 170.47 87.2561 170.47 88.7321V88.9661H172.396V88.8581C172.396 86.5001 170.794 84.7361 167.266 84.7361C163.522 84.7361 162.082 86.5001 162.082 88.2461C162.082 90.2261 163.522 91.1621 165.556 91.5221L168.508 92.0081C170.038 92.2961 170.65 92.6921 170.65 93.7361C170.65 94.8701 169.84 95.3741 167.536 95.3741C164.89 95.3741 164.044 94.6541 164.044 93.2141V92.9261H162.1V93.0341C162.1 95.5721 163.936 97.1561 167.536 97.1561ZM175.918 86.9861V84.9161H173.974V86.9861H175.918ZM175.918 96.9761V88.0301H173.974V96.9761H175.918ZM183.586 96.9761V95.2301H181.966C180.85 95.2301 180.346 94.9421 180.346 93.8441V89.6501H183.586V88.0301H180.346V86.0681H178.42V88.0301H176.908V89.6501H178.42V93.9521C178.42 96.1301 179.608 96.9761 181.534 96.9761H183.586ZM189.823 96.9761V89.9021L189.751 87.8141H189.895L191.407 89.9381L196.843 96.9761H198.931V84.9161H196.987V92.0441L197.077 94.2221H196.933L195.367 91.9721L189.967 84.9161H187.879V96.9761H189.823ZM204.454 97.1561C206.758 97.1561 207.946 95.7161 208.234 94.2041H208.342V96.9761H210.124V88.0301H208.198V92.4581C208.198 94.4021 207.28 95.4101 205.3 95.4101C203.41 95.4101 202.636 94.5641 202.636 92.8901V88.0301H200.71V93.4121C200.71 95.4821 201.934 97.1561 204.454 97.1561ZM213.834 96.9761V92.5481C213.834 90.6041 214.716 89.5961 216.678 89.5961C218.532 89.5961 219.288 90.4421 219.288 92.1161V96.9761H221.232V91.5941C221.232 89.5241 220.008 87.8501 217.524 87.8501C215.256 87.8501 214.068 89.2901 213.798 90.8021H213.672V88.0301H211.89V96.9761H213.834ZM227.482 97.1561C230.164 97.1561 232.126 95.6441 232.126 93.4121V93.2141H230.2V93.3401C230.2 94.7261 229.192 95.4101 227.446 95.4101C225.43 95.4101 224.53 94.4381 224.53 92.5121C224.53 90.5501 225.43 89.5961 227.446 89.5961C229.192 89.5961 230.2 90.2801 230.2 91.6661V91.7741H232.126V91.5941C232.126 89.3621 230.164 87.8501 227.482 87.8501C224.53 87.8501 222.604 89.7221 222.604 92.5121C222.604 95.2661 224.53 97.1561 227.482 97.1561ZM233.888 98.9921C235.004 98.9921 235.652 98.4521 235.652 97.3361V94.1861H233.204V96.9761H234.284V97.3541C234.284 97.7321 234.14 97.8041 233.834 97.8041H233.24V98.9921H233.888ZM245.717 97.1561C248.075 97.1561 249.605 96.1301 250.109 94.3661H250.235V96.9761H251.999V90.8201H245.609V92.2961H250.073V92.4581C250.073 94.4921 248.939 95.2841 246.059 95.2841C243.233 95.2841 241.865 93.9521 241.865 90.9461C241.865 87.9401 243.251 86.5901 246.149 86.5901C248.651 86.5901 249.857 87.5261 249.857 89.2541V89.3981H251.999V89.2541C251.999 86.4641 249.623 84.7361 246.203 84.7361C242.351 84.7361 239.813 87.1841 239.813 90.9461C239.813 94.7081 242.171 97.1561 245.717 97.1561ZM255.582 96.9761V91.9541C255.582 90.3521 256.212 89.5061 257.742 89.5061C259.074 89.5061 259.614 90.1001 259.614 91.3781V92.1701H261.54V91.0001C261.54 89.3081 260.658 87.8501 258.624 87.8501C256.788 87.8501 255.816 89.0021 255.546 90.4421H255.42V88.0301H253.638V96.9761H255.582ZM265.389 97.1561C267.423 97.1561 268.845 96.2561 269.313 94.7441H269.439V96.9761H271.221V91.5401C271.221 89.3981 269.943 87.8501 267.099 87.8501C264.255 87.8501 262.563 89.3801 262.563 91.4141V91.4861H264.489V91.4141C264.489 90.1001 265.299 89.5601 266.955 89.5601C268.665 89.5601 269.313 90.0821 269.313 91.5581V92.0801L265.245 92.5121C263.481 92.7101 262.365 93.4301 262.365 94.8161C262.365 96.2921 263.535 97.1561 265.389 97.1561ZM264.309 94.6901C264.309 93.9881 264.795 93.7541 265.803 93.6281L269.313 93.2321C269.313 94.9961 267.945 95.7521 265.911 95.7521C264.795 95.7521 264.309 95.4101 264.309 94.6901ZM278.699 96.9761L282.911 88.0301H280.805L277.619 95.0861H277.475L274.289 88.0301H272.147L276.323 96.9761H278.699ZM285.852 86.9861V84.9161H283.908V86.9861H285.852ZM285.852 96.9761V88.0301H283.908V96.9761H285.852ZM291.594 97.1561C293.61 97.1561 294.924 96.1841 295.302 94.4021H295.428V96.9761H297.21V84.9161H295.266V90.4601H295.158C294.798 88.9481 293.592 87.8501 291.468 87.8501C288.75 87.8501 287.202 89.7221 287.202 92.5121C287.202 95.2661 288.768 97.1561 291.594 97.1561ZM289.164 92.5121C289.164 90.3521 290.28 89.6141 292.152 89.6141C294.15 89.6141 295.266 90.5501 295.266 92.4581V92.6021C295.266 94.4741 294.096 95.3741 292.188 95.3741C290.262 95.3741 289.164 94.6541 289.164 92.5121ZM301.635 97.1561C303.669 97.1561 305.091 96.2561 305.559 94.7441H305.685V96.9761H307.467V91.5401C307.467 89.3981 306.189 87.8501 303.345 87.8501C300.501 87.8501 298.809 89.3801 298.809 91.4141V91.4861H300.735V91.4141C300.735 90.1001 301.545 89.5601 303.201 89.5601C304.911 89.5601 305.559 90.0821 305.559 91.5581V92.0801L301.491 92.5121C299.727 92.7101 298.611 93.4301 298.611 94.8161C298.611 96.2921 299.781 97.1561 301.635 97.1561ZM300.555 94.6901C300.555 93.9881 301.041 93.7541 302.049 93.6281L305.559 93.2321C305.559 94.9961 304.191 95.7521 302.157 95.7521C301.041 95.7521 300.555 95.4101 300.555 94.6901ZM321.927 96.9761V95.2301H314.223V91.7741H321.657V90.0461H314.223V86.6621H321.927V84.9161H312.279V96.9761H321.927ZM327.167 97.1561C329.471 97.1561 330.659 95.7161 330.947 94.2041H331.055V96.9761H332.837V88.0301H330.911V92.4581C330.911 94.4021 329.993 95.4101 328.013 95.4101C326.123 95.4101 325.349 94.5641 325.349 92.8901V88.0301H323.423V93.4121C323.423 95.4821 324.647 97.1561 327.167 97.1561ZM336.691 96.9761V94.1861H334.243V96.9761H336.691ZM350.591 96.9761V95.2301H343.157V84.9161H341.213V96.9761H350.591ZM356.347 97.1561C359.011 97.1561 360.883 95.8421 360.883 93.9341V93.7721H358.939V93.9161C358.939 94.9781 358.165 95.5901 356.293 95.5901C354.223 95.5901 353.377 94.6721 353.305 92.9441H360.901C360.955 92.6741 360.973 92.4221 360.973 92.0981C360.973 89.3801 359.083 87.8501 356.311 87.8501C353.395 87.8501 351.487 89.7221 351.487 92.5121C351.487 95.5001 353.413 97.1561 356.347 97.1561ZM356.275 89.3801C358.183 89.3801 359.137 90.1721 359.137 91.8281V91.8641H353.323C353.431 90.2621 354.295 89.3801 356.275 89.3801ZM366.947 97.1561C369.629 97.1561 371.591 95.6441 371.591 93.4121V93.2141H369.665V93.3401C369.665 94.7261 368.657 95.4101 366.911 95.4101C364.895 95.4101 363.995 94.4381 363.995 92.5121C363.995 90.5501 364.895 89.5961 366.911 89.5961C368.657 89.5961 369.665 90.2801 369.665 91.6661V91.7741H371.591V91.5941C371.591 89.3621 369.629 87.8501 366.947 87.8501C363.995 87.8501 362.069 89.7221 362.069 92.5121C362.069 95.2661 363.995 97.1561 366.947 97.1561ZM378.897 96.9761V95.2301H377.277C376.161 95.2301 375.657 94.9421 375.657 93.8441V89.6501H378.897V88.0301H375.657V86.0681H373.731V88.0301H372.219V89.6501H373.731V93.9521C373.731 96.1301 374.919 96.9761 376.845 96.9761H378.897ZM383.839 97.1561C386.143 97.1561 387.331 95.7161 387.619 94.2041H387.727V96.9761H389.509V88.0301H387.583V92.4581C387.583 94.4021 386.665 95.4101 384.685 95.4101C382.795 95.4101 382.021 94.5641 382.021 92.8901V88.0301H380.095V93.4121C380.095 95.4821 381.319 97.1561 383.839 97.1561ZM395.505 97.1561C398.025 97.1561 399.681 96.1661 399.681 94.4921C399.681 93.0161 398.709 92.2961 396.585 92.0261L394.515 91.7381C393.165 91.5581 392.805 91.3061 392.805 90.6041C392.805 89.7581 393.381 89.3981 395.019 89.3981C396.999 89.3981 397.539 89.9561 397.539 91.0181V91.1261H399.465V91.0721C399.465 88.9481 397.809 87.8501 395.073 87.8501C392.319 87.8501 390.897 88.9661 390.897 90.5321C390.897 92.0261 391.923 92.7461 393.615 92.9621L396.063 93.2861C397.341 93.4661 397.773 93.7001 397.773 94.4381C397.773 95.2301 397.251 95.5901 395.505 95.5901C393.633 95.5901 392.931 95.2121 392.931 94.0421V93.8981H390.987V93.9521C390.987 96.0221 392.625 97.1561 395.505 97.1561ZM413.808 96.9761V95.2301H406.104V91.7741H413.538V90.0461H406.104V86.6621H413.808V84.9161H404.16V96.9761H413.808ZM419.21 96.1661C421.244 96.1661 422.45 95.1941 422.774 93.8441H422.9V96.0401C422.9 98.0381 422.162 98.5961 420.128 98.5961C418.22 98.5961 417.464 98.1101 417.464 96.8141H415.538C415.538 98.9741 417.374 100.216 420.02 100.216C422.954 100.216 424.826 98.9381 424.826 95.9321V88.0301H423.044V90.2621H422.936C422.612 88.6961 421.208 87.8501 419.336 87.8501C416.618 87.8501 414.962 89.5241 414.962 92.0081C414.962 94.4921 416.546 96.1661 419.21 96.1661ZM416.924 92.0081C416.924 90.1721 418.022 89.5421 419.894 89.5421C421.784 89.5421 422.9 90.3161 422.9 91.8281V92.0801C422.9 93.6641 421.82 94.4921 419.84 94.4921C418.004 94.4921 416.924 93.8441 416.924 92.0081ZM431.125 97.1561C433.789 97.1561 435.661 95.8421 435.661 93.9341V93.7721H433.717V93.9161C433.717 94.9781 432.943 95.5901 431.071 95.5901C429.001 95.5901 428.155 94.6721 428.083 92.9441H435.679C435.733 92.6741 435.751 92.4221 435.751 92.0981C435.751 89.3801 433.861 87.8501 431.089 87.8501C428.173 87.8501 426.265 89.7221 426.265 92.5121C426.265 95.5001 428.191 97.1561 431.125 97.1561ZM431.053 89.3801C432.961 89.3801 433.915 90.1721 433.915 91.8281V91.8641H428.101C428.209 90.2621 429.073 89.3801 431.053 89.3801ZM443.075 96.9761V95.2301H441.455C440.339 95.2301 439.835 94.9421 439.835 93.8441V89.6501H443.075V88.0301H439.835V86.0681H437.909V88.0301H436.397V89.6501H437.909V93.9521C437.909 96.1301 439.097 96.9761 441.023 96.9761H443.075ZM457.015 96.9761V95.2301H449.311V91.7741H456.745V90.0461H449.311V86.6621H457.015V84.9161H447.367V96.9761H457.015ZM462.417 96.1661C464.451 96.1661 465.657 95.1941 465.981 93.8441H466.107V96.0401C466.107 98.0381 465.369 98.5961 463.335 98.5961C461.427 98.5961 460.671 98.1101 460.671 96.8141H458.745C458.745 98.9741 460.581 100.216 463.227 100.216C466.161 100.216 468.033 98.9381 468.033 95.9321V88.0301H466.251V90.2621H466.143C465.819 88.6961 464.415 87.8501 462.543 87.8501C459.825 87.8501 458.169 89.5241 458.169 92.0081C458.169 94.4921 459.753 96.1661 462.417 96.1661ZM460.131 92.0081C460.131 90.1721 461.229 89.5421 463.101 89.5421C464.991 89.5421 466.107 90.3161 466.107 91.8281V92.0801C466.107 93.6641 465.027 94.4921 463.047 94.4921C461.211 94.4921 460.131 93.8441 460.131 92.0081ZM474.332 97.1561C476.996 97.1561 478.868 95.8421 478.868 93.9341V93.7721H476.924V93.9161C476.924 94.9781 476.15 95.5901 474.278 95.5901C472.208 95.5901 471.362 94.6721 471.29 92.9441H478.886C478.94 92.6741 478.958 92.4221 478.958 92.0981C478.958 89.3801 477.068 87.8501 474.296 87.8501C471.38 87.8501 469.472 89.7221 469.472 92.5121C469.472 95.5001 471.398 97.1561 474.332 97.1561ZM474.26 89.3801C476.168 89.3801 477.122 90.1721 477.122 91.8281V91.8641H471.308C471.416 90.2621 472.28 89.3801 474.26 89.3801ZM486.282 96.9761V95.2301H484.662C483.546 95.2301 483.042 94.9421 483.042 93.8441V89.6501H486.282V88.0301H483.042V86.0681H481.116V88.0301H479.604V89.6501H481.116V93.9521C481.116 96.1301 482.304 96.9761 484.23 96.9761H486.282ZM491.834 96.9761L493.22 93.8441H499.592L500.978 96.9761H503.174L497.792 84.9161H495.056L489.674 96.9761H491.834ZM495.632 88.4261L496.334 86.7161H496.478L497.18 88.4261L498.818 92.0981H493.994L495.632 88.4261ZM508.592 97.1561C511.274 97.1561 513.236 95.6441 513.236 93.4121V93.2141H511.31V93.3401C511.31 94.7261 510.302 95.4101 508.556 95.4101C506.54 95.4101 505.64 94.4381 505.64 92.5121C505.64 90.5501 506.54 89.5961 508.556 89.5961C510.302 89.5961 511.31 90.2801 511.31 91.6661V91.7741H513.236V91.5941C513.236 89.3621 511.274 87.8501 508.592 87.8501C505.64 87.8501 503.714 89.7221 503.714 92.5121C503.714 95.2661 505.64 97.1561 508.592 97.1561ZM6.498 124.976C10.242 124.976 12.6 122.672 12.6 118.946C12.6 115.22 10.242 112.916 6.498 112.916H1.008V124.976H6.498ZM6.498 114.662C9.288 114.662 10.548 115.85 10.548 118.946C10.548 122.042 9.288 123.23 6.498 123.23H2.934V114.662H6.498ZM18.6204 125.156C21.6084 125.156 23.6064 123.266 23.6064 120.512C23.6064 117.722 21.6084 115.85 18.6204 115.85C15.6504 115.85 13.6524 117.722 13.6524 120.512C13.6524 123.266 15.6504 125.156 18.6204 125.156ZM18.6204 123.428C16.4604 123.428 15.5604 122.402 15.5604 120.512C15.5604 118.604 16.4604 117.56 18.6204 117.56C20.7984 117.56 21.6984 118.604 21.6984 120.512C21.6984 122.402 20.7984 123.428 18.6204 123.428ZM26.9612 124.976V112.916H25.0172V124.976H26.9612ZM33.3333 125.156C36.3213 125.156 38.3193 123.266 38.3193 120.512C38.3193 117.722 36.3213 115.85 33.3333 115.85C30.3633 115.85 28.3653 117.722 28.3653 120.512C28.3653 123.266 30.3633 125.156 33.3333 125.156ZM33.3333 123.428C31.1733 123.428 30.2733 122.402 30.2733 120.512C30.2733 118.604 31.1733 117.56 33.3333 117.56C35.5113 117.56 36.4113 118.604 36.4113 120.512C36.4113 122.402 35.5113 123.428 33.3333 123.428ZM41.6741 124.976V119.954C41.6741 118.352 42.3041 117.506 43.8341 117.506C45.1661 117.506 45.7061 118.1 45.7061 119.378V120.17H47.6321V119C47.6321 117.308 46.7501 115.85 44.7161 115.85C42.8801 115.85 41.9081 117.002 41.6381 118.442H41.5121V116.03H39.7301V124.976H41.6741ZM53.8733 124.976V117.902L53.8013 115.814H53.9453L55.4573 117.938L60.8933 124.976H62.9813V112.916H61.0373V120.044L61.1273 122.222H60.9833L59.4173 119.972L54.0173 112.916H51.9293V124.976H53.8733ZM69.2789 125.156C71.9429 125.156 73.8149 123.842 73.8149 121.934V121.772H71.8709V121.916C71.8709 122.978 71.0969 123.59 69.2249 123.59C67.1549 123.59 66.3089 122.672 66.2369 120.944H73.8329C73.8869 120.674 73.9049 120.422 73.9049 120.098C73.9049 117.38 72.0149 115.85 69.2429 115.85C66.3269 115.85 64.4189 117.722 64.4189 120.512C64.4189 123.5 66.3449 125.156 69.2789 125.156ZM69.2069 117.38C71.1149 117.38 72.0689 118.172 72.0689 119.828V119.864H66.2549C66.3629 118.262 67.2269 117.38 69.2069 117.38ZM79.2309 125.156C81.2469 125.156 82.5429 124.094 82.9209 122.456H82.9749V128.036H84.9189V116.03H83.1369V118.514H82.9749C82.6149 116.858 81.3549 115.85 79.2489 115.85C76.4769 115.85 74.9109 117.74 74.9109 120.512C74.9109 123.284 76.4589 125.156 79.2309 125.156ZM76.8729 120.512C76.8729 118.352 77.9889 117.632 79.8609 117.632C81.8589 117.632 82.9749 118.568 82.9749 120.494V120.656C82.9749 122.492 81.8049 123.392 79.8969 123.392C77.9709 123.392 76.8729 122.654 76.8729 120.512ZM90.4424 125.156C92.7464 125.156 93.9344 123.716 94.2224 122.204H94.3304V124.976H96.1124V116.03H94.1864V120.458C94.1864 122.402 93.2684 123.41 91.2884 123.41C89.3984 123.41 88.6244 122.564 88.6244 120.89V116.03H86.6984V121.412C86.6984 123.482 87.9224 125.156 90.4424 125.156ZM102.379 125.156C105.043 125.156 106.915 123.842 106.915 121.934V121.772H104.971V121.916C104.971 122.978 104.197 123.59 102.325 123.59C100.255 123.59 99.4085 122.672 99.3365 120.944H106.933C106.987 120.674 107.005 120.422 107.005 120.098C107.005 117.38 105.115 115.85 102.343 115.85C99.4265 115.85 97.5185 117.722 97.5185 120.512C97.5185 123.5 99.4445 125.156 102.379 125.156ZM102.307 117.38C104.215 117.38 105.169 118.172 105.169 119.828V119.864H99.3545C99.4625 118.262 100.327 117.38 102.307 117.38ZM120.915 124.976V123.23H113.481V112.916H111.537V124.976H120.915ZM126.743 125.156C129.731 125.156 131.729 123.266 131.729 120.512C131.729 117.722 129.731 115.85 126.743 115.85C123.773 115.85 121.775 117.722 121.775 120.512C121.775 123.266 123.773 125.156 126.743 125.156ZM126.743 123.428C124.583 123.428 123.683 122.402 123.683 120.512C123.683 118.604 124.583 117.56 126.743 117.56C128.921 117.56 129.821 118.604 129.821 120.512C129.821 122.402 128.921 123.428 126.743 123.428ZM135.084 124.976V119.954C135.084 118.352 135.714 117.506 137.244 117.506C138.576 117.506 139.116 118.1 139.116 119.378V120.17H141.042V119C141.042 117.308 140.16 115.85 138.126 115.85C136.29 115.85 135.318 117.002 135.048 118.442H134.922V116.03H133.14V124.976H135.084ZM146.763 125.156C149.427 125.156 151.299 123.842 151.299 121.934V121.772H149.355V121.916C149.355 122.978 148.581 123.59 146.709 123.59C144.639 123.59 143.793 122.672 143.721 120.944H151.317C151.371 120.674 151.389 120.422 151.389 120.098C151.389 117.38 149.499 115.85 146.727 115.85C143.811 115.85 141.903 117.722 141.903 120.512C141.903 123.5 143.829 125.156 146.763 125.156ZM146.691 117.38C148.599 117.38 149.553 118.172 149.553 119.828V119.864H143.739C143.847 118.262 144.711 117.38 146.691 117.38ZM154.789 124.976V120.548C154.789 118.568 155.455 117.596 157.381 117.596C159.109 117.596 159.793 118.352 159.793 120.116V124.976H161.719V120.548C161.719 118.568 162.403 117.596 164.311 117.596C166.039 117.596 166.741 118.352 166.741 120.116V124.976H168.667V119.594C168.667 117.434 167.497 115.85 165.175 115.85C162.907 115.85 161.899 117.272 161.665 118.802H161.557C161.305 117.092 160.207 115.85 158.173 115.85C155.941 115.85 154.969 117.236 154.735 118.73H154.627V116.03H152.845V124.976H154.789ZM178.54 125.156C182.104 125.156 183.598 123.464 183.598 121.628C183.598 119.864 182.41 118.766 179.998 118.334L177.064 117.83C175.642 117.524 175.03 117.182 175.03 116.138C175.03 115.058 175.894 114.518 178.09 114.518C180.592 114.518 181.474 115.256 181.474 116.732V116.966H183.4V116.858C183.4 114.5 181.798 112.736 178.27 112.736C174.526 112.736 173.086 114.5 173.086 116.246C173.086 118.226 174.526 119.162 176.56 119.522L179.512 120.008C181.042 120.296 181.654 120.692 181.654 121.736C181.654 122.87 180.844 123.374 178.54 123.374C175.894 123.374 175.048 122.654 175.048 121.214V120.926H173.104V121.034C173.104 123.572 174.94 125.156 178.54 125.156ZM187.606 125.156C189.64 125.156 191.062 124.256 191.53 122.744H191.656V124.976H193.438V119.54C193.438 117.398 192.16 115.85 189.316 115.85C186.472 115.85 184.78 117.38 184.78 119.414V119.486H186.706V119.414C186.706 118.1 187.516 117.56 189.172 117.56C190.882 117.56 191.53 118.082 191.53 119.558V120.08L187.462 120.512C185.698 120.71 184.582 121.43 184.582 122.816C184.582 124.292 185.752 125.156 187.606 125.156ZM186.526 122.69C186.526 121.988 187.012 121.754 188.02 121.628L191.53 121.232C191.53 122.996 190.162 123.752 188.128 123.752C187.012 123.752 186.526 123.41 186.526 122.69ZM197.117 128.036V122.456H197.189C197.549 124.094 198.845 125.156 200.861 125.156C203.651 125.156 205.181 123.284 205.181 120.512C205.181 117.74 203.615 115.85 200.843 115.85C198.737 115.85 197.477 116.858 197.117 118.514H196.955V116.03H195.173V128.036H197.117ZM197.117 120.656V120.494C197.117 118.568 198.233 117.632 200.231 117.632C202.103 117.632 203.237 118.352 203.237 120.512C203.237 122.654 202.121 123.392 200.195 123.392C198.287 123.392 197.117 122.492 197.117 120.656ZM208.473 114.986V112.916H206.529V114.986H208.473ZM208.473 124.976V116.03H206.529V124.976H208.473ZM214.773 125.156C217.437 125.156 219.309 123.842 219.309 121.934V121.772H217.365V121.916C217.365 122.978 216.591 123.59 214.719 123.59C212.649 123.59 211.803 122.672 211.731 120.944H219.327C219.381 120.674 219.399 120.422 219.399 120.098C219.399 117.38 217.509 115.85 214.737 115.85C211.821 115.85 209.913 117.722 209.913 120.512C209.913 123.5 211.839 125.156 214.773 125.156ZM214.701 117.38C216.609 117.38 217.563 118.172 217.563 119.828V119.864H211.749C211.857 118.262 212.721 117.38 214.701 117.38ZM222.799 124.976V120.548C222.799 118.604 223.681 117.596 225.643 117.596C227.497 117.596 228.253 118.442 228.253 120.116V124.976H230.197V119.594C230.197 117.524 228.973 115.85 226.489 115.85C224.221 115.85 223.033 117.29 222.763 118.802H222.637V116.03H220.855V124.976H222.799ZM232.253 126.992C233.369 126.992 234.017 126.452 234.017 125.336V122.186H231.569V124.976H232.649V125.354C232.649 125.732 232.505 125.804 232.199 125.804H231.605V126.992H232.253ZM243.597 125.156C247.161 125.156 248.655 123.464 248.655 121.628C248.655 119.864 247.467 118.766 245.055 118.334L242.121 117.83C240.699 117.524 240.087 117.182 240.087 116.138C240.087 115.058 240.951 114.518 243.147 114.518C245.649 114.518 246.531 115.256 246.531 116.732V116.966H248.457V116.858C248.457 114.5 246.855 112.736 243.327 112.736C239.583 112.736 238.143 114.5 238.143 116.246C238.143 118.226 239.583 119.162 241.617 119.522L244.569 120.008C246.099 120.296 246.711 120.692 246.711 121.736C246.711 122.87 245.901 123.374 243.597 123.374C240.951 123.374 240.105 122.654 240.105 121.214V120.926H238.161V121.034C238.161 123.572 239.997 125.156 243.597 125.156ZM253.761 125.156C256.065 125.156 257.253 123.716 257.541 122.204H257.649V124.976H259.431V116.03H257.505V120.458C257.505 122.402 256.587 123.41 254.607 123.41C252.717 123.41 251.943 122.564 251.943 120.89V116.03H250.017V121.412C250.017 123.482 251.241 125.156 253.761 125.156ZM265.427 125.156C267.947 125.156 269.603 124.166 269.603 122.492C269.603 121.016 268.631 120.296 266.507 120.026L264.437 119.738C263.087 119.558 262.727 119.306 262.727 118.604C262.727 117.758 263.303 117.398 264.941 117.398C266.921 117.398 267.461 117.956 267.461 119.018V119.126H269.387V119.072C269.387 116.948 267.731 115.85 264.995 115.85C262.241 115.85 260.819 116.966 260.819 118.532C260.819 120.026 261.845 120.746 263.537 120.962L265.985 121.286C267.263 121.466 267.695 121.7 267.695 122.438C267.695 123.23 267.173 123.59 265.427 123.59C263.555 123.59 262.853 123.212 262.853 122.042V121.898H260.909V121.952C260.909 124.022 262.547 125.156 265.427 125.156ZM272.949 128.036V122.456H273.021C273.381 124.094 274.677 125.156 276.693 125.156C279.483 125.156 281.013 123.284 281.013 120.512C281.013 117.74 279.447 115.85 276.675 115.85C274.569 115.85 273.309 116.858 272.949 118.514H272.787V116.03H271.005V128.036H272.949ZM272.949 120.656V120.494C272.949 118.568 274.065 117.632 276.063 117.632C277.935 117.632 279.069 118.352 279.069 120.512C279.069 122.654 277.953 123.392 276.027 123.392C274.119 123.392 272.949 122.492 272.949 120.656ZM286.861 125.156C289.525 125.156 291.397 123.842 291.397 121.934V121.772H289.453V121.916C289.453 122.978 288.679 123.59 286.807 123.59C284.737 123.59 283.891 122.672 283.819 120.944H291.415C291.469 120.674 291.487 120.422 291.487 120.098C291.487 117.38 289.597 115.85 286.825 115.85C283.909 115.85 282.001 117.722 282.001 120.512C282.001 123.5 283.927 125.156 286.861 125.156ZM286.789 117.38C288.697 117.38 289.651 118.172 289.651 119.828V119.864H283.837C283.945 118.262 284.809 117.38 286.789 117.38ZM294.887 124.976V120.548C294.887 118.604 295.769 117.596 297.731 117.596C299.585 117.596 300.341 118.442 300.341 120.116V124.976H302.285V119.594C302.285 117.524 301.061 115.85 298.577 115.85C296.309 115.85 295.121 117.29 294.851 118.802H294.725V116.03H292.943V124.976H294.887ZM307.959 125.156C309.975 125.156 311.289 124.184 311.667 122.402H311.793V124.976H313.575V112.916H311.631V118.46H311.523C311.163 116.948 309.957 115.85 307.833 115.85C305.115 115.85 303.567 117.722 303.567 120.512C303.567 123.266 305.133 125.156 307.959 125.156ZM305.529 120.512C305.529 118.352 306.645 117.614 308.517 117.614C310.515 117.614 311.631 118.55 311.631 120.458V120.602C311.631 122.474 310.461 123.374 308.553 123.374C306.627 123.374 305.529 122.654 305.529 120.512ZM317.317 114.986V112.916H315.373V114.986H317.317ZM317.317 124.976V116.03H315.373V124.976H317.317ZM323.347 125.156C325.867 125.156 327.523 124.166 327.523 122.492C327.523 121.016 326.551 120.296 324.427 120.026L322.357 119.738C321.007 119.558 320.647 119.306 320.647 118.604C320.647 117.758 321.223 117.398 322.861 117.398C324.841 117.398 325.381 117.956 325.381 119.018V119.126H327.307V119.072C327.307 116.948 325.651 115.85 322.915 115.85C320.161 115.85 318.739 116.966 318.739 118.532C318.739 120.026 319.765 120.746 321.457 120.962L323.905 121.286C325.183 121.466 325.615 121.7 325.615 122.438C325.615 123.23 325.093 123.59 323.347 123.59C321.475 123.59 320.773 123.212 320.773 122.042V121.898H318.829V121.952C318.829 124.022 320.467 125.156 323.347 125.156ZM333.155 125.156C335.675 125.156 337.331 124.166 337.331 122.492C337.331 121.016 336.359 120.296 334.235 120.026L332.165 119.738C330.815 119.558 330.455 119.306 330.455 118.604C330.455 117.758 331.031 117.398 332.669 117.398C334.649 117.398 335.189 117.956 335.189 119.018V119.126H337.115V119.072C337.115 116.948 335.459 115.85 332.723 115.85C329.969 115.85 328.547 116.966 328.547 118.532C328.547 120.026 329.573 120.746 331.265 120.962L333.713 121.286C334.991 121.466 335.423 121.7 335.423 122.438C335.423 123.23 334.901 123.59 333.155 123.59C331.283 123.59 330.581 123.212 330.581 122.042V121.898H328.637V121.952C328.637 124.022 330.275 125.156 333.155 125.156ZM343.234 125.156C345.898 125.156 347.77 123.842 347.77 121.934V121.772H345.826V121.916C345.826 122.978 345.052 123.59 343.18 123.59C341.11 123.59 340.264 122.672 340.192 120.944H347.788C347.842 120.674 347.86 120.422 347.86 120.098C347.86 117.38 345.97 115.85 343.198 115.85C340.282 115.85 338.374 117.722 338.374 120.512C338.374 123.5 340.3 125.156 343.234 125.156ZM343.162 117.38C345.07 117.38 346.024 118.172 346.024 119.828V119.864H340.21C340.318 118.262 341.182 117.38 343.162 117.38ZM353.652 124.976L355.038 121.844H361.41L362.796 124.976H364.992L359.61 112.916H356.874L351.492 124.976H353.652ZM357.45 116.426L358.152 114.716H358.296L358.998 116.426L360.636 120.098H355.812L357.45 116.426ZM367.836 124.976V112.916H365.892V124.976H367.836ZM371.58 114.986V112.916H369.636V114.986H371.58ZM371.58 124.976V116.03H369.636V124.976H371.58ZM377.25 125.156C379.266 125.156 380.562 124.094 380.94 122.456H380.994V128.036H382.938V116.03H381.156V118.514H380.994C380.634 116.858 379.374 115.85 377.268 115.85C374.496 115.85 372.93 117.74 372.93 120.512C372.93 123.284 374.478 125.156 377.25 125.156ZM374.892 120.512C374.892 118.352 376.008 117.632 377.88 117.632C379.878 117.632 380.994 118.568 380.994 120.494V120.656C380.994 122.492 379.824 123.392 377.916 123.392C375.99 123.392 374.892 122.654 374.892 120.512ZM388.462 125.156C390.766 125.156 391.954 123.716 392.242 122.204H392.35V124.976H394.132V116.03H392.206V120.458C392.206 122.402 391.288 123.41 389.308 123.41C387.418 123.41 386.644 122.564 386.644 120.89V116.03H384.718V121.412C384.718 123.482 385.942 125.156 388.462 125.156ZM398.526 125.156C400.56 125.156 401.982 124.256 402.45 122.744H402.576V124.976H404.358V119.54C404.358 117.398 403.08 115.85 400.236 115.85C397.392 115.85 395.7 117.38 395.7 119.414V119.486H397.626V119.414C397.626 118.1 398.436 117.56 400.092 117.56C401.802 117.56 402.45 118.082 402.45 119.558V120.08L398.382 120.512C396.618 120.71 395.502 121.43 395.502 122.816C395.502 124.292 396.672 125.156 398.526 125.156ZM397.446 122.69C397.446 121.988 397.932 121.754 398.94 121.628L402.45 121.232C402.45 122.996 401.082 123.752 399.048 123.752C397.932 123.752 397.446 123.41 397.446 122.69ZM408.037 124.976V120.548C408.037 118.568 408.703 117.596 410.629 117.596C412.357 117.596 413.041 118.352 413.041 120.116V124.976H414.967V120.548C414.967 118.568 415.651 117.596 417.559 117.596C419.287 117.596 419.989 118.352 419.989 120.116V124.976H421.915V119.594C421.915 117.434 420.745 115.85 418.423 115.85C416.155 115.85 415.147 117.272 414.913 118.802H414.805C414.553 117.092 413.455 115.85 411.421 115.85C409.189 115.85 408.217 117.236 407.983 118.73H407.875V116.03H406.093V124.976H408.037ZM425.742 124.976V122.186H423.294V124.976H425.742Z" fill="black"/>
</svg>
