<svg width="548" height="197" viewBox="0 0 548 197" fill="none" xmlns="http://www.w3.org/2000/svg">
<path d="M11.464 39.709V28.765H15.16C18.664 28.765 19.624 29.437 20.776 31.837L24.616 39.709H35.032L31.048 31.645C29.848 29.197 28.792 27.613 25.48 26.749V26.269C31.624 25.501 34.168 22.477 34.168 17.389C34.168 11.101 29.704 7.54898 21.208 7.54898H2.44V39.709H11.464ZM11.464 15.661H21.112C23.752 15.661 24.712 16.285 24.712 18.829C24.712 21.565 23.752 22.045 21.112 22.045H11.464V15.661ZM49.9593 40.189C58.1193 40.189 63.2552 36.397 63.2552 31.021V30.445H54.2313V30.973C54.2313 32.413 53.2713 33.037 49.6233 33.037C45.7833 33.037 44.4873 32.221 44.3433 29.293H63.3033C63.3993 28.429 63.4473 27.805 63.4473 26.989C63.4473 19.213 58.1193 15.037 49.7673 15.037C41.7033 15.037 35.9913 19.741 35.9913 27.613C35.9913 36.685 41.7513 40.189 49.9593 40.189ZM49.5753 21.949C52.9353 21.949 54.3753 22.669 54.7113 24.733H44.4873C44.8713 22.669 46.2633 21.949 49.5753 21.949ZM73.6859 40.189C78.9179 40.189 81.8939 38.029 82.8059 34.621H83.2859V39.709H91.7339V25.933C91.7339 19.165 87.6539 15.037 79.2059 15.037C70.9979 15.037 65.6219 19.165 65.6219 25.597V25.693H74.6459V25.501C74.6459 23.485 75.5579 22.909 78.5339 22.909C81.7499 22.909 82.8059 23.293 82.8059 25.741V26.221L72.9659 27.181C67.4939 27.709 65.1419 30.157 65.1419 33.565C65.1419 37.693 68.2139 40.189 73.6859 40.189ZM74.2139 32.989C74.2139 32.461 74.5499 32.173 75.3659 32.077L82.7579 31.213C82.5179 33.373 80.7419 33.901 76.3739 33.901C74.9819 33.901 74.2139 33.757 74.2139 32.989ZM105.401 40.189C111.065 40.189 113.945 37.981 114.713 33.181H115.193V39.709H123.641V7.54898H114.617V21.757H114.137C113.417 17.725 110.729 15.037 105.017 15.037C97.9128 15.037 93.9288 19.741 93.9288 27.613C93.9288 35.437 98.0088 40.189 105.401 40.189ZM103.049 27.613C103.049 24.397 104.489 23.245 108.665 23.245C112.697 23.245 114.617 23.917 114.617 27.325V27.661C114.617 31.165 112.697 31.933 108.665 31.933C104.489 31.933 103.049 30.829 103.049 27.613ZM131.846 47.869C138.902 47.869 142.598 46.381 145.19 40.669L156.662 15.517H146.582L142.982 24.925L141.398 30.589H140.774L139.046 25.021L134.87 15.517H124.598L136.166 39.421C135.782 39.613 135.206 39.709 134.486 39.709H127.478V47.869H131.846ZM184.026 39.709V15.661H195.354V7.54898H163.626V15.661H175.002V39.709H184.026ZM210.926 40.189C219.326 40.189 225.038 35.437 225.038 27.613C225.038 19.741 219.326 15.037 210.926 15.037C202.526 15.037 196.814 19.741 196.814 27.613C196.814 35.437 202.526 40.189 210.926 40.189ZM210.926 32.221C206.846 32.221 205.742 31.117 205.742 27.613C205.742 24.109 206.846 22.957 210.926 22.957C215.006 22.957 216.11 24.109 216.11 27.613C216.11 31.117 215.006 32.221 210.926 32.221ZM249.461 40.189C256.997 40.189 259.733 36.589 260.597 32.845H261.077V39.709H269.477V22.141H250.469V28.765H260.357C259.925 31.213 258.005 31.549 251.333 31.549C244.805 31.549 243.029 30.013 243.029 23.629C243.029 17.245 244.901 15.709 251.813 15.709C257.525 15.709 259.349 16.861 259.349 19.837V20.173H269.429V19.837C269.429 11.869 262.949 7.06898 252.053 7.06898C240.341 7.06898 233.429 13.597 233.429 23.629C233.429 33.661 239.333 40.189 249.461 40.189ZM285.647 40.189C293.807 40.189 298.943 36.397 298.943 31.021V30.445H289.919V30.973C289.919 32.413 288.959 33.037 285.311 33.037C281.471 33.037 280.175 32.221 280.031 29.293H298.991C299.087 28.429 299.135 27.805 299.135 26.989C299.135 19.213 293.807 15.037 285.455 15.037C277.391 15.037 271.679 19.741 271.679 27.613C271.679 36.685 277.439 40.189 285.647 40.189ZM285.263 21.949C288.623 21.949 290.063 22.669 290.399 24.733H280.175C280.559 22.669 281.951 21.949 285.263 21.949ZM319.645 39.709V31.597H315.325C313.261 31.597 312.685 31.117 312.685 29.197V22.909H319.645V15.517H312.685V11.341H303.661V15.517H300.109V22.909H303.661V30.493C303.661 36.781 307.261 39.709 313.309 39.709H319.645ZM344.103 40.189C354.951 40.189 359.175 35.293 359.175 29.773C359.175 25.645 357.062 21.613 349.191 20.461L339.111 18.973C337.383 18.733 336.807 18.253 336.807 17.245C336.807 15.853 337.815 15.229 342.423 15.229C348.471 15.229 349.479 15.997 349.479 18.301V19.021H358.503V18.733C358.503 11.533 353.607 7.06898 343.383 7.06898C331.767 7.06898 327.783 12.445 327.783 17.581C327.783 22.765 330.807 25.981 336.807 26.797L346.887 28.141C349.527 28.477 350.151 28.957 350.151 30.109C350.151 31.549 349.575 31.981 344.103 31.981C338.055 31.981 337.287 31.405 337.287 29.245V28.237H328.263V28.525C328.263 36.685 334.263 40.189 344.103 40.189ZM379.411 39.709V31.597H375.091C373.027 31.597 372.451 31.117 372.451 29.197V22.909H379.411V15.517H372.451V11.341H363.427V15.517H359.875V22.909H363.427V30.493C363.427 36.781 367.027 39.709 373.075 39.709H379.411ZM389.389 40.189C394.621 40.189 397.597 38.029 398.509 34.621H398.989V39.709H407.437V25.933C407.437 19.165 403.357 15.037 394.909 15.037C386.701 15.037 381.325 19.165 381.325 25.597V25.693H390.349V25.501C390.349 23.485 391.261 22.909 394.237 22.909C397.453 22.909 398.509 23.293 398.509 25.741V26.221L388.669 27.181C383.197 27.709 380.845 30.157 380.845 33.565C380.845 37.693 383.917 40.189 389.389 40.189ZM389.917 32.989C389.917 32.461 390.253 32.173 391.069 32.077L398.461 31.213C398.221 33.373 396.445 33.901 392.077 33.901C390.685 33.901 389.917 33.757 389.917 32.989ZM419.136 39.709V25.261C419.136 23.341 419.856 22.621 422.304 22.621C424.656 22.621 425.424 23.341 425.424 25.357V28.189H434.448V23.389C434.448 18.541 432.336 15.037 427.008 15.037C422.208 15.037 419.712 17.869 419.04 21.853H418.56V15.517H410.112V39.709H419.136ZM454.458 39.709V31.597H450.138C448.074 31.597 447.498 31.117 447.498 29.197V22.909H454.458V15.517H447.498V11.341H438.474V15.517H434.922V22.909H438.474V30.493C438.474 36.781 442.074 39.709 448.122 39.709H454.458ZM470.1 40.189C478.26 40.189 483.396 36.397 483.396 31.021V30.445H474.372V30.973C474.372 32.413 473.412 33.037 469.764 33.037C465.924 33.037 464.628 32.221 464.484 29.293H483.444C483.54 28.429 483.588 27.805 483.588 26.989C483.588 19.213 478.26 15.037 469.908 15.037C461.844 15.037 456.132 19.741 456.132 27.613C456.132 36.685 461.892 40.189 470.1 40.189ZM469.716 21.949C473.076 21.949 474.516 22.669 474.852 24.733H464.628C465.012 22.669 466.404 21.949 469.716 21.949ZM496.995 40.189C502.659 40.189 505.539 37.981 506.307 33.181H506.787V39.709H515.235V7.54898H506.211V21.757H505.731C505.011 17.725 502.323 15.037 496.611 15.037C489.507 15.037 485.523 19.741 485.523 27.613C485.523 35.437 489.603 40.189 496.995 40.189ZM494.643 27.613C494.643 24.397 496.083 23.245 500.259 23.245C504.291 23.245 506.211 23.917 506.211 27.325V27.661C506.211 31.165 504.291 31.933 500.259 31.933C496.083 31.933 494.643 30.829 494.643 27.613ZM534.96 29.005V28.765C534.96 27.757 535.152 27.085 536.88 26.413L540.48 25.069C543.504 23.917 547.008 21.997 547.008 16.717C547.008 11.341 543.168 7.06898 533.184 7.06898C521.52 7.06898 517.152 12.925 517.152 19.453V20.893H526.032V18.589C526.032 16.333 527.376 15.277 532.512 15.277C537.504 15.277 537.984 16.045 537.984 17.053C537.984 18.109 537.216 18.541 535.344 19.213L531.984 20.461C528.96 21.565 525.936 23.197 525.936 27.229V29.005H534.96ZM535.632 39.709V31.213H525.312V39.709H535.632Z" fill="white"/>
<path d="M3.358 84.709V79.777H5.95C7.552 79.777 8.182 80.209 8.794 81.217L10.936 84.709H12.412L10.144 81.019C9.73 80.317 9.28 79.795 8.488 79.579V79.489C10.72 79.435 12.214 78.175 12.214 76.141C12.214 73.927 10.504 72.649 7.984 72.649H2.08V84.709H3.358ZM3.358 73.819H7.966C9.874 73.819 10.882 74.575 10.882 76.285C10.882 77.995 9.874 78.751 7.966 78.751H3.358V73.819ZM15.1705 74.683V72.649H13.8925V74.683H15.1705ZM15.1705 84.709V75.817H13.8925V84.709H15.1705ZM21.2262 84.889C23.5302 84.889 25.1862 84.007 25.1862 82.333C25.1862 80.893 24.1602 80.245 22.2522 79.975L20.0742 79.669C18.5982 79.453 18.1302 79.129 18.1302 78.211C18.1302 77.149 18.9042 76.699 20.7762 76.699C23.0442 76.699 23.7462 77.419 23.7462 78.751V78.841H25.0242V78.805C25.0242 76.717 23.3682 75.637 20.8122 75.637C18.3642 75.637 16.8702 76.627 16.8702 78.193C16.8702 79.669 17.8962 80.299 19.5162 80.515L21.8922 80.857C23.3682 81.091 23.9262 81.397 23.9262 82.333C23.9262 83.359 23.2422 83.827 21.2442 83.827C19.0662 83.827 18.1842 83.305 18.1842 81.811V81.703H16.9062V81.739C16.9062 83.791 18.4902 84.889 21.2262 84.889ZM30.5912 84.889C32.8052 84.889 34.0832 83.449 34.3892 81.937H34.4792V84.709H35.6312V75.817H34.3532V80.137C34.3532 82.423 33.2192 83.737 31.0412 83.737C28.9892 83.737 28.0892 82.675 28.0892 80.821V75.817H26.8112V81.019C26.8112 83.125 28.0532 84.889 30.5912 84.889ZM41.6872 84.889C43.9912 84.889 45.6472 84.007 45.6472 82.333C45.6472 80.893 44.6212 80.245 42.7132 79.975L40.5352 79.669C39.0592 79.453 38.5912 79.129 38.5912 78.211C38.5912 77.149 39.3652 76.699 41.2372 76.699C43.5052 76.699 44.2072 77.419 44.2072 78.751V78.841H45.4852V78.805C45.4852 76.717 43.8292 75.637 41.2732 75.637C38.8252 75.637 37.3312 76.627 37.3312 78.193C37.3312 79.669 38.3572 80.299 39.9772 80.515L42.3532 80.857C43.8292 81.091 44.3872 81.397 44.3872 82.333C44.3872 83.359 43.7032 83.827 41.7052 83.827C39.5272 83.827 38.6452 83.305 38.6452 81.811V81.703H37.3672V81.739C37.3672 83.791 38.9512 84.889 41.6872 84.889ZM51.9088 84.709V79.219H59.6668V84.709H60.9448V72.649H59.6668V78.049H51.9088V72.649H50.6308V84.709H51.9088ZM65.5773 84.889C67.6473 84.889 69.2133 83.953 69.7353 82.315H69.8253V84.709H70.9773V79.147C70.9773 77.185 69.8253 75.637 67.1253 75.637C64.3893 75.637 62.8413 77.167 62.8413 79.039V79.111H64.1193V79.039C64.1193 77.473 65.1273 76.789 67.0353 76.789C68.9793 76.789 69.7353 77.473 69.7353 79.201V79.885L65.5053 80.353C63.8493 80.533 62.6433 81.163 62.6433 82.621C62.6433 84.061 63.8313 84.889 65.5773 84.889ZM63.9213 82.531C63.9213 81.613 64.5693 81.289 65.9013 81.163L69.7353 80.731V80.803C69.7353 82.945 68.0253 83.899 65.8653 83.899C64.5153 83.899 63.9213 83.431 63.9213 82.531ZM74.23 84.709V82.081H74.32C74.734 83.863 76.156 84.889 78.136 84.889C81.034 84.889 82.564 82.963 82.564 80.263C82.564 77.563 81.034 75.637 78.244 75.637C76.102 75.637 74.824 76.771 74.446 78.301H74.356V72.649H73.078V84.709H74.23ZM74.356 80.407V80.245C74.356 78.049 75.616 76.825 77.866 76.825C79.918 76.825 81.268 77.689 81.268 80.263C81.268 82.837 79.954 83.719 77.83 83.719C75.688 83.719 74.356 82.513 74.356 80.407ZM85.4127 74.683V72.649H84.1347V74.683H85.4127ZM85.4127 84.709V75.817H84.1347V84.709H85.4127ZM93.0164 84.709V83.539H91.3964C90.1004 83.539 89.4884 83.197 89.4884 81.955V76.915H93.0164V75.817H89.4884V73.693H88.1924V75.817H86.6084V76.915H88.1924V81.883C88.1924 83.971 89.3264 84.709 91.0904 84.709H93.0164ZM96.8839 84.889C98.9539 84.889 100.52 83.953 101.042 82.315H101.132V84.709H102.284V79.147C102.284 77.185 101.132 75.637 98.4319 75.637C95.6959 75.637 94.1479 77.167 94.1479 79.039V79.111H95.4259V79.039C95.4259 77.473 96.4339 76.789 98.3419 76.789C100.286 76.789 101.042 77.473 101.042 79.201V79.885L96.8119 80.353C95.1559 80.533 93.9499 81.163 93.9499 82.621C93.9499 84.061 95.1379 84.889 96.8839 84.889ZM95.2279 82.531C95.2279 81.613 95.8759 81.289 97.2079 81.163L101.042 80.731V80.803C101.042 82.945 99.3319 83.899 97.1719 83.899C95.8219 83.899 95.2279 83.431 95.2279 82.531ZM105.663 84.709V80.407C105.663 78.121 106.797 76.807 108.957 76.807C110.991 76.807 111.873 77.869 111.873 79.705V84.709H113.151V79.525C113.151 77.419 111.909 75.637 109.407 75.637C107.193 75.637 105.933 77.095 105.627 78.607H105.537V75.817H104.385V84.709H105.663ZM120.684 84.709V83.539H119.064C117.768 83.539 117.156 83.197 117.156 81.955V76.915H120.684V75.817H117.156V73.693H115.86V75.817H114.276V76.915H115.86V81.883C115.86 83.971 116.994 84.709 118.758 84.709H120.684ZM134.319 84.709V83.539H126.669V72.649H125.391V84.709H134.319ZM139.992 84.889C142.476 84.889 144.312 83.611 144.312 81.757V81.631H143.034V81.757C143.034 83.053 142.062 83.827 139.974 83.827C137.616 83.827 136.59 82.621 136.518 80.623H144.348C144.402 80.389 144.438 80.119 144.438 79.795C144.438 77.149 142.584 75.637 139.974 75.637C137.112 75.637 135.312 77.563 135.312 80.263C135.312 83.089 137.13 84.889 139.992 84.889ZM139.956 76.699C142.044 76.699 143.232 77.689 143.232 79.561C143.232 79.651 143.232 79.741 143.232 79.831H136.518C136.608 77.887 137.652 76.699 139.956 76.699ZM150.489 84.889C153.405 84.889 155.331 82.963 155.331 80.263C155.331 77.563 153.405 75.637 150.489 75.637C147.591 75.637 145.665 77.563 145.665 80.263C145.665 82.963 147.591 84.889 150.489 84.889ZM150.489 83.737C148.041 83.737 146.925 82.423 146.925 80.263C146.925 78.121 148.041 76.789 150.489 76.789C152.937 76.789 154.071 78.121 154.071 80.263C154.071 82.423 152.937 83.737 150.489 83.737ZM169.498 84.709V83.539H161.614V79.219H169.228V78.067H161.614V73.819H169.498V72.649H160.336V84.709H169.498ZM175.103 83.989C177.155 83.989 178.469 82.981 178.829 81.613H178.919V83.935C178.919 86.149 178.019 86.851 175.715 86.851C173.735 86.851 172.691 86.239 172.691 84.673H171.413C171.413 86.743 173.249 87.949 175.661 87.949C178.343 87.949 180.197 86.797 180.197 83.863V75.817H179.045V78.103H178.955C178.595 76.519 177.119 75.637 175.247 75.637C172.511 75.637 170.837 77.383 170.837 79.813C170.837 82.243 172.457 83.989 175.103 83.989ZM172.115 79.813C172.115 77.545 173.537 76.771 175.535 76.771C177.587 76.771 178.919 77.815 178.919 79.561V79.867C178.919 81.757 177.641 82.855 175.445 82.855C173.519 82.855 172.115 82.081 172.115 79.813ZM186.591 84.889C189.075 84.889 190.911 83.611 190.911 81.757V81.631H189.633V81.757C189.633 83.053 188.661 83.827 186.573 83.827C184.215 83.827 183.189 82.621 183.117 80.623H190.947C191.001 80.389 191.037 80.119 191.037 79.795C191.037 77.149 189.183 75.637 186.573 75.637C183.711 75.637 181.911 77.563 181.911 80.263C181.911 83.089 183.729 84.889 186.591 84.889ZM186.555 76.699C188.643 76.699 189.831 77.689 189.831 79.561C189.831 79.651 189.831 79.741 189.831 79.831H183.117C183.207 77.887 184.251 76.699 186.555 76.699ZM196.638 84.889C198.942 84.889 200.598 84.007 200.598 82.333C200.598 80.893 199.572 80.245 197.664 79.975L195.486 79.669C194.01 79.453 193.542 79.129 193.542 78.211C193.542 77.149 194.316 76.699 196.188 76.699C198.456 76.699 199.158 77.419 199.158 78.751V78.841H200.436V78.805C200.436 76.717 198.78 75.637 196.224 75.637C193.776 75.637 192.282 76.627 192.282 78.193C192.282 79.669 193.308 80.299 194.928 80.515L197.304 80.857C198.78 81.091 199.338 81.397 199.338 82.333C199.338 83.359 198.654 83.827 196.656 83.827C194.478 83.827 193.596 83.305 193.596 81.811V81.703H192.318V81.739C192.318 83.791 193.902 84.889 196.638 84.889ZM207.731 84.709V83.539H206.111C204.815 83.539 204.203 83.197 204.203 81.955V76.915H207.731V75.817H204.203V73.693H202.907V75.817H201.323V76.915H202.907V81.883C202.907 83.971 204.041 84.709 205.805 84.709H207.731ZM211.599 84.889C213.669 84.889 215.235 83.953 215.757 82.315H215.847V84.709H216.999V79.147C216.999 77.185 215.847 75.637 213.147 75.637C210.411 75.637 208.863 77.167 208.863 79.039V79.111H210.141V79.039C210.141 77.473 211.149 76.789 213.057 76.789C215.001 76.789 215.757 77.473 215.757 79.201V79.885L211.527 80.353C209.871 80.533 208.665 81.163 208.665 82.621C208.665 84.061 209.853 84.889 211.599 84.889ZM209.943 82.531C209.943 81.613 210.591 81.289 211.923 81.163L215.757 80.731V80.803C215.757 82.945 214.047 83.899 211.887 83.899C210.537 83.899 209.943 83.431 209.943 82.531ZM223.006 84.889C225.31 84.889 226.966 84.007 226.966 82.333C226.966 80.893 225.94 80.245 224.032 79.975L221.854 79.669C220.378 79.453 219.91 79.129 219.91 78.211C219.91 77.149 220.684 76.699 222.556 76.699C224.824 76.699 225.526 77.419 225.526 78.751V78.841H226.804V78.805C226.804 76.717 225.148 75.637 222.592 75.637C220.144 75.637 218.65 76.627 218.65 78.193C218.65 79.669 219.676 80.299 221.296 80.515L223.672 80.857C225.148 81.091 225.706 81.397 225.706 82.333C225.706 83.359 225.022 83.827 223.024 83.827C220.846 83.827 219.964 83.305 219.964 81.811V81.703H218.686V81.739C218.686 83.791 220.27 84.889 223.006 84.889ZM233.227 84.709V76.213L233.191 74.593H233.281L234.055 76.213L238.069 83.989H239.617L243.631 76.213L244.387 74.593H244.495L244.459 76.213V84.709H245.737V72.649H243.973L239.941 80.515L238.897 82.747H238.807L237.745 80.515L233.695 72.649H231.949V84.709H233.227ZM250.341 84.889C252.411 84.889 253.977 83.953 254.499 82.315H254.589V84.709H255.741V79.147C255.741 77.185 254.589 75.637 251.889 75.637C249.153 75.637 247.605 77.167 247.605 79.039V79.111H248.883V79.039C248.883 77.473 249.891 76.789 251.799 76.789C253.743 76.789 254.499 77.473 254.499 79.201V79.885L250.269 80.353C248.613 80.533 247.407 81.163 247.407 82.621C247.407 84.061 248.595 84.889 250.341 84.889ZM248.685 82.531C248.685 81.613 249.333 81.289 250.665 81.163L254.499 80.731V80.803C254.499 82.945 252.789 83.899 250.629 83.899C249.279 83.899 248.685 83.431 248.685 82.531ZM261.568 84.889C263.782 84.889 265.06 83.449 265.366 81.937H265.456V84.709H266.608V75.817H265.33V80.137C265.33 82.423 264.196 83.737 262.018 83.737C259.966 83.737 259.066 82.675 259.066 80.821V75.817H257.788V81.019C257.788 83.125 259.03 84.889 261.568 84.889ZM270.036 84.709V79.885C270.036 77.887 270.828 76.753 272.628 76.753C274.176 76.753 274.806 77.491 274.806 79.003V79.687H276.084V78.805C276.084 77.149 275.184 75.637 273.132 75.637C271.278 75.637 270.27 76.825 270 78.247H269.91V75.817H268.758V84.709H270.036ZM278.842 74.683V72.649H277.564V74.683H278.842ZM278.842 84.709V75.817H277.564V84.709H278.842ZM284.898 84.889C287.202 84.889 288.858 84.007 288.858 82.333C288.858 80.893 287.832 80.245 285.924 79.975L283.746 79.669C282.27 79.453 281.802 79.129 281.802 78.211C281.802 77.149 282.576 76.699 284.448 76.699C286.716 76.699 287.418 77.419 287.418 78.751V78.841H288.696V78.805C288.696 76.717 287.04 75.637 284.484 75.637C282.036 75.637 280.542 76.627 280.542 78.193C280.542 79.669 281.568 80.299 283.188 80.515L285.564 80.857C287.04 81.091 287.598 81.397 287.598 82.333C287.598 83.359 286.914 83.827 284.916 83.827C282.738 83.827 281.856 83.305 281.856 81.811V81.703H280.578V81.739C280.578 83.791 282.162 84.889 284.898 84.889ZM299.116 84.709C302.734 84.709 305.038 82.369 305.038 78.679C305.038 74.989 302.734 72.649 299.116 72.649H293.878V84.709H299.116ZM299.116 73.819C302.176 73.819 303.688 75.403 303.688 78.679C303.688 81.955 302.176 83.539 299.116 83.539H295.174V73.819H299.116ZM308.022 74.683V72.649H306.744V74.683H308.022ZM308.022 84.709V75.817H306.744V84.709H308.022ZM312.638 84.889C314.708 84.889 316.274 83.953 316.796 82.315H316.886V84.709H318.038V79.147C318.038 77.185 316.886 75.637 314.186 75.637C311.45 75.637 309.902 77.167 309.902 79.039V79.111H311.18V79.039C311.18 77.473 312.188 76.789 314.096 76.789C316.04 76.789 316.796 77.473 316.796 79.201V79.885L312.566 80.353C310.91 80.533 309.704 81.163 309.704 82.621C309.704 84.061 310.892 84.889 312.638 84.889ZM310.982 82.531C310.982 81.613 311.63 81.289 312.962 81.163L316.796 80.731V80.803C316.796 82.945 315.086 83.899 312.926 83.899C311.576 83.899 310.982 83.431 310.982 82.531ZM321.417 84.709V80.407C321.417 78.049 322.263 76.807 324.423 76.807C326.295 76.807 327.123 77.725 327.123 79.705V84.709H328.401V80.407C328.401 78.049 329.265 76.807 331.407 76.807C333.279 76.807 334.125 77.725 334.125 79.705V84.709H335.403V79.525C335.403 77.275 334.197 75.637 331.875 75.637C329.643 75.637 328.581 77.059 328.329 78.589H328.239C327.951 76.861 326.835 75.637 324.855 75.637C322.641 75.637 321.615 77.005 321.363 78.499H321.291V75.817H320.139V84.709H321.417ZM349.955 84.709V83.539H342.071V79.219H349.685V78.067H342.071V73.819H349.955V72.649H340.793V84.709H349.955ZM355.56 83.989C357.612 83.989 358.926 82.981 359.286 81.613H359.376V83.935C359.376 86.149 358.476 86.851 356.172 86.851C354.192 86.851 353.148 86.239 353.148 84.673H351.87C351.87 86.743 353.706 87.949 356.118 87.949C358.8 87.949 360.654 86.797 360.654 83.863V75.817H359.502V78.103H359.412C359.052 76.519 357.576 75.637 355.704 75.637C352.968 75.637 351.294 77.383 351.294 79.813C351.294 82.243 352.914 83.989 355.56 83.989ZM352.572 79.813C352.572 77.545 353.994 76.771 355.992 76.771C358.044 76.771 359.376 77.815 359.376 79.561V79.867C359.376 81.757 358.098 82.855 355.902 82.855C353.976 82.855 352.572 82.081 352.572 79.813ZM367.048 84.889C369.532 84.889 371.368 83.611 371.368 81.757V81.631H370.09V81.757C370.09 83.053 369.118 83.827 367.03 83.827C364.672 83.827 363.646 82.621 363.574 80.623H371.404C371.458 80.389 371.494 80.119 371.494 79.795C371.494 77.149 369.64 75.637 367.03 75.637C364.168 75.637 362.368 77.563 362.368 80.263C362.368 83.089 364.186 84.889 367.048 84.889ZM367.012 76.699C369.1 76.699 370.288 77.689 370.288 79.561C370.288 79.651 370.288 79.741 370.288 79.831H363.574C363.664 77.887 364.708 76.699 367.012 76.699ZM378.643 84.709V83.539H377.023C375.727 83.539 375.115 83.197 375.115 81.955V76.915H378.643V75.817H375.115V73.693H373.819V75.817H372.235V76.915H373.819V81.883C373.819 83.971 374.953 84.709 376.717 84.709H378.643ZM384.628 84.709V76.213L384.592 74.593H384.682L385.456 76.213L389.47 83.989H391.018L395.032 76.213L395.788 74.593H395.896L395.86 76.213V84.709H397.138V72.649H395.374L391.342 80.515L390.298 82.747H390.208L389.146 80.515L385.096 72.649H383.35V84.709H384.628ZM403.631 84.889C406.547 84.889 408.473 82.963 408.473 80.263C408.473 77.563 406.547 75.637 403.631 75.637C400.733 75.637 398.807 77.563 398.807 80.263C398.807 82.963 400.733 84.889 403.631 84.889ZM403.631 83.737C401.183 83.737 400.067 82.423 400.067 80.263C400.067 78.121 401.183 76.789 403.631 76.789C406.079 76.789 407.213 78.121 407.213 80.263C407.213 82.423 406.079 83.737 403.631 83.737ZM411.452 84.709V79.885C411.452 77.887 412.244 76.753 414.044 76.753C415.592 76.753 416.222 77.491 416.222 79.003V79.687H417.5V78.805C417.5 77.149 416.6 75.637 414.548 75.637C412.694 75.637 411.686 76.825 411.416 78.247H411.326V75.817H410.174V84.709H411.452ZM420.132 84.709V82.081H420.222C420.636 83.863 422.058 84.889 424.038 84.889C426.936 84.889 428.466 82.963 428.466 80.263C428.466 77.563 426.936 75.637 424.146 75.637C422.004 75.637 420.726 76.771 420.348 78.301H420.258V72.649H418.98V84.709H420.132ZM420.258 80.407V80.245C420.258 78.049 421.518 76.825 423.768 76.825C425.82 76.825 427.17 77.689 427.17 80.263C427.17 82.837 425.856 83.719 423.732 83.719C421.59 83.719 420.258 82.513 420.258 80.407ZM431.315 74.683V72.649H430.037V74.683H431.315ZM431.315 84.709V75.817H430.037V84.709H431.315ZM442.133 84.709V73.819H447.083V72.649H435.887V73.819H440.855V84.709H442.133ZM452.583 84.889C455.067 84.889 456.903 83.611 456.903 81.757V81.631H455.625V81.757C455.625 83.053 454.653 83.827 452.565 83.827C450.207 83.827 449.181 82.621 449.109 80.623H456.939C456.993 80.389 457.029 80.119 457.029 79.795C457.029 77.149 455.175 75.637 452.565 75.637C449.703 75.637 447.903 77.563 447.903 80.263C447.903 83.089 449.721 84.889 452.583 84.889ZM452.547 76.699C454.635 76.699 455.823 77.689 455.823 79.561C455.823 79.651 455.823 79.741 455.823 79.831H449.109C449.199 77.887 450.243 76.699 452.547 76.699ZM460.003 84.709V80.407C460.003 78.049 460.849 76.807 463.009 76.807C464.881 76.807 465.709 77.725 465.709 79.705V84.709H466.987V80.407C466.987 78.049 467.851 76.807 469.993 76.807C471.865 76.807 472.711 77.725 472.711 79.705V84.709H473.989V79.525C473.989 77.275 472.783 75.637 470.461 75.637C468.229 75.637 467.167 77.059 466.915 78.589H466.825C466.537 76.861 465.421 75.637 463.441 75.637C461.227 75.637 460.201 77.005 459.949 78.499H459.877V75.817H458.725V84.709H460.003ZM477.352 87.769V82.099H477.37C477.784 83.809 479.206 84.889 481.168 84.889C483.994 84.889 485.56 82.963 485.56 80.263C485.56 77.563 483.976 75.637 481.204 75.637C479.098 75.637 477.766 76.717 477.37 78.319H477.226V75.817H476.074V87.769H477.352ZM477.352 80.425V80.263C477.352 78.067 478.648 76.825 480.862 76.825C482.878 76.825 484.264 77.689 484.264 80.263C484.264 82.837 482.896 83.719 480.826 83.719C478.738 83.719 477.352 82.531 477.352 80.425ZM490.857 84.889C493.071 84.889 494.349 83.449 494.655 81.937H494.745V84.709H495.897V75.817H494.619V80.137C494.619 82.423 493.485 83.737 491.307 83.737C489.255 83.737 488.355 82.675 488.355 80.821V75.817H487.077V81.019C487.077 83.125 488.319 84.889 490.857 84.889ZM501.953 84.889C504.257 84.889 505.913 84.007 505.913 82.333C505.913 80.893 504.887 80.245 502.979 79.975L500.801 79.669C499.325 79.453 498.857 79.129 498.857 78.211C498.857 77.149 499.631 76.699 501.503 76.699C503.771 76.699 504.473 77.419 504.473 78.751V78.841H505.751V78.805C505.751 76.717 504.095 75.637 501.539 75.637C499.091 75.637 497.597 76.627 497.597 78.193C497.597 79.669 498.623 80.299 500.243 80.515L502.619 80.857C504.095 81.091 504.653 81.397 504.653 82.333C504.653 83.359 503.969 83.827 501.971 83.827C499.793 83.827 498.911 83.305 498.911 81.811V81.703H497.633V81.739C497.633 83.791 499.217 84.889 501.953 84.889ZM8.038 112.709L13.348 100.649H11.854L7.21 111.413H7.12L2.458 100.649H0.946L6.256 112.709H8.038ZM18.0931 112.889C20.3071 112.889 21.5851 111.449 21.8911 109.937H21.9811V112.709H23.1331V103.817H21.8551V108.137C21.8551 110.423 20.7211 111.737 18.5431 111.737C16.4911 111.737 15.5911 110.675 15.5911 108.821V103.817H14.3131V109.019C14.3131 111.125 15.5551 112.889 18.0931 112.889ZM26.5611 112.709V100.649H25.2831V112.709H26.5611ZM29.9889 115.769V110.099H30.0069C30.4209 111.809 31.8429 112.889 33.8049 112.889C36.6309 112.889 38.1969 110.963 38.1969 108.263C38.1969 105.563 36.6129 103.637 33.8409 103.637C31.7349 103.637 30.4029 104.717 30.0069 106.319H29.8629V103.817H28.7109V115.769H29.9889ZM29.9889 108.425V108.263C29.9889 106.067 31.2849 104.825 33.4989 104.825C35.5149 104.825 36.9009 105.689 36.9009 108.263C36.9009 110.837 35.5329 111.719 33.4629 111.719C31.3749 111.719 29.9889 110.531 29.9889 108.425ZM43.4935 112.889C45.7075 112.889 46.9855 111.449 47.2915 109.937H47.3815V112.709H48.5335V103.817H47.2555V108.137C47.2555 110.423 46.1215 111.737 43.9435 111.737C41.8915 111.737 40.9915 110.675 40.9915 108.821V103.817H39.7135V109.019C39.7135 111.125 40.9555 112.889 43.4935 112.889ZM56.1375 112.709V111.539H54.5175C53.2215 111.539 52.6095 111.197 52.6095 109.955V104.915H56.1375V103.817H52.6095V101.693H51.3135V103.817H49.7295V104.915H51.3135V109.883C51.3135 111.971 52.4475 112.709 54.2115 112.709H56.1375ZM60.005 112.889C62.075 112.889 63.641 111.953 64.163 110.315H64.253V112.709H65.405V107.147C65.405 105.185 64.253 103.637 61.553 103.637C58.817 103.637 57.269 105.167 57.269 107.039V107.111H58.547V107.039C58.547 105.473 59.555 104.789 61.463 104.789C63.407 104.789 64.163 105.473 64.163 107.201V107.885L59.933 108.353C58.277 108.533 57.071 109.163 57.071 110.621C57.071 112.061 58.259 112.889 60.005 112.889ZM58.349 110.531C58.349 109.613 58.997 109.289 60.329 109.163L64.163 108.731V108.803C64.163 110.945 62.453 111.899 60.293 111.899C58.943 111.899 58.349 111.431 58.349 110.531ZM72.9598 112.709V111.539H71.3398C70.0438 111.539 69.4318 111.197 69.4318 109.955V104.915H72.9598V103.817H69.4318V101.693H68.1358V103.817H66.5518V104.915H68.1358V109.883C68.1358 111.971 69.2698 112.709 71.0338 112.709H72.9598ZM78.5913 112.889C81.0753 112.889 82.9113 111.611 82.9113 109.757V109.631H81.6333V109.757C81.6333 111.053 80.6613 111.827 78.5732 111.827C76.2153 111.827 75.1893 110.621 75.1173 108.623H82.9473C83.0013 108.389 83.0373 108.119 83.0373 107.795C83.0373 105.149 81.1833 103.637 78.5732 103.637C75.7113 103.637 73.9113 105.563 73.9113 108.263C73.9113 111.089 75.7293 112.889 78.5913 112.889ZM78.5553 104.699C80.6433 104.699 81.8313 105.689 81.8313 107.561C81.8313 107.651 81.8313 107.741 81.8313 107.831H75.1173C75.2073 105.887 76.2513 104.699 78.5553 104.699ZM85.7763 112.709V110.207H84.1923V112.709H85.7763Z" fill="white"/>
<rect x="1" y="136.709" width="208" height="60" rx="4" fill="white"/>
<path d="M183.527 167.531C183.494 163.536 186.803 161.589 186.957 161.502C185.082 158.772 182.174 158.397 181.149 158.37C178.704 158.116 176.339 159.829 175.093 159.829C173.827 159.829 171.911 158.397 169.841 158.437C167.182 158.477 164.696 160.016 163.336 162.399C160.523 167.263 162.62 174.409 165.319 178.344C166.666 180.271 168.24 182.419 170.303 182.345C172.32 182.265 173.077 181.06 175.509 181.06C177.92 181.06 178.63 182.345 180.734 182.298C182.898 182.265 184.264 180.364 185.564 178.424C187.125 176.216 187.748 174.041 187.775 173.934C187.721 173.901 183.568 172.315 183.527 167.531ZM179.555 155.781C180.64 154.423 181.384 152.583 181.176 150.709C179.608 150.776 177.639 151.793 176.513 153.118C175.515 154.289 174.618 156.202 174.852 158.002C176.607 158.129 178.423 157.112 179.555 155.781Z" fill="black"/>
<path d="M29.498 172.709C33.242 172.709 35.6 170.405 35.6 166.679C35.6 162.953 33.242 160.649 29.498 160.649H24.008V172.709H29.498ZM29.498 162.395C32.288 162.395 33.548 163.583 33.548 166.679C33.548 169.775 32.288 170.963 29.498 170.963H25.934V162.395H29.498ZM41.6204 172.889C44.6084 172.889 46.6064 170.999 46.6064 168.245C46.6064 165.455 44.6084 163.583 41.6204 163.583C38.6504 163.583 36.6524 165.455 36.6524 168.245C36.6524 170.999 38.6504 172.889 41.6204 172.889ZM41.6204 171.161C39.4604 171.161 38.5604 170.135 38.5604 168.245C38.5604 166.337 39.4604 165.293 41.6204 165.293C43.7984 165.293 44.6984 166.337 44.6984 168.245C44.6984 170.135 43.7984 171.161 41.6204 171.161ZM52.3012 172.709L54.2812 167.561L54.9652 165.365H55.1092L55.7932 167.561L57.7552 172.709H60.1672L62.8852 163.763H60.9052L59.4112 168.839L58.9972 171.143H58.8532L58.1872 168.659L56.2972 163.763H53.8132L51.9412 168.659L51.2752 171.143H51.1312L50.7172 168.839L49.2232 163.763H47.2072L49.8892 172.709H52.3012ZM65.8167 172.709V168.281C65.8167 166.337 66.6987 165.329 68.6607 165.329C70.5147 165.329 71.2707 166.175 71.2707 167.849V172.709H73.2147V167.327C73.2147 165.257 71.9907 163.583 69.5067 163.583C67.2387 163.583 66.0507 165.023 65.7807 166.535H65.6547V163.763H63.8727V172.709H65.8167ZM76.8909 172.709V160.649H74.9469V172.709H76.8909ZM83.263 172.889C86.251 172.889 88.249 170.999 88.249 168.245C88.249 165.455 86.251 163.583 83.263 163.583C80.293 163.583 78.295 165.455 78.295 168.245C78.295 170.999 80.293 172.889 83.263 172.889ZM83.263 171.161C81.103 171.161 80.203 170.135 80.203 168.245C80.203 166.337 81.103 165.293 83.263 165.293C85.441 165.293 86.341 166.337 86.341 168.245C86.341 170.135 85.441 171.161 83.263 171.161ZM92.2878 172.889C94.3218 172.889 95.7438 171.989 96.2118 170.477H96.3378V172.709H98.1198V167.273C98.1198 165.131 96.8418 163.583 93.9978 163.583C91.1538 163.583 89.4618 165.113 89.4618 167.147V167.219H91.3878V167.147C91.3878 165.833 92.1978 165.293 93.8538 165.293C95.5638 165.293 96.2118 165.815 96.2118 167.291V167.813L92.1438 168.245C90.3798 168.443 89.2638 169.163 89.2638 170.549C89.2638 172.025 90.4338 172.889 92.2878 172.889ZM91.2078 170.423C91.2078 169.721 91.6938 169.487 92.7018 169.361L96.2118 168.965C96.2118 170.729 94.8438 171.485 92.8098 171.485C91.6938 171.485 91.2078 171.143 91.2078 170.423ZM103.797 172.889C105.813 172.889 107.127 171.917 107.505 170.135H107.631V172.709H109.413V160.649H107.469V166.193H107.361C107.001 164.681 105.795 163.583 103.671 163.583C100.953 163.583 99.4051 165.455 99.4051 168.245C99.4051 170.999 100.971 172.889 103.797 172.889ZM101.367 168.245C101.367 166.085 102.483 165.347 104.355 165.347C106.353 165.347 107.469 166.283 107.469 168.191V168.335C107.469 170.207 106.299 171.107 104.391 171.107C102.465 171.107 101.367 170.387 101.367 168.245ZM115.547 172.709L116.933 169.577H123.305L124.691 172.709H126.887L121.505 160.649H118.769L113.387 172.709H115.547ZM119.345 164.159L120.047 162.449H120.191L120.893 164.159L122.531 167.831H117.707L119.345 164.159ZM129.731 175.769V170.189H129.803C130.163 171.827 131.459 172.889 133.475 172.889C136.265 172.889 137.795 171.017 137.795 168.245C137.795 165.473 136.229 163.583 133.457 163.583C131.351 163.583 130.091 164.591 129.731 166.247H129.569V163.763H127.787V175.769H129.731ZM129.731 168.389V168.227C129.731 166.301 130.847 165.365 132.845 165.365C134.717 165.365 135.851 166.085 135.851 168.245C135.851 170.387 134.735 171.125 132.809 171.125C130.901 171.125 129.731 170.225 129.731 168.389ZM141.086 175.769V170.189H141.158C141.518 171.827 142.814 172.889 144.83 172.889C147.62 172.889 149.15 171.017 149.15 168.245C149.15 165.473 147.584 163.583 144.812 163.583C142.706 163.583 141.446 164.591 141.086 166.247H140.924V163.763H139.142V175.769H141.086ZM141.086 168.389V168.227C141.086 166.301 142.202 165.365 144.2 165.365C146.072 165.365 147.206 166.085 147.206 168.245C147.206 170.387 146.09 171.125 144.164 171.125C142.256 171.125 141.086 170.225 141.086 168.389Z" fill="black"/>
</svg>
