<svg width="173" height="119" viewBox="0 0 173 119" fill="none" xmlns="http://www.w3.org/2000/svg">
<path d="M109.59 14.709V12.3308H110.681V11.9282H108.05V12.3308H109.146V14.709H109.59ZM111.392 14.709V13.0032L111.375 12.6006H111.408L111.578 13.0032L112.346 14.543H112.886L113.654 13.0032L113.824 12.6006H113.857L113.84 13.0032V14.709H114.289V11.9282H113.678L112.886 13.5386L112.641 14.1155H112.608L112.354 13.5386L111.553 11.9282H110.943V14.709H111.392Z" fill="#262626"/>
<g clip-path="url(#clip0_101_450)">
<path d="M26.3829 11.5942C26.1564 11.3741 25.8387 11.2741 25.5277 11.3253C25.2162 11.3762 24.9472 11.5718 24.8027 11.8524C24.3057 12.8179 23.6745 13.7051 22.9318 14.4895C23.0058 13.9229 23.0431 13.3529 23.0431 12.7814C23.0431 11.6848 22.8961 10.5564 22.6061 9.42704C21.6527 5.71752 19.1525 2.58042 15.7468 0.820189C15.4503 0.66699 15.097 0.672369 14.8053 0.834533C14.5136 0.996764 14.3226 1.2942 14.2964 1.62689C14.0309 4.99794 12.2945 8.06485 9.52981 10.0432C9.49322 10.0696 9.4569 10.0963 9.42057 10.1228C9.34534 10.1779 9.27441 10.23 9.20814 10.2737C9.19778 10.2806 9.18749 10.2876 9.17739 10.2948C7.43861 11.5398 6.00391 13.1992 5.0282 15.0944C4.03675 17.0221 3.53406 19.0907 3.53406 21.2426C3.53406 22.3389 3.68101 23.4673 3.97088 24.5969C5.50055 30.5507 10.8585 34.7089 17.0004 34.7089C24.4253 34.7089 30.4659 28.6679 30.4659 21.2426C30.4659 17.581 29.0159 14.1544 26.3829 11.5942Z" fill="#FF5555"/>
<circle cx="16" cy="20.709" r="4" fill="white"/>
</g>
<path d="M46.5863 28.8389C47.6222 28.8389 48.5386 28.6497 49.3355 28.2712C50.1324 27.8727 50.74 27.2751 51.1583 26.4782V28.4803H55.3419V12.1644H50.8595V21.697C50.8595 22.6333 50.5806 23.3903 50.0228 23.9681C49.465 24.5259 48.7478 24.8048 47.8713 24.8048C46.9947 24.8048 46.2775 24.5259 45.7197 23.9681C45.1619 23.3903 44.883 22.6333 44.883 21.697V12.1644H40.4006V22.0556C40.4006 24.0876 40.9285 25.7311 41.9844 26.9862C43.0601 28.2214 44.5941 28.8389 46.5863 28.8389Z" fill="black"/>
<path d="M58.6181 10.7001H63.1005V6.21772H58.6181V10.7001ZM58.6181 28.4803H63.1005V12.1644H58.6181V28.4803Z" fill="black"/>
<path d="M68.3528 28.4803H72.8352V16.0491H76.3315V12.1644H72.8352V11.9253C72.8352 10.471 73.6819 9.74388 75.3752 9.74388C75.6542 9.74388 75.9829 9.77377 76.3614 9.83353V6.00854C75.9032 5.90894 75.3752 5.85913 74.7776 5.85913C72.7456 5.85913 71.1618 6.38706 70.0262 7.44291C68.9106 8.49877 68.3528 9.99291 68.3528 11.9253V12.1644H65.6036V16.0491H68.3528V28.4803Z" fill="black"/>
<path d="M78.6371 28.4803H83.1195V19.6948C83.1195 18.4796 83.4582 17.5433 84.1355 16.8858C84.8129 16.2085 85.6994 15.8698 86.7951 15.8698H88.1996V11.9851H87.2433C86.2473 11.9851 85.3607 12.1743 84.5838 12.5529C83.8268 12.9114 83.2391 13.5988 82.8207 14.6148V12.1644H78.6371V28.4803Z" fill="black"/>
<path d="M92.7042 35.1143C95.6924 35.1143 97.854 33.411 99.1887 30.0044L106.181 12.1644H101.37L97.5153 22.6532L93.6604 12.1644H88.8493L95.2741 28.4803L94.9753 29.1676C94.7362 29.7055 94.4274 30.1837 94.0489 30.602C93.6704 31.0204 93.0428 31.2295 92.1663 31.2295C91.4491 31.2295 90.7718 31.1299 90.1343 30.9307V34.6063C90.4729 34.7856 90.8614 34.9151 91.2997 34.9948C91.7579 35.0745 92.2261 35.1143 92.7042 35.1143Z" fill="black"/>
<path d="M34.528 68.709V64.085H40.832V68.709H42.544V57.989H40.832V62.533H34.528V57.989H32.8V68.709H34.528ZM48.1594 68.869C50.5274 68.869 52.1914 67.701 52.1914 66.005V65.861H50.4634V65.989C50.4634 66.933 49.7754 67.477 48.1114 67.477C46.2714 67.477 45.5194 66.661 45.4554 65.125H52.2074C52.2554 64.885 52.2714 64.661 52.2714 64.373C52.2714 61.957 50.5914 60.597 48.1274 60.597C45.5354 60.597 43.8394 62.261 43.8394 64.741C43.8394 67.397 45.5514 68.869 48.1594 68.869ZM48.0954 61.957C49.7914 61.957 50.6394 62.661 50.6394 64.133V64.165H45.4714C45.5674 62.741 46.3354 61.957 48.0954 61.957ZM55.2936 68.709V57.989H53.5656V68.709H55.2936ZM58.6218 71.429V66.469H58.6858C59.0058 67.925 60.1578 68.869 61.9498 68.869C64.4298 68.869 65.7898 67.205 65.7898 64.741C65.7898 62.277 64.3978 60.597 61.9338 60.597C60.0618 60.597 58.9418 61.493 58.6218 62.965H58.4778V60.757H56.8938V71.429H58.6218ZM58.6218 64.869V64.725C58.6218 63.013 59.6138 62.181 61.3898 62.181C63.0538 62.181 64.0618 62.821 64.0618 64.741C64.0618 66.645 63.0698 67.301 61.3578 67.301C59.6618 67.301 58.6218 66.501 58.6218 64.869ZM72.5395 68.053C73.9155 68.053 74.6195 67.237 74.8755 66.341H74.9555C75.1475 67.365 75.9315 68.053 77.3235 68.053C79.0515 68.053 80.1715 66.501 80.1715 64.037C80.1715 60.389 77.6275 58.165 73.5795 58.165C69.2115 58.165 66.4275 60.741 66.4275 64.741C66.4275 68.693 68.9395 71.093 72.9555 71.093C74.2515 71.093 75.2115 70.885 76.1075 70.549L75.8195 69.381C75.0195 69.621 74.2035 69.765 73.1155 69.765C69.7235 69.765 67.9795 68.341 67.9795 64.741C67.9795 61.045 69.8035 59.605 73.4995 59.605C77.1475 59.605 78.6995 61.093 78.6995 64.165C78.6995 66.133 78.2995 66.741 77.4355 66.741C76.7955 66.741 76.5235 66.437 76.5235 65.717V61.669H75.0195V63.253H74.9075C74.6675 62.245 73.8675 61.525 72.5715 61.525C70.8755 61.525 69.6595 62.677 69.6595 64.789C69.6595 66.997 70.8915 68.053 72.5395 68.053ZM71.2595 64.789C71.2595 63.349 71.8515 62.757 73.0835 62.757C74.1715 62.757 74.9075 63.349 74.9075 64.597V64.981C74.9075 66.245 74.1715 66.837 73.0835 66.837C71.8515 66.837 71.2595 66.229 71.2595 64.789ZM83.0124 68.709V64.405H89.5724V62.869H83.0124V59.541H89.8124V57.989H81.2844V68.709H83.0124ZM92.8249 68.709V64.245C92.8249 62.821 93.3849 62.069 94.7449 62.069C95.9289 62.069 96.4089 62.597 96.4089 63.733V64.437H98.1209V63.397C98.1209 61.893 97.3369 60.597 95.5289 60.597C93.8969 60.597 93.0329 61.621 92.7929 62.901H92.6809V60.757H91.0969V68.709H92.8249ZM100.486 71.429C102.118 71.429 103.014 70.997 103.67 69.573L107.814 60.757H105.91L104.038 64.965L103.286 66.885H103.158L102.374 64.981L100.342 60.757H98.4062L102.326 68.709L102.134 69.125C101.894 69.669 101.606 69.861 100.902 69.861H99.3503V71.429H100.486ZM110.243 68.709V66.421H110.355C110.691 68.005 111.859 68.869 113.667 68.869C116.195 68.869 117.555 67.189 117.555 64.741C117.555 62.261 116.211 60.597 113.763 60.597C111.859 60.597 110.803 61.573 110.483 62.917H110.387V57.989H108.659V68.709H110.243ZM110.387 64.821V64.693C110.387 62.997 111.363 62.165 113.155 62.165C114.851 62.165 115.827 62.821 115.827 64.741C115.827 66.645 114.867 67.285 113.123 67.285C111.411 67.285 110.387 66.485 110.387 64.821ZM120.481 59.829V57.989H118.753V59.829H120.481ZM120.481 68.709V60.757H118.753V68.709H120.481ZM123.393 68.709L126.001 65.669H126.113L128.753 68.709H130.849L127.425 64.741V64.645L130.849 60.757H128.769L126.161 63.765H126.065L123.425 60.757H121.329L124.753 64.677V64.773L121.329 68.709H123.393ZM133.547 68.709V66.229H131.371V68.709H133.547ZM140.047 68.869C143.087 68.869 145.183 67.269 145.183 64.693V64.485H143.279V64.693C143.279 66.341 142.239 67.205 140.063 67.205C137.551 67.205 136.335 66.021 136.335 63.349C136.335 60.677 137.551 59.477 140.063 59.477C142.239 59.477 143.279 60.357 143.279 61.989V62.213H145.183V61.989C145.183 59.429 143.071 57.829 140.047 57.829C136.719 57.829 134.511 60.005 134.511 63.349C134.511 66.693 136.719 68.869 140.047 68.869ZM150.52 68.869C153.176 68.869 154.952 67.189 154.952 64.741C154.952 62.261 153.176 60.597 150.52 60.597C147.88 60.597 146.104 62.261 146.104 64.741C146.104 67.189 147.88 68.869 150.52 68.869ZM150.52 67.333C148.6 67.333 147.8 66.421 147.8 64.741C147.8 63.045 148.6 62.117 150.52 62.117C152.456 62.117 153.256 63.045 153.256 64.741C153.256 66.421 152.456 67.333 150.52 67.333ZM157.934 68.709V64.773C157.934 63.013 158.526 62.149 160.238 62.149C161.774 62.149 162.382 62.821 162.382 64.389V68.709H164.094V64.773C164.094 63.013 164.702 62.149 166.398 62.149C167.934 62.149 168.558 62.821 168.558 64.389V68.709H170.27V63.925C170.27 62.005 169.23 60.597 167.166 60.597C165.15 60.597 164.254 61.861 164.046 63.221H163.95C163.726 61.701 162.75 60.597 160.942 60.597C158.958 60.597 158.094 61.829 157.886 63.157H157.79V60.757H156.206V68.709H157.934Z" fill="black"/>
<path d="M16.9394 54.709C18.2804 54.709 19.5704 55.239 20.5194 56.19C21.4694 57.139 22.0004 58.419 22.0004 59.759V67.659C22.0004 70.449 19.7304 72.709 16.9394 72.709H7.06043C4.26943 72.709 2.00043 70.449 2.00043 67.659V59.759C2.00043 56.969 4.25943 54.709 7.06043 54.709H16.9394ZM18.0704 59.909C17.8604 59.898 17.6604 59.969 17.5094 60.109L13.0004 63.709C12.4204 64.19 11.5894 64.19 11.0004 63.709L6.50043 60.109C6.18943 59.879 5.75943 59.909 5.50043 60.179C5.23043 60.449 5.20043 60.879 5.42943 61.179L5.56043 61.309L10.1104 64.859C10.6704 65.299 11.3494 65.539 12.0604 65.539C12.7694 65.539 13.4604 65.299 14.0194 64.859L18.5304 61.249L18.6104 61.169C18.8494 60.879 18.8494 60.459 18.5994 60.169C18.4604 60.02 18.2694 59.929 18.0704 59.909Z" fill="#FF5555"/>
<path d="M36.64 108.677V106.069H39.216V104.629H36.64V102.021H35.136V104.629H32.56V106.069H35.136V108.677H36.64ZM44.2933 110.709V99.989H42.7733C42.3093 101.013 41.6373 101.317 40.4533 101.317H39.9413V102.549H42.5653V110.709H44.2933ZM57.3481 110.709V109.157H52.7561L50.1641 109.333C50.1641 108.117 50.6601 107.605 52.1001 107.109L54.3561 106.421C56.2441 105.845 57.3801 104.917 57.3801 103.157C57.3801 101.269 56.1001 99.829 53.0601 99.829C49.7161 99.829 48.3561 101.621 48.3561 103.605V103.765H50.0521V103.573C50.0521 102.165 50.8521 101.413 52.9961 101.413C54.9161 101.413 55.6521 101.989 55.6521 103.125C55.6521 104.069 55.2041 104.501 53.9241 104.965L51.3641 105.845C49.1561 106.597 48.3721 107.589 48.3721 109.573V110.709H57.3481ZM63.1714 110.869C66.0994 110.869 67.8754 109.749 67.8754 107.717C67.8754 106.229 66.9474 105.365 65.3954 105.093V104.965C66.7714 104.741 67.4914 103.877 67.4914 102.661C67.4914 100.837 65.9394 99.829 63.2034 99.829C59.8754 99.829 58.3394 101.397 58.3394 103.493V103.637H60.1634V103.525C60.1634 102.117 60.8674 101.461 63.0594 101.461C65.1394 101.461 65.7794 101.957 65.7794 102.997C65.7794 103.957 65.1074 104.437 63.8114 104.437H61.0594V105.877H64.0514C65.3954 105.877 66.1314 106.373 66.1314 107.461C66.1314 108.725 65.3314 109.237 63.1074 109.237C60.7394 109.237 60.1634 108.581 60.1634 107.173V106.949H58.3394V107.205C58.3394 109.381 59.8114 110.869 63.1714 110.869ZM77.1613 110.709V108.533H79.0013V106.981H77.1613V99.989H75.1613L68.6013 107.333V108.533H75.4493V110.709H77.1613ZM70.9853 106.981V106.853L75.3213 102.005H75.4493V106.981H70.9853ZM90.9425 110.709V108.533H92.7825V106.981H90.9425V99.989H88.9425L82.3825 107.333V108.533H89.2305V110.709H90.9425ZM84.7665 106.981V106.853L89.1025 102.005H89.2305V106.981H84.7665ZM98.5014 110.869C101.525 110.869 103.141 109.445 103.141 107.221C103.141 105.013 101.669 103.813 99.1734 103.813C97.3974 103.813 96.1494 104.469 95.6054 105.061L95.4774 105.045L95.8614 101.541H102.629V99.989H94.3574L93.7814 105.877L95.3814 105.989V105.957L95.4934 105.989C96.1014 105.445 96.9974 105.189 98.5334 105.189C100.485 105.189 101.333 105.749 101.333 107.221C101.333 108.725 100.453 109.301 98.5334 109.301C96.3894 109.301 95.4294 108.741 95.4294 107.477V107.301H93.6694V107.477C93.6694 109.637 95.3654 110.869 98.5014 110.869ZM109.463 110.869C112.455 110.869 114.119 109.509 114.119 107.397C114.119 105.269 112.615 104.069 109.975 104.069C107.943 104.069 106.615 104.885 106.231 105.925H106.087V105.077C106.087 102.533 106.967 101.461 109.335 101.461C111.239 101.461 111.943 102.197 111.943 103.333V103.461H113.847V103.333C113.847 101.157 112.007 99.829 109.335 99.829C106.071 99.829 104.247 101.845 104.247 105.301C104.247 109.205 105.799 110.869 109.463 110.869ZM109.367 109.221C107.255 109.221 106.295 108.549 106.295 107.205C106.295 105.989 107.287 105.301 109.383 105.301C111.511 105.301 112.327 105.941 112.327 107.269C112.327 108.581 111.495 109.221 109.367 109.221ZM123.213 110.869C126.205 110.869 127.869 109.509 127.869 107.397C127.869 105.269 126.365 104.069 123.725 104.069C121.693 104.069 120.365 104.885 119.981 105.925H119.837V105.077C119.837 102.533 120.717 101.461 123.085 101.461C124.989 101.461 125.693 102.197 125.693 103.333V103.461H127.597V103.333C127.597 101.157 125.757 99.829 123.085 99.829C119.821 99.829 117.997 101.845 117.997 105.301C117.997 109.205 119.549 110.869 123.213 110.869ZM123.117 109.221C121.005 109.221 120.045 108.549 120.045 107.205C120.045 105.989 121.037 105.301 123.133 105.301C125.261 105.301 126.077 105.941 126.077 107.269C126.077 108.581 125.245 109.221 123.117 109.221ZM132.901 110.725C132.901 106.485 134.405 104.181 137.493 101.381V99.989H128.629V101.541H135.653V101.669C133.461 103.365 130.949 105.749 130.949 110.725H132.901ZM142.858 110.869C145.85 110.869 147.77 109.861 147.77 107.781C147.77 106.309 146.81 105.429 145.146 105.093V104.965C146.65 104.741 147.466 103.861 147.466 102.629C147.466 100.949 145.898 99.829 142.858 99.829C139.818 99.829 138.25 100.949 138.25 102.629C138.25 103.861 139.082 104.741 140.554 104.965V105.093C138.97 105.429 137.946 106.309 137.946 107.781C137.946 109.861 139.834 110.869 142.858 110.869ZM142.858 104.549C140.794 104.549 139.978 104.053 139.978 103.013C139.978 102.021 140.634 101.461 142.858 101.461C145.098 101.461 145.754 102.021 145.754 103.013C145.754 104.053 144.938 104.549 142.858 104.549ZM142.858 109.237C140.522 109.237 139.69 108.709 139.69 107.461C139.69 106.293 140.538 105.733 142.858 105.733C145.178 105.733 146.026 106.293 146.026 107.461C146.026 108.709 145.178 109.237 142.858 109.237ZM156.139 110.869C159.131 110.869 161.051 109.861 161.051 107.781C161.051 106.309 160.091 105.429 158.427 105.093V104.965C159.931 104.741 160.747 103.861 160.747 102.629C160.747 100.949 159.179 99.829 156.139 99.829C153.099 99.829 151.531 100.949 151.531 102.629C151.531 103.861 152.363 104.741 153.835 104.965V105.093C152.251 105.429 151.227 106.309 151.227 107.781C151.227 109.861 153.115 110.869 156.139 110.869ZM156.139 104.549C154.075 104.549 153.259 104.053 153.259 103.013C153.259 102.021 153.915 101.461 156.139 101.461C158.379 101.461 159.035 102.021 159.035 103.013C159.035 104.053 158.219 104.549 156.139 104.549ZM156.139 109.237C153.803 109.237 152.971 108.709 152.971 107.461C152.971 106.293 153.819 105.733 156.139 105.733C158.459 105.733 159.307 106.293 159.307 107.461C159.307 108.709 158.459 109.237 156.139 109.237ZM166.798 110.869C170.03 110.869 171.822 108.805 171.822 105.317C171.822 101.461 170.286 99.829 166.622 99.829C163.614 99.829 161.95 101.189 161.95 103.301C161.95 105.429 163.454 106.629 166.094 106.629C168.126 106.629 169.454 105.781 169.854 104.693H169.998V105.541C169.998 108.117 169.134 109.237 166.798 109.237C164.894 109.237 164.174 108.501 164.174 107.365V107.237H162.286V107.365C162.286 109.541 164.126 110.869 166.798 110.869ZM166.686 105.397C164.558 105.397 163.758 104.757 163.758 103.429C163.758 102.117 164.574 101.477 166.702 101.477C168.83 101.477 169.79 102.133 169.79 103.413C169.79 104.677 168.782 105.397 166.686 105.397Z" fill="black"/>
<path fill-rule="evenodd" clip-rule="evenodd" d="M11.5317 106.181C15.5208 110.169 16.4258 105.556 18.9656 108.094C21.4143 110.542 22.8216 111.032 19.7192 114.134C19.3306 114.446 16.8616 118.203 8.1846 109.529C-0.493478 100.853 3.26158 98.3814 3.57397 97.9929C6.68387 94.8828 7.16586 96.2984 9.61449 98.7463C12.1544 101.285 7.54266 102.193 11.5317 106.181Z" fill="#FF5555"/>
<defs>
<clipPath id="clip0_101_450">
<rect width="34" height="34" fill="white" transform="translate(0 0.708984)"/>
</clipPath>
</defs>
</svg>
