<svg width="82" height="211" viewBox="0 0 82 211" fill="none" xmlns="http://www.w3.org/2000/svg">
<path d="M5.528 76.709V72.085H11.832V76.709H13.544V65.989H11.832V70.533H5.528V65.989H3.8V76.709H5.528ZM19.2234 76.869C21.8794 76.869 23.6554 75.189 23.6554 72.741C23.6554 70.261 21.8794 68.597 19.2234 68.597C16.5834 68.597 14.8074 70.261 14.8074 72.741C14.8074 75.189 16.5834 76.869 19.2234 76.869ZM19.2234 75.333C17.3034 75.333 16.5034 74.421 16.5034 72.741C16.5034 71.045 17.3034 70.117 19.2234 70.117C21.1594 70.117 21.9594 71.045 21.9594 72.741C21.9594 74.421 21.1594 75.333 19.2234 75.333ZM26.6374 76.709V72.773C26.6374 71.013 27.2294 70.149 28.9414 70.149C30.4774 70.149 31.0854 70.821 31.0854 72.389V76.709H32.7974V72.773C32.7974 71.013 33.4054 70.149 35.1014 70.149C36.6374 70.149 37.2614 70.821 37.2614 72.389V76.709H38.9734V71.925C38.9734 70.005 37.9334 68.597 35.8694 68.597C33.8534 68.597 32.9574 69.861 32.7494 71.221H32.6534C32.4294 69.701 31.4534 68.597 29.6454 68.597C27.6614 68.597 26.7974 69.829 26.5894 71.157H26.4934V68.757H24.9094V76.709H26.6374ZM44.5188 76.869C46.8868 76.869 48.5508 75.701 48.5508 74.005V73.861H46.8228V73.989C46.8228 74.933 46.1348 75.477 44.4708 75.477C42.6308 75.477 41.8788 74.661 41.8148 73.125H48.5668C48.6148 72.885 48.6308 72.661 48.6308 72.373C48.6308 69.957 46.9508 68.597 44.4868 68.597C41.8948 68.597 40.1988 70.261 40.1988 72.741C40.1988 75.397 41.9108 76.869 44.5188 76.869ZM44.4548 69.957C46.1508 69.957 46.9988 70.661 46.9988 72.133V72.165H41.8307C41.9268 70.741 42.6948 69.957 44.4548 69.957Z" fill="black"/>
<path d="M4.92 118.709L6.152 115.925H11.816L13.048 118.709H15L10.216 107.989H7.784L3 118.709H4.92ZM8.296 111.109L8.92 109.589H9.048L9.672 111.109L11.128 114.373H6.84L8.296 111.109ZM17.384 118.709V116.421H17.496C17.832 118.005 19 118.869 20.808 118.869C23.336 118.869 24.696 117.189 24.696 114.741C24.696 112.261 23.352 110.597 20.904 110.597C19 110.597 17.944 111.573 17.624 112.917H17.528V107.989H15.8V118.709H17.384ZM17.528 114.821V114.693C17.528 112.997 18.504 112.165 20.296 112.165C21.992 112.165 22.968 112.821 22.968 114.741C22.968 116.645 22.008 117.285 20.264 117.285C18.552 117.285 17.528 116.485 17.528 114.821ZM29.9578 118.869C32.6138 118.869 34.3898 117.189 34.3898 114.741C34.3898 112.261 32.6138 110.597 29.9578 110.597C27.3178 110.597 25.5418 112.261 25.5418 114.741C25.5418 117.189 27.3178 118.869 29.9578 118.869ZM29.9578 117.333C28.0378 117.333 27.2378 116.421 27.2378 114.741C27.2378 113.045 28.0378 112.117 29.9578 112.117C31.8938 112.117 32.6938 113.045 32.6938 114.741C32.6938 116.421 31.8938 117.333 29.9578 117.333ZM38.9557 118.869C41.0038 118.869 42.0598 117.589 42.3158 116.245H42.4118V118.709H43.9958V110.757H42.2838V114.693C42.2838 116.421 41.4678 117.317 39.7078 117.317C38.0278 117.317 37.3398 116.565 37.3398 115.077V110.757H35.6278V115.541C35.6278 117.381 36.7158 118.869 38.9557 118.869ZM50.7816 118.709V117.157H49.3416C48.3496 117.157 47.9016 116.901 47.9016 115.925V112.197H50.7816V110.757H47.9016V109.013H46.1896V110.757H44.8456V112.197H46.1896V116.021C46.1896 117.957 47.2456 118.709 48.9576 118.709H50.7816ZM59.5569 118.869C62.7729 118.869 64.5969 117.173 64.5969 114.261V107.989H62.8689V114.149C62.8689 116.309 61.9089 117.205 59.5569 117.205C57.2049 117.205 56.2449 116.309 56.2449 114.149V107.989H54.5329V114.261C54.5329 117.173 56.3569 118.869 59.5569 118.869ZM69.8881 118.869C72.1281 118.869 73.6001 117.989 73.6001 116.501C73.6001 115.189 72.7361 114.549 70.8481 114.309L69.0081 114.053C67.8081 113.893 67.4881 113.669 67.4881 113.045C67.4881 112.293 68.0001 111.973 69.4561 111.973C71.2161 111.973 71.6961 112.469 71.6961 113.413V113.509H73.4081V113.461C73.4081 111.573 71.9361 110.597 69.5041 110.597C67.0561 110.597 65.7921 111.589 65.7921 112.981C65.7921 114.309 66.7041 114.949 68.2081 115.141L70.3841 115.429C71.5201 115.589 71.9041 115.797 71.9041 116.453C71.9041 117.157 71.4401 117.477 69.8881 117.477C68.2241 117.477 67.6001 117.141 67.6001 116.101V115.973H65.8721V116.021C65.8721 117.861 67.3281 118.869 69.8881 118.869Z" fill="black"/>
<path d="M9.944 160.709C12.152 160.709 13.384 159.589 13.384 157.749C13.384 156.341 12.488 155.349 10.664 155.141V155.029C12.296 154.837 13 153.893 13 152.629C13 150.933 11.768 149.989 9.72 149.989H3.72V160.709H9.944ZM5.432 151.541H9.528C10.728 151.541 11.288 152.005 11.288 153.013C11.288 154.021 10.68 154.485 9.48 154.485H5.432V151.541ZM5.432 155.909H9.752C11.016 155.909 11.656 156.389 11.656 157.509C11.656 158.677 11.032 159.157 9.752 159.157H5.432V155.909ZM18.5671 160.869C21.2231 160.869 22.9991 159.189 22.9991 156.741C22.9991 154.261 21.2231 152.597 18.5671 152.597C15.9271 152.597 14.1511 154.261 14.1511 156.741C14.1511 159.189 15.9271 160.869 18.5671 160.869ZM18.5671 159.333C16.6471 159.333 15.8471 158.421 15.8471 156.741C15.8471 155.045 16.6471 154.117 18.5671 154.117C20.5031 154.117 21.3031 155.045 21.3031 156.741C21.3031 158.421 20.5031 159.333 18.5671 159.333ZM28.3171 160.869C30.9731 160.869 32.7491 159.189 32.7491 156.741C32.7491 154.261 30.9731 152.597 28.3171 152.597C25.6771 152.597 23.9011 154.261 23.9011 156.741C23.9011 159.189 25.6771 160.869 28.3171 160.869ZM28.3171 159.333C26.3971 159.333 25.5971 158.421 25.5971 156.741C25.5971 155.045 26.3971 154.117 28.3171 154.117C30.2531 154.117 31.0531 155.045 31.0531 156.741C31.0531 158.421 30.2531 159.333 28.3171 159.333ZM35.7311 160.709V157.461H38.0031L40.3551 160.709H42.3871L39.4111 156.581L42.4031 152.757H40.3871L38.0031 155.909H35.7311V149.989H34.0031V160.709H35.7311ZM44.9811 151.829V149.989H43.2531V151.829H44.9811ZM44.9811 160.709V152.757H43.2531V160.709H44.9811ZM48.3093 160.709V156.773C48.3093 155.045 49.0933 154.149 50.8373 154.149C52.4853 154.149 53.1573 154.901 53.1573 156.389V160.709H54.8853V155.925C54.8853 154.085 53.7973 152.597 51.5893 152.597C49.5733 152.597 48.5173 153.877 48.2773 155.221H48.1653V152.757H46.5813V160.709H48.3093ZM59.881 159.989C61.689 159.989 62.761 159.125 63.049 157.925H63.161V159.877C63.161 161.653 62.505 162.149 60.697 162.149C59.001 162.149 58.329 161.717 58.329 160.565H56.617C56.617 162.485 58.249 163.589 60.601 163.589C63.209 163.589 64.873 162.453 64.873 159.781V152.757H63.289V154.741H63.193C62.905 153.349 61.657 152.597 59.993 152.597C57.577 152.597 56.105 154.085 56.105 156.293C56.105 158.501 57.513 159.989 59.881 159.989ZM57.849 156.293C57.849 154.661 58.825 154.101 60.489 154.101C62.169 154.101 63.161 154.789 63.161 156.133V156.357C63.161 157.765 62.201 158.501 60.441 158.501C58.809 158.501 57.849 157.925 57.849 156.293ZM70.2319 160.869C72.4719 160.869 73.9439 159.989 73.9439 158.501C73.9439 157.189 73.0799 156.549 71.1919 156.309L69.3519 156.053C68.1519 155.893 67.8319 155.669 67.8319 155.045C67.8319 154.293 68.3439 153.973 69.7999 153.973C71.5599 153.973 72.0399 154.469 72.0399 155.413V155.509H73.7519V155.461C73.7519 153.573 72.2799 152.597 69.8479 152.597C67.3999 152.597 66.1359 153.589 66.1359 154.981C66.1359 156.309 67.0479 156.949 68.5519 157.141L70.7279 157.429C71.8639 157.589 72.2479 157.797 72.2479 158.453C72.2479 159.157 71.7839 159.477 70.2319 159.477C68.5679 159.477 67.9439 159.141 67.9439 158.101V157.973H66.2159V158.021C66.2159 159.861 67.6719 160.869 70.2319 160.869Z" fill="black"/>
<path d="M9.944 202.709C12.152 202.709 13.384 201.589 13.384 199.749C13.384 198.341 12.488 197.349 10.664 197.141V197.029C12.296 196.837 13 195.893 13 194.629C13 192.933 11.768 191.989 9.72 191.989H3.72V202.709H9.944ZM5.432 193.541H9.528C10.728 193.541 11.288 194.005 11.288 195.013C11.288 196.021 10.68 196.485 9.48 196.485H5.432V193.541ZM5.432 197.909H9.752C11.016 197.909 11.656 198.389 11.656 199.509C11.656 200.677 11.032 201.157 9.752 201.157H5.432V197.909ZM16.2311 202.709V191.989H14.5031V202.709H16.2311ZM21.8953 202.869C24.5513 202.869 26.3273 201.189 26.3273 198.741C26.3273 196.261 24.5513 194.597 21.8953 194.597C19.2553 194.597 17.4793 196.261 17.4793 198.741C17.4793 201.189 19.2553 202.869 21.8953 202.869ZM21.8953 201.333C19.9753 201.333 19.1753 200.421 19.1753 198.741C19.1753 197.045 19.9753 196.117 21.8953 196.117C23.8313 196.117 24.6313 197.045 24.6313 198.741C24.6313 200.421 23.8313 201.333 21.8953 201.333ZM31.0373 201.989C32.8453 201.989 33.9173 201.125 34.2053 199.925H34.3173V201.877C34.3173 203.653 33.6613 204.149 31.8533 204.149C30.1573 204.149 29.4853 203.717 29.4853 202.565H27.7733C27.7733 204.485 29.4053 205.589 31.7573 205.589C34.3653 205.589 36.0293 204.453 36.0293 201.781V194.757H34.4453V196.741H34.3493C34.0613 195.349 32.8133 194.597 31.1493 194.597C28.7333 194.597 27.2613 196.085 27.2613 198.293C27.2613 200.501 28.6693 201.989 31.0373 201.989ZM29.0053 198.293C29.0053 196.661 29.9813 196.101 31.6453 196.101C33.3253 196.101 34.3173 196.789 34.3173 198.133V198.357C34.3173 199.765 33.3573 200.501 31.5973 200.501C29.9653 200.501 29.0053 199.925 29.0053 198.293Z" fill="black"/>
<path d="M18.6783 31.709V28.605H5.46225V10.269H2.00625V31.709H18.6783ZM24.3685 13.949V10.269H20.9125V13.949H24.3685ZM24.3685 31.709V15.805H20.9125V31.709H24.3685ZM31.0248 31.709V23.837C31.0248 20.381 32.5928 18.589 36.0808 18.589C39.3768 18.589 40.7208 20.093 40.7208 23.069V31.709H44.1768V22.141C44.1768 18.461 42.0008 15.485 37.5848 15.485C33.5528 15.485 31.4408 18.045 30.9608 20.733H30.7368V15.805H27.5688V31.709H31.0248ZM50.7123 31.709V25.213H55.2563L59.9603 31.709H64.0243L58.0723 23.453L64.0563 15.805H60.0243L55.2563 22.109H50.7123V10.269H47.2563V31.709H50.7123ZM73.2763 32.029C77.7563 32.029 80.7003 30.269 80.7003 27.293C80.7003 24.669 78.9723 23.389 75.1963 22.909L71.5163 22.397C69.1163 22.077 68.4763 21.629 68.4763 20.381C68.4763 18.877 69.5003 18.237 72.4123 18.237C75.9323 18.237 76.8923 19.229 76.8923 21.117V21.309H80.3162V21.213C80.3162 17.437 77.3723 15.485 72.5083 15.485C67.6123 15.485 65.0843 17.469 65.0843 20.253C65.0843 22.909 66.9083 24.189 69.9163 24.573L74.2683 25.149C76.5403 25.469 77.3083 25.885 77.3083 27.197C77.3083 28.605 76.3803 29.245 73.2763 29.245C69.9483 29.245 68.7003 28.573 68.7003 26.493V26.237H65.2443V26.333C65.2443 30.013 68.1562 32.029 73.2763 32.029Z" fill="black"/>
</svg>
