<svg width="108" height="169" viewBox="0 0 108 169" fill="none" xmlns="http://www.w3.org/2000/svg">
<path d="M6.128 76.709V67.541H10.336V65.989H0.192V67.541H4.416V76.709H6.128ZM15.3469 76.869C17.7149 76.869 19.3789 75.701 19.3789 74.005V73.861H17.6509V73.989C17.6509 74.933 16.9629 75.477 15.2989 75.477C13.4589 75.477 12.7069 74.661 12.6429 73.125H19.3949C19.4429 72.885 19.4589 72.661 19.4589 72.373C19.4589 69.957 17.7789 68.597 15.3149 68.597C12.7229 68.597 11.0269 70.261 11.0269 72.741C11.0269 75.397 12.7389 76.869 15.3469 76.869ZM15.2829 69.957C16.9789 69.957 17.8269 70.661 17.8269 72.133V72.165H12.6589C12.7549 70.741 13.5229 69.957 15.2829 69.957ZM22.4811 76.709V72.245C22.4811 70.821 23.0411 70.069 24.4011 70.069C25.5851 70.069 26.0651 70.597 26.0651 71.733V72.437H27.7771V71.397C27.7771 69.893 26.9931 68.597 25.1851 68.597C23.5531 68.597 22.6891 69.621 22.4491 70.901H22.3371V68.757H20.7531V76.709H22.4811ZM30.5905 76.709V72.773C30.5905 71.013 31.1825 70.149 32.8945 70.149C34.4305 70.149 35.0385 70.821 35.0385 72.389V76.709H36.7505V72.773C36.7505 71.013 37.3585 70.149 39.0545 70.149C40.5905 70.149 41.2145 70.821 41.2145 72.389V76.709H42.9265V71.925C42.9265 70.005 41.8865 68.597 39.8225 68.597C37.8065 68.597 36.9105 69.861 36.7025 71.221H36.6065C36.3825 69.701 35.4065 68.597 33.5985 68.597C31.6145 68.597 30.7505 69.829 30.5425 71.157H30.4465V68.757H28.8625V76.709H30.5905ZM48.2319 76.869C50.4719 76.869 51.9439 75.989 51.9439 74.501C51.9439 73.189 51.0799 72.549 49.1919 72.309L47.3519 72.053C46.1519 71.893 45.8319 71.669 45.8319 71.045C45.8319 70.293 46.3439 69.973 47.7999 69.973C49.5599 69.973 50.0399 70.469 50.0399 71.413V71.509H51.7519V71.461C51.7519 69.573 50.2799 68.597 47.8479 68.597C45.3999 68.597 44.1359 69.589 44.1359 70.981C44.1359 72.309 45.0479 72.949 46.5519 73.141L48.7279 73.429C49.8639 73.589 50.2479 73.797 50.2479 74.453C50.2479 75.157 49.7839 75.477 48.2319 75.477C46.5679 75.477 45.9439 75.141 45.9439 74.101V73.973H44.2159V74.021C44.2159 75.861 45.6719 76.869 48.2319 76.869ZM61.189 76.869C64.581 76.869 66.789 74.693 66.789 71.349C66.789 68.005 64.581 65.829 61.189 65.829C57.829 65.829 55.605 68.005 55.605 71.349C55.605 74.693 57.829 76.869 61.189 76.869ZM61.189 75.205C58.645 75.205 57.429 74.021 57.429 71.349C57.429 68.677 58.645 67.477 61.189 67.477C63.733 67.477 64.965 68.677 64.965 71.349C64.965 74.021 63.733 75.205 61.189 75.205ZM70.4016 76.709V70.197H73.2496V68.757H70.3696C70.2736 67.605 70.9296 67.269 72.1936 67.269H73.2496V65.989H72.4656C70.2096 65.989 68.8816 67.013 68.6896 68.757H67.4736V70.197H68.6736V76.709H70.4016ZM81.9006 76.869C85.1166 76.869 86.9406 75.173 86.9406 72.261V65.989H85.2126V72.149C85.2126 74.309 84.2526 75.205 81.9006 75.205C79.5486 75.205 78.5886 74.309 78.5886 72.149V65.989H76.8766V72.261C76.8766 75.173 78.7006 76.869 81.9006 76.869ZM92.2319 76.869C94.4719 76.869 95.9439 75.989 95.9439 74.501C95.9439 73.189 95.0799 72.549 93.1919 72.309L91.3519 72.053C90.1519 71.893 89.8319 71.669 89.8319 71.045C89.8319 70.293 90.3439 69.973 91.7999 69.973C93.5599 69.973 94.0399 70.469 94.0399 71.413V71.509H95.7519V71.461C95.7519 69.573 94.2799 68.597 91.8479 68.597C89.3999 68.597 88.1359 69.589 88.1359 70.981C88.1359 72.309 89.0479 72.949 90.5519 73.141L92.7279 73.429C93.8639 73.589 94.2479 73.797 94.2479 74.453C94.2479 75.157 93.7839 75.477 92.2319 75.477C90.5679 75.477 89.9439 75.141 89.9439 74.101V73.973H88.2159V74.021C88.2159 75.861 89.6719 76.869 92.2319 76.869ZM101.191 76.869C103.559 76.869 105.223 75.701 105.223 74.005V73.861H103.495V73.989C103.495 74.933 102.807 75.477 101.143 75.477C99.3026 75.477 98.5506 74.661 98.4866 73.125H105.239C105.287 72.885 105.303 72.661 105.303 72.373C105.303 69.957 103.623 68.597 101.159 68.597C98.5666 68.597 96.8706 70.261 96.8706 72.741C96.8706 75.397 98.5826 76.869 101.191 76.869ZM101.127 69.957C102.823 69.957 103.671 70.661 103.671 72.133V72.165H98.5026C98.5986 70.741 99.3666 69.957 101.127 69.957Z" fill="black"/>
<path d="M2.528 118.709V115.477H6.048C8.432 115.477 10.064 114.101 10.064 111.733C10.064 109.349 8.432 107.989 6.048 107.989H0.8V118.709H2.528ZM5.888 109.541C7.504 109.541 8.336 110.149 8.336 111.733C8.336 113.317 7.504 113.925 5.888 113.925H2.528V109.541H5.888ZM12.8249 118.709V114.245C12.8249 112.821 13.3849 112.069 14.7449 112.069C15.9289 112.069 16.4089 112.597 16.4089 113.733V114.437H18.1209V113.397C18.1209 111.893 17.3369 110.597 15.5289 110.597C13.8969 110.597 13.0329 111.621 12.7929 112.901H12.6809V110.757H11.0969V118.709H12.8249ZM20.9343 109.829V107.989H19.2063V109.829H20.9343ZM20.9343 118.709V110.757H19.2063V118.709H20.9343ZM27.6384 118.709L31.3824 110.757H29.5104L26.6784 117.029H26.5504L23.7184 110.757H21.8144L25.5264 118.709H27.6384ZM34.6048 118.869C36.4128 118.869 37.6768 118.069 38.0928 116.725H38.2048V118.709H39.7888V113.877C39.7888 111.973 38.6528 110.597 36.1248 110.597C33.5968 110.597 32.0928 111.957 32.0928 113.765V113.829H33.8048V113.765C33.8048 112.597 34.5248 112.117 35.9968 112.117C37.5168 112.117 38.0928 112.581 38.0928 113.893V114.357L34.4768 114.741C32.9088 114.917 31.9168 115.557 31.9168 116.789C31.9168 118.101 32.9568 118.869 34.6048 118.869ZM33.6448 116.677C33.6448 116.053 34.0768 115.845 34.9728 115.733L38.0928 115.381C38.0928 116.949 36.8768 117.621 35.0688 117.621C34.0768 117.621 33.6448 117.317 33.6448 116.677ZM45.3473 118.869C47.7313 118.869 49.4753 117.525 49.4753 115.541V115.365H47.7633V115.477C47.7633 116.709 46.8673 117.317 45.3153 117.317C43.5233 117.317 42.7233 116.453 42.7233 114.741C42.7233 112.997 43.5233 112.149 45.3153 112.149C46.8673 112.149 47.7633 112.757 47.7633 113.989V114.085H49.4753V113.925C49.4753 111.941 47.7313 110.597 45.3473 110.597C42.7233 110.597 41.0113 112.261 41.0113 114.741C41.0113 117.189 42.7233 118.869 45.3473 118.869ZM52.0331 121.429C53.6651 121.429 54.5611 120.997 55.2171 119.573L59.3611 110.757H57.4571L55.5851 114.965L54.8331 116.885H54.7051L53.9211 114.981L51.8891 110.757H49.9531L53.8731 118.709L53.6811 119.125C53.4411 119.669 53.1531 119.861 52.4491 119.861H50.8971V121.429H52.0331ZM64.6686 118.709V115.477H68.1886C70.5726 115.477 72.2046 114.101 72.2046 111.733C72.2046 109.349 70.5726 107.989 68.1886 107.989H62.9406V118.709H64.6686ZM68.0286 109.541C69.6446 109.541 70.4766 110.149 70.4766 111.733C70.4766 113.317 69.6446 113.925 68.0286 113.925H64.6686V109.541H68.0286ZM77.3015 118.869C79.9575 118.869 81.7335 117.189 81.7335 114.741C81.7335 112.261 79.9575 110.597 77.3015 110.597C74.6615 110.597 72.8855 112.261 72.8855 114.741C72.8855 117.189 74.6615 118.869 77.3015 118.869ZM77.3015 117.333C75.3815 117.333 74.5815 116.421 74.5815 114.741C74.5815 113.045 75.3815 112.117 77.3015 112.117C79.2375 112.117 80.0375 113.045 80.0375 114.741C80.0375 116.421 79.2375 117.333 77.3015 117.333ZM84.7155 118.709V107.989H82.9875V118.709H84.7155ZM88.0436 109.829V107.989H86.3156V109.829H88.0436ZM88.0436 118.709V110.757H86.3156V118.709H88.0436ZM93.6598 118.869C96.0438 118.869 97.7878 117.525 97.7878 115.541V115.365H96.0758V115.477C96.0758 116.709 95.1798 117.317 93.6278 117.317C91.8358 117.317 91.0358 116.453 91.0358 114.741C91.0358 112.997 91.8358 112.149 93.6278 112.149C95.1798 112.149 96.0758 112.757 96.0758 113.989V114.085H97.7878V113.925C97.7878 111.941 96.0438 110.597 93.6598 110.597C91.0358 110.597 89.3238 112.261 89.3238 114.741C89.3238 117.189 91.0358 118.869 93.6598 118.869ZM100.346 121.429C101.978 121.429 102.874 120.997 103.53 119.573L107.674 110.757H105.77L103.898 114.965L103.146 116.885H103.018L102.234 114.981L100.202 110.757H98.2656L102.186 118.709L101.994 119.125C101.754 119.669 101.466 119.861 100.762 119.861H99.2096V121.429H100.346Z" fill="black"/>
<path d="M6.016 160.869C9.056 160.869 11.152 159.269 11.152 156.693V156.485H9.248V156.693C9.248 158.341 8.208 159.205 6.032 159.205C3.52 159.205 2.304 158.021 2.304 155.349C2.304 152.677 3.52 151.477 6.032 151.477C8.208 151.477 9.248 152.357 9.248 153.989V154.213H11.152V153.989C11.152 151.429 9.04 149.829 6.016 149.829C2.688 149.829 0.48 152.005 0.48 155.349C0.48 158.693 2.688 160.869 6.016 160.869ZM16.489 160.869C19.145 160.869 20.921 159.189 20.921 156.741C20.921 154.261 19.145 152.597 16.489 152.597C13.849 152.597 12.073 154.261 12.073 156.741C12.073 159.189 13.849 160.869 16.489 160.869ZM16.489 159.333C14.569 159.333 13.769 158.421 13.769 156.741C13.769 155.045 14.569 154.117 16.489 154.117C18.425 154.117 19.225 155.045 19.225 156.741C19.225 158.421 18.425 159.333 16.489 159.333ZM26.239 160.869C28.895 160.869 30.671 159.189 30.671 156.741C30.671 154.261 28.895 152.597 26.239 152.597C23.599 152.597 21.823 154.261 21.823 156.741C21.823 159.189 23.599 160.869 26.239 160.869ZM26.239 159.333C24.319 159.333 23.519 158.421 23.519 156.741C23.519 155.045 24.319 154.117 26.239 154.117C28.175 154.117 28.975 155.045 28.975 156.741C28.975 158.421 28.175 159.333 26.239 159.333ZM33.653 160.709V157.461H35.925L38.277 160.709H40.309L37.333 156.581L40.325 152.757H38.309L35.925 155.909H33.653V149.989H31.925V160.709H33.653ZM42.903 151.829V149.989H41.175V151.829H42.903ZM42.903 160.709V152.757H41.175V160.709H42.903ZM48.5031 160.869C50.8711 160.869 52.5351 159.701 52.5351 158.005V157.861H50.8071V157.989C50.8071 158.933 50.1191 159.477 48.4551 159.477C46.6151 159.477 45.8631 158.661 45.7991 157.125H52.5511C52.5991 156.885 52.6151 156.661 52.6151 156.373C52.6151 153.957 50.9351 152.597 48.4711 152.597C45.8791 152.597 44.1831 154.261 44.1831 156.741C44.1831 159.397 45.8951 160.869 48.5031 160.869ZM48.4391 153.957C50.1351 153.957 50.9831 154.661 50.9831 156.133V156.165H45.8151C45.9111 154.741 46.6791 153.957 48.4391 153.957ZM58.3718 160.709V157.477H61.8918C64.2758 157.477 65.9078 156.101 65.9078 153.733C65.9078 151.349 64.2758 149.989 61.8918 149.989H56.6438V160.709H58.3718ZM61.7318 151.541C63.3478 151.541 64.1798 152.149 64.1798 153.733C64.1798 155.317 63.3478 155.925 61.7318 155.925H58.3718V151.541H61.7318ZM71.0046 160.869C73.6606 160.869 75.4366 159.189 75.4366 156.741C75.4366 154.261 73.6606 152.597 71.0046 152.597C68.3646 152.597 66.5886 154.261 66.5886 156.741C66.5886 159.189 68.3646 160.869 71.0046 160.869ZM71.0046 159.333C69.0846 159.333 68.2846 158.421 68.2846 156.741C68.2846 155.045 69.0846 154.117 71.0046 154.117C72.9406 154.117 73.7406 155.045 73.7406 156.741C73.7406 158.421 72.9406 159.333 71.0046 159.333ZM78.4186 160.709V149.989H76.6906V160.709H78.4186ZM81.7468 151.829V149.989H80.0188V151.829H81.7468ZM81.7468 160.709V152.757H80.0188V160.709H81.7468ZM87.3629 160.869C89.7469 160.869 91.4909 159.525 91.4909 157.541V157.365H89.7789V157.477C89.7789 158.709 88.8829 159.317 87.3309 159.317C85.5389 159.317 84.7389 158.453 84.7389 156.741C84.7389 154.997 85.5389 154.149 87.3309 154.149C88.8829 154.149 89.7789 154.757 89.7789 155.989V156.085H91.4909V155.925C91.4909 153.941 89.7469 152.597 87.3629 152.597C84.7389 152.597 83.0269 154.261 83.0269 156.741C83.0269 159.189 84.7389 160.869 87.3629 160.869ZM94.0488 163.429C95.6808 163.429 96.5768 162.997 97.2328 161.573L101.377 152.757H99.4728L97.6008 156.965L96.8488 158.885H96.7208L95.9368 156.981L93.9048 152.757H91.9688L95.8888 160.709L95.6968 161.125C95.4568 161.669 95.1688 161.861 94.4648 161.861H92.9128V163.429H94.0488Z" fill="black"/>
<path d="M18.272 31.709V28.605H5.056V10.269H1.6V31.709H18.272ZM28.5063 32.029C33.2423 32.029 36.5703 29.693 36.5703 26.301V26.013H33.1143V26.269C33.1143 28.157 31.7383 29.245 28.4103 29.245C24.7303 29.245 23.2263 27.613 23.0983 24.541H36.6023C36.6983 24.061 36.7303 23.613 36.7303 23.037C36.7303 18.205 33.3703 15.485 28.4423 15.485C23.2583 15.485 19.8663 18.813 19.8663 23.773C19.8663 29.085 23.2903 32.029 28.5063 32.029ZM28.3783 18.205C31.7703 18.205 33.4663 19.613 33.4663 22.557V22.621H23.1302C23.3223 19.773 24.8583 18.205 28.3783 18.205ZM46.2308 30.269C49.8468 30.269 51.9908 28.541 52.5668 26.141H52.7908V30.045C52.7908 33.597 51.4788 34.589 47.8628 34.589C44.4708 34.589 43.1268 33.725 43.1268 31.421H39.7028C39.7028 35.261 42.9668 37.469 47.6708 37.469C52.8868 37.469 56.2148 35.197 56.2148 29.853V15.805H53.0468V19.773H52.8548C52.2788 16.989 49.7828 15.485 46.4548 15.485C41.6228 15.485 38.6788 18.461 38.6788 22.877C38.6788 27.293 41.4948 30.269 46.2308 30.269ZM42.1668 22.877C42.1668 19.613 44.1188 18.493 47.4468 18.493C50.8068 18.493 52.7908 19.869 52.7908 22.557V23.005C52.7908 25.821 50.8708 27.293 47.3508 27.293C44.0868 27.293 42.1668 26.141 42.1668 22.877ZM64.0845 32.029C67.7005 32.029 70.2285 30.429 71.0605 27.741H71.2845V31.709H74.4525V22.045C74.4525 18.237 72.1805 15.485 67.1245 15.485C62.0685 15.485 59.0605 18.205 59.0605 21.821V21.949H62.4845V21.821C62.4845 19.485 63.9245 18.525 66.8685 18.525C69.9085 18.525 71.0605 19.453 71.0605 22.077V23.005L63.8285 23.773C60.6925 24.125 58.7085 25.405 58.7085 27.869C58.7085 30.493 60.7885 32.029 64.0845 32.029ZM62.1645 27.645C62.1645 26.397 63.0285 25.981 64.8205 25.757L71.0605 25.053C71.0605 28.189 68.6285 29.533 65.0125 29.533C63.0285 29.533 62.1645 28.925 62.1645 27.645ZM80.9935 31.709V10.269H77.5375V31.709H80.9935Z" fill="black"/>
</svg>
