<svg width="128" height="169" viewBox="0 0 128 169" fill="none" xmlns="http://www.w3.org/2000/svg">
<path d="M6.128 76.709V67.541H10.336V65.989H0.192V67.541H4.416V76.709H6.128ZM13.6829 76.869C15.4909 76.869 16.7549 76.069 17.1709 74.725H17.2829V76.709H18.8669V71.877C18.8669 69.973 17.7309 68.597 15.2029 68.597C12.6749 68.597 11.1709 69.957 11.1709 71.765V71.829H12.8829V71.765C12.8829 70.597 13.6029 70.117 15.0749 70.117C16.5949 70.117 17.1709 70.581 17.1709 71.893V72.357L13.5549 72.741C11.9869 72.917 10.9949 73.557 10.9949 74.789C10.9949 76.101 12.0349 76.869 13.6829 76.869ZM12.7229 74.677C12.7229 74.053 13.1549 73.845 14.0509 73.733L17.1709 73.381C17.1709 74.949 15.9549 75.621 14.1469 75.621C13.1549 75.621 12.7229 75.317 12.7229 74.677ZM22.1374 76.709V73.461H24.4094L26.7614 76.709H28.7934L25.8174 72.581L28.8094 68.757H26.7934L24.4094 71.909H22.1374V65.989H20.4094V76.709H22.1374ZM33.6594 76.869C36.0274 76.869 37.6914 75.701 37.6914 74.005V73.861H35.9634V73.989C35.9634 74.933 35.2754 75.477 33.6114 75.477C31.7714 75.477 31.0194 74.661 30.9554 73.125H37.7074C37.7554 72.885 37.7714 72.661 37.7714 72.373C37.7714 69.957 36.0914 68.597 33.6274 68.597C31.0354 68.597 29.3394 70.261 29.3394 72.741C29.3394 75.397 31.0514 76.869 33.6594 76.869ZM33.5954 69.957C35.2914 69.957 36.1394 70.661 36.1394 72.133V72.165H30.9714C31.0674 70.741 31.8354 69.957 33.5954 69.957ZM47.128 76.709V67.541H51.336V65.989H41.192V67.541H45.416V76.709H47.128ZM56.4109 76.869C59.0669 76.869 60.8429 75.189 60.8429 72.741C60.8429 70.261 59.0669 68.597 56.4109 68.597C53.7709 68.597 51.9949 70.261 51.9949 72.741C51.9949 75.189 53.7709 76.869 56.4109 76.869ZM56.4109 75.333C54.4909 75.333 53.6909 74.421 53.6909 72.741C53.6909 71.045 54.4909 70.117 56.4109 70.117C58.3469 70.117 59.1469 71.045 59.1469 72.741C59.1469 74.421 58.3469 75.333 56.4109 75.333ZM65.4089 76.869C67.4569 76.869 68.5129 75.589 68.7689 74.245H68.8649V76.709H70.4489V68.757H68.7369V72.693C68.7369 74.421 67.9209 75.317 66.1609 75.317C64.4809 75.317 63.7929 74.565 63.7929 73.077V68.757H62.0809V73.541C62.0809 75.381 63.1689 76.869 65.4089 76.869ZM73.7468 76.709V72.245C73.7468 70.821 74.3068 70.069 75.6668 70.069C76.8508 70.069 77.3308 70.597 77.3308 71.733V72.437H79.0428V71.397C79.0428 69.893 78.2588 68.597 76.4508 68.597C74.8188 68.597 73.9548 69.621 73.7148 70.901H73.6028V68.757H72.0188V76.709H73.7468Z" fill="black"/>
<path d="M9.136 118.709V117.157H2.528V107.989H0.8V118.709H9.136ZM11.9811 109.829V107.989H10.2531V109.829H11.9811ZM11.9811 118.709V110.757H10.2531V118.709H11.9811ZM18.6853 118.709L22.4293 110.757H20.5573L17.7253 117.029H17.5973L14.7653 110.757H12.8613L16.5733 118.709H18.6853ZM27.3156 118.869C29.6836 118.869 31.3476 117.701 31.3476 116.005V115.861H29.6196V115.989C29.6196 116.933 28.9316 117.477 27.2676 117.477C25.4276 117.477 24.6756 116.661 24.6116 115.125H31.3636C31.4116 114.885 31.4276 114.661 31.4276 114.373C31.4276 111.957 29.7476 110.597 27.2836 110.597C24.6916 110.597 22.9956 112.261 22.9956 114.741C22.9956 117.397 24.7076 118.869 27.3156 118.869ZM27.2516 111.957C28.9476 111.957 29.7956 112.661 29.7956 114.133V114.165H24.6276C24.7236 112.741 25.4916 111.957 27.2516 111.957ZM40.6723 118.869C43.7123 118.869 45.8083 117.269 45.8083 114.693V114.485H43.9043V114.693C43.9043 116.341 42.8643 117.205 40.6883 117.205C38.1763 117.205 36.9603 116.021 36.9603 113.349C36.9603 110.677 38.1763 109.477 40.6883 109.477C42.8643 109.477 43.9043 110.357 43.9043 111.989V112.213H45.8083V111.989C45.8083 109.429 43.6962 107.829 40.6723 107.829C37.3443 107.829 35.1363 110.005 35.1363 113.349C35.1363 116.693 37.3443 118.869 40.6723 118.869ZM48.8093 118.709V114.853C48.8093 113.173 49.4813 112.149 51.3693 112.149C53.0173 112.149 53.7373 112.789 53.7373 114.389V118.709H55.4493V113.973C55.4493 112.037 54.3773 110.597 52.1853 110.597C50.1533 110.597 49.1773 111.845 48.9053 113.189H48.8093V107.989H47.0813V118.709H48.8093ZM59.3391 118.869C61.1471 118.869 62.4111 118.069 62.8271 116.725H62.9391V118.709H64.5231V113.877C64.5231 111.973 63.3871 110.597 60.8591 110.597C58.3311 110.597 56.8271 111.957 56.8271 113.765V113.829H58.5391V113.765C58.5391 112.597 59.2591 112.117 60.7311 112.117C62.2511 112.117 62.8271 112.581 62.8271 113.893V114.357L59.2111 114.741C57.6431 114.917 56.6511 115.557 56.6511 116.789C56.6511 118.101 57.6911 118.869 59.3391 118.869ZM58.3791 116.677C58.3791 116.053 58.8111 115.845 59.7071 115.733L62.8271 115.381C62.8271 116.949 61.6111 117.621 59.8031 117.621C58.8111 117.621 58.3791 117.317 58.3791 116.677ZM71.2816 118.709V117.157H69.8416C68.8496 117.157 68.4016 116.901 68.4016 115.925V112.197H71.2816V110.757H68.4016V109.013H66.6896V110.757H65.3456V112.197H66.6896V116.021C66.6896 117.957 67.7456 118.709 69.4576 118.709H71.2816Z" fill="black"/>
<path d="M2.528 160.709V156.549H4.496C5.84 156.549 6.336 156.901 6.816 157.749L8.528 160.709H10.512L8.72 157.605C8.336 156.933 7.952 156.453 7.12 156.229V156.117C9.136 156.005 10.304 154.917 10.304 153.141C10.304 151.141 8.8 149.989 6.368 149.989H0.8V160.709H2.528ZM2.528 151.541H6.352C7.792 151.541 8.512 152.069 8.512 153.381C8.512 154.725 7.792 155.221 6.352 155.221H2.528V151.541ZM15.55 160.869C17.918 160.869 19.582 159.701 19.582 158.005V157.861H17.854V157.989C17.854 158.933 17.166 159.477 15.502 159.477C13.662 159.477 12.91 158.661 12.846 157.125H19.598C19.646 156.885 19.662 156.661 19.662 156.373C19.662 153.957 17.982 152.597 15.518 152.597C12.926 152.597 11.23 154.261 11.23 156.741C11.23 159.397 12.942 160.869 15.55 160.869ZM15.486 153.957C17.182 153.957 18.03 154.661 18.03 156.133V156.165H12.862C12.958 154.741 13.726 153.957 15.486 153.957ZM26.0603 160.709L29.8043 152.757H27.9323L25.1003 159.029H24.9723L22.1403 152.757H20.2363L23.9483 160.709H26.0603ZM34.6906 160.869C37.0586 160.869 38.7226 159.701 38.7226 158.005V157.861H36.9946V157.989C36.9946 158.933 36.3066 159.477 34.6426 159.477C32.8026 159.477 32.0506 158.661 31.9866 157.125H38.7386C38.7866 156.885 38.8026 156.661 38.8026 156.373C38.8026 153.957 37.1226 152.597 34.6586 152.597C32.0666 152.597 30.3706 154.261 30.3706 156.741C30.3706 159.397 32.0826 160.869 34.6906 160.869ZM34.6266 153.957C36.3226 153.957 37.1706 154.661 37.1706 156.133V156.165H32.0026C32.0986 154.741 32.8666 153.957 34.6266 153.957ZM41.8249 151.829V149.989H40.0969V151.829H41.8249ZM41.8249 160.709V152.757H40.0969V160.709H41.8249ZM47.233 160.709L48.993 156.133L49.601 154.181H49.729L50.337 156.133L52.081 160.709H54.225L56.641 152.757H54.881L53.553 157.269L53.185 159.317H53.057L52.465 157.109L50.785 152.757H48.577L46.913 157.109L46.321 159.317H46.193L45.825 157.269L44.497 152.757H42.705L45.089 160.709H47.233ZM61.2788 160.869C63.5188 160.869 64.9908 159.989 64.9908 158.501C64.9908 157.189 64.1268 156.549 62.2388 156.309L60.3988 156.053C59.1988 155.893 58.8788 155.669 58.8788 155.045C58.8788 154.293 59.3908 153.973 60.8468 153.973C62.6068 153.973 63.0868 154.469 63.0868 155.413V155.509H64.7987V155.461C64.7987 153.573 63.3268 152.597 60.8948 152.597C58.4468 152.597 57.1828 153.589 57.1828 154.981C57.1828 156.309 58.0948 156.949 59.5988 157.141L61.7748 157.429C62.9108 157.589 63.2948 157.797 63.2948 158.453C63.2948 159.157 62.8308 159.477 61.2788 159.477C59.6148 159.477 58.9908 159.141 58.9908 158.101V157.973H57.2628V158.021C57.2628 159.861 58.7188 160.869 61.2788 160.869Z" fill="black"/>
<path d="M5.056 31.709V25.245H12.096C16.864 25.245 20.128 22.493 20.128 17.757C20.128 12.989 16.864 10.269 12.096 10.269H1.6V31.709H5.056ZM11.776 13.373C15.008 13.373 16.672 14.589 16.672 17.757C16.672 20.925 15.008 22.141 11.776 22.141H5.056V13.373H11.776ZM25.6498 31.709V22.781C25.6498 19.933 26.7698 18.429 29.4898 18.429C31.8578 18.429 32.8178 19.485 32.8178 21.757V23.165H36.2418V21.085C36.2418 18.077 34.6738 15.485 31.0578 15.485C27.7938 15.485 26.0658 17.533 25.5858 20.093H25.3618V15.805H22.1938V31.709H25.6498ZM46.5405 32.029C51.8525 32.029 55.4045 28.669 55.4045 23.773C55.4045 18.813 51.8525 15.485 46.5405 15.485C41.2605 15.485 37.7085 18.813 37.7085 23.773C37.7085 28.669 41.2605 32.029 46.5405 32.029ZM46.5405 28.957C42.7005 28.957 41.1005 27.133 41.1005 23.773C41.1005 20.381 42.7005 18.525 46.5405 18.525C50.4125 18.525 52.0125 20.381 52.0125 23.773C52.0125 27.133 50.4125 28.957 46.5405 28.957ZM64.9205 32.029C68.5045 32.029 70.8405 30.301 71.5125 27.133H71.7365V31.709H74.9045V10.269H71.4485V20.125H71.2565C70.6165 17.437 68.4725 15.485 64.6965 15.485C59.8645 15.485 57.1125 18.813 57.1125 23.773C57.1125 28.669 59.8965 32.029 64.9205 32.029ZM60.6005 23.773C60.6005 19.933 62.5845 18.621 65.9125 18.621C69.4645 18.621 71.4485 20.285 71.4485 23.677V23.933C71.4485 27.261 69.3685 28.861 65.9765 28.861C62.5525 28.861 60.6005 27.581 60.6005 23.773ZM84.724 32.029C88.82 32.029 90.932 29.469 91.444 26.781H91.636V31.709H94.804V15.805H91.38V23.677C91.38 27.133 89.748 28.925 86.228 28.925C82.868 28.925 81.492 27.421 81.492 24.445V15.805H78.068V25.373C78.068 29.053 80.244 32.029 84.724 32.029ZM105.976 32.029C110.744 32.029 114.232 29.341 114.232 25.373V25.021H110.808V25.245C110.808 27.709 109.016 28.925 105.912 28.925C102.328 28.925 100.728 27.197 100.728 23.773C100.728 20.285 102.328 18.589 105.912 18.589C109.016 18.589 110.808 19.805 110.808 22.269V22.461H114.232V22.141C114.232 18.173 110.744 15.485 105.976 15.485C100.728 15.485 97.3038 18.813 97.3038 23.773C97.3038 28.669 100.728 32.029 105.976 32.029ZM127.22 31.709V28.605H124.34C122.356 28.605 121.46 28.093 121.46 26.141V18.685H127.22V15.805H121.46V12.317H118.036V15.805H115.348V18.685H118.036V26.333C118.036 30.205 120.148 31.709 123.572 31.709H127.22Z" fill="black"/>
</svg>
