<svg width="1090" height="105" viewBox="0 0 1090 105" fill="none" xmlns="http://www.w3.org/2000/svg">
<mask id="path-1-inside-1_101_432" fill="white">
<path d="M0 0.708984H1090V104.709H0V0.708984Z"/>
</mask>
<path d="M0 1.70898H1090V-0.291016H0V1.70898Z" fill="url(#paint0_linear_101_432)" mask="url(#path-1-inside-1_101_432)"/>
<path d="M375.016 57.869C378.056 57.869 380.152 56.269 380.152 53.693V53.485H378.248V53.693C378.248 55.341 377.208 56.205 375.032 56.205C372.52 56.205 371.304 55.021 371.304 52.349C371.304 49.677 372.52 48.477 375.032 48.477C377.208 48.477 378.248 49.357 378.248 50.989V51.213H380.152V50.989C380.152 48.429 378.04 46.829 375.016 46.829C371.688 46.829 369.48 49.005 369.48 52.349C369.48 55.693 371.688 57.869 375.016 57.869ZM385.489 57.869C388.145 57.869 389.921 56.189 389.921 53.741C389.921 51.261 388.145 49.597 385.489 49.597C382.849 49.597 381.073 51.261 381.073 53.741C381.073 56.189 382.849 57.869 385.489 57.869ZM385.489 56.333C383.569 56.333 382.769 55.421 382.769 53.741C382.769 52.045 383.569 51.117 385.489 51.117C387.425 51.117 388.225 52.045 388.225 53.741C388.225 55.421 387.425 56.333 385.489 56.333ZM392.903 60.429V55.469H392.967C393.287 56.925 394.439 57.869 396.231 57.869C398.711 57.869 400.071 56.205 400.071 53.741C400.071 51.277 398.679 49.597 396.215 49.597C394.343 49.597 393.223 50.493 392.903 51.965H392.759V49.757H391.175V60.429H392.903ZM392.903 53.869V53.725C392.903 52.013 393.895 51.181 395.671 51.181C397.335 51.181 398.343 51.821 398.343 53.741C398.343 55.645 397.351 56.301 395.639 56.301C393.943 56.301 392.903 55.501 392.903 53.869ZM402.549 60.429C404.181 60.429 405.077 59.997 405.733 58.573L409.877 49.757H407.973L406.101 53.965L405.349 55.885H405.221L404.437 53.981L402.405 49.757H400.469L404.389 57.709L404.197 58.125C403.957 58.669 403.669 58.861 402.965 58.861H401.413V60.429H402.549ZM412.45 57.709V53.245C412.45 51.821 413.01 51.069 414.37 51.069C415.554 51.069 416.034 51.597 416.034 52.733V53.437H417.746V52.397C417.746 50.893 416.962 49.597 415.154 49.597C413.522 49.597 412.658 50.621 412.418 51.901H412.306V49.757H410.722V57.709H412.45ZM420.559 48.829V46.989H418.831V48.829H420.559ZM420.559 57.709V49.757H418.831V57.709H420.559ZM425.615 56.989C427.423 56.989 428.495 56.125 428.783 54.925H428.895V56.877C428.895 58.653 428.239 59.149 426.431 59.149C424.735 59.149 424.063 58.717 424.063 57.565H422.351C422.351 59.485 423.983 60.589 426.335 60.589C428.943 60.589 430.607 59.453 430.607 56.781V49.757H429.023V51.741H428.927C428.639 50.349 427.391 49.597 425.727 49.597C423.311 49.597 421.839 51.085 421.839 53.293C421.839 55.501 423.247 56.989 425.615 56.989ZM423.583 53.293C423.583 51.661 424.559 51.101 426.223 51.101C427.903 51.101 428.895 51.789 428.895 53.133V53.357C428.895 54.765 427.935 55.501 426.175 55.501C424.543 55.501 423.583 54.925 423.583 53.293ZM433.934 57.709V53.853C433.934 52.173 434.606 51.149 436.494 51.149C438.142 51.149 438.862 51.789 438.862 53.389V57.709H440.574V52.973C440.574 51.037 439.502 49.597 437.31 49.597C435.278 49.597 434.302 50.845 434.03 52.189H433.934V46.989H432.206V57.709H433.934ZM447.344 57.709V56.157H445.904C444.912 56.157 444.464 55.901 444.464 54.925V51.197H447.344V49.757H444.464V48.013H442.752V49.757H441.408V51.197H442.752V55.021C442.752 56.957 443.808 57.709 445.52 57.709H447.344ZM459.879 57.709V56.157H455.287L452.695 56.333C452.695 55.117 453.191 54.605 454.631 54.109L456.887 53.421C458.775 52.845 459.911 51.917 459.911 50.157C459.911 48.269 458.631 46.829 455.591 46.829C452.247 46.829 450.887 48.621 450.887 50.605V50.765H452.583V50.573C452.583 49.165 453.383 48.413 455.527 48.413C457.447 48.413 458.183 48.989 458.183 50.125C458.183 51.069 457.735 51.501 456.455 51.965L453.895 52.845C451.687 53.597 450.903 54.589 450.903 56.573V57.709H459.879ZM466.023 57.869C469.255 57.869 471.175 55.757 471.175 52.349C471.175 48.957 469.255 46.829 466.023 46.829C462.791 46.829 460.871 48.957 460.871 52.349C460.871 55.757 462.791 57.869 466.023 57.869ZM466.023 56.205C463.735 56.205 462.695 55.021 462.695 52.349C462.695 49.677 463.735 48.493 466.023 48.493C468.311 48.493 469.335 49.677 469.335 52.349C469.335 55.021 468.311 56.205 466.023 56.205ZM481.176 57.709V56.157H476.584L473.992 56.333C473.992 55.117 474.488 54.605 475.928 54.109L478.184 53.421C480.072 52.845 481.208 51.917 481.208 50.157C481.208 48.269 479.928 46.829 476.888 46.829C473.544 46.829 472.184 48.621 472.184 50.605V50.765H473.88V50.573C473.88 49.165 474.68 48.413 476.824 48.413C478.744 48.413 479.48 48.989 479.48 50.125C479.48 51.069 479.032 51.501 477.752 51.965L475.192 52.845C472.984 53.597 472.2 54.589 472.2 56.573V57.709H481.176ZM491.208 57.709V56.157H486.616L484.024 56.333C484.024 55.117 484.52 54.605 485.96 54.109L488.216 53.421C490.104 52.845 491.24 51.917 491.24 50.157C491.24 48.269 489.96 46.829 486.92 46.829C483.576 46.829 482.215 48.621 482.215 50.605V50.765H483.912V50.573C483.912 49.165 484.712 48.413 486.856 48.413C488.776 48.413 489.512 48.989 489.512 50.125C489.512 51.069 489.064 51.501 487.784 51.965L485.224 52.845C483.016 53.597 482.232 54.589 482.232 56.573V57.709H491.208ZM500.213 57.869C503.429 57.869 505.253 56.173 505.253 53.261V46.989H503.525V53.149C503.525 55.309 502.565 56.205 500.213 56.205C497.861 56.205 496.901 55.309 496.901 53.149V46.989H495.189V53.261C495.189 56.173 497.013 57.869 500.213 57.869ZM508.512 48.829V46.989H506.784V48.829H508.512ZM508.512 57.709V49.757H506.784V57.709H508.512ZM512.449 57.709V51.197H515.297V49.757H512.417C512.321 48.605 512.977 48.269 514.241 48.269H515.297V46.989H514.513C512.257 46.989 510.929 48.013 510.737 49.757H509.521V51.197H510.721V57.709H512.449ZM517.981 57.709V53.245C517.981 51.821 518.541 51.069 519.901 51.069C521.085 51.069 521.565 51.597 521.565 52.733V53.437H523.277V52.397C523.277 50.893 522.493 49.597 520.685 49.597C519.053 49.597 518.189 50.621 517.949 51.901H517.837V49.757H516.253V57.709H517.981ZM525.643 60.429C527.275 60.429 528.171 59.997 528.827 58.573L532.97 49.757H531.067L529.195 53.965L528.443 55.885H528.315L527.531 53.981L525.499 49.757H523.562L527.483 57.709L527.291 58.125C527.051 58.669 526.763 58.861 526.059 58.861H524.507V60.429H525.643ZM535.672 57.709V55.229H533.496V57.709H535.672ZM542.172 57.869C545.212 57.869 547.308 56.269 547.308 53.693V53.485H545.404V53.693C545.404 55.341 544.364 56.205 542.188 56.205C539.676 56.205 538.46 55.021 538.46 52.349C538.46 49.677 539.676 48.477 542.188 48.477C544.364 48.477 545.404 49.357 545.404 50.989V51.213H547.308V50.989C547.308 48.429 545.196 46.829 542.172 46.829C538.844 46.829 536.636 49.005 536.636 52.349C536.636 55.693 538.844 57.869 542.172 57.869ZM552.645 57.869C555.301 57.869 557.077 56.189 557.077 53.741C557.077 51.261 555.301 49.597 552.645 49.597C550.005 49.597 548.229 51.261 548.229 53.741C548.229 56.189 550.005 57.869 552.645 57.869ZM552.645 56.333C550.725 56.333 549.925 55.421 549.925 53.741C549.925 52.045 550.725 51.117 552.645 51.117C554.581 51.117 555.381 52.045 555.381 53.741C555.381 55.421 554.581 56.333 552.645 56.333ZM560.059 57.709V53.773C560.059 52.013 560.651 51.149 562.363 51.149C563.899 51.149 564.507 51.821 564.507 53.389V57.709H566.219V53.773C566.219 52.013 566.827 51.149 568.523 51.149C570.059 51.149 570.683 51.821 570.683 53.389V57.709H572.395V52.925C572.395 51.005 571.355 49.597 569.291 49.597C567.275 49.597 566.379 50.861 566.171 52.221H566.075C565.851 50.701 564.875 49.597 563.067 49.597C561.083 49.597 560.219 50.829 560.011 52.157H559.915V49.757H558.331V57.709H560.059ZM577.795 57.709L579.027 54.925H584.691L585.923 57.709H587.875L583.091 46.989H580.659L575.875 57.709H577.795ZM581.171 50.109L581.795 48.589H581.923L582.547 50.109L584.003 53.373H579.715L581.171 50.109ZM590.403 57.709V46.989H588.675V57.709H590.403ZM593.731 57.709V46.989H592.003V57.709H593.731ZM599.794 57.709V53.549H601.762C603.106 53.549 603.602 53.901 604.082 54.749L605.794 57.709H607.778L605.986 54.605C605.602 53.933 605.218 53.453 604.386 53.229V53.117C606.402 53.005 607.57 51.917 607.57 50.141C607.57 48.141 606.066 46.989 603.634 46.989H598.066V57.709H599.794ZM599.794 48.541H603.618C605.058 48.541 605.778 49.069 605.778 50.381C605.778 51.725 605.058 52.221 603.618 52.221H599.794V48.541ZM610.544 48.829V46.989H608.816V48.829H610.544ZM610.544 57.709V49.757H608.816V57.709H610.544ZM615.6 56.989C617.408 56.989 618.48 56.125 618.768 54.925H618.88V56.877C618.88 58.653 618.224 59.149 616.416 59.149C614.72 59.149 614.048 58.717 614.048 57.565H612.336C612.336 59.485 613.968 60.589 616.32 60.589C618.928 60.589 620.592 59.453 620.592 56.781V49.757H619.008V51.741H618.912C618.624 50.349 617.376 49.597 615.712 49.597C613.296 49.597 611.824 51.085 611.824 53.293C611.824 55.501 613.232 56.989 615.6 56.989ZM613.568 53.293C613.568 51.661 614.544 51.101 616.208 51.101C617.888 51.101 618.88 51.789 618.88 53.133V53.357C618.88 54.765 617.92 55.501 616.16 55.501C614.528 55.501 613.568 54.925 613.568 53.293ZM623.919 57.709V53.853C623.919 52.173 624.591 51.149 626.479 51.149C628.127 51.149 628.847 51.789 628.847 53.389V57.709H630.559V52.973C630.559 51.037 629.487 49.597 627.295 49.597C625.263 49.597 624.287 50.845 624.015 52.189H623.919V46.989H622.191V57.709H623.919ZM637.329 57.709V56.157H635.889C634.897 56.157 634.449 55.901 634.449 54.925V51.197H637.329V49.757H634.449V48.013H632.737V49.757H631.393V51.197H632.737V55.021C632.737 56.957 633.793 57.709 635.505 57.709H637.329ZM642.169 57.869C644.409 57.869 645.881 56.989 645.881 55.501C645.881 54.189 645.017 53.549 643.129 53.309L641.289 53.053C640.089 52.893 639.769 52.669 639.769 52.045C639.769 51.293 640.281 50.973 641.737 50.973C643.497 50.973 643.977 51.469 643.977 52.413V52.509H645.689V52.461C645.689 50.573 644.217 49.597 641.785 49.597C639.337 49.597 638.073 50.589 638.073 51.981C638.073 53.309 638.985 53.949 640.489 54.141L642.665 54.429C643.801 54.589 644.185 54.797 644.185 55.453C644.185 56.157 643.721 56.477 642.169 56.477C640.505 56.477 639.881 56.141 639.881 55.101V54.973H638.153V55.021C638.153 56.861 639.609 57.869 642.169 57.869ZM651.591 57.709V53.549H653.559C654.903 53.549 655.399 53.901 655.879 54.749L657.591 57.709H659.575L657.783 54.605C657.399 53.933 657.015 53.453 656.183 53.229V53.117C658.199 53.005 659.367 51.917 659.367 50.141C659.367 48.141 657.863 46.989 655.431 46.989H649.863V57.709H651.591ZM651.591 48.541H655.415C656.855 48.541 657.575 49.069 657.575 50.381C657.575 51.725 656.855 52.221 655.415 52.221H651.591V48.541ZM664.613 57.869C666.981 57.869 668.645 56.701 668.645 55.005V54.861H666.917V54.989C666.917 55.933 666.229 56.477 664.565 56.477C662.725 56.477 661.973 55.661 661.909 54.125H668.661C668.709 53.885 668.725 53.661 668.725 53.373C668.725 50.957 667.045 49.597 664.581 49.597C661.989 49.597 660.293 51.261 660.293 53.741C660.293 56.397 662.005 57.869 664.613 57.869ZM664.549 50.957C666.245 50.957 667.093 51.661 667.093 53.133V53.165H661.924C662.021 51.741 662.789 50.957 664.549 50.957ZM673.779 57.869C676.019 57.869 677.491 56.989 677.491 55.501C677.491 54.189 676.627 53.549 674.739 53.309L672.899 53.053C671.699 52.893 671.379 52.669 671.379 52.045C671.379 51.293 671.891 50.973 673.347 50.973C675.107 50.973 675.587 51.469 675.587 52.413V52.509H677.299V52.461C677.299 50.573 675.827 49.597 673.395 49.597C670.947 49.597 669.683 50.589 669.683 51.981C669.683 53.309 670.595 53.949 672.099 54.141L674.275 54.429C675.411 54.589 675.795 54.797 675.795 55.453C675.795 56.157 675.331 56.477 673.779 56.477C672.115 56.477 671.491 56.141 671.491 55.101V54.973H669.763V55.021C669.763 56.861 671.219 57.869 673.779 57.869ZM682.738 57.869C685.106 57.869 686.77 56.701 686.77 55.005V54.861H685.042V54.989C685.042 55.933 684.354 56.477 682.69 56.477C680.85 56.477 680.098 55.661 680.034 54.125H686.786C686.834 53.885 686.85 53.661 686.85 53.373C686.85 50.957 685.17 49.597 682.706 49.597C680.114 49.597 678.418 51.261 678.418 53.741C678.418 56.397 680.13 57.869 682.738 57.869ZM682.674 50.957C684.37 50.957 685.218 51.661 685.218 53.133V53.165H680.049C680.146 51.741 680.914 50.957 682.674 50.957ZM689.872 57.709V53.245C689.872 51.821 690.432 51.069 691.792 51.069C692.976 51.069 693.456 51.597 693.456 52.733V53.437H695.168V52.397C695.168 50.893 694.384 49.597 692.576 49.597C690.944 49.597 690.08 50.621 689.84 51.901H689.728V49.757H688.144V57.709H689.872ZM701.357 57.709L705.101 49.757H703.229L700.397 56.029H700.269L697.437 49.757H695.533L699.245 57.709H701.357ZM709.988 57.869C712.356 57.869 714.02 56.701 714.02 55.005V54.861H712.292V54.989C712.292 55.933 711.604 56.477 709.94 56.477C708.1 56.477 707.348 55.661 707.284 54.125H714.036C714.084 53.885 714.1 53.661 714.1 53.373C714.1 50.957 712.42 49.597 709.956 49.597C707.364 49.597 705.668 51.261 705.668 53.741C705.668 56.397 707.38 57.869 709.988 57.869ZM709.924 50.957C711.62 50.957 712.468 51.661 712.468 53.133V53.165H707.299C707.396 51.741 708.164 50.957 709.924 50.957ZM718.898 57.869C720.69 57.869 721.858 57.005 722.194 55.421H722.306V57.709H723.89V46.989H722.162V51.917H722.066C721.746 50.573 720.674 49.597 718.786 49.597C716.37 49.597 714.994 51.261 714.994 53.741C714.994 56.189 716.386 57.869 718.898 57.869ZM716.738 53.741C716.738 51.821 717.73 51.165 719.394 51.165C721.17 51.165 722.162 51.997 722.162 53.693V53.821C722.162 55.485 721.122 56.285 719.426 56.285C717.714 56.285 716.738 55.645 716.738 53.741Z" fill="black"/>
<defs>
<linearGradient id="paint0_linear_101_432" x1="-1.19122e-06" y1="-155.302" x2="1090" y2="-155.302" gradientUnits="userSpaceOnUse">
<stop stop-color="#161616" stop-opacity="0"/>
<stop offset="0.515625" stop-color="#696969"/>
<stop offset="1" stop-color="#161616" stop-opacity="0"/>
</linearGradient>
</defs>
</svg>
