<svg width="550" height="299" viewBox="0 0 550 299" fill="none" xmlns="http://www.w3.org/2000/svg">
<path d="M123.056 31.709V19.133L122.928 15.421H123.184L125.872 19.197L135.536 31.709H139.248V10.269H135.792V22.941L135.952 26.813H135.696L132.912 22.813L123.312 10.269H119.6V31.709H123.056ZM150.444 32.029C155.18 32.029 158.508 29.693 158.508 26.301V26.013H155.052V26.269C155.052 28.157 153.676 29.245 150.348 29.245C146.668 29.245 145.164 27.613 145.036 24.541H158.54C158.636 24.061 158.668 23.613 158.668 23.037C158.668 18.205 155.308 15.485 150.38 15.485C145.196 15.485 141.804 18.813 141.804 23.773C141.804 29.085 145.228 32.029 150.444 32.029ZM150.316 18.205C153.708 18.205 155.404 19.613 155.404 22.557V22.621H145.068C145.26 19.773 146.796 18.205 150.316 18.205ZM168.872 31.709L172.392 22.557L173.608 18.653H173.864L175.08 22.557L178.568 31.709H182.856L187.688 15.805H184.168L181.512 24.829L180.776 28.925H180.52L179.336 24.509L175.976 15.805H171.56L168.232 24.509L167.048 28.925H166.792L166.056 24.829L163.4 15.805H159.816L164.584 31.709H168.872ZM196.964 32.029C201.444 32.029 204.388 30.269 204.388 27.293C204.388 24.669 202.66 23.389 198.884 22.909L195.204 22.397C192.804 22.077 192.164 21.629 192.164 20.381C192.164 18.877 193.188 18.237 196.1 18.237C199.62 18.237 200.58 19.229 200.58 21.117V21.309H204.004V21.213C204.004 17.437 201.06 15.485 196.196 15.485C191.3 15.485 188.772 17.469 188.772 20.253C188.772 22.909 190.596 24.189 193.604 24.573L197.956 25.149C200.228 25.469 200.996 25.885 200.996 27.197C200.996 28.605 200.068 29.245 196.964 29.245C193.636 29.245 192.388 28.573 192.388 26.493V26.237H188.932V26.333C188.932 30.013 191.844 32.029 196.964 32.029ZM210.337 31.709V10.269H206.881V31.709H210.337ZM221.538 32.029C226.274 32.029 229.602 29.693 229.602 26.301V26.013H226.146V26.269C226.146 28.157 224.77 29.245 221.442 29.245C217.762 29.245 216.258 27.613 216.13 24.541H229.634C229.73 24.061 229.762 23.613 229.762 23.037C229.762 18.205 226.402 15.485 221.474 15.485C216.29 15.485 212.898 18.813 212.898 23.773C212.898 29.085 216.322 32.029 221.538 32.029ZM221.41 18.205C224.802 18.205 226.498 19.613 226.498 22.557V22.621H216.161C216.354 19.773 217.89 18.205 221.41 18.205ZM242.782 31.709V28.605H239.902C237.918 28.605 237.022 28.093 237.022 26.141V18.685H242.782V15.805H237.022V12.317H233.598V15.805H230.91V18.685H233.598V26.333C233.598 30.205 235.71 31.709 239.134 31.709H242.782ZM255.376 31.709V28.605H252.496C250.512 28.605 249.616 28.093 249.616 26.141V18.685H255.376V15.805H249.616V12.317H246.192V15.805H243.504V18.685H246.192V26.333C246.192 30.205 248.304 31.709 251.728 31.709H255.376ZM265.538 32.029C270.274 32.029 273.602 29.693 273.602 26.301V26.013H270.146V26.269C270.146 28.157 268.77 29.245 265.442 29.245C261.762 29.245 260.258 27.613 260.13 24.541H273.634C273.73 24.061 273.762 23.613 273.762 23.037C273.762 18.205 270.402 15.485 265.474 15.485C260.29 15.485 256.898 18.813 256.898 23.773C256.898 29.085 260.322 32.029 265.538 32.029ZM265.41 18.205C268.802 18.205 270.498 19.613 270.498 22.557V22.621H260.161C260.354 19.773 261.89 18.205 265.41 18.205ZM279.806 31.709V22.781C279.806 19.933 280.926 18.429 283.646 18.429C286.014 18.429 286.974 19.485 286.974 21.757V23.165H290.398V21.085C290.398 18.077 288.83 15.485 285.214 15.485C281.95 15.485 280.222 17.533 279.742 20.093H279.518V15.805H276.35V31.709H279.806Z" fill="black"/>
<path d="M123.296 76.869C126.464 76.869 127.792 75.365 127.792 73.733C127.792 72.165 126.736 71.189 124.592 70.805L121.984 70.357C120.72 70.085 120.176 69.781 120.176 68.853C120.176 67.893 120.944 67.413 122.896 67.413C125.12 67.413 125.904 68.069 125.904 69.381V69.589H127.616V69.493C127.616 67.397 126.192 65.829 123.056 65.829C119.728 65.829 118.448 67.397 118.448 68.949C118.448 70.709 119.728 71.541 121.536 71.861L124.16 72.293C125.52 72.549 126.064 72.901 126.064 73.829C126.064 74.837 125.344 75.285 123.296 75.285C120.944 75.285 120.192 74.645 120.192 73.365V73.109H118.464V73.205C118.464 75.461 120.096 76.869 123.296 76.869ZM134.235 76.709V75.157H132.795C131.803 75.157 131.355 74.901 131.355 73.925V70.197H134.235V68.757H131.355V67.013H129.643V68.757H128.299V70.197H129.643V74.021C129.643 75.957 130.699 76.709 132.411 76.709H134.235ZM137.652 76.869C139.46 76.869 140.724 76.069 141.14 74.725H141.252V76.709H142.836V71.877C142.836 69.973 141.7 68.597 139.172 68.597C136.644 68.597 135.14 69.957 135.14 71.765V71.829H136.852V71.765C136.852 70.597 137.572 70.117 139.044 70.117C140.564 70.117 141.14 70.581 141.14 71.893V72.357L137.524 72.741C135.956 72.917 134.964 73.557 134.964 74.789C134.964 76.101 136.004 76.869 137.652 76.869ZM136.692 74.677C136.692 74.053 137.124 73.845 138.02 73.733L141.14 73.381C141.14 74.949 139.924 75.621 138.116 75.621C137.124 75.621 136.692 75.317 136.692 74.677ZM145.658 79.429C147.29 79.429 148.186 78.997 148.842 77.573L152.986 68.757H151.082L149.21 72.965L148.458 74.885H148.33L147.546 72.981L145.514 68.757H143.578L147.498 76.709L147.306 77.125C147.066 77.669 146.778 77.861 146.074 77.861H144.522V79.429H145.658ZM161.526 76.869C164.742 76.869 166.566 75.173 166.566 72.261V65.989H164.838V72.149C164.838 74.309 163.878 75.205 161.526 75.205C159.174 75.205 158.214 74.309 158.214 72.149V65.989H156.502V72.261C156.502 75.173 158.326 76.869 161.526 76.869ZM169.825 79.429V74.469H169.889C170.209 75.925 171.361 76.869 173.153 76.869C175.633 76.869 176.993 75.205 176.993 72.741C176.993 70.277 175.601 68.597 173.137 68.597C171.265 68.597 170.145 69.493 169.825 70.965H169.681V68.757H168.097V79.429H169.825ZM169.825 72.869V72.725C169.825 71.013 170.817 70.181 172.593 70.181C174.257 70.181 175.265 70.821 175.265 72.741C175.265 74.645 174.273 75.301 172.561 75.301C170.865 75.301 169.825 74.501 169.825 72.869ZM186.253 76.709V67.541H190.461V65.989H180.317V67.541H184.541V76.709H186.253ZM195.536 76.869C198.192 76.869 199.968 75.189 199.968 72.741C199.968 70.261 198.192 68.597 195.536 68.597C192.896 68.597 191.12 70.261 191.12 72.741C191.12 75.189 192.896 76.869 195.536 76.869ZM195.536 75.333C193.616 75.333 192.816 74.421 192.816 72.741C192.816 71.045 193.616 70.117 195.536 70.117C197.472 70.117 198.272 71.045 198.272 72.741C198.272 74.421 197.472 75.333 195.536 75.333ZM208.932 76.709C212.26 76.709 214.356 74.661 214.356 71.349C214.356 68.037 212.26 65.989 208.932 65.989H204.052V76.709H208.932ZM208.932 67.541C211.412 67.541 212.532 68.597 212.532 71.349C212.532 74.101 211.412 75.157 208.932 75.157H205.764V67.541H208.932ZM217.98 76.869C219.788 76.869 221.052 76.069 221.468 74.725H221.58V76.709H223.164V71.877C223.164 69.973 222.028 68.597 219.5 68.597C216.972 68.597 215.468 69.957 215.468 71.765V71.829H217.18V71.765C217.18 70.597 217.9 70.117 219.372 70.117C220.892 70.117 221.468 70.581 221.468 71.893V72.357L217.852 72.741C216.284 72.917 215.292 73.557 215.292 74.789C215.292 76.101 216.332 76.869 217.98 76.869ZM217.02 74.677C217.02 74.053 217.452 73.845 218.348 73.733L221.468 73.381C221.468 74.949 220.252 75.621 218.444 75.621C217.452 75.621 217.02 75.317 217.02 74.677ZM229.922 76.709V75.157H228.482C227.49 75.157 227.042 74.901 227.042 73.925V70.197H229.922V68.757H227.042V67.013H225.33V68.757H223.986V70.197H225.33V74.021C225.33 75.957 226.386 76.709 228.098 76.709H229.922ZM235.003 76.869C237.371 76.869 239.035 75.701 239.035 74.005V73.861H237.307V73.989C237.307 74.933 236.619 75.477 234.955 75.477C233.115 75.477 232.363 74.661 232.299 73.125H239.051C239.099 72.885 239.115 72.661 239.115 72.373C239.115 69.957 237.435 68.597 234.971 68.597C232.379 68.597 230.683 70.261 230.683 72.741C230.683 75.397 232.395 76.869 235.003 76.869ZM234.939 69.957C236.635 69.957 237.483 70.661 237.483 72.133V72.165H232.315C232.411 70.741 233.179 69.957 234.939 69.957Z" fill="black"/>
<g filter="url(#filter0_d_101_466)">
<rect x="118" y="100.709" width="340" height="81" rx="4" fill="white"/>
</g>
<path d="M148.304 146.709V143.045L153.072 135.989H150.944L148.432 139.797L147.552 141.157H147.424L146.528 139.797L144 135.989H141.888L146.592 143.013V146.709H148.304ZM157.802 146.869C160.458 146.869 162.234 145.189 162.234 142.741C162.234 140.261 160.458 138.597 157.802 138.597C155.162 138.597 153.386 140.261 153.386 142.741C153.386 145.189 155.162 146.869 157.802 146.869ZM157.802 145.333C155.882 145.333 155.082 144.421 155.082 142.741C155.082 141.045 155.882 140.117 157.802 140.117C159.738 140.117 160.538 141.045 160.538 142.741C160.538 144.421 159.738 145.333 157.802 145.333ZM166.799 146.869C168.848 146.869 169.904 145.589 170.16 144.245H170.256V146.709H171.84V138.757H170.128V142.693C170.128 144.421 169.312 145.317 167.552 145.317C165.872 145.317 165.184 144.565 165.184 143.077V138.757H163.472V143.541C163.472 145.381 164.56 146.869 166.799 146.869ZM175.137 146.709V142.245C175.137 140.821 175.697 140.069 177.057 140.069C178.241 140.069 178.721 140.597 178.721 141.733V142.437H180.433V141.397C180.433 139.893 179.649 138.597 177.841 138.597C176.209 138.597 175.345 139.621 175.105 140.901H174.993V138.757H173.409V146.709H175.137ZM188.253 146.869C190.621 146.869 192.285 145.701 192.285 144.005V143.861H190.557V143.989C190.557 144.933 189.869 145.477 188.205 145.477C186.365 145.477 185.613 144.661 185.549 143.125H192.301C192.349 142.885 192.365 142.661 192.365 142.373C192.365 139.957 190.685 138.597 188.221 138.597C185.629 138.597 183.933 140.261 183.933 142.741C183.933 145.397 185.645 146.869 188.253 146.869ZM188.189 139.957C189.885 139.957 190.733 140.661 190.733 142.133V142.165H185.565C185.661 140.741 186.429 139.957 188.189 139.957ZM195.387 146.709V142.773C195.387 141.013 195.979 140.149 197.691 140.149C199.227 140.149 199.835 140.821 199.835 142.389V146.709H201.547V142.773C201.547 141.013 202.155 140.149 203.851 140.149C205.387 140.149 206.011 140.821 206.011 142.389V146.709H207.723V141.925C207.723 140.005 206.683 138.597 204.619 138.597C202.603 138.597 201.707 139.861 201.499 141.221H201.403C201.179 139.701 200.203 138.597 198.395 138.597C196.411 138.597 195.547 139.829 195.339 141.157H195.243V138.757H193.659V146.709H195.387ZM211.605 146.869C213.413 146.869 214.677 146.069 215.093 144.725H215.205V146.709H216.789V141.877C216.789 139.973 215.653 138.597 213.125 138.597C210.597 138.597 209.093 139.957 209.093 141.765V141.829H210.805V141.765C210.805 140.597 211.525 140.117 212.997 140.117C214.517 140.117 215.093 140.581 215.093 141.893V142.357L211.477 142.741C209.909 142.917 208.917 143.557 208.917 144.789C208.917 146.101 209.957 146.869 211.605 146.869ZM210.645 144.677C210.645 144.053 211.077 143.845 211.973 143.733L215.093 143.381C215.093 144.949 213.877 145.621 212.069 145.621C211.077 145.621 210.645 145.317 210.645 144.677ZM220.059 137.829V135.989H218.331V137.829H220.059ZM220.059 146.709V138.757H218.331V146.709H220.059ZM223.387 146.709V135.989H221.659V146.709H223.387Z" fill="#81848A"/>
<rect x="288" y="110.709" width="160" height="61" rx="4" fill="black"/>
<path d="M333.296 146.869C336.464 146.869 337.792 145.365 337.792 143.733C337.792 142.165 336.736 141.189 334.592 140.805L331.984 140.357C330.72 140.085 330.176 139.781 330.176 138.853C330.176 137.893 330.944 137.413 332.896 137.413C335.12 137.413 335.904 138.069 335.904 139.381V139.589H337.616V139.493C337.616 137.397 336.192 135.829 333.056 135.829C329.728 135.829 328.448 137.397 328.448 138.949C328.448 140.709 329.728 141.541 331.536 141.861L334.16 142.293C335.52 142.549 336.064 142.901 336.064 143.829C336.064 144.837 335.344 145.285 333.296 145.285C330.944 145.285 330.192 144.645 330.192 143.365V143.109H328.464V143.205C328.464 145.461 330.096 146.869 333.296 146.869ZM342.331 146.869C344.379 146.869 345.435 145.589 345.691 144.245H345.787V146.709H347.371V138.757H345.659V142.693C345.659 144.421 344.843 145.317 343.083 145.317C341.403 145.317 340.715 144.565 340.715 143.077V138.757H339.003V143.541C339.003 145.381 340.091 146.869 342.331 146.869ZM350.525 146.709V144.421H350.637C350.973 146.005 352.141 146.869 353.949 146.869C356.477 146.869 357.837 145.189 357.837 142.741C357.837 140.261 356.493 138.597 354.045 138.597C352.141 138.597 351.085 139.573 350.765 140.917H350.669V135.989H348.941V146.709H350.525ZM350.669 142.821V142.693C350.669 140.997 351.645 140.165 353.437 140.165C355.133 140.165 356.109 140.821 356.109 142.741C356.109 144.645 355.149 145.285 353.405 145.285C351.693 145.285 350.669 144.485 350.669 142.821ZM362.794 146.869C365.034 146.869 366.506 145.989 366.506 144.501C366.506 143.189 365.642 142.549 363.754 142.309L361.914 142.053C360.714 141.893 360.394 141.669 360.394 141.045C360.394 140.293 360.906 139.973 362.362 139.973C364.122 139.973 364.602 140.469 364.602 141.413V141.509H366.314V141.461C366.314 139.573 364.842 138.597 362.41 138.597C359.962 138.597 358.698 139.589 358.698 140.981C358.698 142.309 359.61 142.949 361.114 143.141L363.29 143.429C364.426 143.589 364.81 143.797 364.81 144.453C364.81 145.157 364.346 145.477 362.794 145.477C361.13 145.477 360.506 145.141 360.506 144.101V143.973H358.778V144.021C358.778 145.861 360.234 146.869 362.794 146.869ZM371.769 146.869C374.153 146.869 375.897 145.525 375.897 143.541V143.365H374.185V143.477C374.185 144.709 373.289 145.317 371.737 145.317C369.945 145.317 369.145 144.453 369.145 142.741C369.145 140.997 369.945 140.149 371.737 140.149C373.289 140.149 374.185 140.757 374.185 141.989V142.085H375.897V141.925C375.897 139.941 374.153 138.597 371.769 138.597C369.145 138.597 367.433 140.261 367.433 142.741C367.433 145.189 369.145 146.869 371.769 146.869ZM378.903 146.709V142.245C378.903 140.821 379.463 140.069 380.823 140.069C382.007 140.069 382.487 140.597 382.487 141.733V142.437H384.199V141.397C384.199 139.893 383.415 138.597 381.607 138.597C379.975 138.597 379.111 139.621 378.871 140.901H378.759V138.757H377.175V146.709H378.903ZM387.012 137.829V135.989H385.284V137.829H387.012ZM387.012 146.709V138.757H385.284V146.709H387.012ZM390.197 146.709V144.421H390.309C390.645 146.005 391.812 146.869 393.621 146.869C396.149 146.869 397.509 145.189 397.509 142.741C397.509 140.261 396.165 138.597 393.717 138.597C391.812 138.597 390.757 139.573 390.437 140.917H390.341V135.989H388.613V146.709H390.197ZM390.341 142.821V142.693C390.341 140.997 391.317 140.165 393.109 140.165C394.805 140.165 395.781 140.821 395.781 142.741C395.781 144.645 394.821 145.285 393.077 145.285C391.365 145.285 390.341 144.485 390.341 142.821ZM402.706 146.869C405.074 146.869 406.738 145.701 406.738 144.005V143.861H405.01V143.989C405.01 144.933 404.322 145.477 402.658 145.477C400.818 145.477 400.066 144.661 400.002 143.125H406.754C406.802 142.885 406.818 142.661 406.818 142.373C406.818 139.957 405.138 138.597 402.674 138.597C400.082 138.597 398.386 140.261 398.386 142.741C398.386 145.397 400.098 146.869 402.706 146.869ZM402.642 139.957C404.338 139.957 405.186 140.661 405.186 142.133V142.165H400.018C400.114 140.741 400.882 139.957 402.642 139.957Z" fill="white"/>
<defs>
<filter id="filter0_d_101_466" x="0.900016" y="9.63122" width="548.178" height="289.178" filterUnits="userSpaceOnUse" color-interpolation-filters="sRGB">
<feFlood flood-opacity="0" result="BackgroundImageFix"/>
<feColorMatrix in="SourceAlpha" type="matrix" values="0 0 0 0 0 0 0 0 0 0 0 0 0 0 0 0 0 0 127 0" result="hardAlpha"/>
<feOffset dx="-13.0111" dy="13.0111"/>
<feGaussianBlur stdDeviation="52.0444"/>
<feComposite in2="hardAlpha" operator="out"/>
<feColorMatrix type="matrix" values="0 0 0 0 0.633333 0 0 0 0 0.633333 0 0 0 0 0.633333 0 0 0 0.1 0"/>
<feBlend mode="normal" in2="BackgroundImageFix" result="effect1_dropShadow_101_466"/>
<feBlend mode="normal" in="SourceGraphic" in2="effect1_dropShadow_101_466" result="shape"/>
</filter>
</defs>
</svg>
