<svg width="374" height="60" viewBox="0 0 374 60" fill="none" xmlns="http://www.w3.org/2000/svg">
<rect width="180" height="60" rx="4" fill="black"/>
<path d="M29.444 36.18C31.802 36.18 33.332 35.154 33.836 33.39H33.962V36H35.726V29.844H29.336V31.32H33.8V31.482C33.8 33.516 32.666 34.308 29.786 34.308C26.96 34.308 25.592 32.976 25.592 29.97C25.592 26.964 26.978 25.614 29.876 25.614C32.378 25.614 33.584 26.55 33.584 28.278V28.422H35.726V28.278C35.726 25.488 33.35 23.76 29.93 23.76C26.078 23.76 23.54 26.208 23.54 29.97C23.54 33.732 25.898 36.18 29.444 36.18ZM41.8648 36.18C44.5288 36.18 46.4008 34.866 46.4008 32.958V32.796H44.4568V32.94C44.4568 34.002 43.6828 34.614 41.8108 34.614C39.7408 34.614 38.8948 33.696 38.8228 31.968H46.4188C46.4728 31.698 46.4908 31.446 46.4908 31.122C46.4908 28.404 44.6008 26.874 41.8288 26.874C38.9128 26.874 37.0048 28.746 37.0048 31.536C37.0048 34.524 38.9308 36.18 41.8648 36.18ZM41.7928 28.404C43.7008 28.404 44.6548 29.196 44.6548 30.852V30.888H38.8408C38.9488 29.286 39.8128 28.404 41.7928 28.404ZM53.8149 36V34.254H52.1949C51.0789 34.254 50.5749 33.966 50.5749 32.868V28.674H53.8149V27.054H50.5749V25.092H48.6489V27.054H47.1369V28.674H48.6489V32.976C48.6489 35.154 49.8369 36 51.7629 36H53.8149ZM63.165 36.18C66.729 36.18 68.223 34.488 68.223 32.652C68.223 30.888 67.035 29.79 64.623 29.358L61.689 28.854C60.267 28.548 59.655 28.206 59.655 27.162C59.655 26.082 60.519 25.542 62.715 25.542C65.217 25.542 66.099 26.28 66.099 27.756V27.99H68.025V27.882C68.025 25.524 66.423 23.76 62.895 23.76C59.151 23.76 57.711 25.524 57.711 27.27C57.711 29.25 59.151 30.186 61.185 30.546L64.137 31.032C65.667 31.32 66.279 31.716 66.279 32.76C66.279 33.894 65.469 34.398 63.165 34.398C60.519 34.398 59.673 33.678 59.673 32.238V31.95H57.729V32.058C57.729 34.596 59.565 36.18 63.165 36.18ZM75.4711 36V34.254H73.8511C72.7351 34.254 72.2311 33.966 72.2311 32.868V28.674H75.4711V27.054H72.2311V25.092H70.3051V27.054H68.7931V28.674H70.3051V32.976C70.3051 35.154 71.4931 36 73.4191 36H75.4711ZM79.3151 36.18C81.3491 36.18 82.7711 35.28 83.2391 33.768H83.3651V36H85.1471V30.564C85.1471 28.422 83.8691 26.874 81.0251 26.874C78.1811 26.874 76.4891 28.404 76.4891 30.438V30.51H78.4151V30.438C78.4151 29.124 79.2251 28.584 80.8811 28.584C82.5911 28.584 83.2391 29.106 83.2391 30.582V31.104L79.1711 31.536C77.4071 31.734 76.2911 32.454 76.2911 33.84C76.2911 35.316 77.4611 36.18 79.3151 36.18ZM78.2351 33.714C78.2351 33.012 78.7211 32.778 79.7291 32.652L83.2391 32.256C83.2391 34.02 81.8711 34.776 79.8371 34.776C78.7211 34.776 78.2351 34.434 78.2351 33.714ZM88.8264 36V30.978C88.8264 29.376 89.4564 28.53 90.9864 28.53C92.3184 28.53 92.8584 29.124 92.8584 30.402V31.194H94.7844V30.024C94.7844 28.332 93.9024 26.874 91.8684 26.874C90.0324 26.874 89.0604 28.026 88.7904 29.466H88.6644V27.054H86.8824V36H88.8264ZM101.873 36V34.254H100.253C99.1375 34.254 98.6335 33.966 98.6335 32.868V28.674H101.873V27.054H98.6335V25.092H96.7075V27.054H95.1955V28.674H96.7075V32.976C96.7075 35.154 97.8955 36 99.8215 36H101.873ZM107.589 36.18C110.253 36.18 112.125 34.866 112.125 32.958V32.796H110.181V32.94C110.181 34.002 109.407 34.614 107.535 34.614C105.465 34.614 104.619 33.696 104.547 31.968H112.143C112.197 31.698 112.215 31.446 112.215 31.122C112.215 28.404 110.325 26.874 107.553 26.874C104.637 26.874 102.729 28.746 102.729 31.536C102.729 34.524 104.655 36.18 107.589 36.18ZM107.517 28.404C109.425 28.404 110.379 29.196 110.379 30.852V30.888H104.565C104.673 29.286 105.537 28.404 107.517 28.404ZM117.613 36.18C119.629 36.18 120.943 35.208 121.321 33.426H121.447V36H123.229V23.94H121.285V29.484H121.177C120.817 27.972 119.611 26.874 117.487 26.874C114.769 26.874 113.221 28.746 113.221 31.536C113.221 34.29 114.787 36.18 117.613 36.18ZM115.183 31.536C115.183 29.376 116.299 28.638 118.171 28.638C120.169 28.638 121.285 29.574 121.285 31.482V31.626C121.285 33.498 120.115 34.398 118.207 34.398C116.281 34.398 115.183 33.678 115.183 31.536Z" fill="white"/>
<path d="M157.354 30.3536C157.549 30.1583 157.549 29.8417 157.354 29.6464L154.172 26.4645C153.976 26.2692 153.66 26.2692 153.464 26.4645C153.269 26.6597 153.269 26.9763 153.464 27.1716L156.293 30L153.464 32.8284C153.269 33.0237 153.269 33.3403 153.464 33.5355C153.66 33.7308 153.976 33.7308 154.172 33.5355L157.354 30.3536ZM133 30.5H157V29.5H133V30.5Z" fill="white"/>
<circle cx="234.5" cy="29.5" r="14" stroke="black"/>
<path d="M231 34.0809V24.9191C231 24.5228 231.439 24.284 231.772 24.4993L238.851 29.0802C239.156 29.2772 239.156 29.7228 238.851 29.9198L231.772 34.5007C231.439 34.716 231 34.4772 231 34.0809Z" fill="black" stroke="black"/>
<path d="M269.3 35L271.586 27.98L272.45 24.884H272.612L273.494 27.98L275.924 35H278.786L281.81 22.94H279.686L277.886 30.572L277.382 33.128H277.238L276.554 30.572L273.962 22.94H271.136L268.706 30.572L268.058 33.128H267.914L267.374 30.572L265.412 22.94H263.252L266.438 35H269.3ZM285.583 35.18C287.617 35.18 289.039 34.28 289.507 32.768H289.633V35H291.415V29.564C291.415 27.422 290.137 25.874 287.293 25.874C284.449 25.874 282.757 27.404 282.757 29.438V29.51H284.683V29.438C284.683 28.124 285.493 27.584 287.149 27.584C288.859 27.584 289.507 28.106 289.507 29.582V30.104L285.439 30.536C283.675 30.734 282.559 31.454 282.559 32.84C282.559 34.316 283.729 35.18 285.583 35.18ZM284.503 32.714C284.503 32.012 284.989 31.778 285.997 31.652L289.507 31.256C289.507 33.02 288.139 33.776 286.105 33.776C284.989 33.776 284.503 33.434 284.503 32.714ZM299.018 35V33.254H297.398C296.282 33.254 295.778 32.966 295.778 31.868V27.674H299.018V26.054H295.778V24.092H293.852V26.054H292.34V27.674H293.852V31.976C293.852 34.154 295.04 35 296.966 35H299.018ZM304.752 35.18C307.434 35.18 309.396 33.668 309.396 31.436V31.238H307.47V31.364C307.47 32.75 306.462 33.434 304.716 33.434C302.7 33.434 301.8 32.462 301.8 30.536C301.8 28.574 302.7 27.62 304.716 27.62C306.462 27.62 307.47 28.304 307.47 29.69V29.798H309.396V29.618C309.396 27.386 307.434 25.874 304.752 25.874C301.8 25.874 299.874 27.746 299.874 30.536C299.874 33.29 301.8 35.18 304.752 35.18ZM312.778 35V30.662C312.778 28.772 313.534 27.62 315.658 27.62C317.512 27.62 318.322 28.34 318.322 30.14V35H320.248V29.672C320.248 27.494 319.042 25.874 316.576 25.874C314.29 25.874 313.192 27.278 312.886 28.79H312.778V22.94H310.834V35H312.778ZM331.984 35L337.132 22.94H334.846L330.706 33.038H330.562L326.386 22.94H324.082L329.23 35H331.984ZM339.901 25.01V22.94H337.957V25.01H339.901ZM339.901 35V26.054H337.957V35H339.901ZM345.643 35.18C347.659 35.18 348.973 34.208 349.351 32.426H349.477V35H351.259V22.94H349.315V28.484H349.207C348.847 26.972 347.641 25.874 345.517 25.874C342.799 25.874 341.251 27.746 341.251 30.536C341.251 33.29 342.817 35.18 345.643 35.18ZM343.213 30.536C343.213 28.376 344.329 27.638 346.201 27.638C348.199 27.638 349.315 28.574 349.315 30.482V30.626C349.315 32.498 348.145 33.398 346.237 33.398C344.311 33.398 343.213 32.678 343.213 30.536ZM357.556 35.18C360.22 35.18 362.092 33.866 362.092 31.958V31.796H360.148V31.94C360.148 33.002 359.374 33.614 357.502 33.614C355.432 33.614 354.586 32.696 354.514 30.968H362.11C362.164 30.698 362.182 30.446 362.182 30.122C362.182 27.404 360.292 25.874 357.52 25.874C354.604 25.874 352.696 27.746 352.696 30.536C352.696 33.524 354.622 35.18 357.556 35.18ZM357.484 27.404C359.392 27.404 360.346 28.196 360.346 29.852V29.888H354.532C354.64 28.286 355.504 27.404 357.484 27.404ZM368.21 35.18C371.198 35.18 373.196 33.29 373.196 30.536C373.196 27.746 371.198 25.874 368.21 25.874C365.24 25.874 363.242 27.746 363.242 30.536C363.242 33.29 365.24 35.18 368.21 35.18ZM368.21 33.452C366.05 33.452 365.15 32.426 365.15 30.536C365.15 28.628 366.05 27.584 368.21 27.584C370.388 27.584 371.288 28.628 371.288 30.536C371.288 32.426 370.388 33.452 368.21 33.452Z" fill="black"/>
</svg>
