<svg width="535" height="212" viewBox="0 0 535 212" fill="none" xmlns="http://www.w3.org/2000/svg">
<path opacity="0.5" d="M2.16 91.488L3.546 88.356H9.918L11.304 91.488H13.5L8.118 79.428H5.382L0 91.488H2.16ZM5.958 82.938L6.66 81.228H6.804L7.506 82.938L9.144 86.61H4.32L5.958 82.938ZM16.344 91.488V86.466C16.344 84.864 16.974 84.018 18.504 84.018C19.836 84.018 20.376 84.612 20.376 85.89V86.682H22.302V85.512C22.302 83.82 21.42 82.362 19.386 82.362C17.55 82.362 16.578 83.514 16.308 84.954H16.182V82.542H14.4V91.488H16.344ZM28.041 91.668C30.723 91.668 32.685 90.156 32.685 87.924V87.726H30.759V87.852C30.759 89.238 29.751 89.922 28.005 89.922C25.989 89.922 25.089 88.95 25.089 87.024C25.089 85.062 25.989 84.108 28.005 84.108C29.751 84.108 30.759 84.792 30.759 86.178V86.286H32.685V86.106C32.685 83.874 30.723 82.362 28.041 82.362C25.089 82.362 23.163 84.234 23.163 87.024C23.163 89.778 25.089 91.668 28.041 91.668ZM37.8487 91.668C40.1527 91.668 41.3407 90.228 41.6287 88.716H41.7367V91.488H43.5187V82.542H41.5927V86.97C41.5927 88.914 40.6747 89.922 38.6947 89.922C36.8047 89.922 36.0307 89.076 36.0307 87.402V82.542H34.1047V87.924C34.1047 89.994 35.3287 91.668 37.8487 91.668ZM49.6209 91.488L51.0069 88.356H57.3789L58.7649 91.488H60.9609L55.5789 79.428H52.8429L47.4609 91.488H49.6209ZM53.4189 82.938L54.1209 81.228H54.2649L54.9669 82.938L56.6049 86.61H51.7809L53.4189 82.938ZM67.7289 91.488V89.742H66.1089C64.9929 89.742 64.4889 89.454 64.4889 88.356V84.162H67.7289V82.542H64.4889V80.58H62.5629V82.542H61.0509V84.162H62.5629V88.464C62.5629 90.642 63.7509 91.488 65.6769 91.488H67.7289ZM77.6191 91.488C81.3631 91.488 83.7211 89.184 83.7211 85.458C83.7211 81.732 81.3631 79.428 77.6191 79.428H72.1291V91.488H77.6191ZM77.6191 81.174C80.4091 81.174 81.6691 82.362 81.6691 85.458C81.6691 88.554 80.4091 89.742 77.6191 89.742H74.0551V81.174H77.6191ZM87.1135 81.498V79.428H85.1695V81.498H87.1135ZM87.1135 91.488V82.542H85.1695V91.488H87.1135ZM93.4317 91.668C96.1137 91.668 98.0757 90.156 98.0757 87.924V87.726H96.1497V87.852C96.1497 89.238 95.1417 89.922 93.3957 89.922C91.3797 89.922 90.4797 88.95 90.4797 87.024C90.4797 85.062 91.3797 84.108 93.3957 84.108C95.1417 84.108 96.1497 84.792 96.1497 86.178V86.286H98.0757V86.106C98.0757 83.874 96.1137 82.362 93.4317 82.362C90.4797 82.362 88.5537 84.234 88.5537 87.024C88.5537 89.778 90.4797 91.668 93.4317 91.668ZM105.381 91.488V89.742H103.761C102.645 89.742 102.141 89.454 102.141 88.356V84.162H105.381V82.542H102.141V80.58H100.215V82.542H98.7033V84.162H100.215V88.464C100.215 90.642 101.403 91.488 103.329 91.488H105.381ZM110.323 91.668C112.627 91.668 113.815 90.228 114.103 88.716H114.211V91.488H115.993V82.542H114.067V86.97C114.067 88.914 113.149 89.922 111.169 89.922C109.279 89.922 108.505 89.076 108.505 87.402V82.542H106.579V87.924C106.579 89.994 107.803 91.668 110.323 91.668ZM119.703 91.488V87.06C119.703 85.08 120.369 84.108 122.295 84.108C124.023 84.108 124.707 84.864 124.707 86.628V91.488H126.633V87.06C126.633 85.08 127.317 84.108 129.225 84.108C130.953 84.108 131.655 84.864 131.655 86.628V91.488H133.581V86.106C133.581 83.946 132.411 82.362 130.089 82.362C127.821 82.362 126.813 83.784 126.579 85.314H126.471C126.219 83.604 125.121 82.362 123.087 82.362C120.855 82.362 119.883 83.748 119.649 85.242H119.541V82.542H117.759V91.488H119.703ZM143.454 91.668C147.018 91.668 148.512 89.976 148.512 88.14C148.512 86.376 147.324 85.278 144.912 84.846L141.978 84.342C140.556 84.036 139.944 83.694 139.944 82.65C139.944 81.57 140.808 81.03 143.004 81.03C145.506 81.03 146.388 81.768 146.388 83.244V83.478H148.314V83.37C148.314 81.012 146.712 79.248 143.184 79.248C139.44 79.248 138 81.012 138 82.758C138 84.738 139.44 85.674 141.474 86.034L144.426 86.52C145.956 86.808 146.568 87.204 146.568 88.248C146.568 89.382 145.758 89.886 143.454 89.886C140.808 89.886 139.962 89.166 139.962 87.726V87.438H138.018V87.546C138.018 90.084 139.854 91.668 143.454 91.668ZM152.52 91.668C154.554 91.668 155.976 90.768 156.444 89.256H156.57V91.488H158.352V86.052C158.352 83.91 157.074 82.362 154.23 82.362C151.386 82.362 149.694 83.892 149.694 85.926V85.998H151.62V85.926C151.62 84.612 152.43 84.072 154.086 84.072C155.796 84.072 156.444 84.594 156.444 86.07V86.592L152.376 87.024C150.612 87.222 149.496 87.942 149.496 89.328C149.496 90.804 150.666 91.668 152.52 91.668ZM151.44 89.202C151.44 88.5 151.926 88.266 152.934 88.14L156.444 87.744C156.444 89.508 155.076 90.264 153.042 90.264C151.926 90.264 151.44 89.922 151.44 89.202ZM162.032 94.548V88.968H162.104C162.464 90.606 163.76 91.668 165.776 91.668C168.566 91.668 170.096 89.796 170.096 87.024C170.096 84.252 168.53 82.362 165.758 82.362C163.652 82.362 162.392 83.37 162.032 85.026H161.87V82.542H160.088V94.548H162.032ZM162.032 87.168V87.006C162.032 85.08 163.148 84.144 165.146 84.144C167.018 84.144 168.152 84.864 168.152 87.024C168.152 89.166 167.036 89.904 165.11 89.904C163.202 89.904 162.032 89.004 162.032 87.168ZM173.387 81.498V79.428H171.443V81.498H173.387ZM173.387 91.488V82.542H171.443V91.488H173.387ZM179.687 91.668C182.351 91.668 184.223 90.354 184.223 88.446V88.284H182.279V88.428C182.279 89.49 181.505 90.102 179.633 90.102C177.563 90.102 176.717 89.184 176.645 87.456H184.241C184.295 87.186 184.313 86.934 184.313 86.61C184.313 83.892 182.423 82.362 179.651 82.362C176.735 82.362 174.827 84.234 174.827 87.024C174.827 90.012 176.753 91.668 179.687 91.668ZM179.615 83.892C181.523 83.892 182.477 84.684 182.477 86.34V86.376H176.663C176.771 84.774 177.635 83.892 179.615 83.892ZM187.713 91.488V87.06C187.713 85.116 188.595 84.108 190.557 84.108C192.411 84.108 193.167 84.954 193.167 86.628V91.488H195.111V86.106C195.111 84.036 193.887 82.362 191.403 82.362C189.135 82.362 187.947 83.802 187.677 85.314H187.551V82.542H185.769V91.488H187.713ZM197.167 93.504C198.283 93.504 198.931 92.964 198.931 91.848V88.698H196.483V91.488H197.563V91.866C197.563 92.244 197.419 92.316 197.113 92.316H196.519V93.504H197.167ZM205.397 91.488V84.09L205.325 82.344H205.469L206.207 84.09L209.537 90.768H211.877L215.207 84.09L215.945 82.344H216.089L216.017 84.09V91.488H217.961V79.428H215.315L211.877 86.412L210.815 88.914H210.671L209.573 86.412L206.099 79.428H203.453V91.488H205.397ZM224.337 91.668C227.325 91.668 229.323 89.778 229.323 87.024C229.323 84.234 227.325 82.362 224.337 82.362C221.367 82.362 219.369 84.234 219.369 87.024C219.369 89.778 221.367 91.668 224.337 91.668ZM224.337 89.94C222.177 89.94 221.277 88.914 221.277 87.024C221.277 85.116 222.177 84.072 224.337 84.072C226.515 84.072 227.415 85.116 227.415 87.024C227.415 88.914 226.515 89.94 224.337 89.94ZM232.678 91.488V79.428H230.734V91.488H232.678ZM236.422 91.488V79.428H234.478V91.488H236.422ZM240.166 81.498V79.428H238.222V81.498H240.166ZM240.166 91.488V82.542H238.222V91.488H240.166ZM246.196 91.668C248.716 91.668 250.372 90.678 250.372 89.004C250.372 87.528 249.4 86.808 247.276 86.538L245.206 86.25C243.856 86.07 243.496 85.818 243.496 85.116C243.496 84.27 244.072 83.91 245.71 83.91C247.69 83.91 248.23 84.468 248.23 85.53V85.638H250.156V85.584C250.156 83.46 248.5 82.362 245.764 82.362C243.01 82.362 241.588 83.478 241.588 85.044C241.588 86.538 242.614 87.258 244.306 87.474L246.754 87.798C248.032 87.978 248.464 88.212 248.464 88.95C248.464 89.742 247.942 90.102 246.196 90.102C244.324 90.102 243.622 89.724 243.622 88.554V88.41H241.678V88.464C241.678 90.534 243.316 91.668 246.196 91.668ZM253.863 91.488V88.698H251.415V91.488H253.863ZM265.296 91.488L270.444 79.428H268.158L264.018 89.526H263.874L259.698 79.428H257.394L262.542 91.488H265.296ZM274.995 91.668C277.299 91.668 278.487 90.228 278.775 88.716H278.883V91.488H280.665V82.542H278.739V86.97C278.739 88.914 277.821 89.922 275.841 89.922C273.951 89.922 273.177 89.076 273.177 87.402V82.542H271.251V87.924C271.251 89.994 272.475 91.668 274.995 91.668ZM284.375 91.488V79.428H282.431V91.488H284.375ZM288.119 94.548V88.968H288.191C288.551 90.606 289.847 91.668 291.863 91.668C294.653 91.668 296.183 89.796 296.183 87.024C296.183 84.252 294.617 82.362 291.845 82.362C289.739 82.362 288.479 83.37 288.119 85.026H287.957V82.542H286.175V94.548H288.119ZM288.119 87.168V87.006C288.119 85.08 289.235 84.144 291.233 84.144C293.105 84.144 294.239 84.864 294.239 87.024C294.239 89.166 293.123 89.904 291.197 89.904C289.289 89.904 288.119 89.004 288.119 87.168ZM301.257 91.668C303.561 91.668 304.749 90.228 305.037 88.716H305.145V91.488H306.927V82.542H305.001V86.97C305.001 88.914 304.083 89.922 302.103 89.922C300.213 89.922 299.439 89.076 299.439 87.402V82.542H297.513V87.924C297.513 89.994 298.737 91.668 301.257 91.668ZM314.561 91.488V89.742H312.941C311.825 89.742 311.321 89.454 311.321 88.356V84.162H314.561V82.542H311.321V80.58H309.395V82.542H307.883V84.162H309.395V88.464C309.395 90.642 310.583 91.488 312.509 91.488H314.561ZM318.405 91.668C320.439 91.668 321.861 90.768 322.329 89.256H322.455V91.488H324.237V86.052C324.237 83.91 322.959 82.362 320.115 82.362C317.271 82.362 315.579 83.892 315.579 85.926V85.998H317.505V85.926C317.505 84.612 318.315 84.072 319.971 84.072C321.681 84.072 322.329 84.594 322.329 86.07V86.592L318.261 87.024C316.497 87.222 315.381 87.942 315.381 89.328C315.381 90.804 316.551 91.668 318.405 91.668ZM317.325 89.202C317.325 88.5 317.811 88.266 318.819 88.14L322.329 87.744C322.329 89.508 320.961 90.264 318.927 90.264C317.811 90.264 317.325 89.922 317.325 89.202ZM331.84 91.488V89.742H330.22C329.104 89.742 328.6 89.454 328.6 88.356V84.162H331.84V82.542H328.6V80.58H326.674V82.542H325.162V84.162H326.674V88.464C326.674 90.642 327.862 91.488 329.788 91.488H331.84ZM337.556 91.668C340.22 91.668 342.092 90.354 342.092 88.446V88.284H340.148V88.428C340.148 89.49 339.374 90.102 337.502 90.102C335.432 90.102 334.586 89.184 334.514 87.456H342.11C342.164 87.186 342.182 86.934 342.182 86.61C342.182 83.892 340.292 82.362 337.52 82.362C334.604 82.362 332.696 84.234 332.696 87.024C332.696 90.012 334.622 91.668 337.556 91.668ZM337.484 83.892C339.392 83.892 340.346 84.684 340.346 86.34V86.376H334.532C334.64 84.774 335.504 83.892 337.484 83.892ZM351.772 91.668C355.336 91.668 356.83 89.976 356.83 88.14C356.83 86.376 355.642 85.278 353.23 84.846L350.296 84.342C348.874 84.036 348.262 83.694 348.262 82.65C348.262 81.57 349.126 81.03 351.322 81.03C353.824 81.03 354.706 81.768 354.706 83.244V83.478H356.632V83.37C356.632 81.012 355.03 79.248 351.502 79.248C347.758 79.248 346.318 81.012 346.318 82.758C346.318 84.738 347.758 85.674 349.792 86.034L352.744 86.52C354.274 86.808 354.886 87.204 354.886 88.248C354.886 89.382 354.076 89.886 351.772 89.886C349.126 89.886 348.28 89.166 348.28 87.726V87.438H346.336V87.546C346.336 90.084 348.172 91.668 351.772 91.668ZM360.155 81.498V79.428H358.211V81.498H360.155ZM360.155 91.488V82.542H358.211V91.488H360.155ZM367.823 91.488V89.742H366.203C365.087 89.742 364.583 89.454 364.583 88.356V84.162H367.823V82.542H364.583V80.58H362.657V82.542H361.145V84.162H362.657V88.464C362.657 90.642 363.845 91.488 365.771 91.488H367.823ZM374.059 91.488V79.428H372.115V91.488H374.059ZM379.801 91.668C381.817 91.668 383.131 90.696 383.509 88.914H383.635V91.488H385.417V79.428H383.473V84.972H383.365C383.005 83.46 381.799 82.362 379.675 82.362C376.957 82.362 375.409 84.234 375.409 87.024C375.409 89.778 376.975 91.668 379.801 91.668ZM377.371 87.024C377.371 84.864 378.487 84.126 380.359 84.126C382.357 84.126 383.473 85.062 383.473 86.97V87.114C383.473 88.986 382.303 89.886 380.395 89.886C378.469 89.886 377.371 89.166 377.371 87.024ZM391.551 91.488L392.937 88.356H399.309L400.695 91.488H402.891L397.509 79.428H394.773L389.391 91.488H391.551ZM395.349 82.938L396.051 81.228H396.195L396.897 82.938L398.535 86.61H393.711L395.349 82.938ZM408.309 91.668C410.991 91.668 412.953 90.156 412.953 87.924V87.726H411.027V87.852C411.027 89.238 410.019 89.922 408.273 89.922C406.257 89.922 405.357 88.95 405.357 87.024C405.357 85.062 406.257 84.108 408.273 84.108C410.019 84.108 411.027 84.792 411.027 86.178V86.286H412.953V86.106C412.953 83.874 410.991 82.362 408.309 82.362C405.357 82.362 403.431 84.234 403.431 87.024C403.431 89.778 405.357 91.668 408.309 91.668ZM418.908 91.668C421.59 91.668 423.552 90.156 423.552 87.924V87.726H421.626V87.852C421.626 89.238 420.618 89.922 418.872 89.922C416.856 89.922 415.956 88.95 415.956 87.024C415.956 85.062 416.856 84.108 418.872 84.108C420.618 84.108 421.626 84.792 421.626 86.178V86.286H423.552V86.106C423.552 83.874 421.59 82.362 418.908 82.362C415.956 82.362 414.03 84.234 414.03 87.024C414.03 89.778 415.956 91.668 418.908 91.668ZM428.716 91.668C431.02 91.668 432.208 90.228 432.496 88.716H432.604V91.488H434.386V82.542H432.46V86.97C432.46 88.914 431.542 89.922 429.562 89.922C427.672 89.922 426.898 89.076 426.898 87.402V82.542H424.972V87.924C424.972 89.994 426.196 91.668 428.716 91.668ZM438.096 91.488V87.06C438.096 85.08 438.762 84.108 440.688 84.108C442.416 84.108 443.1 84.864 443.1 86.628V91.488H445.026V87.06C445.026 85.08 445.71 84.108 447.618 84.108C449.346 84.108 450.048 84.864 450.048 86.628V91.488H451.974V86.106C451.974 83.946 450.804 82.362 448.482 82.362C446.214 82.362 445.206 83.784 444.972 85.314H444.864C444.612 83.604 443.514 82.362 441.48 82.362C439.248 82.362 438.276 83.748 438.042 85.242H437.934V82.542H436.152V91.488H438.096ZM457.943 91.668C460.463 91.668 462.119 90.678 462.119 89.004C462.119 87.528 461.147 86.808 459.023 86.538L456.953 86.25C455.603 86.07 455.243 85.818 455.243 85.116C455.243 84.27 455.819 83.91 457.457 83.91C459.437 83.91 459.977 84.468 459.977 85.53V85.638H461.902V85.584C461.902 83.46 460.247 82.362 457.511 82.362C454.757 82.362 453.335 83.478 453.335 85.044C453.335 86.538 454.361 87.258 456.053 87.474L458.501 87.798C459.779 87.978 460.211 88.212 460.211 88.95C460.211 89.742 459.689 90.102 457.943 90.102C456.071 90.102 455.369 89.724 455.369 88.554V88.41H453.425V88.464C453.425 90.534 455.062 91.668 457.943 91.668ZM466.149 91.668C468.183 91.668 469.605 90.768 470.073 89.256H470.199V91.488H471.981V86.052C471.981 83.91 470.703 82.362 467.859 82.362C465.015 82.362 463.323 83.892 463.323 85.926V85.998H465.249V85.926C465.249 84.612 466.059 84.072 467.715 84.072C469.425 84.072 470.073 84.594 470.073 86.07V86.592L466.005 87.024C464.241 87.222 463.125 87.942 463.125 89.328C463.125 90.804 464.295 91.668 466.149 91.668ZM465.069 89.202C465.069 88.5 465.555 88.266 466.563 88.14L470.073 87.744C470.073 89.508 468.705 90.264 466.671 90.264C465.555 90.264 465.069 89.922 465.069 89.202ZM475.66 91.488V87.06C475.66 85.116 476.542 84.108 478.504 84.108C480.358 84.108 481.114 84.954 481.114 86.628V91.488H483.058V86.106C483.058 84.036 481.834 82.362 479.35 82.362C477.082 82.362 475.894 83.802 475.624 85.314H475.498V82.542H473.716V91.488H475.66ZM485.115 93.504C486.231 93.504 486.879 92.964 486.879 91.848V88.698H484.431V91.488H485.511V91.866C485.511 92.244 485.367 92.316 485.061 92.316H484.467V93.504H485.115ZM6.48 119.668C10.098 119.668 12.15 117.76 12.15 114.484V107.428H10.206V114.358C10.206 116.788 9.126 117.796 6.48 117.796C3.834 117.796 2.754 116.788 2.754 114.358V107.428H0.828V114.484C0.828 117.76 2.88 119.668 6.48 119.668ZM15.8167 119.488V107.428H13.8727V119.488H15.8167ZM23.4848 119.488V117.742H21.8648C20.7488 117.742 20.2448 117.454 20.2448 116.356V112.162H23.4848V110.542H20.2448V108.58H18.3188V110.542H16.8068V112.162H18.3188V116.464C18.3188 118.642 19.5068 119.488 21.4328 119.488H23.4848ZM26.6448 119.488V114.466C26.6448 112.864 27.2748 112.018 28.8048 112.018C30.1368 112.018 30.6768 112.612 30.6768 113.89V114.682H32.6028V113.512C32.6028 111.82 31.7208 110.362 29.6868 110.362C27.8508 110.362 26.8788 111.514 26.6088 112.954H26.4828V110.542H24.7008V119.488H26.6448ZM35.7678 109.498V107.428H33.8238V109.498H35.7678ZM35.7678 119.488V110.542H33.8238V119.488H35.7678ZM42.086 119.668C44.768 119.668 46.73 118.156 46.73 115.924V115.726H44.804V115.852C44.804 117.238 43.796 117.922 42.05 117.922C40.034 117.922 39.134 116.95 39.134 115.024C39.134 113.062 40.034 112.108 42.05 112.108C43.796 112.108 44.804 112.792 44.804 114.178V114.286H46.73V114.106C46.73 111.874 44.768 110.362 42.086 110.362C39.134 110.362 37.208 112.234 37.208 115.024C37.208 117.778 39.134 119.668 42.086 119.668ZM50.1116 109.498V107.428H48.1676V109.498H50.1116ZM50.1116 119.488V110.542H48.1676V119.488H50.1116ZM56.4117 119.668C59.0757 119.668 60.9477 118.354 60.9477 116.446V116.284H59.0037V116.428C59.0037 117.49 58.2297 118.102 56.3577 118.102C54.2877 118.102 53.4417 117.184 53.3697 115.456H60.9657C61.0197 115.186 61.0377 114.934 61.0377 114.61C61.0377 111.892 59.1477 110.362 56.3757 110.362C53.4597 110.362 51.5517 112.234 51.5517 115.024C51.5517 118.012 53.4777 119.668 56.4117 119.668ZM56.3397 111.892C58.2477 111.892 59.2017 112.684 59.2017 114.34V114.376H53.3877C53.4957 112.774 54.3597 111.892 56.3397 111.892ZM66.7238 119.668C69.2438 119.668 70.8998 118.678 70.8998 117.004C70.8998 115.528 69.9278 114.808 67.8038 114.538L65.7338 114.25C64.3838 114.07 64.0238 113.818 64.0238 113.116C64.0238 112.27 64.5998 111.91 66.2378 111.91C68.2178 111.91 68.7578 112.468 68.7578 113.53V113.638H70.6837V113.584C70.6837 111.46 69.0278 110.362 66.2918 110.362C63.5378 110.362 62.1158 111.478 62.1158 113.044C62.1158 114.538 63.1418 115.258 64.8338 115.474L67.2818 115.798C68.5598 115.978 68.9918 116.212 68.9918 116.95C68.9918 117.742 68.4698 118.102 66.7238 118.102C64.8518 118.102 64.1498 117.724 64.1498 116.554V116.41H62.2058V116.464C62.2058 118.534 63.8438 119.668 66.7238 119.668ZM74.3903 119.488V116.698H71.9423V119.488H74.3903ZM80.8557 119.488V107.428H78.9117V119.488H80.8557ZM84.5999 119.488V115.06C84.5999 113.116 85.4819 112.108 87.4439 112.108C89.2979 112.108 90.0539 112.954 90.0539 114.628V119.488H91.9979V114.106C91.9979 112.036 90.7739 110.362 88.2899 110.362C86.0219 110.362 84.8339 111.802 84.5639 113.314H84.4379V110.542H82.6559V119.488H84.5999ZM102.386 119.668C106.004 119.668 108.056 117.76 108.056 114.484V107.428H106.112V114.358C106.112 116.788 105.032 117.796 102.386 117.796C99.7403 117.796 98.6603 116.788 98.6603 114.358V107.428H96.7343V114.484C96.7343 117.76 98.7863 119.668 102.386 119.668ZM111.723 119.488V107.428H109.779V119.488H111.723ZM119.391 119.488V117.742H117.771C116.655 117.742 116.151 117.454 116.151 116.356V112.162H119.391V110.542H116.151V108.58H114.225V110.542H112.713V112.162H114.225V116.464C114.225 118.642 115.413 119.488 117.339 119.488H119.391ZM122.551 119.488V114.466C122.551 112.864 123.181 112.018 124.711 112.018C126.043 112.018 126.583 112.612 126.583 113.89V114.682H128.509V113.512C128.509 111.82 127.627 110.362 125.593 110.362C123.757 110.362 122.785 111.514 122.515 112.954H122.389V110.542H120.607V119.488H122.551ZM131.674 109.498V107.428H129.73V109.498H131.674ZM131.674 119.488V110.542H129.73V119.488H131.674ZM137.992 119.668C140.674 119.668 142.636 118.156 142.636 115.924V115.726H140.71V115.852C140.71 117.238 139.702 117.922 137.956 117.922C135.94 117.922 135.04 116.95 135.04 115.024C135.04 113.062 135.94 112.108 137.956 112.108C139.702 112.108 140.71 112.792 140.71 114.178V114.286H142.636V114.106C142.636 111.874 140.674 110.362 137.992 110.362C135.04 110.362 133.114 112.234 133.114 115.024C133.114 117.778 135.04 119.668 137.992 119.668ZM148.574 119.668C151.238 119.668 153.11 118.354 153.11 116.446V116.284H151.166V116.428C151.166 117.49 150.392 118.102 148.52 118.102C146.45 118.102 145.604 117.184 145.532 115.456H153.128C153.182 115.186 153.2 114.934 153.2 114.61C153.2 111.892 151.31 110.362 148.538 110.362C145.622 110.362 143.714 112.234 143.714 115.024C143.714 118.012 145.64 119.668 148.574 119.668ZM148.502 111.892C150.41 111.892 151.364 112.684 151.364 114.34V114.376H145.55C145.658 112.774 146.522 111.892 148.502 111.892ZM158.886 119.668C161.406 119.668 163.062 118.678 163.062 117.004C163.062 115.528 162.09 114.808 159.966 114.538L157.896 114.25C156.546 114.07 156.186 113.818 156.186 113.116C156.186 112.27 156.762 111.91 158.4 111.91C160.38 111.91 160.92 112.468 160.92 113.53V113.638H162.846V113.584C162.846 111.46 161.19 110.362 158.454 110.362C155.7 110.362 154.278 111.478 154.278 113.044C154.278 114.538 155.304 115.258 156.996 115.474L159.444 115.798C160.722 115.978 161.154 116.212 161.154 116.95C161.154 117.742 160.632 118.102 158.886 118.102C157.014 118.102 156.312 117.724 156.312 116.554V116.41H154.368V116.464C154.368 118.534 156.006 119.668 158.886 119.668ZM169.485 119.488V112.09L169.413 110.344H169.557L170.295 112.09L173.625 118.768H175.965L179.295 112.09L180.033 110.344H180.177L180.105 112.09V119.488H182.049V107.428H179.403L175.965 114.412L174.903 116.914H174.759L173.661 114.412L170.187 107.428H167.541V119.488H169.485ZM186.481 119.668C188.515 119.668 189.937 118.768 190.405 117.256H190.531V119.488H192.313V114.052C192.313 111.91 191.035 110.362 188.191 110.362C185.347 110.362 183.655 111.892 183.655 113.926V113.998H185.581V113.926C185.581 112.612 186.391 112.072 188.047 112.072C189.757 112.072 190.405 112.594 190.405 114.07V114.592L186.337 115.024C184.573 115.222 183.457 115.942 183.457 117.328C183.457 118.804 184.627 119.668 186.481 119.668ZM185.401 117.202C185.401 116.5 185.887 116.266 186.895 116.14L190.405 115.744C190.405 117.508 189.037 118.264 187.003 118.264C185.887 118.264 185.401 117.922 185.401 117.202ZM195.992 119.488V107.428H194.048V119.488H195.992ZM202.293 119.668C204.957 119.668 206.829 118.354 206.829 116.446V116.284H204.885V116.428C204.885 117.49 204.111 118.102 202.239 118.102C200.169 118.102 199.323 117.184 199.251 115.456H206.847C206.901 115.186 206.919 114.934 206.919 114.61C206.919 111.892 205.029 110.362 202.257 110.362C199.341 110.362 197.433 112.234 197.433 115.024C197.433 118.012 199.359 119.668 202.293 119.668ZM202.221 111.892C204.129 111.892 205.083 112.684 205.083 114.34V114.376H199.269C199.377 112.774 200.241 111.892 202.221 111.892ZM212.605 119.668C215.125 119.668 216.781 118.678 216.781 117.004C216.781 115.528 215.809 114.808 213.685 114.538L211.615 114.25C210.265 114.07 209.905 113.818 209.905 113.116C209.905 112.27 210.481 111.91 212.119 111.91C214.099 111.91 214.639 112.468 214.639 113.53V113.638H216.565V113.584C216.565 111.46 214.909 110.362 212.173 110.362C209.419 110.362 207.997 111.478 207.997 113.044C207.997 114.538 209.023 115.258 210.715 115.474L213.163 115.798C214.441 115.978 214.873 116.212 214.873 116.95C214.873 117.742 214.351 118.102 212.605 118.102C210.733 118.102 210.031 117.724 210.031 116.554V116.41H208.087V116.464C208.087 118.534 209.725 119.668 212.605 119.668ZM221.909 119.668C224.213 119.668 225.401 118.228 225.689 116.716H225.797V119.488H227.579V110.542H225.653V114.97C225.653 116.914 224.735 117.922 222.755 117.922C220.865 117.922 220.091 117.076 220.091 115.402V110.542H218.165V115.924C218.165 117.994 219.389 119.668 221.909 119.668ZM231.973 119.668C234.007 119.668 235.429 118.768 235.897 117.256H236.023V119.488H237.805V114.052C237.805 111.91 236.527 110.362 233.683 110.362C230.839 110.362 229.147 111.892 229.147 113.926V113.998H231.073V113.926C231.073 112.612 231.883 112.072 233.539 112.072C235.249 112.072 235.897 112.594 235.897 114.07V114.592L231.829 115.024C230.065 115.222 228.949 115.942 228.949 117.328C228.949 118.804 230.119 119.668 231.973 119.668ZM230.893 117.202C230.893 116.5 231.379 116.266 232.387 116.14L235.897 115.744C235.897 117.508 234.529 118.264 232.495 118.264C231.379 118.264 230.893 117.922 230.893 117.202ZM243.483 119.668C245.499 119.668 246.813 118.696 247.191 116.914H247.317V119.488H249.099V107.428H247.155V112.972H247.047C246.687 111.46 245.481 110.362 243.357 110.362C240.639 110.362 239.091 112.234 239.091 115.024C239.091 117.778 240.657 119.668 243.483 119.668ZM241.053 115.024C241.053 112.864 242.169 112.126 244.041 112.126C246.039 112.126 247.155 113.062 247.155 114.97V115.114C247.155 116.986 245.985 117.886 244.077 117.886C242.151 117.886 241.053 117.166 241.053 115.024ZM253.524 119.668C255.558 119.668 256.98 118.768 257.448 117.256H257.574V119.488H259.356V114.052C259.356 111.91 258.078 110.362 255.234 110.362C252.39 110.362 250.698 111.892 250.698 113.926V113.998H252.624V113.926C252.624 112.612 253.434 112.072 255.09 112.072C256.8 112.072 257.448 112.594 257.448 114.07V114.592L253.38 115.024C251.616 115.222 250.5 115.942 250.5 117.328C250.5 118.804 251.67 119.668 253.524 119.668ZM252.444 117.202C252.444 116.5 252.93 116.266 253.938 116.14L257.448 115.744C257.448 117.508 256.08 118.264 254.046 118.264C252.93 118.264 252.444 117.922 252.444 117.202ZM273.816 119.488V117.742H266.112V114.286H273.546V112.558H266.112V109.174H273.816V107.428H264.168V119.488H273.816ZM277.274 119.488V107.428H275.33V119.488H277.274ZM281.018 109.498V107.428H279.074V109.498H281.018ZM281.018 119.488V110.542H279.074V119.488H281.018ZM288.686 119.488V117.742H287.066C285.95 117.742 285.446 117.454 285.446 116.356V112.162H288.686V110.542H285.446V108.58H283.52V110.542H282.008V112.162H283.52V116.464C283.52 118.642 284.708 119.488 286.634 119.488H288.686ZM294.922 119.488V112.09L294.85 110.344H294.994L295.732 112.09L299.062 118.768H301.402L304.732 112.09L305.47 110.344H305.614L305.542 112.09V119.488H307.486V107.428H304.84L301.402 114.412L300.34 116.914H300.196L299.098 114.412L295.624 107.428H292.978V119.488H294.922ZM311.919 119.668C313.953 119.668 315.375 118.768 315.843 117.256H315.969V119.488H317.751V114.052C317.751 111.91 316.473 110.362 313.629 110.362C310.785 110.362 309.093 111.892 309.093 113.926V113.998H311.019V113.926C311.019 112.612 311.829 112.072 313.485 112.072C315.195 112.072 315.843 112.594 315.843 114.07V114.592L311.775 115.024C310.011 115.222 308.895 115.942 308.895 117.328C308.895 118.804 310.065 119.668 311.919 119.668ZM310.839 117.202C310.839 116.5 311.325 116.266 312.333 116.14L315.843 115.744C315.843 117.508 314.475 118.264 312.441 118.264C311.325 118.264 310.839 117.922 310.839 117.202ZM323.212 119.668C325.516 119.668 326.704 118.228 326.992 116.716H327.1V119.488H328.882V110.542H326.956V114.97C326.956 116.914 326.038 117.922 324.058 117.922C322.168 117.922 321.394 117.076 321.394 115.402V110.542H319.468V115.924C319.468 117.994 320.692 119.668 323.212 119.668ZM332.592 119.488V114.466C332.592 112.864 333.222 112.018 334.752 112.018C336.084 112.018 336.624 112.612 336.624 113.89V114.682H338.55V113.512C338.55 111.82 337.668 110.362 335.634 110.362C333.798 110.362 332.826 111.514 332.556 112.954H332.43V110.542H330.648V119.488H332.592ZM341.715 109.498V107.428H339.771V109.498H341.715ZM341.715 119.488V110.542H339.771V119.488H341.715ZM347.745 119.668C350.265 119.668 351.921 118.678 351.921 117.004C351.921 115.528 350.949 114.808 348.825 114.538L346.755 114.25C345.405 114.07 345.045 113.818 345.045 113.116C345.045 112.27 345.621 111.91 347.259 111.91C349.239 111.91 349.779 112.468 349.779 113.53V113.638H351.705V113.584C351.705 111.46 350.049 110.362 347.313 110.362C344.559 110.362 343.137 111.478 343.137 113.044C343.137 114.538 344.163 115.258 345.855 115.474L348.303 115.798C349.581 115.978 350.013 116.212 350.013 116.95C350.013 117.742 349.491 118.102 347.745 118.102C345.873 118.102 345.171 117.724 345.171 116.554V116.41H343.227V116.464C343.227 118.534 344.865 119.668 347.745 119.668ZM366.048 119.488V117.742H358.344V114.286H365.778V112.558H358.344V109.174H366.048V107.428H356.4V119.488H366.048ZM373.43 119.488V117.742H371.81C370.694 117.742 370.19 117.454 370.19 116.356V112.162H373.43V110.542H370.19V108.58H368.264V110.542H366.752V112.162H368.264V116.464C368.264 118.642 369.452 119.488 371.378 119.488H373.43ZM376.59 109.498V107.428H374.646V109.498H376.59ZM376.59 119.488V110.542H374.646V119.488H376.59ZM381.018 119.668C383.052 119.668 384.474 118.768 384.942 117.256H385.068V119.488H386.85V114.052C386.85 111.91 385.572 110.362 382.728 110.362C379.884 110.362 378.192 111.892 378.192 113.926V113.998H380.118V113.926C380.118 112.612 380.928 112.072 382.584 112.072C384.294 112.072 384.942 112.594 384.942 114.07V114.592L380.874 115.024C379.11 115.222 377.994 115.942 377.994 117.328C377.994 118.804 379.164 119.668 381.018 119.668ZM379.938 117.202C379.938 116.5 380.424 116.266 381.432 116.14L384.942 115.744C384.942 117.508 383.574 118.264 381.54 118.264C380.424 118.264 379.938 117.922 379.938 117.202ZM390.53 119.488V115.06C390.53 113.08 391.196 112.108 393.122 112.108C394.85 112.108 395.534 112.864 395.534 114.628V119.488H397.46V115.06C397.46 113.08 398.144 112.108 400.052 112.108C401.78 112.108 402.482 112.864 402.482 114.628V119.488H404.408V114.106C404.408 111.946 403.238 110.362 400.916 110.362C398.648 110.362 397.64 111.784 397.406 113.314H397.298C397.046 111.604 395.948 110.362 393.914 110.362C391.682 110.362 390.71 111.748 390.476 113.242H390.368V110.542H388.586V119.488H390.53ZM415.144 119.668C418.96 119.668 421.444 117.22 421.444 113.458C421.444 109.696 418.96 107.248 415.144 107.248C411.364 107.248 408.862 109.696 408.862 113.458C408.862 117.22 411.364 119.668 415.144 119.668ZM415.144 117.796C412.282 117.796 410.914 116.464 410.914 113.458C410.914 110.452 412.282 109.102 415.144 109.102C418.006 109.102 419.392 110.452 419.392 113.458C419.392 116.464 418.006 117.796 415.144 117.796ZM426.822 119.668C428.838 119.668 430.152 118.696 430.53 116.914H430.656V119.488H432.438V107.428H430.494V112.972H430.386C430.026 111.46 428.82 110.362 426.696 110.362C423.978 110.362 422.43 112.234 422.43 115.024C422.43 117.778 423.996 119.668 426.822 119.668ZM424.392 115.024C424.392 112.864 425.508 112.126 427.38 112.126C429.378 112.126 430.494 113.062 430.494 114.97V115.114C430.494 116.986 429.324 117.886 427.416 117.886C425.49 117.886 424.392 117.166 424.392 115.024ZM436.18 109.498V107.428H434.236V109.498H436.18ZM436.18 119.488V110.542H434.236V119.488H436.18ZM442.552 119.668C445.54 119.668 447.538 117.778 447.538 115.024C447.538 112.234 445.54 110.362 442.552 110.362C439.582 110.362 437.584 112.234 437.584 115.024C437.584 117.778 439.582 119.668 442.552 119.668ZM442.552 117.94C440.392 117.94 439.492 116.914 439.492 115.024C439.492 113.116 440.392 112.072 442.552 112.072C444.73 112.072 445.63 113.116 445.63 115.024C445.63 116.914 444.73 117.94 442.552 117.94ZM451.037 119.488V116.698H448.589V119.488H451.037ZM461.156 119.488C464.9 119.488 467.258 117.184 467.258 113.458C467.258 109.732 464.9 107.428 461.156 107.428H455.666V119.488H461.156ZM461.156 109.174C463.946 109.174 465.206 110.362 465.206 113.458C465.206 116.554 463.946 117.742 461.156 117.742H457.592V109.174H461.156ZM472.433 119.668C474.737 119.668 475.925 118.228 476.213 116.716H476.321V119.488H478.103V110.542H476.177V114.97C476.177 116.914 475.259 117.922 473.279 117.922C471.389 117.922 470.615 117.076 470.615 115.402V110.542H468.689V115.924C468.689 117.994 469.913 119.668 472.433 119.668ZM481.813 109.498V107.428H479.869V109.498H481.813ZM481.813 119.488V110.542H479.869V119.488H481.813ZM487.843 119.668C490.363 119.668 492.019 118.678 492.019 117.004C492.019 115.528 491.047 114.808 488.923 114.538L486.853 114.25C485.503 114.07 485.143 113.818 485.143 113.116C485.143 112.27 485.719 111.91 487.357 111.91C489.337 111.91 489.877 112.468 489.877 113.53V113.638H491.803V113.584C491.803 111.46 490.147 110.362 487.411 110.362C484.657 110.362 483.235 111.478 483.235 113.044C483.235 114.538 484.261 115.258 485.953 115.474L488.401 115.798C489.679 115.978 490.111 116.212 490.111 116.95C490.111 117.742 489.589 118.102 487.843 118.102C485.971 118.102 485.269 117.724 485.269 116.554V116.41H483.325V116.464C483.325 118.534 484.963 119.668 487.843 119.668ZM6.894 147.488V137.174H11.628V135.428H0.216V137.174H4.968V147.488H6.894ZM14.7092 147.488V142.466C14.7092 140.864 15.3392 140.018 16.8692 140.018C18.2012 140.018 18.7412 140.612 18.7412 141.89V142.682H20.6672V141.512C20.6672 139.82 19.7852 138.362 17.7512 138.362C15.9152 138.362 14.9432 139.514 14.6732 140.954H14.5472V138.542H12.7652V147.488H14.7092ZM23.8323 137.498V135.428H21.8883V137.498H23.8323ZM23.8323 147.488V138.542H21.8883V147.488H23.8323ZM29.8624 147.668C32.3824 147.668 34.0384 146.678 34.0384 145.004C34.0384 143.528 33.0664 142.808 30.9424 142.538L28.8724 142.25C27.5224 142.07 27.1624 141.818 27.1624 141.116C27.1624 140.27 27.7384 139.91 29.3764 139.91C31.3564 139.91 31.8964 140.468 31.8964 141.53V141.638H33.8224V141.584C33.8224 139.46 32.1664 138.362 29.4304 138.362C26.6764 138.362 25.2544 139.478 25.2544 141.044C25.2544 142.538 26.2804 143.258 27.9724 143.474L30.4204 143.798C31.6984 143.978 32.1304 144.212 32.1304 144.95C32.1304 145.742 31.6084 146.102 29.8624 146.102C27.9904 146.102 27.2884 145.724 27.2884 144.554V144.41H25.3444V144.464C25.3444 146.534 26.9824 147.668 29.8624 147.668ZM41.309 147.488V145.742H39.689C38.573 145.742 38.069 145.454 38.069 144.356V140.162H41.309V138.542H38.069V136.58H36.143V138.542H34.631V140.162H36.143V144.464C36.143 146.642 37.331 147.488 39.257 147.488H41.309ZM44.469 137.498V135.428H42.525V137.498H44.469ZM44.469 147.488V138.542H42.525V147.488H44.469ZM50.1391 147.668C52.1551 147.668 53.4511 146.606 53.8291 144.968H53.8831V150.548H55.8271V138.542H54.0451V141.026H53.8831C53.5231 139.37 52.2631 138.362 50.1571 138.362C47.3851 138.362 45.8191 140.252 45.8191 143.024C45.8191 145.796 47.3671 147.668 50.1391 147.668ZM47.7811 143.024C47.7811 140.864 48.8971 140.144 50.7691 140.144C52.7671 140.144 53.8831 141.08 53.8831 143.006V143.168C53.8831 145.004 52.7131 145.904 50.8051 145.904C48.8791 145.904 47.7811 145.166 47.7811 143.024ZM61.3506 147.668C63.6546 147.668 64.8426 146.228 65.1306 144.716H65.2386V147.488H67.0206V138.542H65.0946V142.97C65.0946 144.914 64.1766 145.922 62.1966 145.922C60.3066 145.922 59.5326 145.076 59.5326 143.402V138.542H57.6066V143.924C57.6066 145.994 58.8306 147.668 61.3506 147.668ZM73.2867 147.668C75.9507 147.668 77.8227 146.354 77.8227 144.446V144.284H75.8787V144.428C75.8787 145.49 75.1047 146.102 73.2327 146.102C71.1627 146.102 70.3167 145.184 70.2447 143.456H77.8407C77.8947 143.186 77.9127 142.934 77.9127 142.61C77.9127 139.892 76.0227 138.362 73.2507 138.362C70.3347 138.362 68.4267 140.234 68.4267 143.024C68.4267 146.012 70.3527 147.668 73.2867 147.668ZM73.2147 139.892C75.1227 139.892 76.0767 140.684 76.0767 142.34V142.376H70.2627C70.3707 140.774 71.2347 139.892 73.2147 139.892ZM91.8229 147.488V145.742H84.3889V135.428H82.4449V147.488H91.8229ZM95.7077 147.668C97.7417 147.668 99.1637 146.768 99.6317 145.256H99.7577V147.488H101.54V142.052C101.54 139.91 100.262 138.362 97.4177 138.362C94.5737 138.362 92.8817 139.892 92.8817 141.926V141.998H94.8077V141.926C94.8077 140.612 95.6177 140.072 97.2737 140.072C98.9837 140.072 99.6317 140.594 99.6317 142.07V142.592L95.5637 143.024C93.7997 143.222 92.6837 143.942 92.6837 145.328C92.6837 146.804 93.8537 147.668 95.7077 147.668ZM94.6277 145.202C94.6277 144.5 95.1137 144.266 96.1217 144.14L99.6317 143.744C99.6317 145.508 98.2637 146.264 96.2297 146.264C95.1137 146.264 94.6277 145.922 94.6277 145.202ZM107.793 147.668C110.475 147.668 112.437 146.156 112.437 143.924V143.726H110.511V143.852C110.511 145.238 109.503 145.922 107.757 145.922C105.741 145.922 104.841 144.95 104.841 143.024C104.841 141.062 105.741 140.108 107.757 140.108C109.503 140.108 110.511 140.792 110.511 142.178V142.286H112.437V142.106C112.437 139.874 110.475 138.362 107.793 138.362C104.841 138.362 102.915 140.234 102.915 143.024C102.915 145.778 104.841 147.668 107.793 147.668ZM117.601 147.668C119.905 147.668 121.093 146.228 121.381 144.716H121.489V147.488H123.271V138.542H121.345V142.97C121.345 144.914 120.427 145.922 118.447 145.922C116.557 145.922 115.783 145.076 115.783 143.402V138.542H113.857V143.924C113.857 145.994 115.081 147.668 117.601 147.668ZM129.267 147.668C131.787 147.668 133.443 146.678 133.443 145.004C133.443 143.528 132.471 142.808 130.347 142.538L128.277 142.25C126.927 142.07 126.567 141.818 126.567 141.116C126.567 140.27 127.143 139.91 128.781 139.91C130.761 139.91 131.301 140.468 131.301 141.53V141.638H133.227V141.584C133.227 139.46 131.571 138.362 128.835 138.362C126.081 138.362 124.659 139.478 124.659 141.044C124.659 142.538 125.685 143.258 127.377 143.474L129.825 143.798C131.103 143.978 131.535 144.212 131.535 144.95C131.535 145.742 131.013 146.102 129.267 146.102C127.395 146.102 126.693 145.724 126.693 144.554V144.41H124.749V144.464C124.749 146.534 126.387 147.668 129.267 147.668ZM135.169 149.504C136.285 149.504 136.933 148.964 136.933 147.848V144.698H134.485V147.488H135.565V147.866C135.565 148.244 135.421 148.316 135.115 148.316H134.521V149.504H135.169ZM151.103 147.488V145.742H143.399V142.286H150.833V140.558H143.399V137.174H151.103V135.428H141.455V147.488H151.103ZM158.485 147.488V145.742H156.865C155.749 145.742 155.245 145.454 155.245 144.356V140.162H158.485V138.542H155.245V136.58H153.319V138.542H151.807V140.162H153.319V144.464C153.319 146.642 154.507 147.488 156.433 147.488H158.485ZM169.689 147.488C172.173 147.488 173.559 146.228 173.559 144.158C173.559 142.574 172.551 141.458 170.499 141.224V141.098C172.335 140.882 173.127 139.82 173.127 138.398C173.127 136.49 171.741 135.428 169.437 135.428H162.687V147.488H169.689ZM164.613 137.174H169.221C170.571 137.174 171.201 137.696 171.201 138.83C171.201 139.964 170.517 140.486 169.167 140.486H164.613V137.174ZM164.613 142.088H169.473C170.895 142.088 171.615 142.628 171.615 143.888C171.615 145.202 170.913 145.742 169.473 145.742H164.613V142.088ZM176.762 147.488V135.428H174.818V147.488H176.762ZM181.19 147.668C183.224 147.668 184.646 146.768 185.114 145.256H185.24V147.488H187.022V142.052C187.022 139.91 185.744 138.362 182.9 138.362C180.056 138.362 178.364 139.892 178.364 141.926V141.998H180.29V141.926C180.29 140.612 181.1 140.072 182.756 140.072C184.466 140.072 185.114 140.594 185.114 142.07V142.592L181.046 143.024C179.282 143.222 178.166 143.942 178.166 145.328C178.166 146.804 179.336 147.668 181.19 147.668ZM180.11 145.202C180.11 144.5 180.596 144.266 181.604 144.14L185.114 143.744C185.114 145.508 183.746 146.264 181.712 146.264C180.596 146.264 180.11 145.922 180.11 145.202ZM190.701 147.488V143.06C190.701 141.116 191.583 140.108 193.545 140.108C195.399 140.108 196.155 140.954 196.155 142.628V147.488H198.099V142.106C198.099 140.036 196.875 138.362 194.391 138.362C192.123 138.362 190.935 139.802 190.665 141.314H190.539V138.542H188.757V147.488H190.701ZM203.774 147.668C205.79 147.668 207.104 146.696 207.482 144.914H207.608V147.488H209.39V135.428H207.446V140.972H207.338C206.978 139.46 205.772 138.362 203.648 138.362C200.93 138.362 199.382 140.234 199.382 143.024C199.382 145.778 200.948 147.668 203.774 147.668ZM201.344 143.024C201.344 140.864 202.46 140.126 204.332 140.126C206.33 140.126 207.446 141.062 207.446 142.97V143.114C207.446 144.986 206.276 145.886 204.368 145.886C202.442 145.886 201.344 145.166 201.344 143.024ZM213.131 137.498V135.428H211.187V137.498H213.131ZM213.131 147.488V138.542H211.187V147.488H213.131ZM220.799 147.488V145.742H219.179C218.063 145.742 217.559 145.454 217.559 144.356V140.162H220.799V138.542H217.559V136.58H215.633V138.542H214.121V140.162H215.633V144.464C215.633 146.642 216.821 147.488 218.747 147.488H220.799ZM232.003 147.488L237.151 135.428H234.865L230.725 145.526H230.581L226.405 135.428H224.101L229.249 147.488H232.003ZM239.92 137.498V135.428H237.976V137.498H239.92ZM239.92 147.488V138.542H237.976V147.488H239.92ZM247.462 147.488L251.674 138.542H249.568L246.382 145.598H246.238L243.052 138.542H240.91L245.086 147.488H247.462ZM257.171 147.668C259.835 147.668 261.707 146.354 261.707 144.446V144.284H259.763V144.428C259.763 145.49 258.989 146.102 257.117 146.102C255.047 146.102 254.201 145.184 254.129 143.456H261.725C261.779 143.186 261.797 142.934 261.797 142.61C261.797 139.892 259.907 138.362 257.135 138.362C254.219 138.362 252.311 140.234 252.311 143.024C252.311 146.012 254.237 147.668 257.171 147.668ZM257.099 139.892C259.007 139.892 259.961 140.684 259.961 142.34V142.376H254.147C254.255 140.774 255.119 139.892 257.099 139.892ZM265.198 147.488V142.466C265.198 140.864 265.828 140.018 267.358 140.018C268.69 140.018 269.23 140.612 269.23 141.89V142.682H271.156V141.512C271.156 139.82 270.274 138.362 268.24 138.362C266.404 138.362 265.432 139.514 265.162 140.954H265.036V138.542H263.254V147.488H265.198ZM274.321 147.488V142.466C274.321 140.864 274.951 140.018 276.481 140.018C277.813 140.018 278.353 140.612 278.353 141.89V142.682H280.279V141.512C280.279 139.82 279.397 138.362 277.363 138.362C275.527 138.362 274.555 139.514 274.285 140.954H274.159V138.542H272.377V147.488H274.321ZM284.128 147.668C286.162 147.668 287.584 146.768 288.052 145.256H288.178V147.488H289.96V142.052C289.96 139.91 288.682 138.362 285.838 138.362C282.994 138.362 281.302 139.892 281.302 141.926V141.998H283.228V141.926C283.228 140.612 284.038 140.072 285.694 140.072C287.404 140.072 288.052 140.594 288.052 142.07V142.592L283.984 143.024C282.22 143.222 281.104 143.942 281.104 145.328C281.104 146.804 282.274 147.668 284.128 147.668ZM283.048 145.202C283.048 144.5 283.534 144.266 284.542 144.14L288.052 143.744C288.052 145.508 286.684 146.264 284.65 146.264C283.534 146.264 283.048 145.922 283.048 145.202ZM296.715 147.488V140.414L296.643 138.326H296.787L298.299 140.45L303.735 147.488H305.823V135.428H303.879V142.556L303.969 144.734H303.825L302.259 142.484L296.859 135.428H294.771V147.488H296.715ZM309.565 137.498V135.428H307.621V137.498H309.565ZM309.565 147.488V138.542H307.621V147.488H309.565ZM315.595 147.668C318.115 147.668 319.771 146.678 319.771 145.004C319.771 143.528 318.799 142.808 316.675 142.538L314.605 142.25C313.255 142.07 312.895 141.818 312.895 141.116C312.895 140.27 313.471 139.91 315.109 139.91C317.089 139.91 317.629 140.468 317.629 141.53V141.638H319.555V141.584C319.555 139.46 317.899 138.362 315.163 138.362C312.409 138.362 310.987 139.478 310.987 141.044C310.987 142.538 312.013 143.258 313.705 143.474L316.153 143.798C317.431 143.978 317.863 144.212 317.863 144.95C317.863 145.742 317.341 146.102 315.595 146.102C313.723 146.102 313.021 145.724 313.021 144.554V144.41H311.077V144.464C311.077 146.534 312.715 147.668 315.595 147.668ZM323.117 147.488V135.428H321.173V147.488H323.117ZM334.906 147.488L340.054 135.428H337.768L333.628 145.526H333.484L329.308 135.428H327.004L332.152 147.488H334.906ZM345.379 147.668C348.043 147.668 349.915 146.354 349.915 144.446V144.284H347.971V144.428C347.971 145.49 347.197 146.102 345.325 146.102C343.255 146.102 342.409 145.184 342.337 143.456H349.933C349.987 143.186 350.005 142.934 350.005 142.61C350.005 139.892 348.115 138.362 345.343 138.362C342.427 138.362 340.519 140.234 340.519 143.024C340.519 146.012 342.445 147.668 345.379 147.668ZM345.307 139.892C347.215 139.892 348.169 140.684 348.169 142.34V142.376H342.355C342.463 140.774 343.327 139.892 345.307 139.892ZM353.405 147.488V135.428H351.461V147.488H353.405ZM357.149 137.498V135.428H355.205V137.498H357.149ZM357.149 147.488V138.542H355.205V147.488H357.149ZM364.817 147.488V145.742H363.197C362.081 145.742 361.577 145.454 361.577 144.356V140.162H364.817V138.542H361.577V136.58H359.651V138.542H358.139V140.162H359.651V144.464C359.651 146.642 360.839 147.488 362.765 147.488H364.817ZM368.121 147.488V144.698H365.673V147.488H368.121ZM377.7 147.668C381.264 147.668 382.758 145.976 382.758 144.14C382.758 142.376 381.57 141.278 379.158 140.846L376.224 140.342C374.802 140.036 374.19 139.694 374.19 138.65C374.19 137.57 375.054 137.03 377.25 137.03C379.752 137.03 380.634 137.768 380.634 139.244V139.478H382.56V139.37C382.56 137.012 380.958 135.248 377.43 135.248C373.686 135.248 372.246 137.012 372.246 138.758C372.246 140.738 373.686 141.674 375.72 142.034L378.672 142.52C380.202 142.808 380.814 143.204 380.814 144.248C380.814 145.382 380.004 145.886 377.7 145.886C375.054 145.886 374.208 145.166 374.208 143.726V143.438H372.264V143.546C372.264 146.084 374.1 147.668 377.7 147.668ZM388.638 147.668C391.302 147.668 393.174 146.354 393.174 144.446V144.284H391.23V144.428C391.23 145.49 390.456 146.102 388.584 146.102C386.514 146.102 385.668 145.184 385.596 143.456H393.192C393.246 143.186 393.264 142.934 393.264 142.61C393.264 139.892 391.374 138.362 388.602 138.362C385.686 138.362 383.778 140.234 383.778 143.024C383.778 146.012 385.704 147.668 388.638 147.668ZM388.566 139.892C390.474 139.892 391.428 140.684 391.428 142.34V142.376H385.614C385.722 140.774 386.586 139.892 388.566 139.892ZM398.662 147.668C400.678 147.668 401.992 146.696 402.37 144.914H402.496V147.488H404.278V135.428H402.334V140.972H402.226C401.866 139.46 400.66 138.362 398.536 138.362C395.818 138.362 394.27 140.234 394.27 143.024C394.27 145.778 395.836 147.668 398.662 147.668ZM396.232 143.024C396.232 140.864 397.348 140.126 399.22 140.126C401.218 140.126 402.334 141.062 402.334 142.97V143.114C402.334 144.986 401.164 145.886 399.256 145.886C397.33 145.886 396.232 145.166 396.232 143.024ZM411.096 147.488V140.09L411.024 138.344H411.168L411.906 140.09L415.236 146.768H417.576L420.906 140.09L421.644 138.344H421.788L421.716 140.09V147.488H423.66V135.428H421.014L417.576 142.412L416.514 144.914H416.37L415.272 142.412L411.798 135.428H409.152V147.488H411.096ZM428.092 147.668C430.126 147.668 431.548 146.768 432.016 145.256H432.142V147.488H433.924V142.052C433.924 139.91 432.646 138.362 429.802 138.362C426.958 138.362 425.266 139.892 425.266 141.926V141.998H427.192V141.926C427.192 140.612 428.002 140.072 429.658 140.072C431.368 140.072 432.016 140.594 432.016 142.07V142.592L427.948 143.024C426.184 143.222 425.068 143.942 425.068 145.328C425.068 146.804 426.238 147.668 428.092 147.668ZM427.012 145.202C427.012 144.5 427.498 144.266 428.506 144.14L432.016 143.744C432.016 145.508 430.648 146.264 428.614 146.264C427.498 146.264 427.012 145.922 427.012 145.202ZM441.528 147.488V145.742H439.908C438.792 145.742 438.288 145.454 438.288 144.356V140.162H441.528V138.542H438.288V136.58H436.362V138.542H434.85V140.162H436.362V144.464C436.362 146.642 437.55 147.488 439.476 147.488H441.528ZM448.612 147.488V145.742H446.992C445.876 145.742 445.372 145.454 445.372 144.356V140.162H448.612V138.542H445.372V136.58H443.446V138.542H441.934V140.162H443.446V144.464C443.446 146.642 444.634 147.488 446.56 147.488H448.612ZM451.772 137.498V135.428H449.828V137.498H451.772ZM451.772 147.488V138.542H449.828V147.488H451.772ZM457.802 147.668C460.322 147.668 461.978 146.678 461.978 145.004C461.978 143.528 461.006 142.808 458.882 142.538L456.812 142.25C455.462 142.07 455.102 141.818 455.102 141.116C455.102 140.27 455.678 139.91 457.316 139.91C459.296 139.91 459.836 140.468 459.836 141.53V141.638H461.762V141.584C461.762 139.46 460.106 138.362 457.37 138.362C454.616 138.362 453.194 139.478 453.194 141.044C453.194 142.538 454.22 143.258 455.912 143.474L458.36 143.798C459.638 143.978 460.07 144.212 460.07 144.95C460.07 145.742 459.548 146.102 457.802 146.102C455.93 146.102 455.228 145.724 455.228 144.554V144.41H453.284V144.464C453.284 146.534 454.922 147.668 457.802 147.668ZM2.844 175.488V170.808H5.058C6.57 170.808 7.128 171.204 7.668 172.158L9.594 175.488H11.826L9.81 171.996C9.378 171.24 8.946 170.7 8.01 170.448V170.322C10.278 170.196 11.592 168.972 11.592 166.974C11.592 164.724 9.9 163.428 7.164 163.428H0.9V175.488H2.844ZM2.844 165.174H7.146C8.766 165.174 9.576 165.768 9.576 167.244C9.576 168.756 8.766 169.314 7.146 169.314H2.844V165.174ZM14.9378 175.488V171.15C14.9378 169.26 15.6938 168.108 17.8178 168.108C19.6718 168.108 20.4818 168.828 20.4818 170.628V175.488H22.4078V170.16C22.4078 167.982 21.2018 166.362 18.7358 166.362C16.4498 166.362 15.3518 167.766 15.0458 169.278H14.9378V163.428H12.9938V175.488H14.9378ZM28.7279 175.668C31.7159 175.668 33.7139 173.778 33.7139 171.024C33.7139 168.234 31.7159 166.362 28.7279 166.362C25.7579 166.362 23.7599 168.234 23.7599 171.024C23.7599 173.778 25.7579 175.668 28.7279 175.668ZM28.7279 173.94C26.5679 173.94 25.6679 172.914 25.6679 171.024C25.6679 169.116 26.5679 168.072 28.7279 168.072C30.9059 168.072 31.8059 169.116 31.8059 171.024C31.8059 172.914 30.9059 173.94 28.7279 173.94ZM37.0686 175.488V171.06C37.0686 169.116 37.9506 168.108 39.9126 168.108C41.7666 168.108 42.5226 168.954 42.5226 170.628V175.488H44.4666V170.106C44.4666 168.036 43.2426 166.362 40.7586 166.362C38.4906 166.362 37.3026 167.802 37.0326 169.314H36.9066V166.542H35.1246V175.488H37.0686ZM50.7168 175.668C53.3988 175.668 55.3608 174.156 55.3608 171.924V171.726H53.4348V171.852C53.4348 173.238 52.4268 173.922 50.6808 173.922C48.6648 173.922 47.7648 172.95 47.7648 171.024C47.7648 169.062 48.6648 168.108 50.6808 168.108C52.4268 168.108 53.4348 168.792 53.4348 170.178V170.286H55.3608V170.106C55.3608 167.874 53.3988 166.362 50.7168 166.362C47.7648 166.362 45.8388 168.234 45.8388 171.024C45.8388 173.778 47.7648 175.668 50.7168 175.668ZM60.5244 175.668C62.8284 175.668 64.0164 174.228 64.3044 172.716H64.4124V175.488H66.1944V166.542H64.2684V170.97C64.2684 172.914 63.3504 173.922 61.3704 173.922C59.4804 173.922 58.7064 173.076 58.7064 171.402V166.542H56.7804V171.924C56.7804 173.994 58.0044 175.668 60.5244 175.668ZM72.1905 175.668C74.7105 175.668 76.3665 174.678 76.3665 173.004C76.3665 171.528 75.3945 170.808 73.2705 170.538L71.2005 170.25C69.8505 170.07 69.4905 169.818 69.4905 169.116C69.4905 168.27 70.0665 167.91 71.7045 167.91C73.6845 167.91 74.2245 168.468 74.2245 169.53V169.638H76.1505V169.584C76.1505 167.46 74.4945 166.362 71.7585 166.362C69.0045 166.362 67.5825 167.478 67.5825 169.044C67.5825 170.538 68.6085 171.258 70.3005 171.474L72.7485 171.798C74.0265 171.978 74.4585 172.212 74.4585 172.95C74.4585 173.742 73.9365 174.102 72.1905 174.102C70.3185 174.102 69.6165 173.724 69.6165 172.554V172.41H67.6725V172.464C67.6725 174.534 69.3105 175.668 72.1905 175.668ZM78.0931 177.504C79.2091 177.504 79.8571 176.964 79.8571 175.848V172.698H77.4091V175.488H78.4891V175.866C78.4891 176.244 78.3451 176.316 78.0391 176.316H77.4451V177.504H78.0931ZM89.9765 175.488C93.7205 175.488 96.0785 173.184 96.0785 169.458C96.0785 165.732 93.7205 163.428 89.9765 163.428H84.4865V175.488H89.9765ZM89.9765 165.174C92.7665 165.174 94.0265 166.362 94.0265 169.458C94.0265 172.554 92.7665 173.742 89.9765 173.742H86.4125V165.174H89.9765ZM99.471 165.498V163.428H97.527V165.498H99.471ZM99.471 175.488V166.542H97.527V175.488H99.471ZM103.899 175.668C105.933 175.668 107.355 174.768 107.823 173.256H107.949V175.488H109.731V170.052C109.731 167.91 108.453 166.362 105.609 166.362C102.765 166.362 101.073 167.892 101.073 169.926V169.998H102.999V169.926C102.999 168.612 103.809 168.072 105.465 168.072C107.175 168.072 107.823 168.594 107.823 170.07V170.592L103.755 171.024C101.991 171.222 100.875 171.942 100.875 173.328C100.875 174.804 102.045 175.668 103.899 175.668ZM102.819 173.202C102.819 172.5 103.305 172.266 104.313 172.14L107.823 171.744C107.823 173.508 106.455 174.264 104.421 174.264C103.305 174.264 102.819 173.922 102.819 173.202ZM113.41 175.488V171.06C113.41 169.08 114.076 168.108 116.002 168.108C117.73 168.108 118.414 168.864 118.414 170.628V175.488H120.34V171.06C120.34 169.08 121.024 168.108 122.932 168.108C124.66 168.108 125.362 168.864 125.362 170.628V175.488H127.288V170.106C127.288 167.946 126.118 166.362 123.796 166.362C121.528 166.362 120.52 167.784 120.286 169.314H120.178C119.926 167.604 118.828 166.362 116.794 166.362C114.562 166.362 113.59 167.748 113.356 169.242H113.248V166.542H111.466V175.488H113.41ZM137.161 175.668C140.725 175.668 142.219 173.976 142.219 172.14C142.219 170.376 141.031 169.278 138.619 168.846L135.685 168.342C134.263 168.036 133.651 167.694 133.651 166.65C133.651 165.57 134.515 165.03 136.711 165.03C139.213 165.03 140.095 165.768 140.095 167.244V167.478H142.021V167.37C142.021 165.012 140.419 163.248 136.891 163.248C133.147 163.248 131.707 165.012 131.707 166.758C131.707 168.738 133.147 169.674 135.181 170.034L138.133 170.52C139.663 170.808 140.275 171.204 140.275 172.248C140.275 173.382 139.465 173.886 137.161 173.886C134.515 173.886 133.669 173.166 133.669 171.726V171.438H131.725V171.546C131.725 174.084 133.561 175.668 137.161 175.668ZM147.325 175.668C149.629 175.668 150.817 174.228 151.105 172.716H151.213V175.488H152.995V166.542H151.069V170.97C151.069 172.914 150.151 173.922 148.171 173.922C146.281 173.922 145.507 173.076 145.507 171.402V166.542H143.581V171.924C143.581 173.994 144.805 175.668 147.325 175.668ZM158.991 175.668C161.511 175.668 163.167 174.678 163.167 173.004C163.167 171.528 162.195 170.808 160.071 170.538L158.001 170.25C156.651 170.07 156.291 169.818 156.291 169.116C156.291 168.27 156.867 167.91 158.505 167.91C160.485 167.91 161.025 168.468 161.025 169.53V169.638H162.951V169.584C162.951 167.46 161.295 166.362 158.559 166.362C155.805 166.362 154.383 167.478 154.383 169.044C154.383 170.538 155.409 171.258 157.101 171.474L159.549 171.798C160.827 171.978 161.259 172.212 161.259 172.95C161.259 173.742 160.737 174.102 158.991 174.102C157.119 174.102 156.417 173.724 156.417 172.554V172.41H154.473V172.464C154.473 174.534 156.111 175.668 158.991 175.668ZM166.514 178.548V172.968H166.586C166.946 174.606 168.242 175.668 170.258 175.668C173.048 175.668 174.578 173.796 174.578 171.024C174.578 168.252 173.012 166.362 170.24 166.362C168.134 166.362 166.874 167.37 166.514 169.026H166.352V166.542H164.57V178.548H166.514ZM166.514 171.168V171.006C166.514 169.08 167.63 168.144 169.628 168.144C171.5 168.144 172.634 168.864 172.634 171.024C172.634 173.166 171.518 173.904 169.592 173.904C167.684 173.904 166.514 173.004 166.514 171.168ZM180.425 175.668C183.089 175.668 184.961 174.354 184.961 172.446V172.284H183.017V172.428C183.017 173.49 182.243 174.102 180.371 174.102C178.301 174.102 177.455 173.184 177.383 171.456H184.979C185.033 171.186 185.051 170.934 185.051 170.61C185.051 167.892 183.161 166.362 180.389 166.362C177.473 166.362 175.565 168.234 175.565 171.024C175.565 174.012 177.491 175.668 180.425 175.668ZM180.353 167.892C182.261 167.892 183.215 168.684 183.215 170.34V170.376H177.401C177.509 168.774 178.373 167.892 180.353 167.892ZM188.451 175.488V171.06C188.451 169.116 189.333 168.108 191.295 168.108C193.149 168.108 193.905 168.954 193.905 170.628V175.488H195.849V170.106C195.849 168.036 194.625 166.362 192.141 166.362C189.873 166.362 188.685 167.802 188.415 169.314H188.289V166.542H186.507V175.488H188.451ZM201.524 175.668C203.54 175.668 204.854 174.696 205.232 172.914H205.358V175.488H207.14V163.428H205.196V168.972H205.088C204.728 167.46 203.522 166.362 201.398 166.362C198.68 166.362 197.132 168.234 197.132 171.024C197.132 173.778 198.698 175.668 201.524 175.668ZM199.094 171.024C199.094 168.864 200.21 168.126 202.082 168.126C204.08 168.126 205.196 169.062 205.196 170.97V171.114C205.196 172.986 204.026 173.886 202.118 173.886C200.192 173.886 199.094 173.166 199.094 171.024ZM210.881 165.498V163.428H208.937V165.498H210.881ZM210.881 175.488V166.542H208.937V175.488H210.881ZM216.911 175.668C219.431 175.668 221.087 174.678 221.087 173.004C221.087 171.528 220.115 170.808 217.991 170.538L215.921 170.25C214.571 170.07 214.211 169.818 214.211 169.116C214.211 168.27 214.787 167.91 216.425 167.91C218.405 167.91 218.945 168.468 218.945 169.53V169.638H220.871V169.584C220.871 167.46 219.215 166.362 216.479 166.362C213.725 166.362 212.303 167.478 212.303 169.044C212.303 170.538 213.329 171.258 215.021 171.474L217.469 171.798C218.747 171.978 219.179 172.212 219.179 172.95C219.179 173.742 218.657 174.102 216.911 174.102C215.039 174.102 214.337 173.724 214.337 172.554V172.41H212.393V172.464C212.393 174.534 214.031 175.668 216.911 175.668ZM226.72 175.668C229.24 175.668 230.896 174.678 230.896 173.004C230.896 171.528 229.924 170.808 227.8 170.538L225.73 170.25C224.38 170.07 224.02 169.818 224.02 169.116C224.02 168.27 224.596 167.91 226.234 167.91C228.214 167.91 228.754 168.468 228.754 169.53V169.638H230.68V169.584C230.68 167.46 229.024 166.362 226.288 166.362C223.534 166.362 222.112 167.478 222.112 169.044C222.112 170.538 223.138 171.258 224.83 171.474L227.278 171.798C228.556 171.978 228.988 172.212 228.988 172.95C228.988 173.742 228.466 174.102 226.72 174.102C224.848 174.102 224.146 173.724 224.146 172.554V172.41H222.202V172.464C222.202 174.534 223.84 175.668 226.72 175.668ZM236.798 175.668C239.462 175.668 241.334 174.354 241.334 172.446V172.284H239.39V172.428C239.39 173.49 238.616 174.102 236.744 174.102C234.674 174.102 233.828 173.184 233.756 171.456H241.352C241.406 171.186 241.424 170.934 241.424 170.61C241.424 167.892 239.534 166.362 236.762 166.362C233.846 166.362 231.938 168.234 231.938 171.024C231.938 174.012 233.864 175.668 236.798 175.668ZM236.726 167.892C238.634 167.892 239.588 168.684 239.588 170.34V170.376H233.774C233.882 168.774 234.746 167.892 236.726 167.892ZM251.015 175.668C254.579 175.668 256.073 173.976 256.073 172.14C256.073 170.376 254.885 169.278 252.473 168.846L249.539 168.342C248.117 168.036 247.505 167.694 247.505 166.65C247.505 165.57 248.369 165.03 250.565 165.03C253.067 165.03 253.949 165.768 253.949 167.244V167.478H255.875V167.37C255.875 165.012 254.273 163.248 250.745 163.248C247.001 163.248 245.561 165.012 245.561 166.758C245.561 168.738 247.001 169.674 249.035 170.034L251.987 170.52C253.517 170.808 254.129 171.204 254.129 172.248C254.129 173.382 253.319 173.886 251.015 173.886C248.369 173.886 247.523 173.166 247.523 171.726V171.438H245.579V171.546C245.579 174.084 247.415 175.668 251.015 175.668ZM259.397 165.498V163.428H257.453V165.498H259.397ZM259.397 175.488V166.542H257.453V175.488H259.397ZM267.065 175.488V173.742H265.445C264.329 173.742 263.825 173.454 263.825 172.356V168.162H267.065V166.542H263.825V164.58H261.899V166.542H260.387V168.162H261.899V172.464C261.899 174.642 263.087 175.488 265.013 175.488H267.065ZM273.301 175.488V168.414L273.229 166.326H273.373L274.885 168.45L280.321 175.488H282.409V163.428H280.465V170.556L280.555 172.734H280.411L278.845 170.484L273.445 163.428H271.357V175.488H273.301ZM287.933 175.668C290.237 175.668 291.425 174.228 291.713 172.716H291.821V175.488H293.603V166.542H291.677V170.97C291.677 172.914 290.759 173.922 288.779 173.922C286.889 173.922 286.115 173.076 286.115 171.402V166.542H284.189V171.924C284.189 173.994 285.413 175.668 287.933 175.668ZM297.313 175.488V171.06C297.313 169.116 298.195 168.108 300.157 168.108C302.011 168.108 302.767 168.954 302.767 170.628V175.488H304.711V170.106C304.711 168.036 303.487 166.362 301.003 166.362C298.735 166.362 297.547 167.802 297.277 169.314H297.151V166.542H295.369V175.488H297.313ZM310.961 175.668C313.643 175.668 315.605 174.156 315.605 171.924V171.726H313.679V171.852C313.679 173.238 312.671 173.922 310.925 173.922C308.909 173.922 308.009 172.95 308.009 171.024C308.009 169.062 308.909 168.108 310.925 168.108C312.671 168.108 313.679 168.792 313.679 170.178V170.286H315.605V170.106C315.605 167.874 313.643 166.362 310.961 166.362C308.009 166.362 306.083 168.234 306.083 171.024C306.083 173.778 308.009 175.668 310.961 175.668ZM317.367 177.504C318.483 177.504 319.131 176.964 319.131 175.848V172.698H316.683V175.488H317.763V175.866C317.763 176.244 317.619 176.316 317.313 176.316H316.719V177.504H317.367ZM329.196 175.668C331.554 175.668 333.084 174.642 333.588 172.878H333.714V175.488H335.478V169.332H329.088V170.808H333.552V170.97C333.552 173.004 332.418 173.796 329.538 173.796C326.712 173.796 325.344 172.464 325.344 169.458C325.344 166.452 326.73 165.102 329.628 165.102C332.13 165.102 333.336 166.038 333.336 167.766V167.91H335.478V167.766C335.478 164.976 333.102 163.248 329.682 163.248C325.83 163.248 323.292 165.696 323.292 169.458C323.292 173.22 325.65 175.668 329.196 175.668ZM339.061 175.488V170.466C339.061 168.864 339.691 168.018 341.221 168.018C342.553 168.018 343.093 168.612 343.093 169.89V170.682H345.019V169.512C345.019 167.82 344.137 166.362 342.103 166.362C340.267 166.362 339.295 167.514 339.025 168.954H338.899V166.542H337.117V175.488H339.061ZM348.868 175.668C350.902 175.668 352.324 174.768 352.792 173.256H352.918V175.488H354.7V170.052C354.7 167.91 353.422 166.362 350.578 166.362C347.734 166.362 346.042 167.892 346.042 169.926V169.998H347.968V169.926C347.968 168.612 348.778 168.072 350.434 168.072C352.144 168.072 352.792 168.594 352.792 170.07V170.592L348.724 171.024C346.96 171.222 345.844 171.942 345.844 173.328C345.844 174.804 347.014 175.668 348.868 175.668ZM347.788 173.202C347.788 172.5 348.274 172.266 349.282 172.14L352.792 171.744C352.792 173.508 351.424 174.264 349.39 174.264C348.274 174.264 347.788 173.922 347.788 173.202ZM362.177 175.488L366.389 166.542H364.283L361.097 173.598H360.953L357.767 166.542H355.625L359.801 175.488H362.177ZM369.33 165.498V163.428H367.386V165.498H369.33ZM369.33 175.488V166.542H367.386V175.488H369.33ZM375.072 175.668C377.088 175.668 378.402 174.696 378.78 172.914H378.906V175.488H380.688V163.428H378.744V168.972H378.636C378.276 167.46 377.07 166.362 374.946 166.362C372.228 166.362 370.68 168.234 370.68 171.024C370.68 173.778 372.246 175.668 375.072 175.668ZM372.642 171.024C372.642 168.864 373.758 168.126 375.63 168.126C377.628 168.126 378.744 169.062 378.744 170.97V171.114C378.744 172.986 377.574 173.886 375.666 173.886C373.74 173.886 372.642 173.166 372.642 171.024ZM385.114 175.668C387.148 175.668 388.57 174.768 389.038 173.256H389.164V175.488H390.946V170.052C390.946 167.91 389.668 166.362 386.824 166.362C383.98 166.362 382.288 167.892 382.288 169.926V169.998H384.214V169.926C384.214 168.612 385.024 168.072 386.68 168.072C388.39 168.072 389.038 168.594 389.038 170.07V170.592L384.97 171.024C383.206 171.222 382.09 171.942 382.09 173.328C382.09 174.804 383.26 175.668 385.114 175.668ZM384.034 173.202C384.034 172.5 384.52 172.266 385.528 172.14L389.038 171.744C389.038 173.508 387.67 174.264 385.636 174.264C384.52 174.264 384.034 173.922 384.034 173.202ZM405.405 175.488V173.742H397.701V170.286H405.135V168.558H397.701V165.174H405.405V163.428H395.757V175.488H405.405ZM410.646 175.668C412.95 175.668 414.138 174.228 414.426 172.716H414.534V175.488H416.316V166.542H414.39V170.97C414.39 172.914 413.472 173.922 411.492 173.922C409.602 173.922 408.828 173.076 408.828 171.402V166.542H406.902V171.924C406.902 173.994 408.126 175.668 410.646 175.668ZM420.17 175.488V172.698H417.722V175.488H420.17ZM434.069 175.488V173.742H426.635V163.428H424.691V175.488H434.069ZM439.826 175.668C442.49 175.668 444.362 174.354 444.362 172.446V172.284H442.418V172.428C442.418 173.49 441.644 174.102 439.772 174.102C437.702 174.102 436.856 173.184 436.784 171.456H444.38C444.434 171.186 444.452 170.934 444.452 170.61C444.452 167.892 442.562 166.362 439.79 166.362C436.874 166.362 434.966 168.234 434.966 171.024C434.966 174.012 436.892 175.668 439.826 175.668ZM439.754 167.892C441.662 167.892 442.616 168.684 442.616 170.34V170.376H436.802C436.91 168.774 437.774 167.892 439.754 167.892ZM450.426 175.668C453.108 175.668 455.07 174.156 455.07 171.924V171.726H453.144V171.852C453.144 173.238 452.136 173.922 450.39 173.922C448.374 173.922 447.474 172.95 447.474 171.024C447.474 169.062 448.374 168.108 450.39 168.108C452.136 168.108 453.144 168.792 453.144 170.178V170.286H455.07V170.106C455.07 167.874 453.108 166.362 450.426 166.362C447.474 166.362 445.548 168.234 445.548 171.024C445.548 173.778 447.474 175.668 450.426 175.668ZM462.375 175.488V173.742H460.755C459.639 173.742 459.135 173.454 459.135 172.356V168.162H462.375V166.542H459.135V164.58H457.209V166.542H455.697V168.162H457.209V172.464C457.209 174.642 458.397 175.488 460.323 175.488H462.375ZM467.317 175.668C469.621 175.668 470.809 174.228 471.097 172.716H471.205V175.488H472.987V166.542H471.061V170.97C471.061 172.914 470.143 173.922 468.163 173.922C466.273 173.922 465.499 173.076 465.499 171.402V166.542H463.573V171.924C463.573 173.994 464.797 175.668 467.317 175.668ZM478.984 175.668C481.504 175.668 483.16 174.678 483.16 173.004C483.16 171.528 482.188 170.808 480.064 170.538L477.994 170.25C476.644 170.07 476.284 169.818 476.284 169.116C476.284 168.27 476.86 167.91 478.498 167.91C480.478 167.91 481.018 168.468 481.018 169.53V169.638H482.944V169.584C482.944 167.46 481.288 166.362 478.552 166.362C475.798 166.362 474.376 167.478 474.376 169.044C474.376 170.538 475.402 171.258 477.094 171.474L479.542 171.798C480.82 171.978 481.252 172.212 481.252 172.95C481.252 173.742 480.73 174.102 478.984 174.102C477.112 174.102 476.41 173.724 476.41 172.554V172.41H474.466V172.464C474.466 174.534 476.104 175.668 478.984 175.668ZM497.286 175.488V173.742H489.582V170.286H497.016V168.558H489.582V165.174H497.286V163.428H487.638V175.488H497.286ZM502.688 174.678C504.722 174.678 505.928 173.706 506.252 172.356H506.378V174.552C506.378 176.55 505.64 177.108 503.606 177.108C501.698 177.108 500.942 176.622 500.942 175.326H499.016C499.016 177.486 500.852 178.728 503.498 178.728C506.432 178.728 508.304 177.45 508.304 174.444V166.542H506.522V168.774H506.414C506.09 167.208 504.686 166.362 502.814 166.362C500.096 166.362 498.44 168.036 498.44 170.52C498.44 173.004 500.024 174.678 502.688 174.678ZM500.402 170.52C500.402 168.684 501.5 168.054 503.372 168.054C505.262 168.054 506.378 168.828 506.378 170.34V170.592C506.378 172.176 505.298 173.004 503.318 173.004C501.482 173.004 500.402 172.356 500.402 170.52ZM514.603 175.668C517.267 175.668 519.139 174.354 519.139 172.446V172.284H517.195V172.428C517.195 173.49 516.421 174.102 514.549 174.102C512.479 174.102 511.633 173.184 511.561 171.456H519.157C519.211 171.186 519.229 170.934 519.229 170.61C519.229 167.892 517.339 166.362 514.567 166.362C511.651 166.362 509.743 168.234 509.743 171.024C509.743 174.012 511.669 175.668 514.603 175.668ZM514.531 167.892C516.439 167.892 517.393 168.684 517.393 170.34V170.376H511.579C511.687 168.774 512.551 167.892 514.531 167.892ZM526.553 175.488V173.742H524.933C523.817 173.742 523.313 173.454 523.313 172.356V168.162H526.553V166.542H523.313V164.58H521.387V166.542H519.875V168.162H521.387V172.464C521.387 174.642 522.575 175.488 524.501 175.488H526.553ZM10.548 203.488V201.742H2.844V198.286H10.278V196.558H2.844V193.174H10.548V191.428H0.9V203.488H10.548ZM15.9501 202.678C17.9841 202.678 19.1901 201.706 19.5141 200.356H19.6401V202.552C19.6401 204.55 18.9021 205.108 16.8681 205.108C14.9601 205.108 14.2041 204.622 14.2041 203.326H12.2781C12.2781 205.486 14.1141 206.728 16.7601 206.728C19.6941 206.728 21.5661 205.45 21.5661 202.444V194.542H19.7841V196.774H19.6761C19.3521 195.208 17.9481 194.362 16.0761 194.362C13.3581 194.362 11.7021 196.036 11.7021 198.52C11.7021 201.004 13.2861 202.678 15.9501 202.678ZM13.6641 198.52C13.6641 196.684 14.7621 196.054 16.6341 196.054C18.5241 196.054 19.6401 196.828 19.6401 198.34V198.592C19.6401 200.176 18.5601 201.004 16.5801 201.004C14.7441 201.004 13.6641 200.356 13.6641 198.52ZM27.8648 203.668C30.5288 203.668 32.4008 202.354 32.4008 200.446V200.284H30.4568V200.428C30.4568 201.49 29.6828 202.102 27.8108 202.102C25.7408 202.102 24.8948 201.184 24.8228 199.456H32.4188C32.4728 199.186 32.4908 198.934 32.4908 198.61C32.4908 195.892 30.6008 194.362 27.8288 194.362C24.9128 194.362 23.0048 196.234 23.0048 199.024C23.0048 202.012 24.9308 203.668 27.8648 203.668ZM27.7928 195.892C29.7008 195.892 30.6548 196.684 30.6548 198.34V198.376H24.8408C24.9488 196.774 25.8128 195.892 27.7928 195.892ZM39.8149 203.488V201.742H38.1949C37.0789 201.742 36.5749 201.454 36.5749 200.356V196.162H39.8149V194.542H36.5749V192.58H34.6489V194.542H33.1369V196.162H34.6489V200.464C34.6489 202.642 35.8369 203.488 37.7629 203.488H39.8149ZM45.367 203.488L46.753 200.356H53.125L54.511 203.488H56.707L51.325 191.428H48.589L43.207 203.488H45.367ZM49.165 194.938L49.867 193.228H50.011L50.713 194.938L52.351 198.61H47.527L49.165 194.938ZM62.125 203.668C64.807 203.668 66.769 202.156 66.769 199.924V199.726H64.843V199.852C64.843 201.238 63.835 201.922 62.089 201.922C60.073 201.922 59.173 200.95 59.173 199.024C59.173 197.062 60.073 196.108 62.089 196.108C63.835 196.108 64.843 196.792 64.843 198.178V198.286H66.769V198.106C66.769 195.874 64.807 194.362 62.125 194.362C59.173 194.362 57.247 196.234 57.247 199.024C57.247 201.778 59.173 203.668 62.125 203.668ZM76.8808 203.488C80.6248 203.488 82.9828 201.184 82.9828 197.458C82.9828 193.732 80.6248 191.428 76.8808 191.428H71.3908V203.488H76.8808ZM76.8808 193.174C79.6708 193.174 80.9308 194.362 80.9308 197.458C80.9308 200.554 79.6708 201.742 76.8808 201.742H73.3168V193.174H76.8808ZM89.0033 203.668C91.9913 203.668 93.9893 201.778 93.9893 199.024C93.9893 196.234 91.9913 194.362 89.0033 194.362C86.0333 194.362 84.0353 196.234 84.0353 199.024C84.0353 201.778 86.0333 203.668 89.0033 203.668ZM89.0033 201.94C86.8433 201.94 85.9433 200.914 85.9433 199.024C85.9433 197.116 86.8433 196.072 89.0033 196.072C91.1813 196.072 92.0813 197.116 92.0813 199.024C92.0813 200.914 91.1813 201.94 89.0033 201.94ZM97.344 203.488V191.428H95.4V203.488H97.344ZM103.716 203.668C106.704 203.668 108.702 201.778 108.702 199.024C108.702 196.234 106.704 194.362 103.716 194.362C100.746 194.362 98.7481 196.234 98.7481 199.024C98.7481 201.778 100.746 203.668 103.716 203.668ZM103.716 201.94C101.556 201.94 100.656 200.914 100.656 199.024C100.656 197.116 101.556 196.072 103.716 196.072C105.894 196.072 106.794 197.116 106.794 199.024C106.794 200.914 105.894 201.94 103.716 201.94ZM112.057 203.488V198.466C112.057 196.864 112.687 196.018 114.217 196.018C115.549 196.018 116.089 196.612 116.089 197.89V198.682H118.015V197.512C118.015 195.82 117.133 194.362 115.099 194.362C113.263 194.362 112.291 195.514 112.021 196.954H111.895V194.542H110.113V203.488H112.057ZM124.256 203.488V196.414L124.184 194.326H124.328L125.84 196.45L131.276 203.488H133.364V191.428H131.42V198.556L131.51 200.734H131.366L129.8 198.484L124.4 191.428H122.312V203.488H124.256ZM139.662 203.668C142.326 203.668 144.198 202.354 144.198 200.446V200.284H142.254V200.428C142.254 201.49 141.48 202.102 139.608 202.102C137.538 202.102 136.692 201.184 136.62 199.456H144.216C144.27 199.186 144.288 198.934 144.288 198.61C144.288 195.892 142.398 194.362 139.626 194.362C136.71 194.362 134.802 196.234 134.802 199.024C134.802 202.012 136.728 203.668 139.662 203.668ZM139.59 195.892C141.498 195.892 142.452 196.684 142.452 198.34V198.376H136.638C136.746 196.774 137.61 195.892 139.59 195.892ZM149.614 203.668C151.63 203.668 152.926 202.606 153.304 200.968H153.358V206.548H155.302V194.542H153.52V197.026H153.358C152.998 195.37 151.738 194.362 149.632 194.362C146.86 194.362 145.294 196.252 145.294 199.024C145.294 201.796 146.842 203.668 149.614 203.668ZM147.256 199.024C147.256 196.864 148.372 196.144 150.244 196.144C152.242 196.144 153.358 197.08 153.358 199.006V199.168C153.358 201.004 152.188 201.904 150.28 201.904C148.354 201.904 147.256 201.166 147.256 199.024ZM160.825 203.668C163.129 203.668 164.317 202.228 164.605 200.716H164.713V203.488H166.495V194.542H164.569V198.97C164.569 200.914 163.651 201.922 161.671 201.922C159.781 201.922 159.007 201.076 159.007 199.402V194.542H157.081V199.924C157.081 201.994 158.305 203.668 160.825 203.668ZM172.761 203.668C175.425 203.668 177.297 202.354 177.297 200.446V200.284H175.353V200.428C175.353 201.49 174.579 202.102 172.707 202.102C170.637 202.102 169.791 201.184 169.719 199.456H177.315C177.369 199.186 177.387 198.934 177.387 198.61C177.387 195.892 175.497 194.362 172.725 194.362C169.809 194.362 167.901 196.234 167.901 199.024C167.901 202.012 169.827 203.668 172.761 203.668ZM172.689 195.892C174.597 195.892 175.551 196.684 175.551 198.34V198.376H169.737C169.845 196.774 170.709 195.892 172.689 195.892ZM191.298 203.488V201.742H183.864V191.428H181.92V203.488H191.298ZM197.126 203.668C200.114 203.668 202.112 201.778 202.112 199.024C202.112 196.234 200.114 194.362 197.126 194.362C194.156 194.362 192.158 196.234 192.158 199.024C192.158 201.778 194.156 203.668 197.126 203.668ZM197.126 201.94C194.966 201.94 194.066 200.914 194.066 199.024C194.066 197.116 194.966 196.072 197.126 196.072C199.304 196.072 200.204 197.116 200.204 199.024C200.204 200.914 199.304 201.94 197.126 201.94ZM205.467 203.488V198.466C205.467 196.864 206.097 196.018 207.627 196.018C208.959 196.018 209.499 196.612 209.499 197.89V198.682H211.425V197.512C211.425 195.82 210.543 194.362 208.509 194.362C206.673 194.362 205.701 195.514 205.431 196.954H205.305V194.542H203.523V203.488H205.467ZM217.146 203.668C219.81 203.668 221.682 202.354 221.682 200.446V200.284H219.738V200.428C219.738 201.49 218.964 202.102 217.092 202.102C215.022 202.102 214.176 201.184 214.104 199.456H221.7C221.754 199.186 221.772 198.934 221.772 198.61C221.772 195.892 219.882 194.362 217.11 194.362C214.194 194.362 212.286 196.234 212.286 199.024C212.286 202.012 214.212 203.668 217.146 203.668ZM217.074 195.892C218.982 195.892 219.936 196.684 219.936 198.34V198.376H214.122C214.23 196.774 215.094 195.892 217.074 195.892ZM225.172 203.488V199.06C225.172 197.08 225.838 196.108 227.764 196.108C229.492 196.108 230.176 196.864 230.176 198.628V203.488H232.102V199.06C232.102 197.08 232.786 196.108 234.694 196.108C236.422 196.108 237.124 196.864 237.124 198.628V203.488H239.05V198.106C239.05 195.946 237.88 194.362 235.558 194.362C233.29 194.362 232.282 195.784 232.048 197.314H231.94C231.688 195.604 230.59 194.362 228.556 194.362C226.324 194.362 225.352 195.748 225.118 197.242H225.01V194.542H223.228V203.488H225.172ZM248.923 203.668C252.487 203.668 253.981 201.976 253.981 200.14C253.981 198.376 252.793 197.278 250.381 196.846L247.447 196.342C246.025 196.036 245.413 195.694 245.413 194.65C245.413 193.57 246.277 193.03 248.473 193.03C250.975 193.03 251.857 193.768 251.857 195.244V195.478H253.783V195.37C253.783 193.012 252.181 191.248 248.653 191.248C244.909 191.248 243.469 193.012 243.469 194.758C243.469 196.738 244.909 197.674 246.943 198.034L249.895 198.52C251.425 198.808 252.037 199.204 252.037 200.248C252.037 201.382 251.227 201.886 248.923 201.886C246.277 201.886 245.431 201.166 245.431 199.726V199.438H243.487V199.546C243.487 202.084 245.323 203.668 248.923 203.668ZM257.989 203.668C260.023 203.668 261.445 202.768 261.913 201.256H262.039V203.488H263.821V198.052C263.821 195.91 262.543 194.362 259.699 194.362C256.855 194.362 255.163 195.892 255.163 197.926V197.998H257.089V197.926C257.089 196.612 257.899 196.072 259.555 196.072C261.265 196.072 261.913 196.594 261.913 198.07V198.592L257.845 199.024C256.081 199.222 254.965 199.942 254.965 201.328C254.965 202.804 256.135 203.668 257.989 203.668ZM256.909 201.202C256.909 200.5 257.395 200.266 258.403 200.14L261.913 199.744C261.913 201.508 260.545 202.264 258.511 202.264C257.395 202.264 256.909 201.922 256.909 201.202ZM267.5 206.548V200.968H267.572C267.932 202.606 269.228 203.668 271.244 203.668C274.034 203.668 275.564 201.796 275.564 199.024C275.564 196.252 273.998 194.362 271.226 194.362C269.12 194.362 267.86 195.37 267.5 197.026H267.338V194.542H265.556V206.548H267.5ZM267.5 199.168V199.006C267.5 197.08 268.616 196.144 270.614 196.144C272.486 196.144 273.62 196.864 273.62 199.024C273.62 201.166 272.504 201.904 270.578 201.904C268.67 201.904 267.5 201.004 267.5 199.168ZM278.856 193.498V191.428H276.912V193.498H278.856ZM278.856 203.488V194.542H276.912V203.488H278.856ZM285.156 203.668C287.82 203.668 289.692 202.354 289.692 200.446V200.284H287.748V200.428C287.748 201.49 286.974 202.102 285.102 202.102C283.032 202.102 282.186 201.184 282.114 199.456H289.71C289.764 199.186 289.782 198.934 289.782 198.61C289.782 195.892 287.892 194.362 285.12 194.362C282.204 194.362 280.296 196.234 280.296 199.024C280.296 202.012 282.222 203.668 285.156 203.668ZM285.084 195.892C286.992 195.892 287.946 196.684 287.946 198.34V198.376H282.132C282.24 196.774 283.104 195.892 285.084 195.892ZM293.182 203.488V199.06C293.182 197.116 294.064 196.108 296.026 196.108C297.88 196.108 298.636 196.954 298.636 198.628V203.488H300.58V198.106C300.58 196.036 299.356 194.362 296.872 194.362C294.604 194.362 293.416 195.802 293.146 197.314H293.02V194.542H291.238V203.488H293.182ZM302.636 205.504C303.752 205.504 304.4 204.964 304.4 203.848V200.698H301.952V203.488H303.032V203.866C303.032 204.244 302.888 204.316 302.582 204.316H301.988V205.504H302.636ZM313.979 203.668C317.543 203.668 319.037 201.976 319.037 200.14C319.037 198.376 317.849 197.278 315.437 196.846L312.503 196.342C311.081 196.036 310.469 195.694 310.469 194.65C310.469 193.57 311.333 193.03 313.529 193.03C316.031 193.03 316.913 193.768 316.913 195.244V195.478H318.839V195.37C318.839 193.012 317.237 191.248 313.709 191.248C309.965 191.248 308.525 193.012 308.525 194.758C308.525 196.738 309.965 197.674 311.999 198.034L314.951 198.52C316.481 198.808 317.093 199.204 317.093 200.248C317.093 201.382 316.283 201.886 313.979 201.886C311.333 201.886 310.487 201.166 310.487 199.726V199.438H308.543V199.546C308.543 202.084 310.379 203.668 313.979 203.668ZM324.144 203.668C326.448 203.668 327.636 202.228 327.924 200.716H328.032V203.488H329.814V194.542H327.888V198.97C327.888 200.914 326.97 201.922 324.99 201.922C323.1 201.922 322.326 201.076 322.326 199.402V194.542H320.4V199.924C320.4 201.994 321.624 203.668 324.144 203.668ZM335.81 203.668C338.33 203.668 339.986 202.678 339.986 201.004C339.986 199.528 339.014 198.808 336.89 198.538L334.82 198.25C333.47 198.07 333.11 197.818 333.11 197.116C333.11 196.27 333.686 195.91 335.324 195.91C337.304 195.91 337.844 196.468 337.844 197.53V197.638H339.77V197.584C339.77 195.46 338.114 194.362 335.378 194.362C332.624 194.362 331.202 195.478 331.202 197.044C331.202 198.538 332.228 199.258 333.92 199.474L336.368 199.798C337.646 199.978 338.078 200.212 338.078 200.95C338.078 201.742 337.556 202.102 335.81 202.102C333.938 202.102 333.236 201.724 333.236 200.554V200.41H331.292V200.464C331.292 202.534 332.93 203.668 335.81 203.668ZM343.332 206.548V200.968H343.404C343.764 202.606 345.06 203.668 347.076 203.668C349.866 203.668 351.396 201.796 351.396 199.024C351.396 196.252 349.83 194.362 347.058 194.362C344.952 194.362 343.692 195.37 343.332 197.026H343.17V194.542H341.388V206.548H343.332ZM343.332 199.168V199.006C343.332 197.08 344.448 196.144 346.446 196.144C348.318 196.144 349.452 196.864 349.452 199.024C349.452 201.166 348.336 201.904 346.41 201.904C344.502 201.904 343.332 201.004 343.332 199.168ZM357.244 203.668C359.908 203.668 361.78 202.354 361.78 200.446V200.284H359.836V200.428C359.836 201.49 359.062 202.102 357.19 202.102C355.12 202.102 354.274 201.184 354.202 199.456H361.798C361.852 199.186 361.87 198.934 361.87 198.61C361.87 195.892 359.98 194.362 357.208 194.362C354.292 194.362 352.384 196.234 352.384 199.024C352.384 202.012 354.31 203.668 357.244 203.668ZM357.172 195.892C359.08 195.892 360.034 196.684 360.034 198.34V198.376H354.22C354.328 196.774 355.192 195.892 357.172 195.892ZM365.27 203.488V199.06C365.27 197.116 366.152 196.108 368.114 196.108C369.968 196.108 370.724 196.954 370.724 198.628V203.488H372.668V198.106C372.668 196.036 371.444 194.362 368.96 194.362C366.692 194.362 365.504 195.802 365.234 197.314H365.108V194.542H363.326V203.488H365.27ZM378.342 203.668C380.358 203.668 381.672 202.696 382.05 200.914H382.176V203.488H383.958V191.428H382.014V196.972H381.906C381.546 195.46 380.34 194.362 378.216 194.362C375.498 194.362 373.95 196.234 373.95 199.024C373.95 201.778 375.516 203.668 378.342 203.668ZM375.912 199.024C375.912 196.864 377.028 196.126 378.9 196.126C380.898 196.126 382.014 197.062 382.014 198.97V199.114C382.014 200.986 380.844 201.886 378.936 201.886C377.01 201.886 375.912 201.166 375.912 199.024ZM387.699 193.498V191.428H385.755V193.498H387.699ZM387.699 203.488V194.542H385.755V203.488H387.699ZM393.73 203.668C396.25 203.668 397.906 202.678 397.906 201.004C397.906 199.528 396.934 198.808 394.81 198.538L392.74 198.25C391.39 198.07 391.03 197.818 391.03 197.116C391.03 196.27 391.606 195.91 393.244 195.91C395.224 195.91 395.764 196.468 395.764 197.53V197.638H397.69V197.584C397.69 195.46 396.034 194.362 393.298 194.362C390.544 194.362 389.122 195.478 389.122 197.044C389.122 198.538 390.148 199.258 391.84 199.474L394.288 199.798C395.566 199.978 395.998 200.212 395.998 200.95C395.998 201.742 395.476 202.102 393.73 202.102C391.858 202.102 391.156 201.724 391.156 200.554V200.41H389.212V200.464C389.212 202.534 390.85 203.668 393.73 203.668ZM403.538 203.668C406.058 203.668 407.714 202.678 407.714 201.004C407.714 199.528 406.742 198.808 404.618 198.538L402.548 198.25C401.198 198.07 400.838 197.818 400.838 197.116C400.838 196.27 401.414 195.91 403.052 195.91C405.032 195.91 405.572 196.468 405.572 197.53V197.638H407.498V197.584C407.498 195.46 405.842 194.362 403.106 194.362C400.352 194.362 398.93 195.478 398.93 197.044C398.93 198.538 399.956 199.258 401.648 199.474L404.096 199.798C405.374 199.978 405.806 200.212 405.806 200.95C405.806 201.742 405.284 202.102 403.538 202.102C401.666 202.102 400.964 201.724 400.964 200.554V200.41H399.02V200.464C399.02 202.534 400.658 203.668 403.538 203.668ZM413.617 203.668C416.281 203.668 418.153 202.354 418.153 200.446V200.284H416.209V200.428C416.209 201.49 415.435 202.102 413.563 202.102C411.493 202.102 410.647 201.184 410.575 199.456H418.171C418.225 199.186 418.243 198.934 418.243 198.61C418.243 195.892 416.353 194.362 413.581 194.362C410.665 194.362 408.757 196.234 408.757 199.024C408.757 202.012 410.683 203.668 413.617 203.668ZM413.545 195.892C415.453 195.892 416.407 196.684 416.407 198.34V198.376H410.593C410.701 196.774 411.565 195.892 413.545 195.892ZM424.035 203.488L425.421 200.356H431.793L433.179 203.488H435.375L429.993 191.428H427.257L421.875 203.488H424.035ZM427.833 194.938L428.535 193.228H428.679L429.381 194.938L431.019 198.61H426.195L427.833 194.938ZM438.219 203.488V191.428H436.275V203.488H438.219ZM441.963 193.498V191.428H440.019V193.498H441.963ZM441.963 203.488V194.542H440.019V203.488H441.963ZM447.633 203.668C449.649 203.668 450.945 202.606 451.323 200.968H451.377V206.548H453.321V194.542H451.539V197.026H451.377C451.017 195.37 449.757 194.362 447.651 194.362C444.879 194.362 443.313 196.252 443.313 199.024C443.313 201.796 444.861 203.668 447.633 203.668ZM445.275 199.024C445.275 196.864 446.391 196.144 448.263 196.144C450.261 196.144 451.377 197.08 451.377 199.006V199.168C451.377 201.004 450.207 201.904 448.299 201.904C446.373 201.904 445.275 201.166 445.275 199.024ZM458.845 203.668C461.149 203.668 462.337 202.228 462.625 200.716H462.733V203.488H464.515V194.542H462.589V198.97C462.589 200.914 461.671 201.922 459.691 201.922C457.801 201.922 457.027 201.076 457.027 199.402V194.542H455.101V199.924C455.101 201.994 456.325 203.668 458.845 203.668ZM468.909 203.668C470.943 203.668 472.365 202.768 472.833 201.256H472.959V203.488H474.741V198.052C474.741 195.91 473.463 194.362 470.619 194.362C467.775 194.362 466.083 195.892 466.083 197.926V197.998H468.009V197.926C468.009 196.612 468.819 196.072 470.475 196.072C472.185 196.072 472.833 196.594 472.833 198.07V198.592L468.765 199.024C467.001 199.222 465.885 199.942 465.885 201.328C465.885 202.804 467.055 203.668 468.909 203.668ZM467.829 201.202C467.829 200.5 468.315 200.266 469.323 200.14L472.833 199.744C472.833 201.508 471.465 202.264 469.431 202.264C468.315 202.264 467.829 201.922 467.829 201.202ZM478.42 203.488V199.06C478.42 197.08 479.086 196.108 481.012 196.108C482.74 196.108 483.424 196.864 483.424 198.628V203.488H485.35V199.06C485.35 197.08 486.034 196.108 487.942 196.108C489.67 196.108 490.372 196.864 490.372 198.628V203.488H492.298V198.106C492.298 195.946 491.128 194.362 488.806 194.362C486.538 194.362 485.53 195.784 485.296 197.314H485.188C484.936 195.604 483.838 194.362 481.804 194.362C479.572 194.362 478.6 195.748 478.366 197.242H478.258V194.542H476.476V203.488H478.42ZM496.125 203.488V200.698H493.677V203.488H496.125Z" fill="black"/>
<path d="M73.724 33.768C79.576 33.768 83.3 30.856 83.3 26.096V25.676H78.624V26.096C78.624 28.56 77.224 29.736 73.808 29.736C69.692 29.736 68.152 28.28 68.152 24.108C68.152 19.936 69.692 18.48 73.808 18.48C77.224 18.48 78.624 19.656 78.624 22.12V22.54H83.3V22.12C83.3 17.36 79.548 14.448 73.724 14.448C67.536 14.448 63.7 18.256 63.7 24.108C63.7 29.96 67.536 33.768 73.724 33.768ZM89.32 33.488V14.728H85.12V33.488H89.32ZM98.9664 33.768C103.418 33.768 106.386 31.64 106.386 28.588V28.28H102.186V28.56C102.186 29.764 101.318 30.408 98.8264 30.408C96.1104 30.408 95.1024 29.484 94.9904 27.328H106.414C106.47 26.852 106.526 26.488 106.526 25.984C106.526 21.588 103.474 19.18 98.8824 19.18C94.2624 19.18 91.0984 22.008 91.0984 26.488C91.0984 31.472 94.2904 33.768 98.9664 33.768ZM98.7984 22.456C101.262 22.456 102.382 23.268 102.494 25.116H95.0464C95.2424 23.296 96.3064 22.456 98.7984 22.456ZM118.752 33.488L125.164 19.46H120.572L116.344 29.4H116.064L111.864 19.46H107.188L113.572 33.488H118.752ZM133.72 33.768C138.172 33.768 141.14 31.64 141.14 28.588V28.28H136.94V28.56C136.94 29.764 136.072 30.408 133.58 30.408C130.864 30.408 129.856 29.484 129.744 27.328H141.168C141.224 26.852 141.28 26.488 141.28 25.984C141.28 21.588 138.228 19.18 133.636 19.18C129.016 19.18 125.852 22.008 125.852 26.488C125.852 31.472 129.044 33.768 133.72 33.768ZM133.552 22.456C136.016 22.456 137.136 23.268 137.248 25.116H129.8C129.996 23.296 131.06 22.456 133.552 22.456ZM147.261 33.488V25.368C147.261 23.604 147.933 22.736 149.809 22.736C151.517 22.736 152.133 23.408 152.133 24.948V26.404H156.333V24.08C156.333 21.336 155.045 19.18 151.909 19.18C149.081 19.18 147.597 20.916 147.205 23.184H146.953V19.46H143.061V33.488H147.261ZM166.375 33.488V24.444L166.207 21H166.487L168.867 24.528L175.783 33.488H180.263V14.728H176.063V23.772L176.259 27.552H175.951L173.375 23.604L166.655 14.728H162.175V33.488H166.375ZM189.967 33.768C194.755 33.768 197.975 30.912 197.975 26.488C197.975 22.008 194.755 19.18 189.967 19.18C185.179 19.18 181.959 22.008 181.959 26.488C181.959 30.912 185.179 33.768 189.967 33.768ZM189.967 30.044C187.111 30.044 186.131 28.952 186.131 26.488C186.131 24.024 187.111 22.876 189.967 22.876C192.795 22.876 193.803 24.024 193.803 26.488C193.803 28.952 192.795 30.044 189.967 30.044ZM209.574 33.488V29.708H207.054C205.57 29.708 205.038 29.344 205.038 27.944V22.932H209.574V19.46H205.038V16.744H200.838V19.46H198.626V22.932H200.838V28.42C200.838 31.948 202.826 33.488 206.102 33.488H209.574ZM215.347 18.032V14.728H211.147V18.032H215.347ZM215.347 33.488V19.46H211.147V33.488H215.347ZM222.866 33.488V22.932H227.206V19.46H222.698C222.586 18.088 223.454 17.78 225.302 17.78H227.206V14.728H225.974C221.662 14.728 219.198 16.632 218.75 19.46H216.678V22.932H218.666V33.488H222.866ZM232.806 18.032V14.728H228.606V18.032H232.806ZM232.806 33.488V19.46H228.606V33.488H232.806ZM242.494 33.768C247.002 33.768 250.082 31.332 250.082 27.72V27.328H245.91V27.552C245.91 29.344 244.594 29.988 242.41 29.988C239.918 29.988 238.77 29.064 238.77 26.488C238.77 23.884 239.918 22.96 242.41 22.96C244.594 22.96 245.91 23.604 245.91 25.396V25.62H250.082V25.228C250.082 21.588 247.002 19.18 242.494 19.18C237.678 19.18 234.598 22.008 234.598 26.488C234.598 30.912 237.678 33.768 242.494 33.768ZM256.202 33.768C259.31 33.768 261.27 32.452 261.914 30.268H262.138V33.488H266.058V25.256C266.058 21.588 263.846 19.18 259.17 19.18C254.55 19.18 251.638 21.588 251.638 25.06V25.144H255.866V25.032C255.866 23.436 256.734 22.876 258.862 22.876C261.102 22.876 261.914 23.38 261.914 25.2V25.732L255.894 26.348C252.898 26.656 251.358 27.944 251.358 30.016C251.358 32.368 253.178 33.768 256.202 33.768ZM255.586 29.736C255.586 29.064 256.034 28.784 257.042 28.7L261.914 28.14C261.802 30.128 260.262 30.8 257.406 30.8C256.174 30.8 255.586 30.492 255.586 29.736ZM278.07 33.488V29.708H275.55C274.066 29.708 273.534 29.344 273.534 27.944V22.932H278.07V19.46H273.534V16.744H269.334V19.46H267.122V22.932H269.334V28.42C269.334 31.948 271.322 33.488 274.598 33.488H278.07ZM283.843 18.032V14.728H279.643V18.032H283.843ZM283.843 33.488V19.46H279.643V33.488H283.843ZM293.518 33.768C298.306 33.768 301.526 30.912 301.526 26.488C301.526 22.008 298.306 19.18 293.518 19.18C288.73 19.18 285.51 22.008 285.51 26.488C285.51 30.912 288.73 33.768 293.518 33.768ZM293.518 30.044C290.662 30.044 289.682 28.952 289.682 26.488C289.682 24.024 290.662 22.876 293.518 22.876C296.346 22.876 297.354 24.024 297.354 26.488C297.354 28.952 296.346 30.044 293.518 30.044ZM307.441 33.488V26.404C307.441 24.024 308.393 22.96 311.053 22.96C313.629 22.96 314.553 23.912 314.553 26.152V33.488H318.753V24.752C318.753 21.644 316.933 19.18 313.097 19.18C309.429 19.18 307.749 21.42 307.385 23.772H307.133V19.46H303.241V33.488H307.441ZM327.962 33.768C332.302 33.768 334.906 32.032 334.906 29.4C334.906 27.076 333.506 25.816 329.754 25.396L326.758 25.032C324.91 24.808 324.518 24.5 324.518 23.772C324.518 22.876 325.05 22.512 327.15 22.512C329.726 22.512 330.286 23.1 330.286 24.248V24.416H334.486V24.332C334.486 20.916 331.882 19.18 327.29 19.18C322.474 19.18 320.374 21.14 320.374 23.604C320.374 25.956 321.942 27.216 324.742 27.524L328.69 28C330.342 28.224 330.762 28.448 330.762 29.232C330.762 30.072 330.23 30.436 327.99 30.436C325.61 30.436 324.826 30.1 324.826 28.84V28.588H320.626V28.672C320.626 31.92 323.23 33.768 327.962 33.768Z" fill="black"/>
<circle cx="24" cy="24.488" r="24" fill="#FF5555"/>
<path d="M26 33.488H22M30 20.488C30 18.8967 29.3679 17.3706 28.2427 16.2454C27.1174 15.1202 25.5913 14.488 24 14.488C22.4087 14.488 20.8826 15.1202 19.7574 16.2454C18.6322 17.3706 18 18.8967 18 20.488C18 23.5782 17.2205 25.694 16.3497 27.0934C15.6151 28.2739 15.2479 28.8641 15.2613 29.0288C15.2763 29.2111 15.3149 29.2806 15.4618 29.3896C15.5945 29.488 16.1926 29.488 17.3889 29.488H30.6112C31.8074 29.488 32.4056 29.488 32.5382 29.3896C32.6852 29.2806 32.7238 29.2111 32.7387 29.0288C32.7522 28.8641 32.3849 28.2739 31.6504 27.0935C30.7795 25.694 30 23.5782 30 20.488Z" stroke="white" stroke-width="2" stroke-linecap="round" stroke-linejoin="round"/>
</svg>
