<svg width="470" height="81" viewBox="0 0 470 81" fill="none" xmlns="http://www.w3.org/2000/svg">
<path d="M20.544 71.488L24.384 57.712L26.64 47.632H27.264L29.376 57.712L32.736 71.488H46.128L53.472 39.328H43.584L40.56 55.696L39.6 62.944H38.976L37.824 55.696L33.888 39.328H20.304L15.984 55.696L14.688 62.944H14.064L13.2 55.696L10.512 39.328H0.432L7.152 71.488H20.544ZM64.3703 71.488V59.008C64.3703 55.888 65.3783 54.88 69.5543 54.88C73.6823 54.88 74.9783 55.936 74.9783 59.296V71.488H84.0023V56.272C84.0023 50.896 80.9303 46.816 74.4983 46.816C68.3063 46.816 65.6183 50.56 64.8503 54.64H64.3703V39.328H55.3463V71.488H64.3703ZM92.0336 79.648C99.0896 79.648 102.786 78.16 105.378 72.448L116.85 47.296H106.77L103.17 56.704L101.586 62.368H100.962L99.2336 56.8L95.0576 47.296H84.7856L96.3536 71.2C95.9696 71.392 95.3936 71.488 94.6736 71.488H87.6656V79.648H92.0336ZM141.814 71.968C152.614 71.968 159.094 66.832 159.094 58.24V57.424H149.014V58.24C149.014 61.888 147.286 63.328 141.958 63.328C135.43 63.328 133.654 61.792 133.654 55.408C133.654 49.024 135.43 47.488 141.958 47.488C147.286 47.488 149.014 48.928 149.014 52.576V53.392H159.094V52.576C159.094 43.984 152.614 38.848 141.814 38.848C130.63 38.848 124.054 45.376 124.054 55.408C124.054 65.44 130.63 71.968 141.814 71.968ZM170.495 71.488V59.008C170.495 55.888 171.503 54.88 175.679 54.88C179.807 54.88 181.103 55.936 181.103 59.296V71.488H190.127V56.272C190.127 50.896 187.055 46.816 180.623 46.816C174.431 46.816 171.743 50.56 170.975 54.64H170.495V39.328H161.471V71.488H170.495ZM206.223 71.968C214.623 71.968 220.335 67.216 220.335 59.392C220.335 51.52 214.623 46.816 206.223 46.816C197.823 46.816 192.111 51.52 192.111 59.392C192.111 67.216 197.823 71.968 206.223 71.968ZM206.223 64C202.143 64 201.039 62.896 201.039 59.392C201.039 55.888 202.143 54.736 206.223 54.736C210.303 54.736 211.407 55.888 211.407 59.392C211.407 62.896 210.303 64 206.223 64ZM235.895 71.968C244.295 71.968 250.007 67.216 250.007 59.392C250.007 51.52 244.295 46.816 235.895 46.816C227.495 46.816 221.783 51.52 221.783 59.392C221.783 67.216 227.495 71.968 235.895 71.968ZM235.895 64C231.815 64 230.711 62.896 230.711 59.392C230.711 55.888 231.815 54.736 235.895 54.736C239.975 54.736 241.079 55.888 241.079 59.392C241.079 62.896 239.975 64 235.895 64ZM265.182 71.968C273.198 71.968 277.71 68.704 277.71 64.192C277.71 60.112 275.454 57.76 268.398 56.992L263.598 56.464C260.766 56.176 260.382 55.84 260.382 55.168C260.382 54.256 260.766 53.872 263.694 53.872C267.342 53.872 267.822 54.448 267.822 55.696V55.984H276.846V55.792C276.846 49.84 272.382 46.816 263.982 46.816C254.91 46.816 251.502 50.512 251.502 54.784C251.502 58.864 254.19 61.216 259.182 61.744L266.19 62.512C268.446 62.752 268.83 62.944 268.83 63.712C268.83 64.528 268.35 64.864 265.23 64.864C261.966 64.864 261.102 64.72 261.102 63.376V62.896H252.078V63.088C252.078 68.656 256.638 71.968 265.182 71.968ZM293.366 71.968C301.526 71.968 306.661 68.176 306.661 62.8V62.224H297.638V62.752C297.638 64.192 296.678 64.816 293.03 64.816C289.19 64.816 287.894 64 287.75 61.072H306.71C306.806 60.208 306.854 59.584 306.854 58.768C306.854 50.992 301.526 46.816 293.174 46.816C285.11 46.816 279.398 51.52 279.398 59.392C279.398 68.464 285.158 71.968 293.366 71.968ZM292.982 53.728C296.342 53.728 297.782 54.448 298.118 56.512H287.894C288.278 54.448 289.67 53.728 292.982 53.728ZM332.195 71.968C343.427 71.968 348.611 66.544 348.611 58V39.328H339.587V57.28C339.587 61.84 338.291 63.232 332.195 63.232C326.099 63.232 324.803 61.84 324.803 57.28V39.328H315.779V58C315.779 66.544 320.963 71.968 332.195 71.968ZM360.339 45.088V39.328H351.315V45.088H360.339ZM360.339 71.488V47.296H351.315V71.488H360.339ZM374.309 71.488V54.688H380.741V47.296H373.733C373.685 46 374.885 45.76 377.381 45.76H380.741V39.328H378.821C370.901 39.328 366.437 42.736 365.477 47.296H362.021V54.688H365.285V71.488H374.309ZM391.698 71.488V57.04C391.698 55.12 392.418 54.4 394.866 54.4C397.218 54.4 397.986 55.12 397.986 57.136V59.968H407.01V55.168C407.01 50.32 404.898 46.816 399.57 46.816C394.77 46.816 392.274 49.648 391.602 53.632H391.122V47.296H382.674V71.488H391.698ZM414.252 79.648C421.308 79.648 425.004 78.16 427.596 72.448L439.068 47.296H428.988L425.388 56.704L423.804 62.368H423.18L421.452 56.8L417.276 47.296H407.004L418.572 71.2C418.188 71.392 417.612 71.488 416.892 71.488H409.884V79.648H414.252ZM456.897 60.784V60.544C456.897 59.536 457.089 58.864 458.817 58.192L462.417 56.848C465.441 55.696 468.945 53.776 468.945 48.496C468.945 43.12 465.105 38.848 455.121 38.848C443.457 38.848 439.089 44.704 439.089 51.232V52.672H447.969V50.368C447.969 48.112 449.313 47.056 454.449 47.056C459.441 47.056 459.921 47.824 459.921 48.832C459.921 49.888 459.153 50.32 457.281 50.992L453.921 52.24C450.897 53.344 447.873 54.976 447.873 59.008V60.784H456.897ZM457.569 71.488V62.992H447.249V71.488H457.569Z" fill="black"/>
<path d="M2.16 20.488L3.546 17.356H9.918L11.304 20.488H13.5L8.118 8.42804H5.382L0 20.488H2.16ZM5.958 11.938L6.66 10.228H6.804L7.506 11.938L9.144 15.61H4.32L5.958 11.938ZM22.878 20.488C26.622 20.488 28.98 18.184 28.98 14.458C28.98 10.732 26.622 8.42804 22.878 8.42804H17.388V20.488H22.878ZM22.878 10.174C25.668 10.174 26.928 11.362 26.928 14.458C26.928 17.554 25.668 18.742 22.878 18.742H19.314V10.174H22.878ZM40.2204 20.488L45.3684 8.42804H43.0824L38.9424 18.526H38.7984L34.6224 8.42804H32.3184L37.4664 20.488H40.2204ZM50.3332 20.488L51.7192 17.356H58.0912L59.4772 20.488H61.6732L56.2912 8.42804H53.5552L48.1732 20.488H50.3332ZM54.1312 11.938L54.8332 10.228H54.9772L55.6792 11.938L57.3172 15.61H52.4932L54.1312 11.938ZM71.4472 20.488V10.174H76.1812V8.42804H64.7692V10.174H69.5212V20.488H71.4472ZM82.1424 20.488V13.414L82.0704 11.326H82.2144L83.7264 13.45L89.1624 20.488H91.2504V8.42804H89.3064V15.556L89.3964 17.734H89.2524L87.6864 15.484L82.2864 8.42804H80.1984V20.488H82.1424ZM97.188 20.488L98.574 17.356H104.946L106.332 20.488H108.528L103.146 8.42804H100.41L95.028 20.488H97.188ZM100.986 11.938L101.688 10.228H101.832L102.534 11.938L104.172 15.61H99.348L100.986 11.938ZM117.852 20.668C120.21 20.668 121.74 19.642 122.244 17.878H122.37V20.488H124.134V14.332H117.744V15.808H122.208V15.97C122.208 18.004 121.074 18.796 118.194 18.796C115.368 18.796 114 17.464 114 14.458C114 11.452 115.386 10.102 118.284 10.102C120.786 10.102 121.992 11.038 121.992 12.766V12.91H124.134V12.766C124.134 9.97604 121.758 8.24804 118.338 8.24804C114.486 8.24804 111.948 10.696 111.948 14.458C111.948 18.22 114.306 20.668 117.852 20.668ZM138.301 20.488V18.742H130.597V15.286H138.031V13.558H130.597V10.174H138.301V8.42804H128.653V20.488H138.301ZM147.753 20.668C151.317 20.668 152.811 18.976 152.811 17.14C152.811 15.376 151.623 14.278 149.211 13.846L146.277 13.342C144.855 13.036 144.243 12.694 144.243 11.65C144.243 10.57 145.107 10.03 147.303 10.03C149.805 10.03 150.687 10.768 150.687 12.244V12.478H152.613V12.37C152.613 10.012 151.011 8.24804 147.483 8.24804C143.739 8.24804 142.299 10.012 142.299 11.758C142.299 13.738 143.739 14.674 145.773 15.034L148.725 15.52C150.255 15.808 150.867 16.204 150.867 17.248C150.867 18.382 150.057 18.886 147.753 18.886C145.107 18.886 144.261 18.166 144.261 16.726V16.438H142.317V16.546C142.317 19.084 144.153 20.668 147.753 20.668Z" fill="#FF5555"/>
</svg>
