<svg width="1090" height="60" viewBox="0 0 1090 60" fill="none" xmlns="http://www.w3.org/2000/svg">
<path d="M161.36 36V30.96H167.6V36H171.36V22.6H167.6V27.58H161.36V22.6H157.6V36H161.36ZM178.141 36.2C181.641 36.2 184.021 34.22 184.021 30.96C184.021 27.68 181.641 25.72 178.141 25.72C174.641 25.72 172.261 27.68 172.261 30.96C172.261 34.22 174.641 36.2 178.141 36.2ZM178.141 32.88C176.441 32.88 175.981 32.42 175.981 30.96C175.981 29.5 176.441 29.02 178.141 29.02C179.841 29.02 180.301 29.5 180.301 30.96C180.301 32.42 179.841 32.88 178.141 32.88ZM188.684 36V30.8C188.684 29.5 189.004 29.08 190.544 29.08C192.104 29.08 192.504 29.52 192.504 30.92V36H196.264V30.8C196.264 29.5 196.584 29.08 198.124 29.08C199.684 29.08 200.084 29.52 200.084 30.92V36H203.844V29.54C203.844 27.36 202.624 25.72 200.044 25.72C197.424 25.72 196.464 27.3 196.244 28.98H196.044C195.844 27.16 194.704 25.72 192.324 25.72C189.784 25.72 188.864 27.3 188.644 28.98H188.444V25.92H184.924V36H188.684ZM210.583 36.2C213.983 36.2 216.123 34.62 216.123 32.38V32.14H212.363V32.36C212.363 32.96 211.963 33.22 210.443 33.22C208.843 33.22 208.303 32.88 208.243 31.66H216.143C216.183 31.3 216.203 31.04 216.203 30.7C216.203 27.46 213.983 25.72 210.503 25.72C207.143 25.72 204.763 27.68 204.763 30.96C204.763 34.74 207.163 36.2 210.583 36.2ZM210.423 28.6C211.823 28.6 212.423 28.9 212.563 29.76H208.303C208.463 28.9 209.043 28.6 210.423 28.6Z" fill="#FF5555"/>
<path d="M243.4 36L244.94 32.52H252.02L253.56 36H256L250.02 22.6H246.98L241 36H243.4ZM247.62 26.5L248.4 24.6H248.56L249.34 26.5L251.16 30.58H245.8L247.62 26.5ZM258.98 36V33.14H259.12C259.54 35.12 261 36.2 263.26 36.2C266.42 36.2 268.12 34.1 268.12 31.04C268.12 27.94 266.44 25.86 263.38 25.86C261 25.86 259.68 27.08 259.28 28.76H259.16V22.6H257V36H258.98ZM259.16 31.14V30.98C259.16 28.86 260.38 27.82 262.62 27.82C264.74 27.82 265.96 28.64 265.96 31.04C265.96 33.42 264.76 34.22 262.58 34.22C260.44 34.22 259.16 33.22 259.16 31.14ZM274.697 36.2C278.017 36.2 280.237 34.1 280.237 31.04C280.237 27.94 278.017 25.86 274.697 25.86C271.397 25.86 269.177 27.94 269.177 31.04C269.177 34.1 271.397 36.2 274.697 36.2ZM274.697 34.28C272.297 34.28 271.297 33.14 271.297 31.04C271.297 28.92 272.297 27.76 274.697 27.76C277.117 27.76 278.117 28.92 278.117 31.04C278.117 33.14 277.117 34.28 274.697 34.28ZM285.945 36.2C288.505 36.2 289.825 34.6 290.145 32.92H290.265V36H292.245V26.06H290.105V30.98C290.105 33.14 289.085 34.26 286.885 34.26C284.785 34.26 283.925 33.32 283.925 31.46V26.06H281.785V32.04C281.785 34.34 283.145 36.2 285.945 36.2ZM300.727 36V34.06H298.927C297.687 34.06 297.127 33.74 297.127 32.52V27.86H300.727V26.06H297.127V23.88H294.987V26.06H293.307V27.86H294.987V32.64C294.987 35.06 296.307 36 298.447 36H300.727ZM311.696 36.2C315.716 36.2 317.996 34.08 317.996 30.44V22.6H315.836V30.3C315.836 33 314.636 34.12 311.696 34.12C308.756 34.12 307.556 33 307.556 30.3V22.6H305.416V30.44C305.416 34.08 307.696 36.2 311.696 36.2ZM324.61 36.2C327.41 36.2 329.25 35.1 329.25 33.24C329.25 31.6 328.17 30.8 325.81 30.5L323.51 30.18C322.01 29.98 321.61 29.7 321.61 28.92C321.61 27.98 322.25 27.58 324.07 27.58C326.27 27.58 326.87 28.2 326.87 29.38V29.5H329.01V29.44C329.01 27.08 327.17 25.86 324.13 25.86C321.07 25.86 319.49 27.1 319.49 28.84C319.49 30.5 320.63 31.3 322.51 31.54L325.23 31.9C326.65 32.1 327.13 32.36 327.13 33.18C327.13 34.06 326.55 34.46 324.61 34.46C322.53 34.46 321.75 34.04 321.75 32.74V32.58H319.59V32.64C319.59 34.94 321.41 36.2 324.61 36.2Z" fill="black"/>
<path d="M357.16 36V31.96H361.56C364.54 31.96 366.58 30.24 366.58 27.28C366.58 24.3 364.54 22.6 361.56 22.6H355V36H357.16ZM361.36 24.54C363.38 24.54 364.42 25.3 364.42 27.28C364.42 29.26 363.38 30.02 361.36 30.02H357.16V24.54H361.36ZM370.031 36V30.42C370.031 28.64 370.731 27.7 372.431 27.7C373.911 27.7 374.511 28.36 374.511 29.78V30.66H376.651V29.36C376.651 27.48 375.671 25.86 373.411 25.86C371.371 25.86 370.291 27.14 369.991 28.74H369.851V26.06H367.871V36H370.031ZM380.168 24.9V22.6H378.008V24.9H380.168ZM380.168 36V26.06H378.008V36H380.168ZM387.188 36.2C390.168 36.2 392.348 34.52 392.348 32.04V31.82H390.208V31.96C390.208 33.5 389.088 34.26 387.148 34.26C384.908 34.26 383.908 33.18 383.908 31.04C383.908 28.86 384.908 27.8 387.148 27.8C389.088 27.8 390.208 28.56 390.208 30.1V30.22H392.348V30.02C392.348 27.54 390.168 25.86 387.188 25.86C383.908 25.86 381.768 27.94 381.768 31.04C381.768 34.1 383.908 36.2 387.188 36.2ZM396.105 24.9V22.6H393.945V24.9H396.105ZM396.105 36V26.06H393.945V36H396.105ZM400.265 36V31.08C400.265 28.92 401.245 27.8 403.425 27.8C405.485 27.8 406.325 28.74 406.325 30.6V36H408.485V30.02C408.485 27.72 407.125 25.86 404.365 25.86C401.845 25.86 400.525 27.46 400.225 29.14H400.085V26.06H398.105V36H400.265ZM414.73 35.1C416.99 35.1 418.33 34.02 418.69 32.52H418.83V34.96C418.83 37.18 418.01 37.8 415.75 37.8C413.63 37.8 412.79 37.26 412.79 35.82H410.65C410.65 38.22 412.69 39.6 415.63 39.6C418.89 39.6 420.97 38.18 420.97 34.84V26.06H418.99V28.54H418.87C418.51 26.8 416.95 25.86 414.87 25.86C411.85 25.86 410.01 27.72 410.01 30.48C410.01 33.24 411.77 35.1 414.73 35.1ZM412.19 30.48C412.19 28.44 413.41 27.74 415.49 27.74C417.59 27.74 418.83 28.6 418.83 30.28V30.56C418.83 32.32 417.63 33.24 415.43 33.24C413.39 33.24 412.19 32.52 412.19 30.48Z" fill="black"/>
<path d="M449.16 36V30.62H457.36V28.7H449.16V24.54H457.66V22.6H447V36H449.16ZM464.266 36.2C467.226 36.2 469.306 34.74 469.306 32.62V32.44H467.146V32.6C467.146 33.78 466.286 34.46 464.206 34.46C461.906 34.46 460.966 33.44 460.886 31.52H469.326C469.386 31.22 469.406 30.94 469.406 30.58C469.406 27.56 467.306 25.86 464.226 25.86C460.986 25.86 458.866 27.94 458.866 31.04C458.866 34.36 461.006 36.2 464.266 36.2ZM464.186 27.56C466.306 27.56 467.366 28.44 467.366 30.28V30.32H460.906C461.026 28.54 461.986 27.56 464.186 27.56ZM473.943 36.2C476.203 36.2 477.783 35.2 478.303 33.52H478.443V36H480.423V29.96C480.423 27.58 479.003 25.86 475.843 25.86C472.683 25.86 470.803 27.56 470.803 29.82V29.9H472.943V29.82C472.943 28.36 473.843 27.76 475.683 27.76C477.583 27.76 478.303 28.34 478.303 29.98V30.56L473.783 31.04C471.823 31.26 470.583 32.06 470.583 33.6C470.583 35.24 471.883 36.2 473.943 36.2ZM472.743 33.46C472.743 32.68 473.283 32.42 474.403 32.28L478.303 31.84C478.303 33.8 476.783 34.64 474.523 34.64C473.283 34.64 472.743 34.26 472.743 33.46ZM488.872 36V34.06H487.072C485.832 34.06 485.272 33.74 485.272 32.52V27.86H488.872V26.06H485.272V23.88H483.132V26.06H481.452V27.86H483.132V32.64C483.132 35.06 484.452 36 486.592 36H488.872ZM494.363 36.2C496.923 36.2 498.243 34.6 498.563 32.92H498.683V36H500.663V26.06H498.523V30.98C498.523 33.14 497.503 34.26 495.303 34.26C493.203 34.26 492.343 33.32 492.343 31.46V26.06H490.203V32.04C490.203 34.34 491.563 36.2 494.363 36.2ZM504.785 36V30.42C504.785 28.64 505.485 27.7 507.185 27.7C508.665 27.7 509.265 28.36 509.265 29.78V30.66H511.405V29.36C511.405 27.48 510.425 25.86 508.165 25.86C506.125 25.86 505.045 27.14 504.745 28.74H504.605V26.06H502.625V36H504.785ZM517.762 36.2C520.722 36.2 522.802 34.74 522.802 32.62V32.44H520.642V32.6C520.642 33.78 519.782 34.46 517.702 34.46C515.402 34.46 514.462 33.44 514.382 31.52H522.822C522.882 31.22 522.902 30.94 522.902 30.58C522.902 27.56 520.802 25.86 517.722 25.86C514.482 25.86 512.362 27.94 512.362 31.04C512.362 34.36 514.502 36.2 517.762 36.2ZM517.682 27.56C519.802 27.56 520.862 28.44 520.862 30.28V30.32H514.402C514.522 28.54 515.482 27.56 517.682 27.56ZM529.22 36.2C532.02 36.2 533.86 35.1 533.86 33.24C533.86 31.6 532.78 30.8 530.42 30.5L528.12 30.18C526.62 29.98 526.22 29.7 526.22 28.92C526.22 27.98 526.86 27.58 528.68 27.58C530.88 27.58 531.48 28.2 531.48 29.38V29.5H533.62V29.44C533.62 27.08 531.78 25.86 528.74 25.86C525.68 25.86 524.1 27.1 524.1 28.84C524.1 30.5 525.24 31.3 527.12 31.54L529.84 31.9C531.26 32.1 531.74 32.36 531.74 33.18C531.74 34.06 531.16 34.46 529.22 34.46C527.14 34.46 526.36 34.04 526.36 32.74V32.58H524.2V32.64C524.2 34.94 526.02 36.2 529.22 36.2Z" fill="black"/>
<path d="M108.83 27V24.4683H108.046V23.908H110.245V24.4683H109.473V27H108.83ZM110.564 27V23.908H111.186L112.344 25.4436H112.054L113.179 23.908H113.801V27H113.158V24.6177L113.415 24.6758L112.224 26.2114H112.141L110.991 24.6758L111.207 24.6177V27H110.564Z" fill="black"/>
<path d="M46.5863 41.1301C47.6222 41.1301 48.5386 40.9408 49.3355 40.5623C50.1324 40.1639 50.74 39.5662 51.1583 38.7693V40.7715H55.3419V24.4555H50.8595V33.9881C50.8595 34.9244 50.5806 35.6815 50.0228 36.2592C49.465 36.817 48.7478 37.0959 47.8713 37.0959C46.9947 37.0959 46.2775 36.817 45.7197 36.2592C45.1619 35.6815 44.883 34.9244 44.883 33.9881V24.4555H40.4006V34.3467C40.4006 36.3787 40.9285 38.0223 41.9844 39.2773C43.0601 40.5125 44.5941 41.1301 46.5863 41.1301Z" fill="black"/>
<path d="M58.6181 22.9913H63.1005V18.5089H58.6181V22.9913ZM58.6181 40.7715H63.1005V24.4555H58.6181V40.7715Z" fill="black"/>
<path d="M68.3528 40.7715H72.8352V28.3403H76.3315V24.4555H72.8352V24.2165C72.8352 22.7622 73.6819 22.035 75.3752 22.035C75.6542 22.035 75.9829 22.0649 76.3614 22.1247V18.2997C75.9032 18.2001 75.3752 18.1503 74.7776 18.1503C72.7456 18.1503 71.1618 18.6782 70.0262 19.7341C68.9106 20.7899 68.3528 22.284 68.3528 24.2165V24.4555H65.6036V28.3403H68.3528V40.7715Z" fill="black"/>
<path d="M78.6371 40.7715H83.1195V31.986C83.1195 30.7707 83.4582 29.8344 84.1355 29.177C84.8129 28.4996 85.6994 28.161 86.7951 28.161H88.1996V24.2762H87.2433C86.2473 24.2762 85.3607 24.4655 84.5838 24.844C83.8268 25.2026 83.2391 25.8899 82.8207 26.9059V24.4555H78.6371V40.7715Z" fill="black"/>
<path d="M92.7042 47.4054C95.6924 47.4054 97.854 45.7021 99.1887 42.2955L106.181 24.4555H101.37L97.5153 34.9443L93.6604 24.4555H88.8493L95.2741 40.7715L94.9753 41.4588C94.7362 41.9967 94.4274 42.4748 94.0489 42.8932C93.6704 43.3115 93.0428 43.5207 92.1663 43.5207C91.4491 43.5207 90.7718 43.4211 90.1343 43.2219V46.8974C90.4729 47.0767 90.8614 47.2062 91.2997 47.2859C91.7579 47.3656 92.2261 47.4054 92.7042 47.4054Z" fill="black"/>
<path d="M26.3829 23.8852C26.1564 23.6651 25.8387 23.5651 25.5277 23.6163C25.2162 23.6672 24.9472 23.8628 24.8027 24.1434C24.3057 25.1089 23.6745 25.9961 22.9318 26.7805C23.0058 26.2139 23.0431 25.6439 23.0431 25.0724C23.0431 23.9759 22.8961 22.8474 22.6061 21.7181C21.6527 18.0085 19.1525 14.8714 15.7468 13.1112C15.4503 12.958 15.097 12.9634 14.8053 13.1255C14.5136 13.2878 14.3226 13.5852 14.2964 13.9179C14.0309 17.289 12.2945 20.3559 9.52981 22.3342C9.49322 22.3606 9.4569 22.3873 9.42057 22.4139C9.34534 22.4689 9.27441 22.521 9.20814 22.5647C9.19778 22.5716 9.18749 22.5786 9.17739 22.5858C7.43861 23.8308 6.00391 25.4903 5.0282 27.3854C4.03675 29.3131 3.53406 31.3818 3.53406 33.5336C3.53406 34.6299 3.68101 35.7583 3.97088 36.8879C5.50055 42.8417 10.8585 46.9999 17.0004 46.9999C24.4253 46.9999 30.4659 40.9589 30.4659 33.5336C30.4659 29.872 29.0159 26.4454 26.3829 23.8852Z" fill="#FF5555"/>
<circle cx="16" cy="33" r="4" fill="white"/>
<rect x="910" width="180" height="60" rx="4" fill="black"/>
<path d="M962.498 36C966.242 36 968.6 33.696 968.6 29.97C968.6 26.244 966.242 23.94 962.498 23.94H957.008V36H962.498ZM962.498 25.686C965.288 25.686 966.548 26.874 966.548 29.97C966.548 33.066 965.288 34.254 962.498 34.254H958.934V25.686H962.498ZM974.62 36.18C977.608 36.18 979.606 34.29 979.606 31.536C979.606 28.746 977.608 26.874 974.62 26.874C971.65 26.874 969.652 28.746 969.652 31.536C969.652 34.29 971.65 36.18 974.62 36.18ZM974.62 34.452C972.46 34.452 971.56 33.426 971.56 31.536C971.56 29.628 972.46 28.584 974.62 28.584C976.798 28.584 977.698 29.628 977.698 31.536C977.698 33.426 976.798 34.452 974.62 34.452ZM985.301 36L987.281 30.852L987.965 28.656H988.109L988.793 30.852L990.755 36H993.167L995.885 27.054H993.905L992.411 32.13L991.997 34.434H991.853L991.187 31.95L989.297 27.054H986.813L984.941 31.95L984.275 34.434H984.131L983.717 32.13L982.223 27.054H980.207L982.889 36H985.301ZM998.817 36V31.572C998.817 29.628 999.699 28.62 1001.66 28.62C1003.51 28.62 1004.27 29.466 1004.27 31.14V36H1006.21V30.618C1006.21 28.548 1004.99 26.874 1002.51 26.874C1000.24 26.874 999.051 28.314 998.781 29.826H998.655V27.054H996.873V36H998.817ZM1009.89 36V23.94H1007.95V36H1009.89ZM1016.26 36.18C1019.25 36.18 1021.25 34.29 1021.25 31.536C1021.25 28.746 1019.25 26.874 1016.26 26.874C1013.29 26.874 1011.3 28.746 1011.3 31.536C1011.3 34.29 1013.29 36.18 1016.26 36.18ZM1016.26 34.452C1014.1 34.452 1013.2 33.426 1013.2 31.536C1013.2 29.628 1014.1 28.584 1016.26 28.584C1018.44 28.584 1019.34 29.628 1019.34 31.536C1019.34 33.426 1018.44 34.452 1016.26 34.452ZM1025.29 36.18C1027.32 36.18 1028.74 35.28 1029.21 33.768H1029.34V36H1031.12V30.564C1031.12 28.422 1029.84 26.874 1027 26.874C1024.15 26.874 1022.46 28.404 1022.46 30.438V30.51H1024.39V30.438C1024.39 29.124 1025.2 28.584 1026.85 28.584C1028.56 28.584 1029.21 29.106 1029.21 30.582V31.104L1025.14 31.536C1023.38 31.734 1022.26 32.454 1022.26 33.84C1022.26 35.316 1023.43 36.18 1025.29 36.18ZM1024.21 33.714C1024.21 33.012 1024.69 32.778 1025.7 32.652L1029.21 32.256C1029.21 34.02 1027.84 34.776 1025.81 34.776C1024.69 34.776 1024.21 34.434 1024.21 33.714ZM1036.8 36.18C1038.81 36.18 1040.13 35.208 1040.51 33.426H1040.63V36H1042.41V23.94H1040.47V29.484H1040.36C1040 27.972 1038.8 26.874 1036.67 26.874C1033.95 26.874 1032.41 28.746 1032.41 31.536C1032.41 34.29 1033.97 36.18 1036.8 36.18ZM1034.37 31.536C1034.37 29.376 1035.48 28.638 1037.36 28.638C1039.35 28.638 1040.47 29.574 1040.47 31.482V31.626C1040.47 33.498 1039.3 34.398 1037.39 34.398C1035.47 34.398 1034.37 33.678 1034.37 31.536Z" fill="white"/>
</svg>
