<svg width="359" height="80" viewBox="0 0 359 80" fill="none" xmlns="http://www.w3.org/2000/svg">
<path d="M17.664 71.48C28.896 71.48 34.08 66.056 34.08 57.512V38.84H25.056V56.792C25.056 61.352 23.76 62.744 17.664 62.744C11.568 62.744 10.272 61.352 10.272 56.792V38.84H1.248V57.512C1.248 66.056 6.432 71.48 17.664 71.48ZM45.8078 44.6V38.84H36.7838V44.6H45.8078ZM45.8078 71V46.808H36.7838V71H45.8078ZM59.778 71V54.2H66.21V46.808H59.202C59.154 45.512 60.354 45.272 62.85 45.272H66.21V38.84H64.29C56.37 38.84 51.906 42.248 50.946 46.808H47.49V54.2H50.754V71H59.778ZM77.1671 71V56.552C77.1671 54.632 77.8871 53.912 80.3351 53.912C82.6871 53.912 83.4551 54.632 83.4551 56.648V59.48H92.4791V54.68C92.4791 49.832 90.3671 46.328 85.0391 46.328C80.2391 46.328 77.7431 49.16 77.0711 53.144H76.5911V46.808H68.1431V71H77.1671ZM99.7211 79.16C106.777 79.16 110.473 77.672 113.065 71.96L124.537 46.808H114.457L110.857 56.216L109.273 61.88H108.649L106.921 56.312L102.745 46.808H92.4731L104.041 70.712C103.657 70.904 103.081 71 102.361 71H95.3531V79.16H99.7211ZM141.245 71V62.888H150.029C157.661 62.888 162.461 58.472 162.461 50.84C162.461 43.208 157.661 38.84 150.029 38.84H132.221V71H141.245ZM149.021 46.952C152.189 46.952 153.485 47.576 153.485 50.84C153.485 54.152 152.189 54.776 149.021 54.776H141.245V46.952H149.021ZM173.402 71V56.552C173.402 54.632 174.122 53.912 176.57 53.912C178.922 53.912 179.69 54.632 179.69 56.648V59.48H188.714V54.68C188.714 49.832 186.602 46.328 181.274 46.328C176.474 46.328 173.978 49.16 173.306 53.144H172.826V46.808H164.378V71H173.402ZM204.116 71.48C212.276 71.48 217.411 67.688 217.411 62.312V61.736H208.388V62.264C208.388 63.704 207.428 64.328 203.78 64.328C199.94 64.328 198.644 63.512 198.5 60.584H217.46C217.556 59.72 217.604 59.096 217.604 58.28C217.604 50.504 212.276 46.328 203.924 46.328C195.86 46.328 190.148 51.032 190.148 58.904C190.148 67.976 195.908 71.48 204.116 71.48ZM203.732 53.24C207.092 53.24 208.532 53.96 208.868 56.024H198.644C199.028 53.96 200.42 53.24 203.732 53.24ZM229.042 71V58.52C229.042 55.4 229.81 54.392 233.506 54.392C237.25 54.392 238.21 55.448 238.21 58.808V71H247.234V58.52C247.234 55.4 248.002 54.392 251.698 54.392C255.442 54.392 256.402 55.448 256.402 58.808V71H265.426V55.496C265.426 50.264 262.498 46.328 256.306 46.328C250.018 46.328 247.714 50.12 247.186 54.152H246.706C246.226 49.784 243.49 46.328 237.778 46.328C231.682 46.328 229.474 50.12 228.946 54.152H228.466V46.808H220.018V71H229.042ZM277.136 44.6V38.84H268.112V44.6H277.136ZM277.136 71V46.808H268.112V71H277.136ZM289.954 71.48C296.53 71.48 299.218 67.688 299.746 63.656H300.226V71H308.674V46.808H299.65V59.288C299.65 62.408 298.642 63.416 294.466 63.416C290.338 63.416 289.042 62.36 289.042 59V46.808H280.018V62.312C280.018 67.544 283.186 71.48 289.954 71.48ZM320.402 71V58.52C320.402 55.4 321.17 54.392 324.866 54.392C328.61 54.392 329.57 55.448 329.57 58.808V71H338.594V58.52C338.594 55.4 339.362 54.392 343.058 54.392C346.802 54.392 347.762 55.448 347.762 58.808V71H356.786V55.496C356.786 50.264 353.858 46.328 347.666 46.328C341.378 46.328 339.074 50.12 338.546 54.152H338.066C337.586 49.784 334.85 46.328 329.138 46.328C323.042 46.328 320.834 50.12 320.306 54.152H319.826V46.808H311.378V71H320.402Z" fill="black"/>
<path d="M2.844 20V15.158H10.224V13.43H2.844V9.686H10.494V7.94H0.9V20H2.844ZM24.4671 20V18.254H16.7631V14.798H24.1971V13.07H16.7631V9.686H24.4671V7.94H14.8191V20H24.4671ZM30.1212 20L31.5072 16.868H37.8792L39.2652 20H41.4612L36.0792 7.94H33.3432L27.9612 20H30.1212ZM33.9192 11.45L34.6212 9.74H34.7652L35.4672 11.45L37.1052 15.122H32.2812L33.9192 11.45ZM51.2352 20V9.686H55.9692V7.94H44.5572V9.686H49.3092V20H51.2352ZM65.5664 20.18C69.1844 20.18 71.2364 18.272 71.2364 14.996V7.94H69.2924V14.87C69.2924 17.3 68.2124 18.308 65.5664 18.308C62.9204 18.308 61.8404 17.3 61.8404 14.87V7.94H59.9144V14.996C59.9144 18.272 61.9664 20.18 65.5664 20.18ZM77.7831 20V15.32H79.9971C81.5091 15.32 82.0671 15.716 82.6071 16.67L84.5331 20H86.7651L84.7491 16.508C84.3171 15.752 83.8851 15.212 82.9491 14.96V14.834C85.2171 14.708 86.5311 13.484 86.5311 11.486C86.5311 9.236 84.8391 7.94 82.1031 7.94H75.8391V20H77.7831ZM77.7831 9.686H82.0851C83.7051 9.686 84.5151 10.28 84.5151 11.756C84.5151 13.268 83.7051 13.826 82.0851 13.826H77.7831V9.686ZM100.461 20V18.254H92.7568V14.798H100.191V13.07H92.7568V9.686H100.461V7.94H90.8128V20H100.461ZM109.913 20.18C113.477 20.18 114.971 18.488 114.971 16.652C114.971 14.888 113.783 13.79 111.371 13.358L108.437 12.854C107.015 12.548 106.403 12.206 106.403 11.162C106.403 10.082 107.267 9.542 109.463 9.542C111.965 9.542 112.847 10.28 112.847 11.756V11.99H114.773V11.882C114.773 9.524 113.171 7.76 109.643 7.76C105.899 7.76 104.459 9.524 104.459 11.27C104.459 13.25 105.899 14.186 107.933 14.546L110.885 15.032C112.415 15.32 113.027 15.716 113.027 16.76C113.027 17.894 112.217 18.398 109.913 18.398C107.267 18.398 106.421 17.678 106.421 16.238V15.95H104.477V16.058C104.477 18.596 106.313 20.18 109.913 20.18Z" fill="#FF5555"/>
</svg>
