<svg width="638" height="96" viewBox="0 0 638 96" fill="none" xmlns="http://www.w3.org/2000/svg">
<path d="M40.244 20C42.944 20 44.204 18.704 44.204 16.652C44.204 15.032 43.124 13.916 40.892 13.754V13.592C42.908 13.448 43.7 12.368 43.7 10.874C43.7 8.984 42.368 7.94 39.902 7.94H32.666V20H40.244ZM35.366 10.37H39.56C40.568 10.37 41 10.73 41 11.558C41 12.386 40.586 12.728 39.596 12.728H35.366V10.37ZM35.366 14.96H39.92C41.018 14.96 41.468 15.302 41.468 16.256C41.468 17.228 41.018 17.57 39.92 17.57H35.366V14.96ZM48.9265 20.18C51.3025 20.18 52.4005 18.758 52.6345 17.246H52.7785V20H55.2985V10.982H52.5985V15.554C52.5985 17.084 51.9685 17.768 50.2045 17.768C48.4945 17.768 47.8825 17.156 47.8825 15.698V10.982H45.1825V16.598C45.1825 18.614 46.3885 20.18 48.9265 20.18ZM60.711 20.18C62.781 20.18 63.969 19.28 64.311 17.498H64.455V20H66.975V7.94H64.275V13.376H64.113C63.807 11.864 62.709 10.802 60.567 10.802C57.885 10.802 56.355 12.62 56.355 15.5C56.355 18.344 57.903 20.18 60.711 20.18ZM59.091 15.5C59.091 13.844 59.901 13.268 61.629 13.268C63.357 13.268 64.275 13.844 64.275 15.41V15.554C64.275 17.12 63.339 17.714 61.629 17.714C59.901 17.714 59.091 17.138 59.091 15.5ZM72.3636 19.082C74.3796 19.082 75.4416 18.164 75.7296 16.832H75.8736V18.866C75.8736 20.63 75.3516 20.99 73.6236 20.99C71.7876 20.99 71.3916 20.684 71.3916 19.676H68.6916C68.6916 21.944 70.5276 23.24 73.4436 23.24C76.6656 23.24 78.5736 21.836 78.5736 18.686V10.982H76.0536V13.16H75.9096C75.6216 11.594 74.3076 10.802 72.4716 10.802C69.7716 10.802 68.1336 12.422 68.1336 14.942C68.1336 17.48 69.6816 19.082 72.3636 19.082ZM70.8516 14.942C70.8516 13.61 71.6076 13.142 73.3356 13.142C75.0096 13.142 75.8736 13.61 75.8736 14.834V15.032C75.8736 16.274 75.0276 16.76 73.2996 16.76C71.6076 16.76 70.8516 16.274 70.8516 14.942ZM84.7932 20.18C87.6552 20.18 89.5632 18.812 89.5632 16.85V16.652H86.8632V16.832C86.8632 17.606 86.3052 18.02 84.7032 18.02C82.9572 18.02 82.3092 17.426 82.2372 16.04H89.5812C89.6172 15.734 89.6532 15.5 89.6532 15.176C89.6532 12.35 87.6912 10.802 84.7392 10.802C81.7692 10.802 79.7352 12.62 79.7352 15.5C79.7352 18.704 81.7872 20.18 84.7932 20.18ZM84.6852 12.908C86.2692 12.908 86.9892 13.43 87.0612 14.618H82.2732C82.3992 13.448 83.0832 12.908 84.6852 12.908ZM97.1521 20V17.57H95.5321C94.5781 17.57 94.2361 17.336 94.2361 16.436V13.214H97.1521V10.982H94.2361V9.236H91.5361V10.982H90.1141V13.214H91.5361V16.742C91.5361 19.01 92.8141 20 94.9201 20H97.1521ZM100.863 10.064V7.94H98.1634V10.064H100.863ZM100.863 20V10.982H98.1634V20H100.863ZM104.977 20V15.446C104.977 13.916 105.589 13.232 107.299 13.232C108.955 13.232 109.549 13.844 109.549 15.284V20H112.249V14.384C112.249 12.386 111.079 10.802 108.613 10.802C106.255 10.802 105.175 12.242 104.941 13.754H104.779V10.982H102.277V20H104.977ZM117.575 19.082C119.591 19.082 120.653 18.164 120.941 16.832H121.085V18.866C121.085 20.63 120.563 20.99 118.835 20.99C116.999 20.99 116.603 20.684 116.603 19.676H113.903C113.903 21.944 115.739 23.24 118.655 23.24C121.877 23.24 123.785 21.836 123.785 18.686V10.982H121.265V13.16H121.121C120.833 11.594 119.519 10.802 117.683 10.802C114.983 10.802 113.345 12.422 113.345 14.942C113.345 17.48 114.893 19.082 117.575 19.082ZM116.063 14.942C116.063 13.61 116.819 13.142 118.547 13.142C120.221 13.142 121.085 13.61 121.085 14.834V15.032C121.085 16.274 120.239 16.76 118.511 16.76C116.819 16.76 116.063 16.274 116.063 14.942ZM130.693 20V7.94H127.993V20H130.693ZM134.807 20V15.446C134.807 13.916 135.419 13.232 137.129 13.232C138.785 13.232 139.379 13.844 139.379 15.284V20H142.079V14.384C142.079 12.386 140.909 10.802 138.443 10.802C136.085 10.802 135.005 12.242 134.771 13.754H134.609V10.982H132.107V20H134.807ZM149.799 20V17.57H148.179C147.225 17.57 146.883 17.336 146.883 16.436V13.214H149.799V10.982H146.883V9.236H144.183V10.982H142.761V13.214H144.183V16.742C144.183 19.01 145.461 20 147.567 20H149.799ZM155.598 20.18C158.46 20.18 160.368 18.812 160.368 16.85V16.652H157.668V16.832C157.668 17.606 157.11 18.02 155.508 18.02C153.762 18.02 153.114 17.426 153.042 16.04H160.386C160.422 15.734 160.458 15.5 160.458 15.176C160.458 12.35 158.496 10.802 155.544 10.802C152.574 10.802 150.54 12.62 150.54 15.5C150.54 18.704 152.592 20.18 155.598 20.18ZM155.49 12.908C157.074 12.908 157.794 13.43 157.866 14.618H153.078C153.204 13.448 153.888 12.908 155.49 12.908ZM164.303 20V14.78C164.303 13.646 164.735 13.088 165.941 13.088C167.039 13.088 167.435 13.52 167.435 14.51V15.446H170.135V13.952C170.135 12.188 169.307 10.802 167.291 10.802C165.473 10.802 164.519 11.918 164.267 13.376H164.105V10.982H161.603V20H164.303ZM177.827 20L181.949 10.982H178.997L176.279 17.372H176.099L173.399 10.982H170.393L174.497 20H177.827ZM185.433 20.18C187.431 20.18 188.691 19.334 189.105 17.93H189.249V20H191.769V14.708C191.769 12.35 190.347 10.802 187.341 10.802C184.371 10.802 182.499 12.35 182.499 14.582V14.636H185.217V14.564C185.217 13.538 185.775 13.178 187.143 13.178C188.583 13.178 189.105 13.502 189.105 14.672V15.014L185.235 15.41C183.309 15.608 182.319 16.436 182.319 17.768C182.319 19.28 183.489 20.18 185.433 20.18ZM185.037 17.588C185.037 17.156 185.325 16.976 185.973 16.922L189.105 16.562C189.033 17.84 188.043 18.272 186.207 18.272C185.415 18.272 185.037 18.074 185.037 17.588ZM195.838 20V7.94H193.138V20H195.838ZM201.805 20.18C204.595 20.18 206.269 19.064 206.269 17.372C206.269 15.878 205.369 15.068 202.957 14.798L201.031 14.564C199.843 14.42 199.591 14.222 199.591 13.754C199.591 13.178 199.933 12.944 201.283 12.944C202.939 12.944 203.299 13.322 203.299 14.06V14.168H205.999V14.114C205.999 11.918 204.325 10.802 201.373 10.802C198.277 10.802 196.927 12.062 196.927 13.646C196.927 15.158 197.935 15.968 199.735 16.166L202.273 16.472C203.335 16.616 203.605 16.76 203.605 17.264C203.605 17.804 203.263 18.038 201.823 18.038C200.293 18.038 199.789 17.822 199.789 17.012V16.85H197.089V16.904C197.089 18.992 198.763 20.18 201.805 20.18Z" fill="black"/>
<path d="M12 4L10.6985 9.20599C10.4445 10.2218 10.3176 10.7298 10.0531 11.1431C9.81915 11.5087 9.50868 11.8192 9.14309 12.0531C8.72978 12.3176 8.22185 12.4445 7.20599 12.6985L2 14L7.20599 15.3015C8.22185 15.5555 8.72978 15.6824 9.14309 15.9469C9.50868 16.1808 9.81915 16.4913 10.0531 16.8569C10.3176 17.2702 10.4445 17.7782 10.6985 18.794L12 24L13.3015 18.794C13.5555 17.7782 13.6824 17.2702 13.9469 16.8569C14.1808 16.4913 14.4913 16.1808 14.8569 15.9469C15.2702 15.6824 15.7782 15.5555 16.794 15.3015L22 14L16.794 12.6985C15.7782 12.4445 15.2702 12.3176 14.8569 12.0531C14.4913 11.8192 14.1808 11.5087 13.9469 11.1431C13.6824 10.7298 13.5555 10.2218 13.3015 9.20599L12 4Z" stroke="#FF5555" stroke-width="2" stroke-linecap="round" stroke-linejoin="round"/>
<path opacity="0.5" d="M6.768 60.18C10.188 60.18 12.546 58.38 12.546 55.482V55.248H10.404V55.482C10.404 57.336 9.234 58.308 6.786 58.308C3.96 58.308 2.592 56.976 2.592 53.97C2.592 50.964 3.96 49.614 6.786 49.614C9.234 49.614 10.404 50.604 10.404 52.44V52.692H12.546V52.44C12.546 49.56 10.17 47.76 6.768 47.76C3.024 47.76 0.54 50.208 0.54 53.97C0.54 57.732 3.024 60.18 6.768 60.18ZM17.7041 60.18C20.0081 60.18 21.1961 58.74 21.4841 57.228H21.5921V60H23.3741V51.054H21.4481V55.482C21.4481 57.426 20.5301 58.434 18.5501 58.434C16.6601 58.434 15.8861 57.588 15.8861 55.914V51.054H13.9601V56.436C13.9601 58.506 15.1841 60.18 17.7041 60.18ZM27.0842 60V55.572C27.0842 53.592 27.7502 52.62 29.6762 52.62C31.4042 52.62 32.0882 53.376 32.0882 55.14V60H34.0142V55.572C34.0142 53.592 34.6982 52.62 36.6062 52.62C38.3342 52.62 39.0362 53.376 39.0362 55.14V60H40.9622V54.618C40.9622 52.458 39.7922 50.874 37.4702 50.874C35.2022 50.874 34.1942 52.296 33.9602 53.826H33.8522C33.6002 52.116 32.5022 50.874 30.4682 50.874C28.2362 50.874 27.2642 52.26 27.0302 53.754H26.9222V51.054H25.1402V60H27.0842ZM55.425 60V58.254H47.721V54.798H55.155V53.07H47.721V49.686H55.425V47.94H45.777V60H55.425ZM62.8071 60V58.254H61.1871C60.0711 58.254 59.5671 57.966 59.5671 56.868V52.674H62.8071V51.054H59.5671V49.092H57.6411V51.054H56.1291V52.674H57.6411V56.976C57.6411 59.154 58.8291 60 60.7551 60H62.8071ZM72.9672 60.18C76.3872 60.18 78.7452 58.38 78.7452 55.482V55.248H76.6032V55.482C76.6032 57.336 75.4332 58.308 72.9852 58.308C70.1592 58.308 68.7912 56.976 68.7912 53.97C68.7912 50.964 70.1592 49.614 72.9852 49.614C75.4332 49.614 76.6032 50.604 76.6032 52.44V52.692H78.7452V52.44C78.7452 49.56 76.3692 47.76 72.9672 47.76C69.2232 47.76 66.7392 50.208 66.7392 53.97C66.7392 57.732 69.2232 60.18 72.9672 60.18ZM84.7493 60.18C87.7373 60.18 89.7353 58.29 89.7353 55.536C89.7353 52.746 87.7373 50.874 84.7493 50.874C81.7793 50.874 79.7813 52.746 79.7813 55.536C79.7813 58.29 81.7793 60.18 84.7493 60.18ZM84.7493 58.452C82.5893 58.452 81.6893 57.426 81.6893 55.536C81.6893 53.628 82.5893 52.584 84.7493 52.584C86.9273 52.584 87.8273 53.628 87.8273 55.536C87.8273 57.426 86.9273 58.452 84.7493 58.452ZM93.0901 60V55.572C93.0901 53.628 93.9721 52.62 95.9341 52.62C97.7881 52.62 98.5441 53.466 98.5441 55.14V60H100.488V54.618C100.488 52.548 99.2641 50.874 96.7801 50.874C94.5121 50.874 93.3241 52.314 93.0541 53.826H92.9281V51.054H91.1461V60H93.0901ZM107.962 60L112.174 51.054H110.068L106.882 58.11H106.738L103.552 51.054H101.41L105.586 60H107.962ZM115.799 60.18C117.833 60.18 119.255 59.28 119.723 57.768H119.849V60H121.631V54.564C121.631 52.422 120.353 50.874 117.509 50.874C114.665 50.874 112.973 52.404 112.973 54.438V54.51H114.899V54.438C114.899 53.124 115.709 52.584 117.365 52.584C119.075 52.584 119.723 53.106 119.723 54.582V55.104L115.655 55.536C113.891 55.734 112.775 56.454 112.775 57.84C112.775 59.316 113.945 60.18 115.799 60.18ZM114.719 57.714C114.719 57.012 115.205 56.778 116.213 56.652L119.723 56.256C119.723 58.02 118.355 58.776 116.321 58.776C115.205 58.776 114.719 58.434 114.719 57.714ZM125.311 60V47.94H123.367V60H125.311ZM129.055 60V47.94H127.111V60H129.055ZM132.799 50.01V47.94H130.855V50.01H132.799ZM132.799 60V51.054H130.855V60H132.799ZM138.829 60.18C141.349 60.18 143.005 59.19 143.005 57.516C143.005 56.04 142.033 55.32 139.909 55.05L137.839 54.762C136.489 54.582 136.129 54.33 136.129 53.628C136.129 52.782 136.705 52.422 138.343 52.422C140.323 52.422 140.863 52.98 140.863 54.042V54.15H142.789V54.096C142.789 51.972 141.133 50.874 138.397 50.874C135.643 50.874 134.221 51.99 134.221 53.556C134.221 55.05 135.247 55.77 136.939 55.986L139.387 56.31C140.665 56.49 141.097 56.724 141.097 57.462C141.097 58.254 140.575 58.614 138.829 58.614C136.957 58.614 136.255 58.236 136.255 57.066V56.922H134.311V56.976C134.311 59.046 135.949 60.18 138.829 60.18ZM149.428 60V55.32H151.642C153.154 55.32 153.712 55.716 154.252 56.67L156.178 60H158.41L156.394 56.508C155.962 55.752 155.53 55.212 154.594 54.96V54.834C156.862 54.708 158.176 53.484 158.176 51.486C158.176 49.236 156.484 47.94 153.748 47.94H147.484V60H149.428ZM149.428 49.686H153.73C155.35 49.686 156.16 50.28 156.16 51.756C156.16 53.268 155.35 53.826 153.73 53.826H149.428V49.686ZM161.522 50.01V47.94H159.578V50.01H161.522ZM161.522 60V51.054H159.578V60H161.522ZM167.552 60.18C170.072 60.18 171.728 59.19 171.728 57.516C171.728 56.04 170.756 55.32 168.632 55.05L166.562 54.762C165.212 54.582 164.852 54.33 164.852 53.628C164.852 52.782 165.428 52.422 167.066 52.422C169.046 52.422 169.586 52.98 169.586 54.042V54.15H171.512V54.096C171.512 51.972 169.856 50.874 167.12 50.874C164.366 50.874 162.944 51.99 162.944 53.556C162.944 55.05 163.97 55.77 165.662 55.986L168.11 56.31C169.388 56.49 169.82 56.724 169.82 57.462C169.82 58.254 169.298 58.614 167.552 58.614C165.68 58.614 164.978 58.236 164.978 57.066V56.922H163.034V56.976C163.034 59.046 164.672 60.18 167.552 60.18ZM176.856 60.18C179.16 60.18 180.348 58.74 180.636 57.228H180.744V60H182.526V51.054H180.6V55.482C180.6 57.426 179.682 58.434 177.702 58.434C175.812 58.434 175.038 57.588 175.038 55.914V51.054H173.112V56.436C173.112 58.506 174.336 60.18 176.856 60.18ZM188.523 60.18C191.043 60.18 192.699 59.19 192.699 57.516C192.699 56.04 191.727 55.32 189.603 55.05L187.533 54.762C186.183 54.582 185.823 54.33 185.823 53.628C185.823 52.782 186.399 52.422 188.037 52.422C190.017 52.422 190.557 52.98 190.557 54.042V54.15H192.483V54.096C192.483 51.972 190.827 50.874 188.091 50.874C185.337 50.874 183.915 51.99 183.915 53.556C183.915 55.05 184.941 55.77 186.633 55.986L189.081 56.31C190.359 56.49 190.791 56.724 190.791 57.462C190.791 58.254 190.269 58.614 188.523 58.614C186.651 58.614 185.949 58.236 185.949 57.066V56.922H184.005V56.976C184.005 59.046 185.643 60.18 188.523 60.18ZM199.121 60V56.364H203.081C205.763 56.364 207.599 54.816 207.599 52.152C207.599 49.47 205.763 47.94 203.081 47.94H197.177V60H199.121ZM202.901 49.686C204.719 49.686 205.655 50.37 205.655 52.152C205.655 53.934 204.719 54.618 202.901 54.618H199.121V49.686H202.901ZM210.705 60V47.94H208.761V60H210.705ZM215.133 60.18C217.167 60.18 218.589 59.28 219.057 57.768H219.183V60H220.965V54.564C220.965 52.422 219.687 50.874 216.843 50.874C213.999 50.874 212.307 52.404 212.307 54.438V54.51H214.233V54.438C214.233 53.124 215.043 52.584 216.699 52.584C218.409 52.584 219.057 53.106 219.057 54.582V55.104L214.989 55.536C213.225 55.734 212.109 56.454 212.109 57.84C212.109 59.316 213.279 60.18 215.133 60.18ZM214.053 57.714C214.053 57.012 214.539 56.778 215.547 56.652L219.057 56.256C219.057 58.02 217.689 58.776 215.655 58.776C214.539 58.776 214.053 58.434 214.053 57.714ZM227.219 60.18C229.901 60.18 231.863 58.668 231.863 56.436V56.238H229.937V56.364C229.937 57.75 228.929 58.434 227.183 58.434C225.167 58.434 224.267 57.462 224.267 55.536C224.267 53.574 225.167 52.62 227.183 52.62C228.929 52.62 229.937 53.304 229.937 54.69V54.798H231.863V54.618C231.863 52.386 229.901 50.874 227.219 50.874C224.267 50.874 222.341 52.746 222.341 55.536C222.341 58.29 224.267 60.18 227.219 60.18ZM237.8 60.18C240.464 60.18 242.336 58.866 242.336 56.958V56.796H240.392V56.94C240.392 58.002 239.618 58.614 237.746 58.614C235.676 58.614 234.83 57.696 234.758 55.968H242.354C242.408 55.698 242.426 55.446 242.426 55.122C242.426 52.404 240.536 50.874 237.764 50.874C234.848 50.874 232.94 52.746 232.94 55.536C232.94 58.524 234.866 60.18 237.8 60.18ZM237.728 52.404C239.636 52.404 240.59 53.196 240.59 54.852V54.888H234.776C234.884 53.286 235.748 52.404 237.728 52.404ZM245.826 60V54.978C245.826 53.376 246.456 52.53 247.986 52.53C249.318 52.53 249.858 53.124 249.858 54.402V55.194H251.784V54.024C251.784 52.332 250.902 50.874 248.868 50.874C247.032 50.874 246.06 52.026 245.79 53.466H245.664V51.054H243.882V60H245.826ZM255.633 60.18C257.667 60.18 259.089 59.28 259.557 57.768H259.683V60H261.465V54.564C261.465 52.422 260.187 50.874 257.343 50.874C254.499 50.874 252.807 52.404 252.807 54.438V54.51H254.733V54.438C254.733 53.124 255.543 52.584 257.199 52.584C258.909 52.584 259.557 53.106 259.557 54.582V55.104L255.489 55.536C253.725 55.734 252.609 56.454 252.609 57.84C252.609 59.316 253.779 60.18 255.633 60.18ZM254.553 57.714C254.553 57.012 255.039 56.778 256.047 56.652L259.557 56.256C259.557 58.02 258.189 58.776 256.155 58.776C255.039 58.776 254.553 58.434 254.553 57.714ZM269.069 60V58.254H267.449C266.333 58.254 265.829 57.966 265.829 56.868V52.674H269.069V51.054H265.829V49.092H263.903V51.054H262.391V52.674H263.903V56.976C263.903 59.154 265.091 60 267.017 60H269.069ZM274.621 60L276.007 56.868H282.379L283.765 60H285.961L280.579 47.94H277.843L272.461 60H274.621ZM278.419 51.45L279.121 49.74H279.265L279.967 51.45L281.605 55.122H276.781L278.419 51.45ZM288.805 60V47.94H286.861V60H288.805ZM292.549 50.01V47.94H290.605V50.01H292.549ZM292.549 60V51.054H290.605V60H292.549ZM298.219 60.18C300.235 60.18 301.531 59.118 301.909 57.48H301.963V63.06H303.907V51.054H302.125V53.538H301.963C301.603 51.882 300.343 50.874 298.237 50.874C295.465 50.874 293.899 52.764 293.899 55.536C293.899 58.308 295.447 60.18 298.219 60.18ZM295.861 55.536C295.861 53.376 296.977 52.656 298.849 52.656C300.847 52.656 301.963 53.592 301.963 55.518V55.68C301.963 57.516 300.793 58.416 298.885 58.416C296.959 58.416 295.861 57.678 295.861 55.536ZM309.431 60.18C311.735 60.18 312.923 58.74 313.211 57.228H313.319V60H315.101V51.054H313.175V55.482C313.175 57.426 312.257 58.434 310.277 58.434C308.387 58.434 307.613 57.588 307.613 55.914V51.054H305.687V56.436C305.687 58.506 306.911 60.18 309.431 60.18ZM319.495 60.18C321.529 60.18 322.951 59.28 323.419 57.768H323.545V60H325.327V54.564C325.327 52.422 324.049 50.874 321.205 50.874C318.361 50.874 316.669 52.404 316.669 54.438V54.51H318.595V54.438C318.595 53.124 319.405 52.584 321.061 52.584C322.771 52.584 323.419 53.106 323.419 54.582V55.104L319.351 55.536C317.587 55.734 316.471 56.454 316.471 57.84C316.471 59.316 317.641 60.18 319.495 60.18ZM318.415 57.714C318.415 57.012 318.901 56.778 319.909 56.652L323.419 56.256C323.419 58.02 322.051 58.776 320.017 58.776C318.901 58.776 318.415 58.434 318.415 57.714ZM329.006 60V55.572C329.006 53.592 329.672 52.62 331.598 52.62C333.326 52.62 334.01 53.376 334.01 55.14V60H335.936V55.572C335.936 53.592 336.62 52.62 338.528 52.62C340.256 52.62 340.958 53.376 340.958 55.14V60H342.884V54.618C342.884 52.458 341.714 50.874 339.392 50.874C337.124 50.874 336.116 52.296 335.882 53.826H335.774C335.522 52.116 334.424 50.874 332.39 50.874C330.158 50.874 329.186 52.26 328.952 53.754H328.844V51.054H327.062V60H329.006ZM344.947 62.016C346.063 62.016 346.711 61.476 346.711 60.36V57.21H344.263V60H345.343V60.378C345.343 60.756 345.199 60.828 344.893 60.828H344.299V62.016H344.947ZM353.176 60V52.926L353.104 50.838H353.248L354.76 52.962L360.196 60H362.284V47.94H360.34V55.068L360.43 57.246H360.286L358.72 54.996L353.32 47.94H351.232V60H353.176ZM367.808 60.18C370.112 60.18 371.3 58.74 371.588 57.228H371.696V60H373.478V51.054H371.552V55.482C371.552 57.426 370.634 58.434 368.654 58.434C366.764 58.434 365.99 57.588 365.99 55.914V51.054H364.064V56.436C364.064 58.506 365.288 60.18 367.808 60.18ZM377.188 60V55.572C377.188 53.628 378.07 52.62 380.032 52.62C381.886 52.62 382.642 53.466 382.642 55.14V60H384.586V54.618C384.586 52.548 383.362 50.874 380.878 50.874C378.61 50.874 377.422 52.314 377.152 53.826H377.026V51.054H375.244V60H377.188ZM390.836 60.18C393.518 60.18 395.48 58.668 395.48 56.436V56.238H393.554V56.364C393.554 57.75 392.546 58.434 390.8 58.434C388.784 58.434 387.884 57.462 387.884 55.536C387.884 53.574 388.784 52.62 390.8 52.62C392.546 52.62 393.554 53.304 393.554 54.69V54.798H395.48V54.618C395.48 52.386 393.518 50.874 390.836 50.874C387.884 50.874 385.958 52.746 385.958 55.536C385.958 58.29 387.884 60.18 390.836 60.18ZM399.006 60V57.21H396.558V60H399.006ZM408.585 60.18C412.149 60.18 413.643 58.488 413.643 56.652C413.643 54.888 412.455 53.79 410.043 53.358L407.109 52.854C405.687 52.548 405.075 52.206 405.075 51.162C405.075 50.082 405.939 49.542 408.135 49.542C410.637 49.542 411.519 50.28 411.519 51.756V51.99H413.445V51.882C413.445 49.524 411.843 47.76 408.315 47.76C404.571 47.76 403.131 49.524 403.131 51.27C403.131 53.25 404.571 54.186 406.605 54.546L409.557 55.032C411.087 55.32 411.699 55.716 411.699 56.76C411.699 57.894 410.889 58.398 408.585 58.398C405.939 58.398 405.093 57.678 405.093 56.238V55.95H403.149V56.058C403.149 58.596 404.985 60.18 408.585 60.18ZM419.541 60.18C422.223 60.18 424.185 58.668 424.185 56.436V56.238H422.259V56.364C422.259 57.75 421.251 58.434 419.505 58.434C417.489 58.434 416.589 57.462 416.589 55.536C416.589 53.574 417.489 52.62 419.505 52.62C421.251 52.62 422.259 53.304 422.259 54.69V54.798H424.185V54.618C424.185 52.386 422.223 50.874 419.541 50.874C416.589 50.874 414.663 52.746 414.663 55.536C414.663 58.29 416.589 60.18 419.541 60.18ZM430.123 60.18C432.787 60.18 434.659 58.866 434.659 56.958V56.796H432.715V56.94C432.715 58.002 431.941 58.614 430.069 58.614C427.999 58.614 427.153 57.696 427.081 55.968H434.677C434.731 55.698 434.749 55.446 434.749 55.122C434.749 52.404 432.859 50.874 430.087 50.874C427.171 50.874 425.263 52.746 425.263 55.536C425.263 58.524 427.189 60.18 430.123 60.18ZM430.051 52.404C431.959 52.404 432.913 53.196 432.913 54.852V54.888H427.099C427.207 53.286 428.071 52.404 430.051 52.404ZM438.149 60V47.94H436.205V60H438.149ZM444.449 60.18C447.113 60.18 448.985 58.866 448.985 56.958V56.796H447.041V56.94C447.041 58.002 446.267 58.614 444.395 58.614C442.325 58.614 441.479 57.696 441.407 55.968H449.003C449.057 55.698 449.075 55.446 449.075 55.122C449.075 52.404 447.185 50.874 444.413 50.874C441.497 50.874 439.589 52.746 439.589 55.536C439.589 58.524 441.515 60.18 444.449 60.18ZM444.377 52.404C446.285 52.404 447.239 53.196 447.239 54.852V54.888H441.425C441.533 53.286 442.397 52.404 444.377 52.404ZM452.475 60V54.978C452.475 53.376 453.105 52.53 454.635 52.53C455.967 52.53 456.507 53.124 456.507 54.402V55.194H458.433V54.024C458.433 52.332 457.551 50.874 455.517 50.874C453.681 50.874 452.709 52.026 452.439 53.466H452.313V51.054H450.531V60H452.475ZM461.598 50.01V47.94H459.654V50.01H461.598ZM461.598 60V51.054H459.654V60H461.598ZM467.628 60.18C470.148 60.18 471.804 59.19 471.804 57.516C471.804 56.04 470.832 55.32 468.708 55.05L466.638 54.762C465.288 54.582 464.928 54.33 464.928 53.628C464.928 52.782 465.504 52.422 467.142 52.422C469.122 52.422 469.662 52.98 469.662 54.042V54.15H471.588V54.096C471.588 51.972 469.932 50.874 467.196 50.874C464.442 50.874 463.02 51.99 463.02 53.556C463.02 55.05 464.046 55.77 465.738 55.986L468.186 56.31C469.464 56.49 469.896 56.724 469.896 57.462C469.896 58.254 469.374 58.614 467.628 58.614C465.756 58.614 465.054 58.236 465.054 57.066V56.922H463.11V56.976C463.11 59.046 464.748 60.18 467.628 60.18ZM477.077 60.18C479.093 60.18 480.389 59.118 480.767 57.48H480.821V63.06H482.765V51.054H480.983V53.538H480.821C480.461 51.882 479.201 50.874 477.095 50.874C474.323 50.874 472.757 52.764 472.757 55.536C472.757 58.308 474.305 60.18 477.077 60.18ZM474.719 55.536C474.719 53.376 475.835 52.656 477.707 52.656C479.705 52.656 480.821 53.592 480.821 55.518V55.68C480.821 57.516 479.651 58.416 477.743 58.416C475.817 58.416 474.719 57.678 474.719 55.536ZM488.288 60.18C490.592 60.18 491.78 58.74 492.068 57.228H492.176V60H493.958V51.054H492.032V55.482C492.032 57.426 491.114 58.434 489.134 58.434C487.244 58.434 486.47 57.588 486.47 55.914V51.054H484.544V56.436C484.544 58.506 485.768 60.18 488.288 60.18ZM500.224 60.18C502.888 60.18 504.76 58.866 504.76 56.958V56.796H502.816V56.94C502.816 58.002 502.042 58.614 500.17 58.614C498.1 58.614 497.254 57.696 497.182 55.968H504.778C504.832 55.698 504.85 55.446 504.85 55.122C504.85 52.404 502.96 50.874 500.188 50.874C497.272 50.874 495.364 52.746 495.364 55.536C495.364 58.524 497.29 60.18 500.224 60.18ZM500.152 52.404C502.06 52.404 503.014 53.196 503.014 54.852V54.888H497.2C497.308 53.286 498.172 52.404 500.152 52.404ZM510.642 60L512.028 56.868H518.4L519.786 60H521.982L516.6 47.94H513.864L508.482 60H510.642ZM514.44 51.45L515.142 49.74H515.286L515.988 51.45L517.626 55.122H512.802L514.44 51.45ZM524.826 60V47.94H522.882V60H524.826ZM528.571 50.01V47.94H526.627V50.01H528.571ZM528.571 60V51.054H526.627V60H528.571ZM534.241 60.18C536.257 60.18 537.553 59.118 537.931 57.48H537.985V63.06H539.929V51.054H538.147V53.538H537.985C537.625 51.882 536.365 50.874 534.259 50.874C531.487 50.874 529.921 52.764 529.921 55.536C529.921 58.308 531.469 60.18 534.241 60.18ZM531.883 55.536C531.883 53.376 532.999 52.656 534.871 52.656C536.869 52.656 537.985 53.592 537.985 55.518V55.68C537.985 57.516 536.815 58.416 534.907 58.416C532.981 58.416 531.883 57.678 531.883 55.536ZM545.452 60.18C547.756 60.18 548.944 58.74 549.232 57.228H549.34V60H551.122V51.054H549.196V55.482C549.196 57.426 548.278 58.434 546.298 58.434C544.408 58.434 543.634 57.588 543.634 55.914V51.054H541.708V56.436C541.708 58.506 542.932 60.18 545.452 60.18ZM557.388 60.18C560.052 60.18 561.924 58.866 561.924 56.958V56.796H559.98V56.94C559.98 58.002 559.206 58.614 557.334 58.614C555.264 58.614 554.418 57.696 554.346 55.968H561.942C561.996 55.698 562.014 55.446 562.014 55.122C562.014 52.404 560.124 50.874 557.352 50.874C554.436 50.874 552.528 52.746 552.528 55.536C552.528 58.524 554.454 60.18 557.388 60.18ZM557.316 52.404C559.224 52.404 560.178 53.196 560.178 54.852V54.888H554.364C554.472 53.286 555.336 52.404 557.316 52.404ZM569.338 60V58.254H567.718C566.602 58.254 566.098 57.966 566.098 56.868V52.674H569.338V51.054H566.098V49.092H564.172V51.054H562.66V52.674H564.172V56.976C564.172 59.154 565.36 60 567.286 60H569.338ZM2.844 88V83.158H10.224V81.43H2.844V77.686H10.494V75.94H0.9V88H2.844ZM14.5671 88.18C16.6011 88.18 18.0231 87.28 18.4911 85.768H18.6171V88H20.3991V82.564C20.3991 80.422 19.1211 78.874 16.2771 78.874C13.4331 78.874 11.7411 80.404 11.7411 82.438V82.51H13.6671V82.438C13.6671 81.124 14.4771 80.584 16.1331 80.584C17.8431 80.584 18.4911 81.106 18.4911 82.582V83.104L14.4231 83.536C12.6591 83.734 11.5431 84.454 11.5431 85.84C11.5431 87.316 12.7131 88.18 14.5671 88.18ZM13.4871 85.714C13.4871 85.012 13.9731 84.778 14.9811 84.652L18.4911 84.256C18.4911 86.02 17.1231 86.776 15.0891 86.776C13.9731 86.776 13.4871 86.434 13.4871 85.714ZM25.8604 88.18C28.1644 88.18 29.3524 86.74 29.6404 85.228H29.7484V88H31.5304V79.054H29.6044V83.482C29.6044 85.426 28.6864 86.434 26.7064 86.434C24.8164 86.434 24.0424 85.588 24.0424 83.914V79.054H22.1164V84.436C22.1164 86.506 23.3404 88.18 25.8604 88.18ZM37.8145 88.18C40.4965 88.18 42.4585 86.668 42.4585 84.436V84.238H40.5325V84.364C40.5325 85.75 39.5245 86.434 37.7785 86.434C35.7625 86.434 34.8625 85.462 34.8625 83.536C34.8625 81.574 35.7625 80.62 37.7785 80.62C39.5245 80.62 40.5325 81.304 40.5325 82.69V82.798H42.4585V82.618C42.4585 80.386 40.4965 78.874 37.8145 78.874C34.8625 78.874 32.9365 80.746 32.9365 83.536C32.9365 86.29 34.8625 88.18 37.8145 88.18ZM45.8401 78.01V75.94H43.8961V78.01H45.8401ZM45.8401 88V79.054H43.8961V88H45.8401ZM49.4222 88V85.426H49.5482C49.9262 87.208 51.2402 88.18 53.2742 88.18C56.1182 88.18 57.6482 86.29 57.6482 83.536C57.6482 80.746 56.1362 78.874 53.3822 78.874C51.2402 78.874 50.0522 79.972 49.6922 81.484H49.5842V75.94H47.6402V88H49.4222ZM49.5842 83.626V83.482C49.5842 81.574 50.6822 80.638 52.6982 80.638C54.6062 80.638 55.7042 81.376 55.7042 83.536C55.7042 85.678 54.6242 86.398 52.6622 86.398C50.7362 86.398 49.5842 85.498 49.5842 83.626ZM62.7217 88.18C65.0257 88.18 66.2137 86.74 66.5017 85.228H66.6097V88H68.3917V79.054H66.4657V83.482C66.4657 85.426 65.5477 86.434 63.5677 86.434C61.6777 86.434 60.9037 85.588 60.9037 83.914V79.054H58.9777V84.436C58.9777 86.506 60.2017 88.18 62.7217 88.18ZM74.3878 88.18C76.9078 88.18 78.5638 87.19 78.5638 85.516C78.5638 84.04 77.5918 83.32 75.4678 83.05L73.3978 82.762C72.0478 82.582 71.6878 82.33 71.6878 81.628C71.6878 80.782 72.2638 80.422 73.9018 80.422C75.8818 80.422 76.4218 80.98 76.4218 82.042V82.15H78.3478V82.096C78.3478 79.972 76.6918 78.874 73.9558 78.874C71.2018 78.874 69.7798 79.99 69.7798 81.556C69.7798 83.05 70.8058 83.77 72.4978 83.986L74.9458 84.31C76.2238 84.49 76.6558 84.724 76.6558 85.462C76.6558 86.254 76.1338 86.614 74.3878 86.614C72.5158 86.614 71.8138 86.236 71.8138 85.066V84.922H69.8698V84.976C69.8698 87.046 71.5078 88.18 74.3878 88.18ZM89.0366 88V77.686H93.7706V75.94H82.3586V77.686H87.1106V88H89.0366ZM96.8518 78.01V75.94H94.9078V78.01H96.8518ZM96.8518 88V79.054H94.9078V88H96.8518ZM100.596 88V83.572C100.596 81.628 101.478 80.62 103.44 80.62C105.294 80.62 106.05 81.466 106.05 83.14V88H107.994V82.618C107.994 80.548 106.77 78.874 104.286 78.874C102.018 78.874 100.83 80.314 100.56 81.826H100.434V79.054H98.652V88H100.596ZM114.244 88.18C116.926 88.18 118.888 86.668 118.888 84.436V84.238H116.962V84.364C116.962 85.75 115.954 86.434 114.208 86.434C112.192 86.434 111.292 85.462 111.292 83.536C111.292 81.574 112.192 80.62 114.208 80.62C115.954 80.62 116.962 81.304 116.962 82.69V82.798H118.888V82.618C118.888 80.386 116.926 78.874 114.244 78.874C111.292 78.874 109.366 80.746 109.366 83.536C109.366 86.29 111.292 88.18 114.244 88.18ZM122.27 78.01V75.94H120.326V78.01H122.27ZM122.27 88V79.054H120.326V88H122.27ZM128.012 88.18C130.028 88.18 131.342 87.208 131.72 85.426H131.846V88H133.628V75.94H131.684V81.484H131.576C131.216 79.972 130.01 78.874 127.886 78.874C125.168 78.874 123.62 80.746 123.62 83.536C123.62 86.29 125.186 88.18 128.012 88.18ZM125.582 83.536C125.582 81.376 126.698 80.638 128.57 80.638C130.568 80.638 131.684 81.574 131.684 83.482V83.626C131.684 85.498 130.514 86.398 128.606 86.398C126.68 86.398 125.582 85.678 125.582 83.536ZM139.151 88.18C141.455 88.18 142.643 86.74 142.931 85.228H143.039V88H144.821V79.054H142.895V83.482C142.895 85.426 141.977 86.434 139.997 86.434C138.107 86.434 137.333 85.588 137.333 83.914V79.054H135.407V84.436C135.407 86.506 136.631 88.18 139.151 88.18ZM148.532 88V83.572C148.532 81.628 149.414 80.62 151.376 80.62C153.23 80.62 153.986 81.466 153.986 83.14V88H155.93V82.618C155.93 80.548 154.706 78.874 152.222 78.874C149.954 78.874 148.766 80.314 148.496 81.826H148.37V79.054H146.588V88H148.532ZM163.53 88V86.254H161.91C160.794 86.254 160.29 85.966 160.29 84.868V80.674H163.53V79.054H160.29V77.092H158.364V79.054H156.852V80.674H158.364V84.976C158.364 87.154 159.552 88 161.478 88H163.53ZM177.47 88V86.254H169.766V82.798H177.2V81.07H169.766V77.686H177.47V75.94H167.822V88H177.47ZM182.71 88.18C185.014 88.18 186.202 86.74 186.49 85.228H186.598V88H188.38V79.054H186.454V83.482C186.454 85.426 185.536 86.434 183.556 86.434C181.666 86.434 180.892 85.588 180.892 83.914V79.054H178.966V84.436C178.966 86.506 180.19 88.18 182.71 88.18ZM194.482 88L195.868 84.868H202.24L203.626 88H205.822L200.44 75.94H197.704L192.322 88H194.482ZM198.28 79.45L198.982 77.74H199.126L199.828 79.45L201.466 83.122H196.642L198.28 79.45ZM210.664 88.18C212.68 88.18 213.994 87.208 214.372 85.426H214.498V88H216.28V75.94H214.336V81.484H214.228C213.868 79.972 212.662 78.874 210.538 78.874C207.82 78.874 206.272 80.746 206.272 83.536C206.272 86.29 207.838 88.18 210.664 88.18ZM208.234 83.536C208.234 81.376 209.35 80.638 211.222 80.638C213.22 80.638 214.336 81.574 214.336 83.482V83.626C214.336 85.498 213.166 86.398 211.258 86.398C209.332 86.398 208.234 85.678 208.234 83.536ZM220.022 78.01V75.94H218.078V78.01H220.022ZM220.022 88V79.054H218.078V88H220.022ZM223.766 91.06V85.48H223.838C224.198 87.118 225.494 88.18 227.51 88.18C230.3 88.18 231.83 86.308 231.83 83.536C231.83 80.764 230.264 78.874 227.492 78.874C225.386 78.874 224.126 79.882 223.766 81.538H223.604V79.054H221.822V91.06H223.766ZM223.766 83.68V83.518C223.766 81.592 224.882 80.656 226.88 80.656C228.752 80.656 229.886 81.376 229.886 83.536C229.886 85.678 228.77 86.416 226.844 86.416C224.936 86.416 223.766 85.516 223.766 83.68ZM235.121 78.01V75.94H233.177V78.01H235.121ZM235.121 88V79.054H233.177V88H235.121ZM241.151 88.18C243.671 88.18 245.327 87.19 245.327 85.516C245.327 84.04 244.355 83.32 242.231 83.05L240.161 82.762C238.811 82.582 238.451 82.33 238.451 81.628C238.451 80.782 239.027 80.422 240.665 80.422C242.645 80.422 243.185 80.98 243.185 82.042V82.15H245.111V82.096C245.111 79.972 243.455 78.874 240.719 78.874C237.965 78.874 236.543 79.99 236.543 81.556C236.543 83.05 237.569 83.77 239.261 83.986L241.709 84.31C242.987 84.49 243.419 84.724 243.419 85.462C243.419 86.254 242.897 86.614 241.151 86.614C239.279 86.614 238.577 86.236 238.577 85.066V84.922H236.633V84.976C236.633 87.046 238.271 88.18 241.151 88.18ZM251.248 88.18C253.93 88.18 255.892 86.668 255.892 84.436V84.238H253.966V84.364C253.966 85.75 252.958 86.434 251.212 86.434C249.196 86.434 248.296 85.462 248.296 83.536C248.296 81.574 249.196 80.62 251.212 80.62C252.958 80.62 253.966 81.304 253.966 82.69V82.798H255.892V82.618C255.892 80.386 253.93 78.874 251.248 78.874C248.296 78.874 246.37 80.746 246.37 83.536C246.37 86.29 248.296 88.18 251.248 88.18ZM259.274 78.01V75.94H257.33V78.01H259.274ZM259.274 88V79.054H257.33V88H259.274ZM263.018 88V83.572C263.018 81.628 263.9 80.62 265.862 80.62C267.716 80.62 268.472 81.466 268.472 83.14V88H270.416V82.618C270.416 80.548 269.192 78.874 266.708 78.874C264.44 78.874 263.252 80.314 262.982 81.826H262.856V79.054H261.074V88H263.018ZM276.036 87.19C278.07 87.19 279.276 86.218 279.6 84.868H279.726V87.064C279.726 89.062 278.988 89.62 276.954 89.62C275.046 89.62 274.29 89.134 274.29 87.838H272.364C272.364 89.998 274.2 91.24 276.846 91.24C279.78 91.24 281.652 89.962 281.652 86.956V79.054H279.87V81.286H279.762C279.438 79.72 278.034 78.874 276.162 78.874C273.444 78.874 271.788 80.548 271.788 83.032C271.788 85.516 273.372 87.19 276.036 87.19ZM273.75 83.032C273.75 81.196 274.848 80.566 276.72 80.566C278.61 80.566 279.726 81.34 279.726 82.852V83.104C279.726 84.688 278.646 85.516 276.666 85.516C274.83 85.516 273.75 84.868 273.75 83.032ZM291.585 88.18C295.149 88.18 296.643 86.488 296.643 84.652C296.643 82.888 295.455 81.79 293.043 81.358L290.109 80.854C288.687 80.548 288.075 80.206 288.075 79.162C288.075 78.082 288.939 77.542 291.135 77.542C293.637 77.542 294.519 78.28 294.519 79.756V79.99H296.445V79.882C296.445 77.524 294.843 75.76 291.315 75.76C287.571 75.76 286.131 77.524 286.131 79.27C286.131 81.25 287.571 82.186 289.605 82.546L292.557 83.032C294.087 83.32 294.699 83.716 294.699 84.76C294.699 85.894 293.889 86.398 291.585 86.398C288.939 86.398 288.093 85.678 288.093 84.238V83.95H286.149V84.058C286.149 86.596 287.985 88.18 291.585 88.18ZM302.595 88.18C305.583 88.18 307.581 86.29 307.581 83.536C307.581 80.746 305.583 78.874 302.595 78.874C299.625 78.874 297.627 80.746 297.627 83.536C297.627 86.29 299.625 88.18 302.595 88.18ZM302.595 86.452C300.435 86.452 299.535 85.426 299.535 83.536C299.535 81.628 300.435 80.584 302.595 80.584C304.773 80.584 305.673 81.628 305.673 83.536C305.673 85.426 304.773 86.452 302.595 86.452ZM313.51 88.18C316.192 88.18 318.154 86.668 318.154 84.436V84.238H316.228V84.364C316.228 85.75 315.22 86.434 313.474 86.434C311.458 86.434 310.558 85.462 310.558 83.536C310.558 81.574 311.458 80.62 313.474 80.62C315.22 80.62 316.228 81.304 316.228 82.69V82.798H318.154V82.618C318.154 80.386 316.192 78.874 313.51 78.874C310.558 78.874 308.632 80.746 308.632 83.536C308.632 86.29 310.558 88.18 313.51 88.18ZM321.535 78.01V75.94H319.591V78.01H321.535ZM321.535 88V79.054H319.591V88H321.535ZM325.28 78.01V75.94H323.336V78.01H325.28ZM325.28 88V79.054H323.336V88H325.28ZM331.31 88.18C333.83 88.18 335.486 87.19 335.486 85.516C335.486 84.04 334.514 83.32 332.39 83.05L330.32 82.762C328.97 82.582 328.61 82.33 328.61 81.628C328.61 80.782 329.186 80.422 330.824 80.422C332.804 80.422 333.344 80.98 333.344 82.042V82.15H335.27V82.096C335.27 79.972 333.614 78.874 330.878 78.874C328.124 78.874 326.702 79.99 326.702 81.556C326.702 83.05 327.728 83.77 329.42 83.986L331.868 84.31C333.146 84.49 333.578 84.724 333.578 85.462C333.578 86.254 333.056 86.614 331.31 86.614C329.438 86.614 328.736 86.236 328.736 85.066V84.922H326.792V84.976C326.792 87.046 328.43 88.18 331.31 88.18ZM341.224 88L342.61 84.868H348.982L350.368 88H352.564L347.182 75.94H344.446L339.064 88H341.224ZM345.022 79.45L345.724 77.74H345.868L346.57 79.45L348.208 83.122H343.384L345.022 79.45ZM355.408 88V82.978C355.408 81.376 356.038 80.53 357.568 80.53C358.9 80.53 359.44 81.124 359.44 82.402V83.194H361.366V82.024C361.366 80.332 360.484 78.874 358.45 78.874C356.614 78.874 355.642 80.026 355.372 81.466H355.246V79.054H353.464V88H355.408ZM367.106 88.18C369.788 88.18 371.75 86.668 371.75 84.436V84.238H369.824V84.364C369.824 85.75 368.816 86.434 367.07 86.434C365.054 86.434 364.154 85.462 364.154 83.536C364.154 81.574 365.054 80.62 367.07 80.62C368.816 80.62 369.824 81.304 369.824 82.69V82.798H371.75V82.618C371.75 80.386 369.788 78.874 367.106 78.874C364.154 78.874 362.228 80.746 362.228 83.536C362.228 86.29 364.154 88.18 367.106 88.18ZM376.913 88.18C379.217 88.18 380.405 86.74 380.693 85.228H380.801V88H382.583V79.054H380.657V83.482C380.657 85.426 379.739 86.434 377.759 86.434C375.869 86.434 375.095 85.588 375.095 83.914V79.054H373.169V84.436C373.169 86.506 374.393 88.18 376.913 88.18ZM396.803 88V86.254H389.369V75.94H387.425V88H396.803ZM402.632 88.18C405.62 88.18 407.618 86.29 407.618 83.536C407.618 80.746 405.62 78.874 402.632 78.874C399.662 78.874 397.664 80.746 397.664 83.536C397.664 86.29 399.662 88.18 402.632 88.18ZM402.632 86.452C400.472 86.452 399.572 85.426 399.572 83.536C399.572 81.628 400.472 80.584 402.632 80.584C404.81 80.584 405.71 81.628 405.71 83.536C405.71 85.426 404.81 86.452 402.632 86.452ZM410.973 88V82.978C410.973 81.376 411.603 80.53 413.133 80.53C414.465 80.53 415.005 81.124 415.005 82.402V83.194H416.931V82.024C416.931 80.332 416.049 78.874 414.015 78.874C412.179 78.874 411.207 80.026 410.937 81.466H410.811V79.054H409.029V88H410.973ZM422.652 88.18C425.316 88.18 427.188 86.866 427.188 84.958V84.796H425.244V84.94C425.244 86.002 424.47 86.614 422.598 86.614C420.528 86.614 419.682 85.696 419.61 83.968H427.206C427.26 83.698 427.278 83.446 427.278 83.122C427.278 80.404 425.388 78.874 422.616 78.874C419.7 78.874 417.792 80.746 417.792 83.536C417.792 86.524 419.718 88.18 422.652 88.18ZM422.58 80.404C424.488 80.404 425.442 81.196 425.442 82.852V82.888H419.628C419.736 81.286 420.6 80.404 422.58 80.404ZM430.678 88V83.572C430.678 81.592 431.344 80.62 433.27 80.62C434.998 80.62 435.682 81.376 435.682 83.14V88H437.608V83.572C437.608 81.592 438.292 80.62 440.2 80.62C441.928 80.62 442.63 81.376 442.63 83.14V88H444.556V82.618C444.556 80.458 443.386 78.874 441.064 78.874C438.796 78.874 437.788 80.296 437.554 81.826H437.446C437.194 80.116 436.096 78.874 434.062 78.874C431.83 78.874 430.858 80.26 430.624 81.754H430.516V79.054H428.734V88H430.678ZM451.315 88V84.364H455.275C457.957 84.364 459.793 82.816 459.793 80.152C459.793 77.47 457.957 75.94 455.275 75.94H449.371V88H451.315ZM455.095 77.686C456.913 77.686 457.849 78.37 457.849 80.152C457.849 81.934 456.913 82.618 455.095 82.618H451.315V77.686H455.095ZM465.527 88.18C468.515 88.18 470.513 86.29 470.513 83.536C470.513 80.746 468.515 78.874 465.527 78.874C462.557 78.874 460.559 80.746 460.559 83.536C460.559 86.29 462.557 88.18 465.527 88.18ZM465.527 86.452C463.367 86.452 462.467 85.426 462.467 83.536C462.467 81.628 463.367 80.584 465.527 80.584C467.705 80.584 468.605 81.628 468.605 83.536C468.605 85.426 467.705 86.452 465.527 86.452ZM473.867 88V82.978C473.867 81.376 474.497 80.53 476.027 80.53C477.359 80.53 477.899 81.124 477.899 82.402V83.194H479.825V82.024C479.825 80.332 478.943 78.874 476.909 78.874C475.073 78.874 474.101 80.026 473.831 81.466H473.705V79.054H471.923V88H473.867ZM486.914 88V86.254H485.294C484.178 86.254 483.674 85.966 483.674 84.868V80.674H486.914V79.054H483.674V77.092H481.748V79.054H480.236V80.674H481.748V84.976C481.748 87.154 482.936 88 484.862 88H486.914ZM493.998 88V86.254H492.378C491.262 86.254 490.758 85.966 490.758 84.868V80.674H493.998V79.054H490.758V77.092H488.832V79.054H487.32V80.674H488.832V84.976C488.832 87.154 490.02 88 491.946 88H493.998ZM497.158 78.01V75.94H495.214V78.01H497.158ZM497.158 88V79.054H495.214V88H497.158ZM504.827 88V86.254H503.207C502.091 86.254 501.587 85.966 501.587 84.868V80.674H504.827V79.054H501.587V77.092H499.661V79.054H498.149V80.674H499.661V84.976C499.661 87.154 500.849 88 502.775 88H504.827ZM510.615 88.18C513.603 88.18 515.601 86.29 515.601 83.536C515.601 80.746 513.603 78.874 510.615 78.874C507.645 78.874 505.647 80.746 505.647 83.536C505.647 86.29 507.645 88.18 510.615 88.18ZM510.615 86.452C508.455 86.452 507.555 85.426 507.555 83.536C507.555 81.628 508.455 80.584 510.615 80.584C512.793 80.584 513.693 81.628 513.693 83.536C513.693 85.426 512.793 86.452 510.615 86.452ZM518.955 88V82.978C518.955 81.376 519.585 80.53 521.115 80.53C522.447 80.53 522.987 81.124 522.987 82.402V83.194H524.913V82.024C524.913 80.332 524.031 78.874 521.997 78.874C520.161 78.874 519.189 80.026 518.919 81.466H518.793V79.054H517.011V88H518.955ZM528.222 88V85.21H525.774V88H528.222Z" fill="black"/>
</svg>
