<svg width="497" height="129" viewBox="0 0 497 129" fill="none" xmlns="http://www.w3.org/2000/svg">
<path d="M10.464 71.7087V60.5247H29.472V52.4607H10.464V47.6607H30.192V39.5487H1.44V71.7087H10.464ZM41.589 71.7087V57.2607C41.589 55.3407 42.309 54.6207 44.757 54.6207C47.109 54.6207 47.877 55.3407 47.877 57.3567V60.1887H56.901V55.3887C56.901 50.5407 54.789 47.0367 49.461 47.0367C44.661 47.0367 42.165 49.8687 41.493 53.8527H41.013V47.5167H32.565V71.7087H41.589ZM72.303 72.1887C80.463 72.1887 85.599 68.3967 85.599 63.0207V62.4447H76.575V62.9727C76.575 64.4127 75.615 65.0367 71.967 65.0367C68.127 65.0367 66.831 64.2207 66.687 61.2927H85.647C85.743 60.4287 85.791 59.8047 85.791 58.9887C85.791 51.2127 80.463 47.0367 72.111 47.0367C64.047 47.0367 58.335 51.7407 58.335 59.6127C58.335 68.6847 64.095 72.1887 72.303 72.1887ZM71.919 53.9487C75.279 53.9487 76.719 54.6687 77.055 56.7327H66.831C67.215 54.6687 68.607 53.9487 71.919 53.9487ZM98.8136 72.1887C104.526 72.1887 107.214 69.5007 107.934 65.4687H108.414V79.8687H117.438V47.5167H108.99V54.0447H108.51C107.742 49.2447 104.862 47.0367 99.1976 47.0367C91.8056 47.0367 87.7256 51.7887 87.7256 59.6127C87.7256 67.4847 91.7096 72.1887 98.8136 72.1887ZM96.8456 59.6127C96.8456 56.3967 98.2856 55.2927 102.462 55.2927C106.494 55.2927 108.414 56.0607 108.414 59.5647V59.9007C108.414 63.3087 106.494 63.9807 102.462 63.9807C98.2856 63.9807 96.8456 62.8287 96.8456 59.6127ZM130.251 72.1887C136.827 72.1887 139.515 68.3967 140.043 64.3647H140.523V71.7087H148.971V47.5167H139.947V59.9967C139.947 63.1167 138.939 64.1247 134.763 64.1247C130.635 64.1247 129.339 63.0687 129.339 59.7087V47.5167H120.315V63.0207C120.315 68.2527 123.483 72.1887 130.251 72.1887ZM165.162 72.1887C173.322 72.1887 178.458 68.3967 178.458 63.0207V62.4447H169.434V62.9727C169.434 64.4127 168.474 65.0367 164.826 65.0367C160.986 65.0367 159.69 64.2207 159.546 61.2927H178.506C178.602 60.4287 178.65 59.8047 178.65 58.9887C178.65 51.2127 173.322 47.0367 164.97 47.0367C156.906 47.0367 151.194 51.7407 151.194 59.6127C151.194 68.6847 156.954 72.1887 165.162 72.1887ZM164.778 53.9487C168.138 53.9487 169.578 54.6687 169.914 56.7327H159.69C160.074 54.6687 161.466 53.9487 164.778 53.9487ZM190.089 71.7087V59.2287C190.089 56.1087 191.049 55.1007 195.033 55.1007C198.969 55.1007 200.217 56.1567 200.217 59.5167V71.7087H209.241V56.2047C209.241 50.9727 206.169 47.0367 199.641 47.0367C193.161 47.0367 190.521 50.8287 189.993 54.8607H189.513V47.5167H181.065V71.7087H190.089ZM230.005 71.7087V63.5967H225.685C223.621 63.5967 223.045 63.1167 223.045 61.1967V54.9087H230.005V47.5167H223.045V43.3407H214.021V47.5167H210.469V54.9087H214.021V62.4927C214.021 68.7807 217.621 71.7087 223.669 71.7087H230.005ZM241.183 71.7087V39.5487H232.159V71.7087H241.183ZM249.393 79.8687C256.449 79.8687 260.145 78.3807 262.737 72.6687L274.209 47.5167H264.129L260.529 56.9247L258.945 62.5887H258.321L256.593 57.0207L252.417 47.5167H242.145L253.713 71.4207C253.329 71.6127 252.753 71.7087 252.033 71.7087H245.025V79.8687H249.393ZM290.101 71.7087L292.597 65.7567H307.861L310.309 71.7087H320.677L306.757 39.5487H293.845L279.973 71.7087H290.101ZM297.877 53.1327L299.941 47.7087H300.565L302.677 53.1327L304.549 57.6447H296.005L297.877 53.1327ZM334.651 72.1887C342.667 72.1887 347.179 68.9247 347.179 64.4127C347.179 60.3327 344.923 57.9807 337.867 57.2127L333.067 56.6847C330.235 56.3967 329.851 56.0607 329.851 55.3887C329.851 54.4767 330.235 54.0927 333.163 54.0927C336.811 54.0927 337.291 54.6687 337.291 55.9167V56.2047H346.315V56.0127C346.315 50.0607 341.851 47.0367 333.451 47.0367C324.379 47.0367 320.971 50.7327 320.971 55.0047C320.971 59.0847 323.659 61.4367 328.651 61.9647L335.659 62.7327C337.915 62.9727 338.299 63.1647 338.299 63.9327C338.299 64.7487 337.819 65.0847 334.699 65.0847C331.435 65.0847 330.571 64.9407 330.571 63.5967V63.1167H321.547V63.3087C321.547 68.8767 326.107 72.1887 334.651 72.1887ZM358.37 71.7087V63.9807H362.738L367.826 71.7087H378.482L370.034 59.2767L378.626 47.5167H367.97L362.642 55.9167H358.37V39.5487H349.346V71.7087H358.37ZM393.069 72.1887C401.229 72.1887 406.365 68.3967 406.365 63.0207V62.4447H397.341V62.9727C397.341 64.4127 396.381 65.0367 392.733 65.0367C388.893 65.0367 387.597 64.2207 387.453 61.2927H406.413C406.509 60.4287 406.557 59.8047 406.557 58.9887C406.557 51.2127 401.229 47.0367 392.877 47.0367C384.813 47.0367 379.101 51.7407 379.101 59.6127C379.101 68.6847 384.861 72.1887 393.069 72.1887ZM392.685 53.9487C396.045 53.9487 397.485 54.6687 397.821 56.7327H387.597C387.981 54.6687 389.373 53.9487 392.685 53.9487ZM419.963 72.1887C425.627 72.1887 428.507 69.9807 429.275 65.1807H429.755V71.7087H438.203V39.5487H429.179V53.7567H428.699C427.979 49.7247 425.291 47.0367 419.579 47.0367C412.475 47.0367 408.491 51.7407 408.491 59.6127C408.491 67.4367 412.571 72.1887 419.963 72.1887ZM417.611 59.6127C417.611 56.3967 419.051 55.2447 423.227 55.2447C427.259 55.2447 429.179 55.9167 429.179 59.3247V59.6607C429.179 63.1647 427.259 63.9327 423.227 63.9327C419.051 63.9327 417.611 62.8287 417.611 59.6127ZM33.696 126.477L26.688 118.893C33.216 116.541 36.768 111.069 36.768 103.629C36.768 93.5967 30.24 87.0687 18.768 87.0687C7.584 87.0687 0.96 93.5967 0.96 103.629C0.96 112.989 6.72 119.325 16.608 120.093L21.84 126.477H33.696ZM18.768 111.549C12.24 111.549 10.56 110.013 10.56 103.629C10.56 97.2447 12.24 95.7087 18.768 95.7087C25.296 95.7087 27.168 97.2447 27.168 103.629C27.168 110.013 25.296 111.549 18.768 111.549ZM49.1104 120.189C55.6864 120.189 58.3744 116.397 58.9024 112.365H59.3824V119.709H67.8304V95.5167H58.8064V107.997C58.8064 111.117 57.7984 112.125 53.6224 112.125C49.4944 112.125 48.1984 111.069 48.1984 107.709V95.5167H39.1744V111.021C39.1744 116.253 42.3424 120.189 49.1104 120.189ZM84.0218 120.189C92.1818 120.189 97.3177 116.397 97.3177 111.021V110.445H88.2938V110.973C88.2938 112.413 87.3338 113.037 83.6858 113.037C79.8458 113.037 78.5498 112.221 78.4058 109.293H97.3658C97.4618 108.429 97.5098 107.805 97.5098 106.989C97.5098 99.2127 92.1818 95.0367 83.8298 95.0367C75.7658 95.0367 70.0538 99.7407 70.0538 107.613C70.0538 116.685 75.8138 120.189 84.0218 120.189ZM83.6378 101.949C86.9978 101.949 88.4378 102.669 88.7738 104.733H78.5498C78.9338 102.669 80.3258 101.949 83.6378 101.949ZM112.932 120.189C120.948 120.189 125.46 116.925 125.46 112.413C125.46 108.333 123.204 105.981 116.148 105.213L111.348 104.685C108.516 104.397 108.132 104.061 108.132 103.389C108.132 102.477 108.516 102.093 111.444 102.093C115.092 102.093 115.572 102.669 115.572 103.917V104.205H124.596V104.013C124.596 98.0607 120.132 95.0367 111.732 95.0367C102.66 95.0367 99.2524 98.7327 99.2524 103.005C99.2524 107.085 101.94 109.437 106.932 109.965L113.94 110.733C116.196 110.973 116.58 111.165 116.58 111.933C116.58 112.749 116.1 113.085 112.98 113.085C109.716 113.085 108.852 112.941 108.852 111.597V111.117H99.8284V111.309C99.8284 116.877 104.388 120.189 112.932 120.189ZM145.724 119.709V111.597H141.404C139.34 111.597 138.764 111.117 138.764 109.197V102.909H145.724V95.5167H138.764V91.3407H129.74V95.5167H126.188V102.909H129.74V110.493C129.74 116.781 133.34 119.709 139.388 119.709H145.724ZM156.902 93.3087V87.5487H147.878V93.3087H156.902ZM156.902 119.709V95.5167H147.878V119.709H156.902ZM173.176 120.189C181.576 120.189 187.288 115.437 187.288 107.613C187.288 99.7407 181.576 95.0367 173.176 95.0367C164.776 95.0367 159.064 99.7407 159.064 107.613C159.064 115.437 164.776 120.189 173.176 120.189ZM173.176 112.221C169.096 112.221 167.992 111.117 167.992 107.613C167.992 104.109 169.096 102.957 173.176 102.957C177.256 102.957 178.36 104.109 178.36 107.613C178.36 111.117 177.256 112.221 173.176 112.221ZM198.48 119.709V107.229C198.48 104.109 199.44 103.101 203.424 103.101C207.36 103.101 208.608 104.157 208.608 107.517V119.709H217.632V104.205C217.632 98.9727 214.56 95.0367 208.032 95.0367C201.552 95.0367 198.912 98.8287 198.384 102.861H197.904V95.5167H189.456V119.709H198.48ZM233.307 120.189C241.323 120.189 245.835 116.925 245.835 112.413C245.835 108.333 243.579 105.981 236.523 105.213L231.723 104.685C228.891 104.397 228.507 104.061 228.507 103.389C228.507 102.477 228.891 102.093 231.819 102.093C235.467 102.093 235.947 102.669 235.947 103.917V104.205H244.971V104.013C244.971 98.0607 240.507 95.0367 232.107 95.0367C223.035 95.0367 219.627 98.7327 219.627 103.005C219.627 107.085 222.315 109.437 227.307 109.965L234.315 110.733C236.571 110.973 236.955 111.165 236.955 111.933C236.955 112.749 236.475 113.085 233.355 113.085C230.091 113.085 229.227 112.941 229.227 111.597V111.117H220.203V111.309C220.203 116.877 224.763 120.189 233.307 120.189Z" fill="black"/>
<path d="M2.844 20.7087V15.8667H10.224V14.1387H2.844V10.3947H10.494V8.64874H0.9V20.7087H2.844ZM16.0791 20.7087L17.4651 17.5767H23.8371L25.2231 20.7087H27.4191L22.0371 8.64874H19.3011L13.9191 20.7087H16.0791ZM19.8771 12.1587L20.5791 10.4487H20.7231L21.4251 12.1587L23.0631 15.8307H18.2391L19.8771 12.1587ZM41.0811 23.2467L38.9931 20.6727C41.7291 19.9887 43.4211 17.7927 43.4211 14.6787C43.4211 10.9167 40.9371 8.46874 37.1211 8.46874C33.3411 8.46874 30.8391 10.9167 30.8391 14.6787C30.8391 18.3507 33.2331 20.7807 36.8871 20.8887L38.6331 23.2467H41.0811ZM37.1211 19.0167C34.2591 19.0167 32.8911 17.6847 32.8911 14.6787C32.8911 11.6727 34.2591 10.3227 37.1211 10.3227C39.9831 10.3227 41.3691 11.6727 41.3691 14.6787C41.3691 17.6847 39.9831 19.0167 37.1211 19.0167Z" fill="#FF5555"/>
</svg>
