<svg width="535" height="182" viewBox="0 0 535 182" fill="none" xmlns="http://www.w3.org/2000/svg">
<rect y="0.70874" width="535" height="181" rx="8" fill="#FF5555"/>
<path d="M33.322 103.289C32.206 103.289 31.54 103.829 31.54 104.945V108.095H33.988V105.305H32.908V104.927C32.908 104.549 33.052 104.477 33.358 104.477H33.97V103.289H33.322ZM36.67 103.289C35.554 103.289 34.888 103.829 34.888 104.945V108.095H37.354V105.305H36.274V104.927C36.274 104.549 36.418 104.477 36.724 104.477H37.318V103.289H36.67ZM40.0506 115.709L41.4366 112.577H47.8086L49.1946 115.709H51.3906L46.0086 103.649H43.2726L37.8906 115.709H40.0506ZM43.8486 107.159L44.5506 105.449H44.6946L45.3966 107.159L47.0346 110.831H42.2106L43.8486 107.159ZM54.2346 115.709V110.687C54.2346 109.085 54.8646 108.239 56.3946 108.239C57.7266 108.239 58.2666 108.833 58.2666 110.111V110.903H60.1926V109.733C60.1926 108.041 59.3106 106.583 57.2766 106.583C55.4406 106.583 54.4686 107.735 54.1986 109.175H54.0726V106.763H52.2906V115.709H54.2346ZM65.9317 115.889C68.6137 115.889 70.5757 114.377 70.5757 112.145V111.947H68.6497V112.073C68.6497 113.459 67.6417 114.143 65.8957 114.143C63.8797 114.143 62.9797 113.171 62.9797 111.245C62.9797 109.283 63.8797 108.329 65.8957 108.329C67.6417 108.329 68.6497 109.013 68.6497 110.399V110.507H70.5757V110.327C70.5757 108.095 68.6137 106.583 65.9317 106.583C62.9797 106.583 61.0537 108.455 61.0537 111.245C61.0537 113.999 62.9797 115.889 65.9317 115.889ZM75.7393 115.889C78.0433 115.889 79.2313 114.449 79.5193 112.937H79.6273V115.709H81.4093V106.763H79.4833V111.191C79.4833 113.135 78.5653 114.143 76.5853 114.143C74.6953 114.143 73.9213 113.297 73.9213 111.623V106.763H71.9953V112.145C71.9953 114.215 73.2193 115.889 75.7393 115.889ZM97.9108 115.709L99.2968 112.577H105.669L107.055 115.709H109.251L103.869 103.649H101.133L95.7508 115.709H97.9108ZM101.709 107.159L102.411 105.449H102.555L103.257 107.159L104.895 110.831H100.071L101.709 107.159ZM116.019 115.709V113.963H114.399C113.283 113.963 112.779 113.675 112.779 112.577V108.383H116.019V106.763H112.779V104.801H110.853V106.763H109.341V108.383H110.853V112.685C110.853 114.863 112.041 115.709 113.967 115.709H116.019ZM136.308 115.709C140.052 115.709 142.41 113.405 142.41 109.679C142.41 105.953 140.052 103.649 136.308 103.649H130.818V115.709H136.308ZM136.308 105.395C139.098 105.395 140.358 106.583 140.358 109.679C140.358 112.775 139.098 113.963 136.308 113.963H132.744V105.395H136.308ZM145.803 105.719V103.649H143.859V105.719H145.803ZM145.803 115.709V106.763H143.859V115.709H145.803ZM152.121 115.889C154.803 115.889 156.765 114.377 156.765 112.145V111.947H154.839V112.073C154.839 113.459 153.831 114.143 152.085 114.143C150.069 114.143 149.169 113.171 149.169 111.245C149.169 109.283 150.069 108.329 152.085 108.329C153.831 108.329 154.839 109.013 154.839 110.399V110.507H156.765V110.327C156.765 108.095 154.803 106.583 152.121 106.583C149.169 106.583 147.243 108.455 147.243 111.245C147.243 113.999 149.169 115.889 152.121 115.889ZM164.07 115.709V113.963H162.45C161.334 113.963 160.83 113.675 160.83 112.577V108.383H164.07V106.763H160.83V104.801H158.904V106.763H157.392V108.383H158.904V112.685C158.904 114.863 160.092 115.709 162.018 115.709H164.07ZM169.012 115.889C171.316 115.889 172.504 114.449 172.792 112.937H172.9V115.709H174.682V106.763H172.756V111.191C172.756 113.135 171.838 114.143 169.858 114.143C167.968 114.143 167.194 113.297 167.194 111.623V106.763H165.268V112.145C165.268 114.215 166.492 115.889 169.012 115.889ZM178.393 115.709V111.281C178.393 109.301 179.059 108.329 180.985 108.329C182.713 108.329 183.397 109.085 183.397 110.849V115.709H185.323V111.281C185.323 109.301 186.007 108.329 187.915 108.329C189.643 108.329 190.345 109.085 190.345 110.849V115.709H192.271V110.327C192.271 108.167 191.101 106.583 188.779 106.583C186.511 106.583 185.503 108.005 185.269 109.535H185.161C184.909 107.825 183.811 106.583 181.777 106.583C179.545 106.583 178.573 107.969 178.339 109.463H178.231V106.763H176.449V115.709H178.393ZM212.543 115.889C216.107 115.889 217.601 114.197 217.601 112.361C217.601 110.597 216.413 109.499 214.001 109.067L211.067 108.563C209.645 108.257 209.033 107.915 209.033 106.871C209.033 105.791 209.897 105.251 212.093 105.251C214.595 105.251 215.477 105.989 215.477 107.465V107.699H217.403V107.591C217.403 105.233 215.801 103.469 212.273 103.469C208.529 103.469 207.089 105.233 207.089 106.979C207.089 108.959 208.529 109.895 210.563 110.255L213.515 110.741C215.045 111.029 215.657 111.425 215.657 112.469C215.657 113.603 214.847 114.107 212.543 114.107C209.897 114.107 209.051 113.387 209.051 111.947V111.659H207.107V111.767C207.107 114.305 208.943 115.889 212.543 115.889ZM221.609 115.889C223.643 115.889 225.065 114.989 225.533 113.477H225.659V115.709H227.441V110.273C227.441 108.131 226.163 106.583 223.319 106.583C220.475 106.583 218.783 108.113 218.783 110.147V110.219H220.709V110.147C220.709 108.833 221.519 108.293 223.175 108.293C224.885 108.293 225.533 108.815 225.533 110.291V110.813L221.465 111.245C219.701 111.443 218.585 112.163 218.585 113.549C218.585 115.025 219.755 115.889 221.609 115.889ZM220.529 113.423C220.529 112.721 221.015 112.487 222.023 112.361L225.533 111.965C225.533 113.729 224.165 114.485 222.131 114.485C221.015 114.485 220.529 114.143 220.529 113.423ZM231.12 118.769V113.189H231.192C231.552 114.827 232.848 115.889 234.864 115.889C237.654 115.889 239.184 114.017 239.184 111.245C239.184 108.473 237.618 106.583 234.846 106.583C232.74 106.583 231.48 107.591 231.12 109.247H230.958V106.763H229.176V118.769H231.12ZM231.12 111.389V111.227C231.12 109.301 232.236 108.365 234.234 108.365C236.106 108.365 237.24 109.085 237.24 111.245C237.24 113.387 236.124 114.125 234.198 114.125C232.29 114.125 231.12 113.225 231.12 111.389ZM242.475 105.719V103.649H240.531V105.719H242.475ZM242.475 115.709V106.763H240.531V115.709H242.475ZM248.776 115.889C251.44 115.889 253.312 114.575 253.312 112.667V112.505H251.368V112.649C251.368 113.711 250.594 114.323 248.722 114.323C246.652 114.323 245.806 113.405 245.734 111.677H253.33C253.384 111.407 253.402 111.155 253.402 110.831C253.402 108.113 251.512 106.583 248.74 106.583C245.824 106.583 243.916 108.455 243.916 111.245C243.916 114.233 245.842 115.889 248.776 115.889ZM248.704 108.113C250.612 108.113 251.566 108.905 251.566 110.561V110.597H245.752C245.86 108.995 246.724 108.113 248.704 108.113ZM256.802 115.709V111.281C256.802 109.337 257.684 108.329 259.646 108.329C261.5 108.329 262.256 109.175 262.256 110.849V115.709H264.2V110.327C264.2 108.257 262.976 106.583 260.492 106.583C258.224 106.583 257.036 108.023 256.766 109.535H256.64V106.763H254.858V115.709H256.802ZM266.256 117.725C267.372 117.725 268.02 117.185 268.02 116.069V112.919H265.572V115.709H266.652V116.087C266.652 116.465 266.508 116.537 266.202 116.537H265.608V117.725H266.256ZM284.884 115.709V108.311L284.812 106.565H284.956L285.694 108.311L289.024 114.989H291.364L294.694 108.311L295.432 106.565H295.576L295.504 108.311V115.709H297.448V103.649H294.802L291.364 110.633L290.302 113.135H290.158L289.06 110.633L285.586 103.649H282.94V115.709H284.884ZM303.825 115.889C306.813 115.889 308.811 113.999 308.811 111.245C308.811 108.455 306.813 106.583 303.825 106.583C300.855 106.583 298.857 108.455 298.857 111.245C298.857 113.999 300.855 115.889 303.825 115.889ZM303.825 114.161C301.665 114.161 300.765 113.135 300.765 111.245C300.765 109.337 301.665 108.293 303.825 108.293C306.003 108.293 306.903 109.337 306.903 111.245C306.903 113.135 306.003 114.161 303.825 114.161ZM312.166 115.709V103.649H310.222V115.709H312.166ZM315.91 115.709V103.649H313.966V115.709H315.91ZM319.654 105.719V103.649H317.71V105.719H319.654ZM319.654 115.709V106.763H317.71V115.709H319.654ZM325.684 115.889C328.204 115.889 329.86 114.899 329.86 113.225C329.86 111.749 328.888 111.029 326.764 110.759L324.694 110.471C323.344 110.291 322.984 110.039 322.984 109.337C322.984 108.491 323.56 108.131 325.198 108.131C327.178 108.131 327.718 108.689 327.718 109.751V109.859H329.644V109.805C329.644 107.681 327.988 106.583 325.252 106.583C322.498 106.583 321.076 107.699 321.076 109.265C321.076 110.759 322.102 111.479 323.794 111.695L326.242 112.019C327.52 112.199 327.952 112.433 327.952 113.171C327.952 113.963 327.43 114.323 325.684 114.323C323.812 114.323 323.11 113.945 323.11 112.775V112.631H321.166V112.685C321.166 114.755 322.804 115.889 325.684 115.889ZM333.351 115.709V112.919H330.903V115.709H333.351ZM355.183 115.709L360.331 103.649H358.045L353.905 113.747H353.761L349.585 103.649H347.281L352.429 115.709H355.183ZM364.882 115.889C367.186 115.889 368.374 114.449 368.662 112.937H368.77V115.709H370.552V106.763H368.626V111.191C368.626 113.135 367.708 114.143 365.728 114.143C363.838 114.143 363.064 113.297 363.064 111.623V106.763H361.138V112.145C361.138 114.215 362.362 115.889 364.882 115.889ZM374.262 115.709V103.649H372.318V115.709H374.262ZM378.006 118.769V113.189H378.078C378.438 114.827 379.734 115.889 381.75 115.889C384.54 115.889 386.07 114.017 386.07 111.245C386.07 108.473 384.504 106.583 381.732 106.583C379.626 106.583 378.366 107.591 378.006 109.247H377.844V106.763H376.062V118.769H378.006ZM378.006 111.389V111.227C378.006 109.301 379.122 108.365 381.12 108.365C382.992 108.365 384.126 109.085 384.126 111.245C384.126 113.387 383.01 114.125 381.084 114.125C379.176 114.125 378.006 113.225 378.006 111.389ZM391.144 115.889C393.448 115.889 394.636 114.449 394.924 112.937H395.032V115.709H396.814V106.763H394.888V111.191C394.888 113.135 393.97 114.143 391.99 114.143C390.1 114.143 389.326 113.297 389.326 111.623V106.763H387.4V112.145C387.4 114.215 388.624 115.889 391.144 115.889ZM404.448 115.709V113.963H402.828C401.712 113.963 401.208 113.675 401.208 112.577V108.383H404.448V106.763H401.208V104.801H399.282V106.763H397.77V108.383H399.282V112.685C399.282 114.863 400.47 115.709 402.396 115.709H404.448ZM408.292 115.889C410.326 115.889 411.748 114.989 412.216 113.477H412.342V115.709H414.124V110.273C414.124 108.131 412.846 106.583 410.002 106.583C407.158 106.583 405.466 108.113 405.466 110.147V110.219H407.392V110.147C407.392 108.833 408.202 108.293 409.858 108.293C411.568 108.293 412.216 108.815 412.216 110.291V110.813L408.148 111.245C406.384 111.443 405.268 112.163 405.268 113.549C405.268 115.025 406.438 115.889 408.292 115.889ZM407.212 113.423C407.212 112.721 407.698 112.487 408.706 112.361L412.216 111.965C412.216 113.729 410.848 114.485 408.814 114.485C407.698 114.485 407.212 114.143 407.212 113.423ZM421.727 115.709V113.963H420.107C418.991 113.963 418.487 113.675 418.487 112.577V108.383H421.727V106.763H418.487V104.801H416.561V106.763H415.049V108.383H416.561V112.685C416.561 114.863 417.749 115.709 419.675 115.709H421.727ZM427.443 115.889C430.107 115.889 431.979 114.575 431.979 112.667V112.505H430.035V112.649C430.035 113.711 429.261 114.323 427.389 114.323C425.319 114.323 424.473 113.405 424.401 111.677H431.997C432.051 111.407 432.069 111.155 432.069 110.831C432.069 108.113 430.179 106.583 427.407 106.583C424.491 106.583 422.583 108.455 422.583 111.245C422.583 114.233 424.509 115.889 427.443 115.889ZM427.371 108.113C429.279 108.113 430.233 108.905 430.233 110.561V110.597H424.419C424.527 108.995 425.391 108.113 427.371 108.113ZM452.059 115.889C455.623 115.889 457.117 114.197 457.117 112.361C457.117 110.597 455.929 109.499 453.517 109.067L450.583 108.563C449.161 108.257 448.549 107.915 448.549 106.871C448.549 105.791 449.413 105.251 451.609 105.251C454.111 105.251 454.993 105.989 454.993 107.465V107.699H456.919V107.591C456.919 105.233 455.317 103.469 451.789 103.469C448.045 103.469 446.605 105.233 446.605 106.979C446.605 108.959 448.045 109.895 450.079 110.255L453.031 110.741C454.561 111.029 455.173 111.425 455.173 112.469C455.173 113.603 454.363 114.107 452.059 114.107C449.413 114.107 448.567 113.387 448.567 111.947V111.659H446.623V111.767C446.623 114.305 448.459 115.889 452.059 115.889ZM460.441 105.719V103.649H458.497V105.719H460.441ZM460.441 115.709V106.763H458.497V115.709H460.441ZM468.109 115.709V113.963H466.489C465.373 113.963 464.869 113.675 464.869 112.577V108.383H468.109V106.763H464.869V104.801H462.943V106.763H461.431V108.383H462.943V112.685C462.943 114.863 464.131 115.709 466.057 115.709H468.109ZM484.744 115.709V103.649H482.8V115.709H484.744ZM490.487 115.889C492.503 115.889 493.817 114.917 494.195 113.135H494.321V115.709H496.103V103.649H494.159V109.193H494.051C493.691 107.681 492.485 106.583 490.361 106.583C487.643 106.583 486.095 108.455 486.095 111.245C486.095 113.999 487.661 115.889 490.487 115.889ZM488.057 111.245C488.057 109.085 489.173 108.347 491.045 108.347C493.043 108.347 494.159 109.283 494.159 111.191V111.335C494.159 113.207 492.989 114.107 491.081 114.107C489.155 114.107 488.057 113.387 488.057 111.245ZM33.16 143.709L34.546 140.577H40.918L42.304 143.709H44.5L39.118 131.649H36.382L31 143.709H33.16ZM36.958 135.159L37.66 133.449H37.804L38.506 135.159L40.144 138.831H35.32L36.958 135.159ZM49.918 143.889C52.6 143.889 54.562 142.377 54.562 140.145V139.947H52.636V140.073C52.636 141.459 51.628 142.143 49.882 142.143C47.866 142.143 46.966 141.171 46.966 139.245C46.966 137.283 47.866 136.329 49.882 136.329C51.628 136.329 52.636 137.013 52.636 138.399V138.507H54.562V138.327C54.562 136.095 52.6 134.583 49.918 134.583C46.966 134.583 45.04 136.455 45.04 139.245C45.04 141.999 46.966 143.889 49.918 143.889ZM60.5176 143.889C63.1996 143.889 65.1616 142.377 65.1616 140.145V139.947H63.2356V140.073C63.2356 141.459 62.2276 142.143 60.4816 142.143C58.4656 142.143 57.5656 141.171 57.5656 139.245C57.5656 137.283 58.4656 136.329 60.4816 136.329C62.2276 136.329 63.2356 137.013 63.2356 138.399V138.507H65.1616V138.327C65.1616 136.095 63.1996 134.583 60.5176 134.583C57.5656 134.583 55.6396 136.455 55.6396 139.245C55.6396 141.999 57.5656 143.889 60.5176 143.889ZM70.3252 143.889C72.6292 143.889 73.8172 142.449 74.1052 140.937H74.2132V143.709H75.9952V134.763H74.0692V139.191C74.0692 141.135 73.1512 142.143 71.1712 142.143C69.2812 142.143 68.5072 141.297 68.5072 139.623V134.763H66.5812V140.145C66.5812 142.215 67.8052 143.889 70.3252 143.889ZM79.7053 143.709V139.281C79.7053 137.301 80.3713 136.329 82.2973 136.329C84.0253 136.329 84.7093 137.085 84.7093 138.849V143.709H86.6353V139.281C86.6353 137.301 87.3193 136.329 89.2273 136.329C90.9553 136.329 91.6573 137.085 91.6573 138.849V143.709H93.5833V138.327C93.5833 136.167 92.4133 134.583 90.0913 134.583C87.8233 134.583 86.8153 136.005 86.5813 137.535H86.4733C86.2213 135.825 85.1233 134.583 83.0893 134.583C80.8573 134.583 79.8853 135.969 79.6513 137.463H79.5433V134.763H77.7613V143.709H79.7053ZM99.5519 143.889C102.072 143.889 103.728 142.899 103.728 141.225C103.728 139.749 102.756 139.029 100.632 138.759L98.5619 138.471C97.2119 138.291 96.8519 138.039 96.8519 137.337C96.8519 136.491 97.4279 136.131 99.0659 136.131C101.046 136.131 101.586 136.689 101.586 137.751V137.859H103.512V137.805C103.512 135.681 101.856 134.583 99.1199 134.583C96.3659 134.583 94.9439 135.699 94.9439 137.265C94.9439 138.759 95.9699 139.479 97.6619 139.695L100.11 140.019C101.388 140.199 101.82 140.433 101.82 141.171C101.82 141.963 101.298 142.323 99.5519 142.323C97.6799 142.323 96.9779 141.945 96.9779 140.775V140.631H95.0339V140.685C95.0339 142.755 96.6719 143.889 99.5519 143.889ZM107.758 143.889C109.792 143.889 111.214 142.989 111.682 141.477H111.808V143.709H113.59V138.273C113.59 136.131 112.312 134.583 109.468 134.583C106.624 134.583 104.932 136.113 104.932 138.147V138.219H106.858V138.147C106.858 136.833 107.668 136.293 109.324 136.293C111.034 136.293 111.682 136.815 111.682 138.291V138.813L107.614 139.245C105.85 139.443 104.734 140.163 104.734 141.549C104.734 143.025 105.904 143.889 107.758 143.889ZM106.678 141.423C106.678 140.721 107.164 140.487 108.172 140.361L111.682 139.965C111.682 141.729 110.314 142.485 108.28 142.485C107.164 142.485 106.678 142.143 106.678 141.423ZM117.27 143.709V139.281C117.27 137.337 118.152 136.329 120.114 136.329C121.968 136.329 122.724 137.175 122.724 138.849V143.709H124.668V138.327C124.668 136.257 123.444 134.583 120.96 134.583C118.692 134.583 117.504 136.023 117.234 137.535H117.108V134.763H115.326V143.709H117.27ZM126.724 145.725C127.84 145.725 128.488 145.185 128.488 144.069V140.919H126.04V143.709H127.12V144.087C127.12 144.465 126.976 144.537 126.67 144.537H126.076V145.725H126.724ZM138.589 143.889C142.207 143.889 144.259 141.981 144.259 138.705V131.649H142.315V138.579C142.315 141.009 141.235 142.017 138.589 142.017C135.943 142.017 134.863 141.009 134.863 138.579V131.649H132.937V138.705C132.937 141.981 134.989 143.889 138.589 143.889ZM147.926 143.709V131.649H145.982V143.709H147.926ZM155.594 143.709V141.963H153.974C152.858 141.963 152.354 141.675 152.354 140.577V136.383H155.594V134.763H152.354V132.801H150.428V134.763H148.916V136.383H150.428V140.685C150.428 142.863 151.616 143.709 153.542 143.709H155.594ZM158.754 143.709V138.687C158.754 137.085 159.384 136.239 160.914 136.239C162.246 136.239 162.786 136.833 162.786 138.111V138.903H164.712V137.733C164.712 136.041 163.83 134.583 161.796 134.583C159.96 134.583 158.988 135.735 158.718 137.175H158.592V134.763H156.81V143.709H158.754ZM167.877 133.719V131.649H165.933V133.719H167.877ZM167.877 143.709V134.763H165.933V143.709H167.877ZM174.195 143.889C176.877 143.889 178.839 142.377 178.839 140.145V139.947H176.913V140.073C176.913 141.459 175.905 142.143 174.159 142.143C172.143 142.143 171.243 141.171 171.243 139.245C171.243 137.283 172.143 136.329 174.159 136.329C175.905 136.329 176.913 137.013 176.913 138.399V138.507H178.839V138.327C178.839 136.095 176.877 134.583 174.195 134.583C171.243 134.583 169.317 136.455 169.317 139.245C169.317 141.999 171.243 143.889 174.195 143.889ZM182.221 133.719V131.649H180.277V133.719H182.221ZM182.221 143.709V134.763H180.277V143.709H182.221ZM188.521 143.889C191.185 143.889 193.057 142.575 193.057 140.667V140.505H191.113V140.649C191.113 141.711 190.339 142.323 188.467 142.323C186.397 142.323 185.551 141.405 185.479 139.677H193.075C193.129 139.407 193.147 139.155 193.147 138.831C193.147 136.113 191.257 134.583 188.485 134.583C185.569 134.583 183.661 136.455 183.661 139.245C183.661 142.233 185.587 143.889 188.521 143.889ZM188.449 136.113C190.357 136.113 191.311 136.905 191.311 138.561V138.597H185.497C185.605 136.995 186.469 136.113 188.449 136.113ZM198.833 143.889C201.353 143.889 203.009 142.899 203.009 141.225C203.009 139.749 202.037 139.029 199.913 138.759L197.843 138.471C196.493 138.291 196.133 138.039 196.133 137.337C196.133 136.491 196.709 136.131 198.347 136.131C200.327 136.131 200.867 136.689 200.867 137.751V137.859H202.793V137.805C202.793 135.681 201.137 134.583 198.401 134.583C195.647 134.583 194.225 135.699 194.225 137.265C194.225 138.759 195.251 139.479 196.943 139.695L199.391 140.019C200.669 140.199 201.101 140.433 201.101 141.171C201.101 141.963 200.579 142.323 198.833 142.323C196.961 142.323 196.259 141.945 196.259 140.775V140.631H194.315V140.685C194.315 142.755 195.953 143.889 198.833 143.889ZM206.5 143.709V140.919H204.052V143.709H206.5ZM212.965 143.709V131.649H211.021V143.709H212.965ZM216.709 143.709V139.281C216.709 137.337 217.591 136.329 219.553 136.329C221.407 136.329 222.163 137.175 222.163 138.849V143.709H224.107V138.327C224.107 136.257 222.883 134.583 220.399 134.583C218.131 134.583 216.943 136.023 216.673 137.535H216.547V134.763H214.765V143.709H216.709ZM234.496 143.889C238.114 143.889 240.166 141.981 240.166 138.705V131.649H238.222V138.579C238.222 141.009 237.142 142.017 234.496 142.017C231.85 142.017 230.77 141.009 230.77 138.579V131.649H228.844V138.705C228.844 141.981 230.896 143.889 234.496 143.889ZM243.832 143.709V131.649H241.888V143.709H243.832ZM251.5 143.709V141.963H249.88C248.764 141.963 248.26 141.675 248.26 140.577V136.383H251.5V134.763H248.26V132.801H246.334V134.763H244.822V136.383H246.334V140.685C246.334 142.863 247.522 143.709 249.448 143.709H251.5ZM254.66 143.709V138.687C254.66 137.085 255.29 136.239 256.82 136.239C258.152 136.239 258.692 136.833 258.692 138.111V138.903H260.618V137.733C260.618 136.041 259.736 134.583 257.702 134.583C255.866 134.583 254.894 135.735 254.624 137.175H254.498V134.763H252.716V143.709H254.66ZM263.783 133.719V131.649H261.839V133.719H263.783ZM263.783 143.709V134.763H261.839V143.709H263.783ZM270.102 143.889C272.784 143.889 274.746 142.377 274.746 140.145V139.947H272.82V140.073C272.82 141.459 271.812 142.143 270.066 142.143C268.05 142.143 267.15 141.171 267.15 139.245C267.15 137.283 268.05 136.329 270.066 136.329C271.812 136.329 272.82 137.013 272.82 138.399V138.507H274.746V138.327C274.746 136.095 272.784 134.583 270.102 134.583C267.15 134.583 265.224 136.455 265.224 139.245C265.224 141.999 267.15 143.889 270.102 143.889ZM280.683 143.889C283.347 143.889 285.219 142.575 285.219 140.667V140.505H283.275V140.649C283.275 141.711 282.501 142.323 280.629 142.323C278.559 142.323 277.713 141.405 277.641 139.677H285.237C285.291 139.407 285.309 139.155 285.309 138.831C285.309 136.113 283.419 134.583 280.647 134.583C277.731 134.583 275.823 136.455 275.823 139.245C275.823 142.233 277.749 143.889 280.683 143.889ZM280.611 136.113C282.519 136.113 283.473 136.905 283.473 138.561V138.597H277.659C277.767 136.995 278.631 136.113 280.611 136.113ZM290.995 143.889C293.515 143.889 295.171 142.899 295.171 141.225C295.171 139.749 294.199 139.029 292.075 138.759L290.005 138.471C288.655 138.291 288.295 138.039 288.295 137.337C288.295 136.491 288.871 136.131 290.509 136.131C292.489 136.131 293.029 136.689 293.029 137.751V137.859H294.955V137.805C294.955 135.681 293.299 134.583 290.563 134.583C287.809 134.583 286.387 135.699 286.387 137.265C286.387 138.759 287.413 139.479 289.105 139.695L291.553 140.019C292.831 140.199 293.263 140.433 293.263 141.171C293.263 141.963 292.741 142.323 290.995 142.323C289.123 142.323 288.421 141.945 288.421 140.775V140.631H286.477V140.685C286.477 142.755 288.115 143.889 290.995 143.889ZM301.594 143.709V136.311L301.522 134.565H301.666L302.404 136.311L305.734 142.989H308.074L311.404 136.311L312.142 134.565H312.286L312.214 136.311V143.709H314.158V131.649H311.512L308.074 138.633L307.012 141.135H306.868L305.77 138.633L302.296 131.649H299.65V143.709H301.594ZM318.591 143.889C320.625 143.889 322.047 142.989 322.515 141.477H322.641V143.709H324.423V138.273C324.423 136.131 323.145 134.583 320.301 134.583C317.457 134.583 315.765 136.113 315.765 138.147V138.219H317.691V138.147C317.691 136.833 318.501 136.293 320.157 136.293C321.867 136.293 322.515 136.815 322.515 138.291V138.813L318.447 139.245C316.683 139.443 315.567 140.163 315.567 141.549C315.567 143.025 316.737 143.889 318.591 143.889ZM317.511 141.423C317.511 140.721 317.997 140.487 319.005 140.361L322.515 139.965C322.515 141.729 321.147 142.485 319.113 142.485C317.997 142.485 317.511 142.143 317.511 141.423ZM328.102 143.709V131.649H326.158V143.709H328.102ZM334.402 143.889C337.066 143.889 338.938 142.575 338.938 140.667V140.505H336.994V140.649C336.994 141.711 336.22 142.323 334.348 142.323C332.278 142.323 331.432 141.405 331.36 139.677H338.956C339.01 139.407 339.028 139.155 339.028 138.831C339.028 136.113 337.138 134.583 334.366 134.583C331.45 134.583 329.542 136.455 329.542 139.245C329.542 142.233 331.468 143.889 334.402 143.889ZM334.33 136.113C336.238 136.113 337.192 136.905 337.192 138.561V138.597H331.378C331.486 136.995 332.35 136.113 334.33 136.113ZM344.714 143.889C347.234 143.889 348.89 142.899 348.89 141.225C348.89 139.749 347.918 139.029 345.794 138.759L343.724 138.471C342.374 138.291 342.014 138.039 342.014 137.337C342.014 136.491 342.59 136.131 344.228 136.131C346.208 136.131 346.748 136.689 346.748 137.751V137.859H348.674V137.805C348.674 135.681 347.018 134.583 344.282 134.583C341.528 134.583 340.106 135.699 340.106 137.265C340.106 138.759 341.132 139.479 342.824 139.695L345.272 140.019C346.55 140.199 346.982 140.433 346.982 141.171C346.982 141.963 346.46 142.323 344.714 142.323C342.842 142.323 342.14 141.945 342.14 140.775V140.631H340.196V140.685C340.196 142.755 341.834 143.889 344.714 143.889ZM354.019 143.889C356.323 143.889 357.511 142.449 357.799 140.937H357.907V143.709H359.689V134.763H357.763V139.191C357.763 141.135 356.845 142.143 354.865 142.143C352.975 142.143 352.201 141.297 352.201 139.623V134.763H350.275V140.145C350.275 142.215 351.499 143.889 354.019 143.889ZM364.083 143.889C366.117 143.889 367.539 142.989 368.007 141.477H368.133V143.709H369.915V138.273C369.915 136.131 368.637 134.583 365.793 134.583C362.949 134.583 361.257 136.113 361.257 138.147V138.219H363.183V138.147C363.183 136.833 363.993 136.293 365.649 136.293C367.359 136.293 368.007 136.815 368.007 138.291V138.813L363.939 139.245C362.175 139.443 361.059 140.163 361.059 141.549C361.059 143.025 362.229 143.889 364.083 143.889ZM363.003 141.423C363.003 140.721 363.489 140.487 364.497 140.361L368.007 139.965C368.007 141.729 366.639 142.485 364.605 142.485C363.489 142.485 363.003 142.143 363.003 141.423ZM375.592 143.889C377.608 143.889 378.922 142.917 379.3 141.135H379.426V143.709H381.208V131.649H379.264V137.193H379.156C378.796 135.681 377.59 134.583 375.466 134.583C372.748 134.583 371.2 136.455 371.2 139.245C371.2 141.999 372.766 143.889 375.592 143.889ZM373.162 139.245C373.162 137.085 374.278 136.347 376.15 136.347C378.148 136.347 379.264 137.283 379.264 139.191V139.335C379.264 141.207 378.094 142.107 376.186 142.107C374.26 142.107 373.162 141.387 373.162 139.245ZM385.633 143.889C387.667 143.889 389.089 142.989 389.557 141.477H389.683V143.709H391.465V138.273C391.465 136.131 390.187 134.583 387.343 134.583C384.499 134.583 382.807 136.113 382.807 138.147V138.219H384.733V138.147C384.733 136.833 385.543 136.293 387.199 136.293C388.909 136.293 389.557 136.815 389.557 138.291V138.813L385.489 139.245C383.725 139.443 382.609 140.163 382.609 141.549C382.609 143.025 383.779 143.889 385.633 143.889ZM384.553 141.423C384.553 140.721 385.039 140.487 386.047 140.361L389.557 139.965C389.557 141.729 388.189 142.485 386.155 142.485C385.039 142.485 384.553 142.143 384.553 141.423ZM405.925 143.709V141.963H398.221V138.507H405.655V136.779H398.221V133.395H405.925V131.649H396.277V143.709H405.925ZM409.383 143.709V131.649H407.439V143.709H409.383ZM413.127 133.719V131.649H411.183V133.719H413.127ZM413.127 143.709V134.763H411.183V143.709H413.127ZM420.795 143.709V141.963H419.175C418.059 141.963 417.555 141.675 417.555 140.577V136.383H420.795V134.763H417.555V132.801H415.629V134.763H414.117V136.383H415.629V140.685C415.629 142.863 416.817 143.709 418.743 143.709H420.795ZM427.032 143.709V136.311L426.96 134.565H427.104L427.842 136.311L431.172 142.989H433.512L436.842 136.311L437.58 134.565H437.724L437.652 136.311V143.709H439.596V131.649H436.95L433.512 138.633L432.45 141.135H432.306L431.208 138.633L427.734 131.649H425.088V143.709H427.032ZM444.028 143.889C446.062 143.889 447.484 142.989 447.952 141.477H448.078V143.709H449.86V138.273C449.86 136.131 448.582 134.583 445.738 134.583C442.894 134.583 441.202 136.113 441.202 138.147V138.219H443.128V138.147C443.128 136.833 443.938 136.293 445.594 136.293C447.304 136.293 447.952 136.815 447.952 138.291V138.813L443.884 139.245C442.12 139.443 441.004 140.163 441.004 141.549C441.004 143.025 442.174 143.889 444.028 143.889ZM442.948 141.423C442.948 140.721 443.434 140.487 444.442 140.361L447.952 139.965C447.952 141.729 446.584 142.485 444.55 142.485C443.434 142.485 442.948 142.143 442.948 141.423ZM455.321 143.889C457.625 143.889 458.813 142.449 459.101 140.937H459.209V143.709H460.991V134.763H459.065V139.191C459.065 141.135 458.147 142.143 456.167 142.143C454.277 142.143 453.503 141.297 453.503 139.623V134.763H451.577V140.145C451.577 142.215 452.801 143.889 455.321 143.889ZM464.701 143.709V138.687C464.701 137.085 465.331 136.239 466.861 136.239C468.193 136.239 468.733 136.833 468.733 138.111V138.903H470.659V137.733C470.659 136.041 469.777 134.583 467.743 134.583C465.907 134.583 464.935 135.735 464.665 137.175H464.539V134.763H462.757V143.709H464.701ZM473.824 133.719V131.649H471.88V133.719H473.824ZM473.824 143.709V134.763H471.88V143.709H473.824ZM479.855 143.889C482.375 143.889 484.031 142.899 484.031 141.225C484.031 139.749 483.059 139.029 480.935 138.759L478.865 138.471C477.515 138.291 477.155 138.039 477.155 137.337C477.155 136.491 477.731 136.131 479.369 136.131C481.349 136.131 481.889 136.689 481.889 137.751V137.859H483.815V137.805C483.815 135.681 482.159 134.583 479.423 134.583C476.669 134.583 475.247 135.699 475.247 137.265C475.247 138.759 476.273 139.479 477.965 139.695L480.413 140.019C481.691 140.199 482.123 140.433 482.123 141.171C482.123 141.963 481.601 142.323 479.855 142.323C477.983 142.323 477.281 141.945 477.281 140.775V140.631H475.337V140.685C475.337 142.755 476.975 143.889 479.855 143.889ZM487.521 143.709V140.919H485.073V143.709H487.521Z" fill="white"/>
<path d="M42.564 54.7087V39.7287H49.536V35.9487H31.392V39.7287H38.364V54.7087H42.564ZM55.2419 54.7087V47.6807C55.2419 45.3287 56.1099 44.1807 58.9379 44.1807C61.5699 44.1807 62.5779 45.0207 62.5779 47.3727V54.7087H66.7779V46.1127C66.7779 42.8647 64.9299 40.4007 61.1499 40.4007C57.5659 40.4007 55.9139 42.5847 55.4659 44.9647H55.2419V35.9487H51.0419V54.7087H55.2419ZM76.3453 54.9887C80.7973 54.9887 83.7653 52.8607 83.7653 49.8087V49.5007H79.5653V49.7807C79.5653 50.9847 78.6973 51.6287 76.2053 51.6287C73.4893 51.6287 72.4813 50.7047 72.3693 48.5487H83.7933C83.8493 48.0727 83.9053 47.7087 83.9053 47.2047C83.9053 42.8087 80.8533 40.4007 76.2613 40.4007C71.6413 40.4007 68.4773 43.2287 68.4773 47.7087C68.4773 52.6927 71.6693 54.9887 76.3453 54.9887ZM76.1773 43.6767C78.6413 43.6767 79.7613 44.4887 79.8733 46.3367H72.4253C72.6213 44.5167 73.6853 43.6767 76.1773 43.6767ZM101.711 54.7087C105.911 54.7087 107.871 52.6927 107.871 49.5007C107.871 46.9807 106.191 45.2447 102.719 44.9927V44.7407C105.855 44.5167 107.087 42.8367 107.087 40.5127C107.087 37.5727 105.015 35.9487 101.179 35.9487H89.9227V54.7087H101.711ZM94.1227 39.7287H100.647C102.215 39.7287 102.887 40.2887 102.887 41.5767C102.887 42.8647 102.243 43.3967 100.703 43.3967H94.1227V39.7287ZM94.1227 46.8687H101.207C102.915 46.8687 103.615 47.4007 103.615 48.8847C103.615 50.3967 102.915 50.9287 101.207 50.9287H94.1227V46.8687ZM116.869 54.9887C121.321 54.9887 124.289 52.8607 124.289 49.8087V49.5007H120.089V49.7807C120.089 50.9847 119.221 51.6287 116.729 51.6287C114.013 51.6287 113.005 50.7047 112.893 48.5487H124.317C124.373 48.0727 124.429 47.7087 124.429 47.2047C124.429 42.8087 121.377 40.4007 116.785 40.4007C112.165 40.4007 109.001 43.2287 109.001 47.7087C109.001 52.6927 112.193 54.9887 116.869 54.9887ZM116.701 43.6767C119.165 43.6767 120.285 44.4887 120.397 46.3367H112.949C113.145 44.5167 114.209 43.6767 116.701 43.6767ZM133.294 54.9887C137.634 54.9887 140.238 53.2527 140.238 50.6207C140.238 48.2967 138.838 47.0367 135.086 46.6167L132.09 46.2527C130.242 46.0287 129.85 45.7207 129.85 44.9927C129.85 44.0967 130.382 43.7327 132.482 43.7327C135.058 43.7327 135.618 44.3207 135.618 45.4687V45.6367H139.818V45.5527C139.818 42.1367 137.214 40.4007 132.622 40.4007C127.806 40.4007 125.706 42.3607 125.706 44.8247C125.706 47.1767 127.274 48.4367 130.074 48.7447L134.022 49.2207C135.674 49.4447 136.094 49.6687 136.094 50.4527C136.094 51.2927 135.562 51.6567 133.322 51.6567C130.942 51.6567 130.158 51.3207 130.158 50.0607V49.8087H125.958V49.8927C125.958 53.1407 128.562 54.9887 133.294 54.9887ZM151.817 54.7087V50.9287H149.297C147.812 50.9287 147.281 50.5647 147.281 49.1647V44.1527H151.817V40.6807H147.281V37.9647H143.081V40.6807H140.869V44.1527H143.081V49.6407C143.081 53.1687 145.069 54.7087 148.345 54.7087H151.817ZM161.91 54.7087V47.7087H173.166V43.9567H161.91V39.7287H173.586V35.9487H157.71V54.7087H161.91ZM179.574 39.2527V35.9487H175.374V39.2527H179.574ZM179.574 54.7087V40.6807H175.374V54.7087H179.574ZM185.972 54.7087V47.6247C185.972 45.2447 186.924 44.1807 189.584 44.1807C192.16 44.1807 193.084 45.1327 193.084 47.3727V54.7087H197.284V45.9727C197.284 42.8647 195.464 40.4007 191.628 40.4007C187.96 40.4007 186.28 42.6407 185.916 44.9927H185.664V40.6807H181.772V54.7087H185.972ZM203.721 54.9887C206.829 54.9887 208.789 53.6727 209.433 51.4887H209.657V54.7087H213.577V46.4767C213.577 42.8087 211.365 40.4007 206.689 40.4007C202.069 40.4007 199.157 42.8087 199.157 46.2807V46.3647H203.385V46.2527C203.385 44.6567 204.253 44.0967 206.381 44.0967C208.621 44.0967 209.433 44.6007 209.433 46.4207V46.9527L203.413 47.5687C200.417 47.8767 198.877 49.1647 198.877 51.2367C198.877 53.5887 200.697 54.9887 203.721 54.9887ZM203.105 50.9567C203.105 50.2847 203.553 50.0047 204.561 49.9207L209.433 49.3607C209.321 51.3487 207.781 52.0207 204.925 52.0207C203.693 52.0207 203.105 51.7127 203.105 50.9567ZM219.906 54.7087V47.6247C219.906 45.2447 220.858 44.1807 223.518 44.1807C226.094 44.1807 227.018 45.1327 227.018 47.3727V54.7087H231.218V45.9727C231.218 42.8647 229.398 40.4007 225.562 40.4007C221.894 40.4007 220.214 42.6407 219.85 44.9927H219.598V40.6807H215.706V54.7087H219.906ZM240.819 54.9887C245.327 54.9887 248.407 52.5527 248.407 48.9407V48.5487H244.235V48.7727C244.235 50.5647 242.919 51.2087 240.735 51.2087C238.243 51.2087 237.095 50.2847 237.095 47.7087C237.095 45.1047 238.243 44.1807 240.735 44.1807C242.919 44.1807 244.235 44.8247 244.235 46.6167V46.8407H248.407V46.4487C248.407 42.8087 245.327 40.4007 240.819 40.4007C236.003 40.4007 232.923 43.2287 232.923 47.7087C232.923 52.1327 236.003 54.9887 240.819 54.9887ZM254.414 39.2527V35.9487H250.214V39.2527H254.414ZM254.414 54.7087V40.6807H250.214V54.7087H254.414ZM260.924 54.9887C264.032 54.9887 265.992 53.6727 266.636 51.4887H266.86V54.7087H270.78V46.4767C270.78 42.8087 268.568 40.4007 263.892 40.4007C259.272 40.4007 256.36 42.8087 256.36 46.2807V46.3647H260.588V46.2527C260.588 44.6567 261.456 44.0967 263.584 44.0967C265.824 44.0967 266.636 44.6007 266.636 46.4207V46.9527L260.616 47.5687C257.62 47.8767 256.08 49.1647 256.08 51.2367C256.08 53.5887 257.9 54.9887 260.924 54.9887ZM260.308 50.9567C260.308 50.2847 260.756 50.0047 261.764 49.9207L266.636 49.3607C266.524 51.3487 264.984 52.0207 262.128 52.0207C260.896 52.0207 260.308 51.7127 260.308 50.9567ZM277.109 54.7087V35.9487H272.909V54.7087H277.109ZM287.072 54.7087L288.864 50.5647H298.244L300.008 54.7087H304.824L296.564 35.9487H290.572L282.368 54.7087H287.072ZM292.252 42.6967L293.4 39.7847H293.708L294.856 42.6967L296.62 46.7847H290.488L292.252 42.6967ZM313.28 54.9887C317.788 54.9887 320.868 52.5527 320.868 48.9407V48.5487H316.696V48.7727C316.696 50.5647 315.38 51.2087 313.196 51.2087C310.704 51.2087 309.556 50.2847 309.556 47.7087C309.556 45.1047 310.704 44.1807 313.196 44.1807C315.38 44.1807 316.696 44.8247 316.696 46.6167V46.8407H320.868V46.4487C320.868 42.8087 317.788 40.4007 313.28 40.4007C308.464 40.4007 305.384 43.2287 305.384 47.7087C305.384 52.1327 308.464 54.9887 313.28 54.9887ZM330.151 54.9887C334.659 54.9887 337.739 52.5527 337.739 48.9407V48.5487H333.567V48.7727C333.567 50.5647 332.251 51.2087 330.067 51.2087C327.575 51.2087 326.427 50.2847 326.427 47.7087C326.427 45.1047 327.575 44.1807 330.067 44.1807C332.251 44.1807 333.567 44.8247 333.567 46.6167V46.8407H337.739V46.4487C337.739 42.8087 334.659 40.4007 330.151 40.4007C325.335 40.4007 322.255 43.2287 322.255 47.7087C322.255 52.1327 325.335 54.9887 330.151 54.9887ZM347.022 54.9887C351.81 54.9887 355.03 52.1327 355.03 47.7087C355.03 43.2287 351.81 40.4007 347.022 40.4007C342.234 40.4007 339.014 43.2287 339.014 47.7087C339.014 52.1327 342.234 54.9887 347.022 54.9887ZM347.022 51.2647C344.166 51.2647 343.186 50.1727 343.186 47.7087C343.186 45.2447 344.166 44.0967 347.022 44.0967C349.85 44.0967 350.858 45.2447 350.858 47.7087C350.858 50.1727 349.85 51.2647 347.022 51.2647ZM362.541 54.9887C366.237 54.9887 367.945 52.7767 368.309 50.4247H368.533V54.7087H372.453V40.6807H368.253V47.7927C368.253 50.1727 367.273 51.2367 364.529 51.2367C361.869 51.2367 360.917 50.2847 360.917 48.0167V40.6807H356.717V49.4167C356.717 52.5527 358.593 54.9887 362.541 54.9887ZM378.8 54.7087V47.6247C378.8 45.2447 379.752 44.1807 382.412 44.1807C384.988 44.1807 385.912 45.1327 385.912 47.3727V54.7087H390.112V45.9727C390.112 42.8647 388.292 40.4007 384.456 40.4007C380.788 40.4007 379.108 42.6407 378.744 44.9927H378.492V40.6807H374.6V54.7087H378.8ZM402.121 54.7087V50.9287H399.601C398.117 50.9287 397.585 50.5647 397.585 49.1647V44.1527H402.121V40.6807H397.585V37.9647H393.385V40.6807H391.173V44.1527H393.385V49.6407C393.385 53.1687 395.373 54.7087 398.649 54.7087H402.121ZM407.894 39.2527V35.9487H403.694V39.2527H407.894ZM407.894 54.7087V40.6807H403.694V54.7087H407.894ZM414.293 54.7087V47.6247C414.293 45.2447 415.245 44.1807 417.905 44.1807C420.481 44.1807 421.405 45.1327 421.405 47.3727V54.7087H425.605V45.9727C425.605 42.8647 423.785 40.4007 419.949 40.4007C416.281 40.4007 414.601 42.6407 414.237 44.9927H413.985V40.6807H410.093V54.7087H414.293ZM433.889 53.2807C437.025 53.2807 438.677 51.8527 439.125 49.7807H439.349V52.9447C439.349 55.6887 438.537 56.2487 435.849 56.2487C432.993 56.2487 432.377 55.7727 432.377 54.2047H428.177C428.177 57.7327 431.033 59.7487 435.569 59.7487C440.581 59.7487 443.549 57.5647 443.549 52.6647V40.6807H439.629V44.0687H439.405C438.957 41.6327 436.913 40.4007 434.057 40.4007C429.857 40.4007 427.309 42.9207 427.309 46.8407C427.309 50.7887 429.717 53.2807 433.889 53.2807ZM431.537 46.8407C431.537 44.7687 432.713 44.0407 435.401 44.0407C438.005 44.0407 439.349 44.7687 439.349 46.6727V46.9807C439.349 48.9127 438.033 49.6687 435.345 49.6687C432.713 49.6687 431.537 48.9127 431.537 46.8407ZM35.564 82.7087L37.356 78.5647H46.736L48.5 82.7087H53.316L45.056 63.9487H39.064L30.86 82.7087H35.564ZM40.744 70.6967L41.892 67.7847H42.2L43.348 70.6967L45.112 74.7847H38.98L40.744 70.6967ZM58.4958 87.4687V78.9287H58.6918C59.1678 81.3927 60.9598 82.9887 64.2078 82.9887C68.4358 82.9887 70.7878 80.1607 70.7878 75.7087C70.7878 71.2567 68.3798 68.4007 64.0678 68.4007C60.7638 68.4007 58.9718 69.8287 58.4678 72.5167H58.1878V68.6807H54.2958V87.4687H58.4958ZM58.4958 75.9047V75.6807C58.4958 73.1887 59.8958 72.2647 62.6118 72.2647C65.2718 72.2647 66.5318 73.1327 66.5318 75.7087C66.5318 78.2567 65.2718 79.1527 62.5838 79.1527C59.9518 79.1527 58.4958 78.3127 58.4958 75.9047ZM76.7341 87.4687V78.9287H76.9301C77.4061 81.3927 79.1981 82.9887 82.4461 82.9887C86.6741 82.9887 89.0261 80.1607 89.0261 75.7087C89.0261 71.2567 86.6181 68.4007 82.3061 68.4007C79.0021 68.4007 77.2101 69.8287 76.7061 72.5167H76.4261V68.6807H72.5341V87.4687H76.7341ZM76.7341 75.9047V75.6807C76.7341 73.1887 78.1341 72.2647 80.8501 72.2647C83.5101 72.2647 84.7701 73.1327 84.7701 75.7087C84.7701 78.2567 83.5101 79.1527 80.8221 79.1527C78.1901 79.1527 76.7341 78.3127 76.7341 75.9047ZM110.969 82.7087V78.9287H99.2927V75.1487H110.549V71.3967H99.2927V67.7287H110.969V63.9487H95.0927V82.7087H110.969ZM123.31 82.7087L129.722 68.6807H125.13L120.902 78.6207H120.622L116.422 68.6807H111.746L118.13 82.7087H123.31ZM138.279 82.9887C142.731 82.9887 145.699 80.8607 145.699 77.8087V77.5007H141.499V77.7807C141.499 78.9847 140.631 79.6287 138.139 79.6287C135.423 79.6287 134.415 78.7047 134.303 76.5487H145.727C145.783 76.0727 145.839 75.7087 145.839 75.2047C145.839 70.8087 142.787 68.4007 138.195 68.4007C133.575 68.4007 130.411 71.2287 130.411 75.7087C130.411 80.6927 133.603 82.9887 138.279 82.9887ZM138.111 71.6767C140.575 71.6767 141.695 72.4887 141.807 74.3367H134.359C134.555 72.5167 135.619 71.6767 138.111 71.6767ZM151.82 82.7087V74.5887C151.82 72.8247 152.492 71.9567 154.368 71.9567C156.076 71.9567 156.692 72.6287 156.692 74.1687V75.6247H160.892V73.3007C160.892 70.5567 159.604 68.4007 156.468 68.4007C153.64 68.4007 152.156 70.1367 151.764 72.4047H151.512V68.6807H147.62V82.7087H151.82ZM167.537 76.5487C167.537 74.2807 168.125 68.0647 168.125 65.9087V63.9487H162.721V65.9087C162.721 68.0647 163.309 74.2527 163.309 76.5487H167.537ZM167.817 82.7087V78.1447H163.029V82.7087H167.817Z" fill="white"/>
</svg>
