<svg width="455" height="129" viewBox="0 0 455 129" fill="none" xmlns="http://www.w3.org/2000/svg">
<path d="M53.4424 71.7087L57.2824 57.9327L59.5384 47.8527H60.1624L62.2744 57.9327L65.6344 71.7087H79.0264L86.3704 39.5487H76.4824L73.4584 55.9167L72.4984 63.1647H71.8744L70.7224 55.9167L66.7864 39.5487H53.2024L48.8824 55.9167L47.5864 63.1647H46.9624L46.0984 55.9167L43.4104 39.5487H33.3304L40.0504 71.7087H53.4424ZM97.2687 71.7087V59.2287C97.2687 56.1087 98.2767 55.1007 102.453 55.1007C106.581 55.1007 107.877 56.1567 107.877 59.5167V71.7087H116.901V56.4927C116.901 51.1167 113.829 47.0367 107.397 47.0367C101.205 47.0367 98.5167 50.7807 97.7487 54.8607H97.2687V39.5487H88.2447V71.7087H97.2687ZM127.428 72.1887C132.66 72.1887 135.636 70.0287 136.548 66.6207H137.028V71.7087H145.476V57.9327C145.476 51.1647 141.396 47.0367 132.948 47.0367C124.74 47.0367 119.364 51.1647 119.364 57.5967V57.6927H128.388V57.5007C128.388 55.4847 129.3 54.9087 132.276 54.9087C135.492 54.9087 136.548 55.2927 136.548 57.7407V58.2207L126.708 59.1807C121.236 59.7087 118.884 62.1567 118.884 65.5647C118.884 69.6927 121.956 72.1887 127.428 72.1887ZM127.956 64.9887C127.956 64.4607 128.292 64.1727 129.108 64.0767L136.5 63.2127C136.26 65.3727 134.484 65.9007 130.116 65.9007C128.724 65.9007 127.956 65.7567 127.956 64.9887ZM166.247 71.7087V63.5967H161.927C159.863 63.5967 159.287 63.1167 159.287 61.1967V54.9087H166.247V47.5167H159.287V43.3407H150.263V47.5167H146.711V54.9087H150.263V62.4927C150.263 68.7807 153.863 71.7087 159.911 71.7087H166.247ZM192.432 72.1887C203.904 72.1887 210.432 65.6607 210.432 55.6287C210.432 45.5967 203.904 39.0687 192.432 39.0687C181.248 39.0687 174.624 45.5967 174.624 55.6287C174.624 65.6607 181.248 72.1887 192.432 72.1887ZM192.432 63.5487C185.904 63.5487 184.224 62.0127 184.224 55.6287C184.224 49.2447 185.904 47.7087 192.432 47.7087C198.96 47.7087 200.832 49.2447 200.832 55.6287C200.832 62.0127 198.96 63.5487 192.432 63.5487ZM222.774 72.1887C229.35 72.1887 232.038 68.3967 232.566 64.3647H233.046V71.7087H241.494V47.5167H232.47V59.9967C232.47 63.1167 231.462 64.1247 227.286 64.1247C223.158 64.1247 221.862 63.0687 221.862 59.7087V47.5167H212.838V63.0207C212.838 68.2527 216.006 72.1887 222.774 72.1887ZM253.222 71.7087V57.2607C253.222 55.3407 253.942 54.6207 256.39 54.6207C258.742 54.6207 259.51 55.3407 259.51 57.3567V60.1887H268.534V55.3887C268.534 50.5407 266.422 47.0367 261.094 47.0367C256.294 47.0367 253.798 49.8687 253.126 53.8527H252.646V47.5167H244.198V71.7087H253.222ZM293.375 72.1887C304.607 72.1887 309.791 66.7647 309.791 58.2207V39.5487H300.767V57.5007C300.767 62.0607 299.471 63.4527 293.375 63.4527C287.279 63.4527 285.983 62.0607 285.983 57.5007V39.5487H276.959V58.2207C276.959 66.7647 282.143 72.1887 293.375 72.1887ZM325.503 72.1887C333.519 72.1887 338.031 68.9247 338.031 64.4127C338.031 60.3327 335.775 57.9807 328.719 57.2127L323.919 56.6847C321.087 56.3967 320.703 56.0607 320.703 55.3887C320.703 54.4767 321.087 54.0927 324.015 54.0927C327.663 54.0927 328.143 54.6687 328.143 55.9167V56.2047H337.167V56.0127C337.167 50.0607 332.703 47.0367 324.303 47.0367C315.231 47.0367 311.823 50.7327 311.823 55.0047C311.823 59.0847 314.511 61.4367 319.503 61.9647L326.511 62.7327C328.767 62.9727 329.151 63.1647 329.151 63.9327C329.151 64.7487 328.671 65.0847 325.551 65.0847C322.287 65.0847 321.423 64.9407 321.423 63.5967V63.1167H312.399V63.3087C312.399 68.8767 316.959 72.1887 325.503 72.1887ZM353.686 72.1887C361.846 72.1887 366.982 68.3967 366.982 63.0207V62.4447H357.958V62.9727C357.958 64.4127 356.998 65.0367 353.35 65.0367C349.51 65.0367 348.214 64.2207 348.07 61.2927H367.03C367.126 60.4287 367.174 59.8047 367.174 58.9887C367.174 51.2127 361.846 47.0367 353.494 47.0367C345.43 47.0367 339.718 51.7407 339.718 59.6127C339.718 68.6847 345.478 72.1887 353.686 72.1887ZM353.302 53.9487C356.662 53.9487 358.102 54.6687 358.438 56.7327H348.214C348.598 54.6687 349.99 53.9487 353.302 53.9487ZM378.612 71.7087V57.2607C378.612 55.3407 379.332 54.6207 381.78 54.6207C384.132 54.6207 384.9 55.3407 384.9 57.3567V60.1887H393.924V55.3887C393.924 50.5407 391.812 47.0367 386.484 47.0367C381.684 47.0367 379.188 49.8687 378.516 53.8527H378.036V47.5167H369.588V71.7087H378.612ZM408.846 72.1887C416.862 72.1887 421.374 68.9247 421.374 64.4127C421.374 60.3327 419.118 57.9807 412.062 57.2127L407.262 56.6847C404.43 56.3967 404.046 56.0607 404.046 55.3887C404.046 54.4767 404.43 54.0927 407.358 54.0927C411.006 54.0927 411.486 54.6687 411.486 55.9167V56.2047H420.51V56.0127C420.51 50.0607 416.046 47.0367 407.646 47.0367C398.574 47.0367 395.166 50.7327 395.166 55.0047C395.166 59.0847 397.854 61.4367 402.846 61.9647L409.854 62.7327C412.11 62.9727 412.494 63.1647 412.494 63.9327C412.494 64.7487 412.014 65.0847 408.894 65.0847C405.63 65.0847 404.766 64.9407 404.766 63.5967V63.1167H395.742V63.3087C395.742 68.8767 400.302 72.1887 408.846 72.1887ZM67.8447 120.189C78.6927 120.189 82.9167 115.293 82.9167 109.773C82.9167 105.645 80.8047 101.613 72.9327 100.461L62.8527 98.9727C61.1247 98.7327 60.5487 98.2527 60.5487 97.2447C60.5487 95.8527 61.5567 95.2287 66.1647 95.2287C72.2127 95.2287 73.2207 95.9967 73.2207 98.3007V99.0207H82.2447V98.7327C82.2447 91.5327 77.3487 87.0687 67.1247 87.0687C55.5087 87.0687 51.5247 92.4447 51.5247 97.5807C51.5247 102.765 54.5487 105.981 60.5487 106.797L70.6287 108.141C73.2687 108.477 73.8927 108.957 73.8927 110.109C73.8927 111.549 73.3167 111.981 67.8447 111.981C61.7967 111.981 61.0287 111.405 61.0287 109.245V108.237H52.0047V108.525C52.0047 116.685 58.0047 120.189 67.8447 120.189ZM92.8812 120.189C98.1132 120.189 101.089 118.029 102.001 114.621H102.481V119.709H110.929V105.933C110.929 99.1647 106.849 95.0367 98.4012 95.0367C90.1932 95.0367 84.8172 99.1647 84.8172 105.597V105.693H93.8412V105.501C93.8412 103.485 94.7532 102.909 97.7292 102.909C100.945 102.909 102.001 103.293 102.001 105.741V106.221L92.1612 107.181C86.6892 107.709 84.3372 110.157 84.3372 113.565C84.3372 117.693 87.4092 120.189 92.8812 120.189ZM93.4092 112.989C93.4092 112.461 93.7452 112.173 94.5612 112.077L101.953 111.213C101.713 113.373 99.9372 113.901 95.5692 113.901C94.1772 113.901 93.4092 113.757 93.4092 112.989ZM118.932 127.869C125.988 127.869 129.684 126.381 132.276 120.669L143.748 95.5167H133.668L130.068 104.925L128.484 110.589H127.86L126.132 105.021L121.956 95.5167H111.684L123.252 119.421C122.868 119.613 122.292 119.709 121.572 119.709H114.564V127.869H118.932ZM159.64 119.709L162.136 113.757H177.4L179.848 119.709H190.216L176.296 87.5487H163.384L149.512 119.709H159.64ZM167.416 101.133L169.48 95.7087H170.104L172.216 101.133L174.088 105.645H165.544L167.416 101.133ZM199.63 119.709V113.181H200.11C200.878 117.981 203.758 120.189 209.422 120.189C216.814 120.189 220.894 115.437 220.894 107.613C220.894 99.7407 216.91 95.0367 209.806 95.0367C204.094 95.0367 201.406 97.7247 200.686 101.757H200.206V87.5487H191.182V119.709H199.63ZM200.206 107.661V107.325C200.206 103.917 202.126 103.245 206.158 103.245C210.334 103.245 211.774 104.397 211.774 107.613C211.774 110.829 210.334 111.933 206.158 111.933C202.126 111.933 200.206 111.165 200.206 107.661ZM236.684 120.189C245.084 120.189 250.796 115.437 250.796 107.613C250.796 99.7407 245.084 95.0367 236.684 95.0367C228.284 95.0367 222.572 99.7407 222.572 107.613C222.572 115.437 228.284 120.189 236.684 120.189ZM236.684 112.221C232.604 112.221 231.5 111.117 231.5 107.613C231.5 104.109 232.604 102.957 236.684 102.957C240.764 102.957 241.868 104.109 241.868 107.613C241.868 111.117 240.764 112.221 236.684 112.221ZM262.899 120.189C269.475 120.189 272.163 116.397 272.691 112.365H273.171V119.709H281.619V95.5167H272.595V107.997C272.595 111.117 271.587 112.125 267.411 112.125C263.283 112.125 261.987 111.069 261.987 107.709V95.5167H252.963V111.021C252.963 116.253 256.131 120.189 262.899 120.189ZM302.419 119.709V111.597H298.099C296.035 111.597 295.459 111.117 295.459 109.197V102.909H302.419V95.5167H295.459V91.3407H286.435V95.5167H282.883V102.909H286.435V110.493C286.435 116.781 290.035 119.709 296.083 119.709H302.419ZM327.5 120.189C338.732 120.189 343.916 114.765 343.916 106.221V87.5487H334.892V105.501C334.892 110.061 333.596 111.453 327.5 111.453C321.404 111.453 320.108 110.061 320.108 105.501V87.5487H311.084V106.221C311.084 114.765 316.268 120.189 327.5 120.189ZM359.628 120.189C367.644 120.189 372.156 116.925 372.156 112.413C372.156 108.333 369.9 105.981 362.844 105.213L358.044 104.685C355.212 104.397 354.828 104.061 354.828 103.389C354.828 102.477 355.212 102.093 358.14 102.093C361.788 102.093 362.268 102.669 362.268 103.917V104.205H371.292V104.013C371.292 98.0607 366.828 95.0367 358.428 95.0367C349.356 95.0367 345.948 98.7327 345.948 103.005C345.948 107.085 348.636 109.437 353.628 109.965L360.636 110.733C362.892 110.973 363.276 111.165 363.276 111.933C363.276 112.749 362.796 113.085 359.676 113.085C356.412 113.085 355.548 112.941 355.548 111.597V111.117H346.524V111.309C346.524 116.877 351.084 120.189 359.628 120.189ZM391.171 109.005V108.765C391.171 107.757 391.363 107.085 393.091 106.413L396.691 105.069C399.715 103.917 403.219 101.997 403.219 96.7167C403.219 91.3407 399.379 87.0687 389.395 87.0687C377.731 87.0687 373.363 92.9247 373.363 99.4527V100.893H382.243V98.5887C382.243 96.3327 383.587 95.2767 388.723 95.2767C393.715 95.2767 394.195 96.0447 394.195 97.0527C394.195 98.1087 393.427 98.5407 391.555 99.2127L388.195 100.461C385.171 101.565 382.147 103.197 382.147 107.229V109.005H391.171ZM391.843 119.709V111.213H381.523V119.709H391.843Z" fill="black"/>
<path d="M160.078 20.7087V10.3947H164.812V8.64874H153.4V10.3947H158.152V20.7087H160.078ZM178.477 20.7087V18.9627H170.773V15.5067H178.207V13.7787H170.773V10.3947H178.477V8.64874H168.829V20.7087H178.477ZM187.929 20.8887C191.493 20.8887 192.987 19.1967 192.987 17.3607C192.987 15.5967 191.799 14.4987 189.387 14.0667L186.453 13.5627C185.031 13.2567 184.419 12.9147 184.419 11.8707C184.419 10.7907 185.283 10.2507 187.479 10.2507C189.981 10.2507 190.863 10.9887 190.863 12.4647V12.6987H192.789V12.5907C192.789 10.2327 191.187 8.46874 187.659 8.46874C183.915 8.46874 182.475 10.2327 182.475 11.9787C182.475 13.9587 183.915 14.8947 185.949 15.2547L188.901 15.7407C190.431 16.0287 191.043 16.4247 191.043 17.4687C191.043 18.6027 190.233 19.1067 187.929 19.1067C185.283 19.1067 184.437 18.3867 184.437 16.9467V16.6587H182.493V16.7667C182.493 19.3047 184.329 20.8887 187.929 20.8887ZM203.241 20.7087V10.3947H207.975V8.64874H196.563V10.3947H201.315V20.7087H203.241ZM213.937 20.7087V8.64874H211.993V20.7087H213.937ZM220.561 20.7087V13.3107L220.489 11.5647H220.633L221.371 13.3107L224.701 19.9887H227.041L230.371 13.3107L231.109 11.5647H231.253L231.181 13.3107V20.7087H233.125V8.64874H230.479L227.041 15.6327L225.979 18.1347H225.835L224.737 15.6327L221.263 8.64874H218.617V20.7087H220.561ZM243.731 20.8887C247.547 20.8887 250.031 18.4407 250.031 14.6787C250.031 10.9167 247.547 8.46874 243.731 8.46874C239.951 8.46874 237.449 10.9167 237.449 14.6787C237.449 18.4407 239.951 20.8887 243.731 20.8887ZM243.731 19.0167C240.869 19.0167 239.501 17.6847 239.501 14.6787C239.501 11.6727 240.869 10.3227 243.731 10.3227C246.593 10.3227 247.979 11.6727 247.979 14.6787C247.979 17.6847 246.593 19.0167 243.731 19.0167ZM256.292 20.7087V13.6347L256.22 11.5467H256.364L257.876 13.6707L263.312 20.7087H265.4V8.64874H263.456V15.7767L263.546 17.9547H263.402L261.836 15.7047L256.436 8.64874H254.348V20.7087H256.292ZM272.021 20.7087V8.64874H270.077V20.7087H272.021ZM277.961 20.7087L279.347 17.5767H285.719L287.105 20.7087H289.301L283.919 8.64874H281.183L275.801 20.7087H277.961ZM281.759 12.1587L282.461 10.4487H282.605L283.307 12.1587L284.945 15.8307H280.121L281.759 12.1587ZM302.459 20.7087V18.9627H295.025V8.64874H293.081V20.7087H302.459Z" fill="black"/>
</svg>
